<svg xmlns="http://www.w3.org/2000/svg" width="136.344" height="121.9" viewBox="0 0 136.344 121.9">
  <defs>
    <style>
      .cls-1 {
        fill: #fff;
        fill-rule: evenodd;
      }
    </style>
  </defs>
  <path id="f_logo.png" class="cls-1" d="M472.513,14999.6c0.481-.6.965-1.1,1.443-1.7,1.472-1.7,2.96-3.4,4.394-5.1a2.038,2.038,0,0,0,.411-1.2c0.106-4.7.136-9.5,0.284-14.2a9.886,9.886,0,0,1,.723-3.1,1.808,1.808,0,0,1,2.7-.8,8.761,8.761,0,0,1,3.839,5.5,3.2,3.2,0,0,1-.349,1.8c-0.8,2.1-1.674,4.1-2.5,6.2a4.57,4.57,0,0,0-.232,1,38,38,0,0,1,3.646-2.7,3.915,3.915,0,0,0,1.766-2.8c0.6-2.9,1.256-5.7,1.9-8.6a1.3,1.3,0,0,1,1.929-.9,7.451,7.451,0,0,1,4.312,5.5,5.056,5.056,0,0,1-.454,1.9h0.637c4.975-1.2,9.36.6,11.855,4.5a8.859,8.859,0,0,1,1.192,6.6,32.549,32.549,0,0,1-5.175,11.5,4.555,4.555,0,0,1-8.044-.7,6.333,6.333,0,0,1,.328-5c0.679-1.7,1.628-3.3,2.13-5a19.34,19.34,0,0,0,.668-5c0.029-1.4-.394-1.9-1.834-2a17.652,17.652,0,0,0-3.966.2,0.713,0.713,0,0,0-.434.5c-0.489,1.9-.957,3.9-1.411,5.8-0.241,1-.443,2.1-0.666,3.1a29.566,29.566,0,0,1,3.074.3,3.182,3.182,0,0,1,1.54.8,1.174,1.174,0,0,1-.189,2.1,39.541,39.541,0,0,1-4.455,2.3,1.52,1.52,0,0,0-1.038,1.4c-0.146,1.8-.294,3.6-0.428,5.4a2.481,2.481,0,0,0,.093.7c1.493-.2,2.943-0.3,4.381-0.6a47.243,47.243,0,0,1,10.61-.8c2.073,0.1,4.091.5,5.564,2.3a2.265,2.265,0,0,1,.169,3c-0.867,1.3-1.847,1.6-3.043,1.1a12.739,12.739,0,0,0-7.381-1.6,22.314,22.314,0,0,0-3.488.8c0.585,0.3,1.18.4,1.752,0.7,3,1.2,5.255,3.1,6.163,6.4a6.777,6.777,0,0,1-1.525,6.3c-0.64.8-1.387,1.5-2.159,2.3a5.153,5.153,0,0,0,1.108.4,4.357,4.357,0,0,1,2.8,5c-0.31,1.5-2.1,2.5-4.013,2.2a29.53,29.53,0,0,1-4.256-1.1c-3.9-1.7-7.418-.7-10.925,1.2-3.4,1.7-6.21,1.4-9.106-1.2a8.62,8.62,0,0,1-2.714-5.8c-0.141-1.2.635-1.8,2-1.5,1,0.2,1.961.7,2.967,0.8a18.777,18.777,0,0,0,4.073.5c3.622,0.1,7.246,0,10.869,0a2.077,2.077,0,0,0,2.024-1.1,25.924,25.924,0,0,0,2.051-3.9c0.889-2.5-.852-6-3.833-6.9a11.221,11.221,0,0,0-11.051,2.5c-0.8.7-1.53,1.5-2.3,2.2a2.159,2.159,0,0,1-2.545.6,1.879,1.879,0,0,1-.835-2.1,4.512,4.512,0,0,0-.045-0.5c-1.019.7-1.945,1.3-2.919,1.9a14.505,14.505,0,0,1-5.687,2.2,7.157,7.157,0,0,1-5.8-1.7,15.853,15.853,0,0,1-4.624-8.2c-0.266-1,.316-1.6,1.432-1.5,1.3,0.1,2.6.3,3.9,0.5a16,16,0,0,0,6.135-.9,0.639,0.639,0,0,0,.425-1,33.284,33.284,0,0,1-2.41-9.6,51.648,51.648,0,0,1-.122-14.4,21.157,21.157,0,0,1,1.5-5.5c0.523-1.1,1.033-1.3,1.962-.8a9.9,9.9,0,0,1,4.511,5.2c0.617,1.8-.053,3.4-0.63,5-0.632,1.8-1.47,3.6-2.057,5.4a29.367,29.367,0,0,0-.769,3.8A0.139,0.139,0,0,1,472.513,14999.6Zm-0.261,10.8c2.784-1.8,5.391-3.5,7.982-5.2a0.934,0.934,0,0,0,.48-0.7,11.759,11.759,0,0,0-.567-1.8c-0.52.3-.95,0.5-1.371,0.8a27.84,27.84,0,0,1-2.627,1.5,1.972,1.972,0,0,1-1.257-.2,2.605,2.605,0,0,1,.378-1,17.018,17.018,0,0,1,2.7-2.2c1.355-.7,2.2-1.6,1.453-3.3a1.668,1.668,0,0,1-.027-0.5c-0.107-.7-0.228-1.4-0.4-2.4-1.624,1.8-3.069,3.3-4.465,4.9C471.979,15003.1,471.315,15006.5,472.252,15010.4Zm10.4-12a0.569,0.569,0,0,0,.424,0c1.315-.6,2.643-1.2,3.923-1.9a1.293,1.293,0,0,0,.4-1c0.087-1,.117-2,0.135-3.1,0.02-1.2,0-2.4,0-3.8-0.761.5-1.475,1-2.234,1.5-1.889,1.1-2.995,2.6-2.611,4.9a8.852,8.852,0,0,1-.038,1.4C482.646,14997,482.652,14997.7,482.652,14998.4Zm5.234,10c-0.129-2-.253-3.8-0.39-5.9-1.28.8-2.341,1.6-3.478,2.2a1.518,1.518,0,0,0-.94,2.1,5.607,5.607,0,0,1,.2,1.5,0.823,0.823,0,0,0,1.108.9C485.559,15008.9,486.725,15008.6,487.886,15008.4Zm-10.905,2,0.143,0.3c1.8-.4,3.611-0.8,5.46-1.2-0.425-1-.815-1.9-1.27-2.9C479.807,15007.9,478.394,15009.1,476.981,15010.4Zm10.031-10.1-0.118-.3c-0.941.3-1.893,0.5-2.823,0.9-1.482.4-1.563,0.6-1.145,2.4C484.324,15002.3,485.668,15001.3,487.012,15000.3Zm49.636,0.8c-1.215.3-2.476,0.5-3.635,0.9-1.559.6-3.034,1.4-4.554,2.1a4.9,4.9,0,0,0-2.472,3.2,1.187,1.187,0,0,1-.078.4c-0.215.3-.463,0.5-0.7,0.8a2.411,2.411,0,0,1-.633-0.9,13.887,13.887,0,0,1,.089-3.2,82.08,82.08,0,0,1,4.774-15c1.548-4,3.155-7.9,4.588-11.9a16.5,16.5,0,0,0,.945-7.5,5.016,5.016,0,0,0-6-4.2,6.1,6.1,0,0,0-4.842,5.1,5.221,5.221,0,0,1-4.467,4.1,5.506,5.506,0,0,1-5.506-3.4,8.35,8.35,0,0,1-.3-5,18.389,18.389,0,0,1,5.3-10.2,12.88,12.88,0,0,1,7.928-3.3,16.919,16.919,0,0,1,10.052,2.6,11.182,11.182,0,0,1,4.961,8.6c0.567,5.3-.811,10.1-2.7,14.9-1.7,4.4-4.145,8.3-6.4,12.3-1.2,2.1-2.2,4.4-3.275,6.6a4.833,4.833,0,0,0-.24.8c0.972-.3,1.8-0.6,2.659-0.8a30.684,30.684,0,0,1,10-.9,4.493,4.493,0,0,1,1.945.5,0.732,0.732,0,0,1,.285,1.3,17.136,17.136,0,0,1-3.083,2.7,26.584,26.584,0,0,0-6.659,5.5,12.874,12.874,0,0,0-3.09,7.1c-0.225,3.9,1.606,6.6,4.84,8.5,2.071,1.3,4.44,1.6,6.715,2.2,4.125,1.1,5.691,5.9,2.822,8.8a5.531,5.531,0,0,1-5.563,1.5c-4.021-1.1-7.856-2.5-11.014-5.4a13.856,13.856,0,0,1-4.076-6.6,19.92,19.92,0,0,1-.727-3.7c-0.384-4.1,1.423-7.5,3.838-10.6a36.348,36.348,0,0,1,7.607-7c0.249-.2.5-0.3,0.747-0.5C536.715,15001.4,536.682,15001.2,536.648,15001.1Zm36.584,24a11.957,11.957,0,0,0-.437-5.2c-1.266-3.8-4-6.4-7.4-8.3-0.108-.1-0.211-0.1-0.32-0.2-1.778-1-1.792-2.6-.046-3.7,1.564-.9,3.116-1.9,4.67-2.9a2.942,2.942,0,0,0,.327-0.3c-1.453.1-2.9,0.3-4.357,0.3-3.318.2-6.578-3.6-6.312-6.4a9.268,9.268,0,0,1,1.913-5c0.681-.9,1.269-0.9,2.086-0.1a1.95,1.95,0,0,1,.211.2c1.764,3,4.9,4.2,7.806,5.6,1.463,0.7,3.074,1.2,4.6,1.8,1.183,0.4,1.4,1.4.385,2.1a36.984,36.984,0,0,1-4.026,2.5c-1.848,1.2-3.66,2.5-5.7,3.9,1.149,0.4,2.071.8,2.982,1.2,4.726,2.1,8.47,5.3,10.306,10.3a20.688,20.688,0,0,1,.888,11.5,4.144,4.144,0,0,1-3.471,3.4,2.833,2.833,0,0,1-2.562-1.4,33.317,33.317,0,0,1-1.8-3.3,30.832,30.832,0,0,0-12.859-13.8,4.972,4.972,0,0,0-1.666-.6c-1.8-.2-2.8,1-2.794,3.2a10.841,10.841,0,0,0,6.976,9.7,9.513,9.513,0,0,0,2.923.1,1.154,1.154,0,0,0,.8-1.9,30.157,30.157,0,0,0-2.224-2.7,3.1,3.1,0,0,1-.387-0.8,2.683,2.683,0,0,1,.9,0,36.488,36.488,0,0,1,3.5,3,2.818,2.818,0,0,1-.114,3.6,6.888,6.888,0,0,1-8.231,2.3,17.309,17.309,0,0,1-11.022-10.4c-1.1-2.9-1.18-5.8.642-8.5,1.613-2.4,3.982-2.9,6.67-2.5,2.947,0.5,5.377,2.1,7.718,3.8,3.5,2.6,6.267,5.9,9.082,9.1C572.969,15024.8,573.051,15024.9,573.232,15025.1Zm-13.151-36c-1.4,3.1-2.891,6.2-3.23,9.7s0.4,6.8,1.12,10.1a1.276,1.276,0,0,1-1.833-.3,35.724,35.724,0,0,1-2.836-3.4,16.806,16.806,0,0,1-2.555-9.1c-0.074-2.6-.183-5.2-0.191-7.8-0.006-2,.163-4,0.165-6a5.632,5.632,0,0,0-.433-2,1.374,1.374,0,0,1,.608-2,3.467,3.467,0,0,1,3.409-.2,12.74,12.74,0,0,1,6.079,5.1,3.414,3.414,0,0,1,.539,1.8c-0.024,1,.542,1.1,1.255,1.2,6.289,1.2,12.391,2.9,17.986,6.1,3.439,1.9,5.5,5,6.761,8.7a21.624,21.624,0,0,1,1.256,7.2,13.635,13.635,0,0,1-.474,3,2.581,2.581,0,0,1-2.476,2.2,3.566,3.566,0,0,1-3.28-1.6,18.375,18.375,0,0,1-2.178-5.8c-0.766-2.9-1.09-6-2.868-8.5a15.294,15.294,0,0,0-6.884-5.4A37.572,37.572,0,0,0,560.081,14989.1Zm-36.688,7.8c-0.526,9.2-3.44,16.8-10.091,22.6a20.161,20.161,0,0,1-3.963,2.4,1.464,1.464,0,0,1-.627.2,1.83,1.83,0,0,1-.873-0.4,0.887,0.887,0,0,1,.255-0.8c0.673-.9,1.482-1.6,2.1-2.4a22.328,22.328,0,0,0,3.241-7.6c1.383-5.3,1.38-10.7,1.083-16.1-0.075-1.4-.363-2.8-0.327-4.2,0.105-3.9,1.441-3.8,4.435-2.7a6.692,6.692,0,0,1,4.075,4.9A37.829,37.829,0,0,1,523.393,14996.9Zm-61.447-33.8c2.438,0.3,4.571.5,6.708,0.7,2.23,0.3,4.465.4,6.695,0.6,3.872,0.4,7.742.8,11.613,1.1,4.957,0.5,9.914,1,14.873,1.4l6.507,0.6a0.678,0.678,0,0,1,.453.1,5.157,5.157,0,0,1,.854.8,2.974,2.974,0,0,1-1.085.6c-1.18,0-2.357-.2-3.536-0.3l-7.437-.6c-4.232-.5-8.461-0.9-12.695-1.3-3.435-.4-6.876-0.7-10.313-1l-12.451-1.2c-0.523,0-1.134-.1-0.993-0.8A2.549,2.549,0,0,1,461.946,14963.1Zm85.04,5.9a0.829,0.829,0,0,1-.544-0.5,1.258,1.258,0,0,1,.718-0.9c1.5-.2,3.028-0.3,4.545-0.5,3.563-.3,7.126-0.6,10.689-1,3.037-.2,6.076-0.5,9.111-0.7,1.857-.2,3.706-0.5,5.563-0.7,3.252-.3,6.509-0.5,9.762-0.8,2.012-.2,4.021-0.4,6.032-0.7a5.615,5.615,0,0,1,1.3,0,1.191,1.191,0,0,1,.582.8,1.244,1.244,0,0,1-.568.6c-2.163.2-4.331,0.5-6.5,0.7l-7.062.6c-3.034.3-6.071,0.6-9.1,0.8-2.1.2-4.2,0.5-6.3,0.7-1.451.2-2.9,0.3-4.355,0.4-3.562.4-7.124,0.7-10.687,1A28.467,28.467,0,0,1,546.986,14969Zm-29.88,59.6a4.365,4.365,0,0,1-4.373-4.4,4.479,4.479,0,0,1,4.458-4.4,4.276,4.276,0,0,1,4.421,4.4A4.232,4.232,0,0,1,517.106,15028.6Zm71.8,5.5a4.284,4.284,0,0,1-4.432-4.4A4.431,4.431,0,1,1,588.9,15034.1Zm-20.376-49a4.291,4.291,0,0,1-4.374-4.4,4.465,4.465,0,0,1,4.449-4.4,4.415,4.415,0,0,1,4.358,4.4A4.348,4.348,0,0,1,568.526,14985.1Zm-72.312,37.1a4.383,4.383,0,1,1-8.764.1A4.383,4.383,0,1,1,496.214,15022.2Zm37.642-6.8a4.355,4.355,0,1,1,8.71,0,4.421,4.421,0,0,1-4.339,4.4A4.326,4.326,0,0,1,533.856,15015.4Zm-5.128-83.7c0,5.2.007,10.4-.01,15.6,0,0.5.218,1.4-.709,1.4s-0.754-.8-0.754-1.4q-0.016-15.6-.009-31.2c0-.1,0-0.1,0-0.2,0.015-.6,0-1.2.782-1.2,0.747,0,.7.6,0.7,1.2,0.007,3.8,0,7.5,0,11.3Q528.729,14929.45,528.728,14931.7Zm15.82,28.4a2.037,2.037,0,0,1-.57-0.5,1.446,1.446,0,0,1,.371-1,14.185,14.185,0,0,1,1.924-1.1c7.586-4.3,15.173-8.5,22.76-12.8a0.83,0.83,0,0,1,.413-0.2c0.355,0.1.7,0.2,1.05,0.3a2.782,2.782,0,0,1-.417,1c-1.311.8-2.67,1.5-4.022,2.3-6.657,3.7-13.317,7.5-19.977,11.2C545.6,14959.6,545.109,14959.8,544.548,14960.1Zm-33.23,0c-0.833-.5-1.625-0.9-2.407-1.3-6.807-3.8-13.614-7.7-20.417-11.5-0.814-.4-1.6-0.9-2.416-1.4-0.547-.3-0.908-0.7-0.534-1.2a1.466,1.466,0,0,1,1.3,0c6.414,3.5,12.806,7.1,19.2,10.7,1.816,1.1,3.642,2.1,5.417,3.1a2.246,2.246,0,0,1,.457,1.2A2.662,2.662,0,0,1,511.318,14960.1Zm75.386,55.2a3.5,3.5,0,0,1,3.591,3.6,3.6,3.6,0,0,1-3.54,3.5,3.525,3.525,0,0,1-3.545-3.6A3.449,3.449,0,0,1,586.7,15015.3ZM504.65,14931a1.935,1.935,0,0,1,.615.6c4.132,6.3,8.252,12.7,12.369,19.1,0.291,0.5.462,1-.114,1.3-0.6.4-.914-0.1-1.187-0.5-2.011-3.1-4.012-6.2-6.017-9.4-2.093-3.2-4.192-6.5-6.276-9.7C503.559,14931.6,503.773,14931,504.65,14931Zm47.629,0.7c-0.172.3-.293,0.6-0.439,0.8q-5.961,9.3-11.928,18.6c-0.1.1-.213,0.3-0.33,0.4-0.314.4-.632,0.9-1.208,0.5a0.845,0.845,0,0,1,0-1.3q3.351-5.25,6.716-10.5c1.786-2.8,3.578-5.5,5.373-8.3a1.493,1.493,0,0,1,.576-0.7,0.713,0.713,0,0,1,.762-0.1A2.354,2.354,0,0,1,552.279,14931.7Zm-63.818,24.4c1.3,0.4,2.45.8,3.6,1.1,3.286,1,6.572,2.1,9.857,3.1,2.424,0.8,4.845,1.5,7.267,2.3a3.187,3.187,0,0,1,.5.2,8.585,8.585,0,0,1,.467.9,1.5,1.5,0,0,1-.98.4c-1.96-.5-3.894-1.2-5.841-1.8l-8.8-2.7c-2.01-.7-4.024-1.3-6.011-2a1.566,1.566,0,0,1-.68-0.9A2.721,2.721,0,0,1,488.461,14956.1Zm79.827,0.9a3,3,0,0,1-.795.6q-4.194,1.35-8.408,2.7c-3.253,1-6.506,2-9.759,3.1a23.485,23.485,0,0,1-2.576.7,1.488,1.488,0,0,1-.992-0.4,2.062,2.062,0,0,1,.479-0.9,29.608,29.608,0,0,1,2.9-1c3.724-1.1,7.452-2.3,11.178-3.4,2.251-.7,4.509-1.4,6.752-2.2C567.722,14956,567.993,14956.3,568.288,14957Zm-45.127-8a1.567,1.567,0,0,1-.712.6,0.989,0.989,0,0,1-.771-0.6c-0.631-1.9-1.2-3.9-1.777-5.8-0.8-2.7-1.608-5.4-2.4-8.1-0.428-1.4-.865-2.9-1.2-4.4a2.627,2.627,0,0,1,.41-1.1,1.792,1.792,0,0,1,.942.8c0.777,2.4,1.474,4.9,2.2,7.3,1.037,3.5,2.072,7.1,3.108,10.6C523.014,14948.5,523.06,14948.6,523.161,14949Zm16.68-18.7c-0.4,1.4-.754,2.6-1.108,3.8-0.908,3.1-1.809,6.3-2.729,9.4-0.526,1.8-1.076,3.6-1.631,5.4-0.147.4-.387,0.9-1,0.6a0.735,0.735,0,0,1-.407-1.1c1.524-5.2,3.026-10.4,4.547-15.6a27.379,27.379,0,0,1,.928-2.7,1.013,1.013,0,0,1,.863-0.5A2.106,2.106,0,0,1,539.841,14930.3Zm-0.232,77a2.707,2.707,0,0,1,2.781-2.9,2.767,2.767,0,0,1,2.818,2.8,2.812,2.812,0,0,1-2.834,2.9A2.615,2.615,0,0,1,539.609,15007.3Zm-56.146,14.1a2.743,2.743,0,0,1,2.828,2.8,2.9,2.9,0,0,1-2.846,2.9,2.985,2.985,0,0,1-2.85-3A2.86,2.86,0,0,1,483.463,15021.4Zm70.81-76.2a8.709,8.709,0,0,1-.854,1.1c-2.768,2.5-5.551,4.9-8.328,7.4-0.628.5-1.247,1.1-1.876,1.6a2.1,2.1,0,0,1-.586.5c-0.345,0-.712-0.1-1.07-0.1a1.871,1.871,0,0,1,.209-1c1.34-1.3,2.738-2.5,4.125-3.7,2.228-2,4.454-3.9,6.7-5.8a1.471,1.471,0,0,1,.919-0.3A2.848,2.848,0,0,1,554.273,14945.2Zm-51.579-.5c0.358,0.3.682,0.4,0.929,0.6,3.458,3,6.908,6.1,10.349,9.2a1.246,1.246,0,0,1,.479.7,0.963,0.963,0,0,1-.318.7,1.427,1.427,0,0,1-.913-0.2c-1.6-1.3-3.174-2.7-4.739-4.1q-3.048-2.7-6.056-5.4a1.3,1.3,0,0,1-.348-0.9A1.457,1.457,0,0,1,502.694,14944.7Z" transform="translate(-458.406 -14914.7)"/>
</svg>
