<svg id="logoA" xmlns="http://www.w3.org/2000/svg" width="110.5" height="98.8" viewBox="0 0 110.5 98.8">
  <defs>
    <style>
      .cls-1 {
        fill: #fff;
        fill-rule: evenodd;
      }
    </style>
  </defs>
  <path id="シェイプ_1" data-name="シェイプ 1" class="cls-1" d="M550.758,14029.6c0.391-.5.783-0.9,1.171-1.4,1.192-1.3,2.4-2.7,3.561-4.1a1.955,1.955,0,0,0,.333-1c0.086-3.8.11-7.7,0.23-11.5a7.917,7.917,0,0,1,.587-2.5,1.386,1.386,0,0,1,2.189-.6,6.758,6.758,0,0,1,3.112,4.4,2.888,2.888,0,0,1-.283,1.5c-0.648,1.7-1.356,3.3-2.029,5a4.49,4.49,0,0,0-.188.8c1.079-.8,1.96-1.6,2.956-2.2a3.055,3.055,0,0,0,1.431-2.2c0.488-2.4,1.018-4.7,1.542-7a0.984,0.984,0,0,1,1.564-.7,5.837,5.837,0,0,1,3.5,4.4,3.6,3.6,0,0,1-.368,1.5,0.9,0.9,0,0,0,.516,0c4.033-.9,7.587.5,9.609,3.7a7.078,7.078,0,0,1,.967,5.3,26.5,26.5,0,0,1-4.2,9.4,3.717,3.717,0,0,1-6.52-.6,5.242,5.242,0,0,1,.266-4.1,37.05,37.05,0,0,0,1.727-4,15.812,15.812,0,0,0,.541-4c0.023-1.2-.319-1.6-1.487-1.7a17.434,17.434,0,0,0-3.214.2,0.5,0.5,0,0,0-.352.4c-0.4,1.6-.776,3.1-1.144,4.7-0.195.8-.359,1.7-0.54,2.5,0.867,0.1,1.693.1,2.492,0.2a3.111,3.111,0,0,1,1.248.7,0.951,0.951,0,0,1-.152,1.7c-1.173.7-2.38,1.3-3.612,1.9a1.216,1.216,0,0,0-.842,1.1c-0.118,1.5-.238,2.9-0.346,4.4a3.839,3.839,0,0,0,.075.6c1.21-.2,2.386-0.3,3.551-0.5a41.392,41.392,0,0,1,8.6-.7,5.925,5.925,0,0,1,4.51,1.8,1.931,1.931,0,0,1,.137,2.5,1.893,1.893,0,0,1-2.467.9,10.452,10.452,0,0,0-5.982-1.3,9.848,9.848,0,0,0-2.827.7,7.754,7.754,0,0,1,1.42.5,7.668,7.668,0,0,1,5,5.2,5.487,5.487,0,0,1-1.236,5.1c-0.519.6-1.124,1.2-1.75,1.9,0.307,0.1.6,0.2,0.9,0.3a3.489,3.489,0,0,1,2.267,4,2.641,2.641,0,0,1-3.253,1.8,13.7,13.7,0,0,1-3.449-.9c-3.159-1.3-6.013-.5-8.856,1a5.908,5.908,0,0,1-7.38-1,6.683,6.683,0,0,1-2.2-4.6c-0.115-1.1.514-1.5,1.623-1.3,0.81,0.2,1.589.5,2.4,0.7a18.466,18.466,0,0,0,3.3.4h8.809a1.774,1.774,0,0,0,1.641-.9,20.479,20.479,0,0,0,1.662-3.2,4.678,4.678,0,0,0-3.106-5.6,9.429,9.429,0,0,0-8.958,2c-0.65.6-1.239,1.2-1.864,1.8a1.6,1.6,0,0,1-2.062.5,1.488,1.488,0,0,1-.677-1.7,2.78,2.78,0,0,0-.037-0.4c-0.826.6-1.576,1.1-2.366,1.6a12.583,12.583,0,0,1-4.609,1.8,5.8,5.8,0,0,1-4.7-1.5,12.087,12.087,0,0,1-3.748-6.6,0.917,0.917,0,0,1,1.161-1.2c1.056,0.1,2.1.3,3.16,0.4a12.1,12.1,0,0,0,4.973-.8c0.476-.1.506-0.4,0.345-0.8a26.12,26.12,0,0,1-1.954-7.7,42.071,42.071,0,0,1-.1-11.7,16.586,16.586,0,0,1,1.217-4.4c0.425-.9.838-1.1,1.591-0.7a7.975,7.975,0,0,1,3.657,4.2c0.5,1.4-.044,2.8-0.512,4.1-0.512,1.5-1.191,2.9-1.667,4.3a27.441,27.441,0,0,0-.624,3.1C550.678,14029.5,550.718,14029.6,550.758,14029.6Zm-0.21,8.8c2.256-1.5,4.369-2.8,6.469-4.2a0.779,0.779,0,0,0,.389-0.6,9.994,9.994,0,0,0-.46-1.5c-0.421.2-.769,0.4-1.11,0.6a10.985,10.985,0,0,1-2.13,1.3,2.024,2.024,0,0,1-1.019-.2,1.941,1.941,0,0,1,.307-0.8,11.468,11.468,0,0,1,2.185-1.7c1.1-.7,1.785-1.4,1.177-2.7a2.083,2.083,0,0,1-.022-0.5c-0.086-.5-0.184-1.1-0.321-1.9-1.316,1.4-2.487,2.7-3.618,3.9A8.76,8.76,0,0,0,550.548,14038.4Zm8.429-9.7h0.343c1.066-.6,2.143-1,3.18-1.6a1.1,1.1,0,0,0,.324-0.8c0.07-.8.1-1.7,0.109-2.5,0.017-1,0-2,0-3.1-0.616.4-1.2,0.8-1.811,1.2a3.651,3.651,0,0,0-2.116,4,6.631,6.631,0,0,1-.031,1.1C558.972,14027.5,558.977,14028.1,558.977,14028.7Zm4.242,8c-0.1-1.5-.205-3.1-0.316-4.7-1.038.6-1.9,1.2-2.818,1.7a1.3,1.3,0,0,0-.763,1.8,4.466,4.466,0,0,1,.164,1.2,0.659,0.659,0,0,0,.9.7C561.333,14037.2,562.279,14036.9,563.219,14036.7Zm-8.839,1.6c0.039,0.1.078,0.2,0.116,0.3,1.464-.3,2.927-0.7,4.426-1-0.345-.8-0.661-1.5-1.029-2.3C556.671,14036.3,555.526,14037.3,554.38,14038.3Zm8.131-8.1-0.1-.3a20.585,20.585,0,0,1-2.287.7c-1.2.4-1.268,0.6-.929,2C560.332,14031.8,561.422,14031,562.511,14030.2Zm40.232,0.6a28.634,28.634,0,0,0-2.946.8,28.255,28.255,0,0,0-3.691,1.7,3.909,3.909,0,0,0-2,2.6,1.459,1.459,0,0,1-.063.3c-0.175.2-.376,0.4-0.566,0.6a1.876,1.876,0,0,1-.513-0.7,11.322,11.322,0,0,1,.072-2.6,68.067,68.067,0,0,1,3.869-12.2c1.255-3.2,2.558-6.4,3.719-9.6a13.563,13.563,0,0,0,.766-6.1,4.087,4.087,0,0,0-4.862-3.4,4.933,4.933,0,0,0-3.924,4.2,4.233,4.233,0,0,1-3.62,3.3,4.563,4.563,0,0,1-4.464-2.8,6.631,6.631,0,0,1-.241-4,14.965,14.965,0,0,1,4.3-8.3,10.238,10.238,0,0,1,6.425-2.7,13.724,13.724,0,0,1,8.148,2.1,9.28,9.28,0,0,1,4.022,7c0.459,4.3-.658,8.2-2.188,12.1a77.507,77.507,0,0,1-5.185,9.9c-0.972,1.8-1.782,3.6-2.655,5.4a4.145,4.145,0,0,0-.194.7c0.788-.3,1.463-0.5,2.155-0.7a27.709,27.709,0,0,1,8.109-.8,4.359,4.359,0,0,1,1.576.4,0.717,0.717,0,0,1,.232,1.2,22.665,22.665,0,0,1-2.5,2.1,21.033,21.033,0,0,0-5.4,4.5,10.225,10.225,0,0,0-2.5,5.7,7.346,7.346,0,0,0,3.922,7,25.228,25.228,0,0,0,5.443,1.7c3.343,0.9,4.613,4.8,2.287,7.1a4.478,4.478,0,0,1-4.508,1.2,20.087,20.087,0,0,1-8.928-4.3,11.625,11.625,0,0,1-3.3-5.4,16.152,16.152,0,0,1-.589-3c-0.312-3.3,1.153-6.1,3.111-8.6a28.266,28.266,0,0,1,6.166-5.6c0.2-.2.4-0.3,0.6-0.5C602.8,14031,602.771,14030.9,602.743,14030.8Zm29.653,19.5a9.576,9.576,0,0,0-.354-4.2,12.414,12.414,0,0,0-6-6.8c-0.088,0-.171-0.1-0.259-0.1-1.441-.8-1.453-2.1-0.037-3,1.267-.8,2.525-1.6,3.785-2.4a0.4,0.4,0,0,0,.265-0.2l-3.532.3c-2.69.1-5.331-3-5.116-5.3a7.356,7.356,0,0,1,1.551-4c0.551-.8,1.028-0.8,1.69-0.1a1.436,1.436,0,0,1,.171.1c1.43,2.5,3.975,3.4,6.327,4.6,1.186,0.6,2.492.9,3.73,1.4,0.96,0.4,1.136,1.2.313,1.8-1.024.7-2.19,1.3-3.264,2-1.5,1-2.966,2-4.617,3.1,0.931,0.4,1.678.7,2.417,1,3.831,1.7,6.865,4.3,8.353,8.3a17.093,17.093,0,0,1,.72,9.4,3.363,3.363,0,0,1-2.813,2.8,2.412,2.412,0,0,1-2.077-1.2,27.453,27.453,0,0,1-1.458-2.7,24.726,24.726,0,0,0-10.422-11.1,3.375,3.375,0,0,0-1.351-.5c-1.457-.2-2.274.8-2.264,2.6a8.669,8.669,0,0,0,5.654,7.8,6.278,6.278,0,0,0,2.37.1,0.9,0.9,0,0,0,.646-1.5,22.238,22.238,0,0,0-1.8-2.2,2.627,2.627,0,0,1-.314-0.7,1.771,1.771,0,0,1,.729,0,27.6,27.6,0,0,1,2.837,2.5,2.257,2.257,0,0,1-.092,2.9,5.56,5.56,0,0,1-6.671,1.8,13.649,13.649,0,0,1-8.935-8.4,7.187,7.187,0,0,1,.521-6.9,4.964,4.964,0,0,1,5.406-2,14.789,14.789,0,0,1,6.256,3.1,44.705,44.705,0,0,1,7.362,7.4A0.678,0.678,0,0,1,632.4,14050.3Zm-10.66-29.2c-1.132,2.5-2.342,5-2.618,7.9a26.488,26.488,0,0,0,.908,8.2,1.144,1.144,0,0,1-1.485-.3,27.232,27.232,0,0,1-2.3-2.8,13.188,13.188,0,0,1-2.071-7.3c-0.06-2.1-.148-4.2-0.155-6.3,0-1.7.133-3.3,0.134-4.9a5.431,5.431,0,0,0-.351-1.7,1.1,1.1,0,0,1,.493-1.6,3.352,3.352,0,0,1,2.763-.2,10.765,10.765,0,0,1,4.927,4.2,2.859,2.859,0,0,1,.437,1.5,0.96,0.96,0,0,0,1.017,1,44.368,44.368,0,0,1,14.579,4.9,12.1,12.1,0,0,1,5.48,7,18.161,18.161,0,0,1,1.018,5.9,10.755,10.755,0,0,1-.384,2.4,2.083,2.083,0,0,1-2.007,1.8,2.839,2.839,0,0,1-2.659-1.3,14.558,14.558,0,0,1-1.765-4.7c-0.621-2.4-.884-4.8-2.325-6.9a12.686,12.686,0,0,0-5.579-4.4A31.536,31.536,0,0,0,621.736,14021.1ZM592,14027.4c-0.426,7.5-2.788,13.6-8.179,18.4a18.5,18.5,0,0,1-3.212,1.9,0.487,0.487,0,0,1-.508.1,0.851,0.851,0,0,1-.708-0.3,0.9,0.9,0,0,1,.207-0.7,21.476,21.476,0,0,0,1.7-1.9,17.707,17.707,0,0,0,2.627-6.2,41.724,41.724,0,0,0,.877-13c-0.061-1.1-.294-2.2-0.264-3.3,0.084-3.2,1.167-3.2,3.594-2.3a5.529,5.529,0,0,1,3.3,4A30.122,30.122,0,0,1,592,14027.4Zm-49.805-27.4c1.976,0.3,3.705.5,5.437,0.6,1.807,0.2,3.619.3,5.426,0.5l9.413,0.9c4.018,0.4,8.036.8,12.055,1.1,1.757,0.2,3.517.3,5.275,0.5a0.468,0.468,0,0,1,.367.1c0.247,0.2.464,0.4,0.692,0.6a1.994,1.994,0,0,1-.879.5,27.58,27.58,0,0,1-2.866-.2l-6.028-.6c-3.431-.3-6.858-0.7-10.29-1-2.784-.3-5.574-0.5-8.359-0.8l-10.093-.9c-0.423-.1-0.919-0.1-0.8-0.7A1.939,1.939,0,0,1,542.194,14000Zm68.929,4.8a0.855,0.855,0,0,1-.441-0.4,0.874,0.874,0,0,1,.581-0.7c1.221-.2,2.455-0.3,3.685-0.4,2.888-.3,5.775-0.5,8.664-0.8,2.461-.2,4.925-0.4,7.385-0.7,1.5-.1,3-0.3,4.508-0.4,2.636-.3,5.276-0.5,7.913-0.7l4.889-.6a3.692,3.692,0,0,1,1.05,0,1.026,1.026,0,0,1,.472.6,0.59,0.59,0,0,1-.46.5l-5.269.6c-1.907.2-3.815,0.4-5.724,0.5-2.459.2-4.921,0.4-7.379,0.7-1.7.1-3.4,0.3-5.1,0.5-1.176.1-2.352,0.3-3.529,0.4-2.888.2-5.775,0.5-8.664,0.8C612.923,14004.7,612.143,14004.8,611.123,14004.8Zm-24.22,48.3a3.55,3.55,0,1,1,.069-7.1A3.551,3.551,0,1,1,586.9,14053.1Zm58.194,4.5a3.515,3.515,0,0,1-3.592-3.6,3.591,3.591,0,1,1,7.182,0A3.55,3.55,0,0,1,645.1,14057.6Zm-16.515-39.8a3.439,3.439,0,0,1-3.545-3.5,3.569,3.569,0,1,1,7.138,0A3.485,3.485,0,0,1,628.582,14017.8Zm-58.613,30.2a3.594,3.594,0,0,1-3.532,3.6,3.684,3.684,0,0,1-3.571-3.6A3.552,3.552,0,1,1,569.969,14048Zm30.511-5.6a3.531,3.531,0,1,1,7.06,0,3.644,3.644,0,0,1-3.517,3.6A3.563,3.563,0,0,1,600.48,14042.4Zm-4.156-67.8c0,4.2,0,8.4-.009,12.6,0,0.4.178,1.1-.574,1.2-0.759,0-.611-0.7-0.611-1.2-0.009-8.4-.007-16.9-0.007-25.3,0,0,0-.1,0-0.1,0.013-.5,0-1,0.635-1,0.605,0,.563.5,0.564,0.9q0.009,4.65,0,9.3v3.6Zm12.822,23a1.039,1.039,0,0,1-.461-0.5,1.007,1.007,0,0,1,.3-0.7,9.876,9.876,0,0,1,1.559-.9c6.149-3.5,12.3-6.9,18.449-10.4,0.11,0,.232-0.1.334-0.1a2.616,2.616,0,0,1,.852.2,3.045,3.045,0,0,1-.338.8c-1.063.6-2.164,1.2-3.26,1.9l-16.193,9A5.668,5.668,0,0,1,609.146,13997.6Zm-26.934,0c-0.675-.4-1.317-0.7-1.951-1.1q-8.275-4.65-16.549-9.3a19.737,19.737,0,0,1-1.958-1.1c-0.443-.2-0.736-0.6-0.433-1a0.99,0.99,0,0,1,1.053,0q7.8,4.35,15.562,8.7c1.472,0.8,2.952,1.7,4.391,2.5a1.79,1.79,0,0,1,.37,1A1.568,1.568,0,0,0,582.212,13997.6Zm61.1,44.7a2.836,2.836,0,0,1,2.91,2.9,2.933,2.933,0,0,1-2.869,2.9,2.854,2.854,0,0,1-2.873-2.9A2.928,2.928,0,0,1,643.316,14042.3Zm-66.509-68.3a1.291,1.291,0,0,1,.5.5c3.349,5.1,6.689,10.3,10.026,15.5,0.235,0.4.374,0.8-.093,1.1-0.489.3-.741-0.1-0.962-0.5-1.63-2.5-3.252-5-4.877-7.6-1.7-2.6-3.4-5.2-5.087-7.9C575.923,13974.5,576.1,13974,576.807,13974Zm38.606,0.6a4.875,4.875,0,0,1-.356.6c-3.221,5.1-6.444,10.1-9.668,15.1a1.7,1.7,0,0,0-.268.4c-0.254.3-.512,0.7-0.979,0.3-0.436-.3-0.222-0.7,0-1,1.81-2.9,3.626-5.7,5.444-8.5,1.447-2.3,2.9-4.5,4.354-6.8a4.007,4.007,0,0,1,.467-0.6,0.674,0.674,0,0,1,.618,0A1.715,1.715,0,0,1,615.413,13974.6Zm-51.728,19.7c1.051,0.4,1.986.7,2.921,1,2.663,0.8,5.327,1.6,7.989,2.5l5.89,1.8a2.344,2.344,0,0,1,.41.2,6.484,6.484,0,0,1,.378.7,1.437,1.437,0,0,1-.794.3c-1.589-.4-3.156-0.9-4.735-1.4-2.376-.8-4.757-1.5-7.133-2.2-1.629-.5-3.262-1-4.872-1.6a1.317,1.317,0,0,1-.551-0.8A2.648,2.648,0,0,1,563.685,13994.3Zm64.7,0.8c-0.207.1-.4,0.4-0.645,0.5-2.265.7-4.542,1.4-6.814,2.1-2.638.9-5.274,1.7-7.911,2.5-0.694.2-1.378,0.5-2.088,0.7a3.635,3.635,0,0,1-.8-0.4,1.993,1.993,0,0,1,.388-0.7,19.783,19.783,0,0,1,2.355-.8c3.018-.9,6.039-1.9,9.06-2.8,1.825-.6,3.655-1.1,5.472-1.7C627.93,13994.3,628.15,13994.5,628.389,13995.1Zm-36.578-6.5a1.887,1.887,0,0,1-.576.5,0.919,0.919,0,0,1-.626-0.5c-0.511-1.6-.969-3.1-1.44-4.7-0.65-2.2-1.3-4.4-1.942-6.5-0.347-1.2-.7-2.4-0.971-3.6a1.824,1.824,0,0,1,.332-0.9,1.709,1.709,0,0,1,.764.6c0.63,2,1.2,4,1.779,5.9,0.84,2.9,1.68,5.8,2.519,8.6C591.693,13988.2,591.73,13988.3,591.811,13988.6Zm13.521-15.2c-0.327,1.1-.612,2.1-0.9,3.1-0.737,2.6-1.467,5.1-2.213,7.6-0.426,1.5-.872,2.9-1.322,4.4-0.119.4-.314,0.7-0.809,0.5-0.459-.1-0.454-0.5-0.33-0.9,1.235-4.2,2.452-8.4,3.685-12.6a15.991,15.991,0,0,1,.753-2.2,0.924,0.924,0,0,1,.7-0.4A1.313,1.313,0,0,1,605.332,13973.4Zm-0.189,62.4a2.195,2.195,0,0,1,2.254-2.3,2.3,2.3,0,0,1-.013,4.6A2.113,2.113,0,0,1,605.143,14035.8Zm-45.508,11.5a2.212,2.212,0,0,1,2.291,2.3,2.371,2.371,0,0,1-2.306,2.3,2.457,2.457,0,0,1-2.31-2.4A2.242,2.242,0,0,1,559.635,14047.3Zm57.394-61.8a3.933,3.933,0,0,1-.692.9q-3.366,3-6.75,6c-0.509.4-1.011,0.9-1.521,1.3a0.782,0.782,0,0,1-.475.4,2.6,2.6,0,0,1-.867-0.1,1.392,1.392,0,0,1,.169-0.8c1.087-1,2.22-2,3.344-3,1.806-1.6,3.61-3.1,5.434-4.7a0.978,0.978,0,0,1,.746-0.2A1.648,1.648,0,0,1,617.029,13985.5Zm-41.808-.4a5.474,5.474,0,0,1,.754.5c2.8,2.5,5.6,4.9,8.388,7.4a1.461,1.461,0,0,1,.388.6,0.822,0.822,0,0,1-.257.6,0.983,0.983,0,0,1-.74-0.2c-1.3-1.1-2.573-2.2-3.842-3.3-1.647-1.4-3.288-2.9-4.908-4.4a0.955,0.955,0,0,1-.282-0.7A1.2,1.2,0,0,1,575.221,13985.1Z" transform="translate(-539.344 -13960.8)"/>
</svg>
