<svg xmlns="http://www.w3.org/2000/svg" viewBox="0 0 4.89 4.89"><defs><style>.cls-1{fill:#ffb62a;}.cls-2{fill:#fff;}</style></defs><g id="Layer_2" data-name="Layer 2"><g id="design"><circle class="cls-1" cx="2.44" cy="2.44" r="2.44"/><path class="cls-2" d="M3.41,3l-.35-.19a.2.2,0,0,0-.26.05L2.66,3a1.72,1.72,0,0,1-.44-.38,1.34,1.34,0,0,1-.3-.48L2.16,2a.21.21,0,0,0,.08-.25L2.07,1.4a.16.16,0,0,0-.23-.07c-.16.09-.41.25-.44.44A1.61,1.61,0,0,0,1.79,3,1.7,1.7,0,0,0,3,3.58c.2,0,.4-.24.52-.4A.16.16,0,0,0,3.41,3Z"/></g></g></svg>