<svg xmlns="http://www.w3.org/2000/svg" width="50.374" height="50.374" viewBox="0 0 50.374 50.374">
  <g id="Group_287" data-name="Group 287" transform="translate(-500.752 -1201.437)">
    <g id="Group_167" data-name="Group 167" transform="translate(501.502 1202.187)">
      <circle id="Ellipse_2" data-name="Ellipse 2" cx="9.668" cy="9.668" r="9.668" transform="translate(25.5 44.33) rotate(-76.869)" fill="none" stroke="#000" stroke-linecap="round" stroke-miterlimit="10" stroke-width="1.5"/>
      <g id="Group_166" data-name="Group 166" transform="translate(34 32)">
        <path id="Path_221" data-name="Path 221" d="M601.1,1295.365c0-1.89-3.422-6.572-3.422-6.572s-3.422,4.682-3.422,6.572a3.422,3.422,0,0,0,6.844,0Z" transform="translate(-594.251 -1288.793)" stroke="#000" stroke-miterlimit="10" stroke-width="1.5"/>
      </g>
      <path id="Path_222" data-name="Path 222" d="M543.449,1265.7a5.077,5.077,0,0,1-5.535-3.717l-.01-.037a1.494,1.494,0,0,0-2.884,0l-.009.036a5.076,5.076,0,0,1-4.9,3.755h0a5.049,5.049,0,0,1-3.9-1.835,19.144,19.144,0,0,1-4.036-8.336" transform="translate(-515.017 -1236.781)" fill="none" stroke="#000" stroke-linecap="round" stroke-miterlimit="10" stroke-width="1.5"/>
      <path id="Path_223" data-name="Path 223" d="M595.052,1254.956a19.094,19.094,0,0,1-3.08,7.241" transform="translate(-559.946 -1236.337)" fill="none" stroke="#000" stroke-linecap="round" stroke-miterlimit="10" stroke-width="1.5"/>
      <path id="Path_224" data-name="Path 224" d="M540.653,1220.767a65.14,65.14,0,0,1,2.068,6.417,1.406,1.406,0,0,0,2.435.542,15.686,15.686,0,0,0,3.612-10.561,2.75,2.75,0,0,1,.641-1.888,8.887,8.887,0,0,0,1.627-3.48,7.6,7.6,0,0,0-13.3-6.718,7.6,7.6,0,0,0-13.293,6.746,8.862,8.862,0,0,0,1.616,3.446,2.774,2.774,0,0,1,.645,1.9,15.687,15.687,0,0,0,3.6,10.543,1.408,1.408,0,0,0,2.444-.531,65.135,65.135,0,0,1,2.067-6.416A3.126,3.126,0,0,1,540.653,1220.767Z" transform="translate(-516.443 -1202.187)" fill="none" stroke="#000" stroke-linecap="round" stroke-miterlimit="10" stroke-width="1.5"/>
      <path id="Path_225" data-name="Path 225" d="M561.223,1210.095a10.752,10.752,0,0,1,1.4,2.458" transform="translate(-540.057 -1207.202)" fill="none" stroke="#000" stroke-linecap="round" stroke-miterlimit="10" stroke-width="1.5"/>
      <path id="Path_226" data-name="Path 226" d="M509.347,1239.4h-3.586a4.259,4.259,0,0,0-4.259,4.259v27.211a2.472,2.472,0,0,0,2.473,2.472h24.964" transform="translate(-501.502 -1227.29)" fill="none" stroke="#000" stroke-linecap="round" stroke-miterlimit="10" stroke-width="1.5"/>
      <path id="Path_227" data-name="Path 227" d="M599.5,1239.4h3.588a4.259,4.259,0,0,1,4.258,4.259v9.446" transform="translate(-565.15 -1226.36)" fill="none" stroke="#000" stroke-linecap="round" stroke-miterlimit="10" stroke-width="1.5"/>
    </g>
  </g>
</svg>
