<svg xmlns="http://www.w3.org/2000/svg" width="57.502" height="38.503" viewBox="0 0 57.502 38.503">
  <g id="Group_278" data-name="Group 278" transform="translate(-63.358 -804.086)">
    <g id="Group_160" data-name="Group 160" transform="translate(100.718 809.697)">
      <line id="Line_12" data-name="Line 12" x1="2.639" y1="5.024" transform="translate(2.124)" fill="none" stroke="#000" stroke-linecap="round" stroke-linejoin="round" stroke-width="1.5"/>
      <line id="Line_13" data-name="Line 13" x1="0.938" y1="3.75" transform="translate(6.046 0.046)" fill="none" stroke="#000" stroke-linecap="round" stroke-linejoin="round" stroke-width="1.5"/>
      <line id="Line_14" data-name="Line 14" x1="2.555" y1="2.9" transform="translate(0 3.222)" fill="none" stroke="#000" stroke-linecap="round" stroke-linejoin="round" stroke-width="1.5"/>
    </g>
    <path id="Path_200" data-name="Path 200" d="M95.521,819.15a50.207,50.207,0,0,1,1.593,4.944,1.083,1.083,0,0,0,1.876.417,12.086,12.086,0,0,0,2.783-8.136,2.118,2.118,0,0,1,.493-1.454,6.843,6.843,0,0,0,1.254-2.681,5.857,5.857,0,0,0-10.247-5.176,5.852,5.852,0,0,0-10.242,5.2,6.824,6.824,0,0,0,1.245,2.655,2.138,2.138,0,0,1,.5,1.463,12.084,12.084,0,0,0,2.776,8.122,1.084,1.084,0,0,0,1.883-.409,50.2,50.2,0,0,1,1.593-4.943A2.408,2.408,0,0,1,95.521,819.15Z" transform="translate(-11.786 0)" fill="none" stroke="#000" stroke-linecap="round" stroke-miterlimit="10" stroke-width="1.5"/>
    <path id="Path_201" data-name="Path 201" d="M111,810.85a12.623,12.623,0,0,1,.675,2.146" transform="translate(-29.255 -3.785)" fill="none" stroke="#000" stroke-linecap="round" stroke-miterlimit="10" stroke-width="1.5"/>
    <g id="Group_161" data-name="Group 161" transform="translate(97.177 818.87)">
      <path id="Path_202" data-name="Path 202" d="M160.016,851.147a50.224,50.224,0,0,1,4.606,2.4,1.083,1.083,0,0,0,1.629-1.02,12.085,12.085,0,0,0-3.733-7.747,2.119,2.119,0,0,1-.67-1.382,6.841,6.841,0,0,0-.99-2.789,5.857,5.857,0,0,0-10.929,3.512,5.852,5.852,0,0,0-3.641,10.892,6.826,6.826,0,0,0,2.75,1.016,2.137,2.137,0,0,1,1.381.693,12.085,12.085,0,0,0,7.681,3.833,1.084,1.084,0,0,0,1.053-1.614,50.226,50.226,0,0,1-2.338-4.637A2.408,2.408,0,0,1,160.016,851.147Z" transform="translate(-143.323 -837.597)" fill="none" stroke="#000" stroke-linecap="round" stroke-miterlimit="10" stroke-width="1.5"/>
      <path id="Path_203" data-name="Path 203" d="M161.145,855.205a8.277,8.277,0,0,1,2.1.588" transform="translate(-154.54 -848.68)" fill="none" stroke="#000" stroke-linecap="round" stroke-miterlimit="10" stroke-width="1.5"/>
    </g>
    <path id="Path_204" data-name="Path 204" d="M98.865,843.257H94.344a2.061,2.061,0,0,0-2.022,1.634c-.59,2.855-1.791,6.322-3.973,7.419-1.47.739-4.029.542-6.008-3.725a.944.944,0,0,0-1.71,0c-1.978,4.267-4.537,4.464-6.008,3.725-2.182-1.1-3.383-4.564-3.973-7.419a2.06,2.06,0,0,0-2.022-1.634H64.108" transform="translate(0 -23.134)" fill="none" stroke="#000" stroke-linecap="round" stroke-miterlimit="10" stroke-width="1.5"/>
  </g>
</svg>
