<svg xmlns="http://www.w3.org/2000/svg" width="35.507" height="48.5" viewBox="0 0 35.507 48.5">
  <g id="Group_174" data-name="Group 174" transform="translate(0.257 0.25)">
    <path id="Path_104" data-name="Path 104" d="M2332.154,1378.778a8.144,8.144,0,0,1,8.007-.66l.082.032a9.325,9.325,0,0,0,3.87.764.679.679,0,0,0-.029-1.357,8.183,8.183,0,0,1-3.355-.67l-.083-.033a9.438,9.438,0,0,0-9.291.837c-2.451,1.87-3.607,5.137-3.256,9.2a21.25,21.25,0,0,0,4.243,10.643,2.49,2.49,0,0,1,.415,1.665c-1.081,6.332.784,13.917,3.134,16.764a2.8,2.8,0,0,0,2.07,1.227c2.132,0,2.656-3.077,3.264-6.638.6-3.542,1.289-7.558,3.531-7.562s2.928,4.019,3.532,7.562c.607,3.562,1.132,6.638,3.263,6.638a2.9,2.9,0,0,0,2.147-1.271c2.35-2.845,4.176-10.08,3.029-16.8a2.561,2.561,0,0,1,.414-1.676,21.394,21.394,0,0,0,4.272-10.547,15.087,15.087,0,0,0-.024-3.015.666.666,0,1,0-1.323.158,13.666,13.666,0,0,1,.02,2.737,20.355,20.355,0,0,1-4,9.835,3.874,3.874,0,0,0-.673,2.739c1.143,6.7-.854,13.421-2.736,15.7a1.808,1.808,0,0,1-1.128.788c-1.01,0-1.532-3.057-1.95-5.513-.694-4.069-1.48-8.681-4.845-8.686s-4.15,4.617-4.843,8.686c-.419,2.456-.94,5.513-1.951,5.513-.277,0-.66-.271-1.051-.744-1.908-2.311-3.912-9.385-2.841-15.657a3.841,3.841,0,0,0-.679-2.733,20.1,20.1,0,0,1-3.964-9.926C2329.113,1383.143,2330.056,1380.379,2332.154,1378.778Z" transform="translate(-2328.037 -1369.19)" stroke="#000" stroke-width="0.5"/>
    <path id="Path_105" data-name="Path 105" d="M2517.649,1315.251c4.322,1.139,5.861,2.481,7.068,8.653a.684.684,0,0,0,1.343,0c1.207-6.171,2.745-7.513,7.068-8.653a.684.684,0,0,0,0-1.323c-4.322-1.138-5.861-2.481-7.068-8.652a.684.684,0,0,0-1.343,0c-1.207,6.172-2.745,7.514-7.068,8.652a.684.684,0,0,0,0,1.323Zm7.739-6.9c1.01,3.4,2.48,5.115,5.326,6.238-2.846,1.123-4.316,2.835-5.326,6.238-1.01-3.4-2.48-5.115-5.326-6.238C2522.908,1313.466,2524.378,1311.755,2525.388,1308.351Z" transform="translate(-2498.637 -1304.722)" stroke="#000" stroke-width="0.5"/>
  </g>
</svg>
