<svg id="Group_286" data-name="Group 286" xmlns="http://www.w3.org/2000/svg" width="56" height="46" viewBox="0 0 56 46">
  <path id="Path_112" data-name="Path 112" d="M572.919,2238.939c2.4-1.8,5.866-2.079,9.265-.75l.093.037a11.078,11.078,0,0,0,4.479.869.771.771,0,0,0-.016-1.542h-.017a9.5,9.5,0,0,1-3.883-.762l-.1-.038c-3.9-1.525-7.917-1.17-10.75.951s-4.174,5.835-3.768,10.451a21.776,21.776,0,0,0,1.681,6.561.771.771,0,0,0,1.42-.6,20.247,20.247,0,0,1-1.565-6.1C569.4,2243.9,570.491,2240.758,572.919,2238.939Z" transform="translate(-560.033 -2235.819)"/>
  <path id="Path_113" data-name="Path 113" d="M636.81,2501.031a.771.771,0,0,0-1.367.712c1.121,2.153,2.376,3.291,3.627,3.291,2.466,0,3.073-3.494,3.776-7.54.7-4.024,1.491-8.585,4.085-8.589s3.389,4.565,4.088,8.589c.7,4.046,1.31,7.541,3.776,7.541,2.551,0,4.684-4.5,5.665-8.963a.771.771,0,0,0-1.505-.332c-1.112,5.059-3.13,7.753-4.159,7.753-1.169,0-1.773-3.473-2.257-6.263-.8-4.622-1.713-9.86-5.606-9.867s-4.8,5.245-5.6,9.867c-.484,2.79-1.088,6.262-2.257,6.262C638.618,2503.493,637.756,2502.848,636.81,2501.031Z" transform="translate(-619.176 -2459.034)"/>
  <path id="Path_114" data-name="Path 114" d="M699.311,2241.149a.771.771,0,0,0,1.313-.808c-1.883-3.06-5.419-4.664-9.462-4.3a9.843,9.843,0,0,0-5.348,2.411c-1.979,1.483-4.024,3.022-9.013,2.832a.771.771,0,0,0-.057,1.541q.443.016.859.016a13.222,13.222,0,0,0,9.136-3.156,8.362,8.362,0,0,1,4.564-2.108C694.8,2237.257,697.718,2238.56,699.311,2241.149Z" transform="translate(-655.043 -2235.971)"/>
  <path id="Path_115" data-name="Path 115" d="M795.319,2306.552a8.258,8.258,0,1,0-16.342-1.685c0,.1.01.2.014.3a7.027,7.027,0,0,0,1.022,13.077,5.329,5.329,0,1,0,10.492,1.315c0-.086,0-.172-.006-.257a7,7,0,0,0,4.821-12.747Zm-3.914,11.263a5.457,5.457,0,0,1-1.62-.244.771.771,0,0,0-.97.947,3.787,3.787,0,1,1-7.284-.007c.162.011.323.025.488.025a7.027,7.027,0,0,0,2.072-.311.771.771,0,1,0-.454-1.473,5.49,5.49,0,0,1-4.426-9.964,8.123,8.123,0,0,0,.328,1.076.771.771,0,0,0,1.436-.561,6.718,6.718,0,1,1,11.834,1.316.771.771,0,0,0,1.278.863,8.246,8.246,0,0,0,.744-1.376,5.457,5.457,0,0,1-3.425,9.708Z" transform="translate(-742.406 -2289.619)"/>
  <path id="Path_116" data-name="Path 116" d="M502.791,2421.353a7.781,7.781,0,0,0,7.191,8.33q.291.021.581.021a7.782,7.782,0,0,0,7.748-7.212,7.8,7.8,0,0,0-1.4-5.04,6.342,6.342,0,0,0-4.467-10.323,6.366,6.366,0,0,0-6.392,4.066,4.929,4.929,0,1,0-3.143,9.281A7.874,7.874,0,0,0,502.791,2421.353Zm-1.377-3.47a3.386,3.386,0,0,1,4.266-5.145c-.01.086-.026.171-.032.258a6.392,6.392,0,0,0,.052,1.406.771.771,0,1,0,1.525-.227,4.867,4.867,0,0,1-.039-1.067,4.807,4.807,0,1,1,8.7,3.153,7.717,7.717,0,0,0-.915-.746.771.771,0,0,0-.876,1.269,6.268,6.268,0,0,1,2.681,5.594,6.239,6.239,0,1,1-12.445-.913,6.285,6.285,0,0,1,.138-.891,4.926,4.926,0,0,0,1.486-.385.771.771,0,1,0-.616-1.413,3.4,3.4,0,0,1-3.922-.894Z" transform="translate(-498.914 -2388.061)"/>
  <path id="Path_117" data-name="Path 117" d="M894.224,2543.942a3.268,3.268,0,1,0,3.269,3.268A3.272,3.272,0,0,0,894.224,2543.942Zm0,5a1.727,1.727,0,1,1,1.727-1.727A1.729,1.729,0,0,1,894.224,2548.937Z" transform="translate(-844.966 -2509.072)"/>
  <path id="Path_118" data-name="Path 118" d="M501.445,2362.379a3.548,3.548,0,1,0-3.548-3.548A3.552,3.552,0,0,0,501.445,2362.379Zm0-5.555a2.007,2.007,0,1,1-2.006,2.006A2.009,2.009,0,0,1,501.445,2356.824Z" transform="translate(-497.897 -2341.734)"/>
</svg>
