<svg xmlns="http://www.w3.org/2000/svg" width="38.508" height="48.5" viewBox="0 0 38.508 48.5">
  <g id="Group_303" data-name="Group 303" transform="translate(0.254 0.25)">
    <path id="Path_67" data-name="Path 67" d="M528.195,515.679a2.9,2.9,0,0,1,.479,1.933c-1.314,7.668.852,17.193,3.667,20.585a2.956,2.956,0,0,0,2.186,1.289c2.4,0,2.991-3.76,3.676-8.113.694-4.413,1.481-9.414,4.062-9.419s3.37,5.006,4.064,9.418c.685,4.353,1.276,8.113,3.676,8.113a2.855,2.855,0,0,0,2.112-1.245c2.8-3.37,5.053-13.074,3.774-20.534a2.863,2.863,0,0,1,.481-1.921,23.99,23.99,0,0,0,4.823-12.042c.338-3.895-.531-7.113-2.513-9.308a9.309,9.309,0,0,0-7.04-2.95,12.658,12.658,0,0,0-4.678.924c-.234.093-.463.189-.692.285a8.56,8.56,0,0,1-8.009,0c-.23-.1-.459-.192-.693-.285a12.657,12.657,0,0,0-4.678-.924,9.309,9.309,0,0,0-7.041,2.95c-1.982,2.194-2.851,5.413-2.513,9.308A24.15,24.15,0,0,0,528.195,515.679Zm-1.289-20.263a7.906,7.906,0,0,1,5.985-2.479,11.412,11.412,0,0,1,4.157.824c.225.089.446.182.668.275a9.933,9.933,0,0,0,9.1,0c.221-.093.442-.185.667-.275a11.413,11.413,0,0,1,4.157-.824,7.906,7.906,0,0,1,5.985,2.479c1.7,1.886,2.445,4.722,2.143,8.2a22.779,22.779,0,0,1-4.525,11.275,4.288,4.288,0,0,0-.764,3.064c1.3,7.563-1.223,16.656-3.459,19.351-.384.462-.754.728-1.016.728-1.179,0-1.78-3.82-2.262-6.89-.784-4.985-1.673-10.634-5.478-10.641s-4.691,5.657-5.475,10.641c-.483,3.07-1.084,6.89-2.262,6.89-.286,0-.684-.281-1.091-.772-2.256-2.72-4.684-11.63-3.352-19.4a4.324,4.324,0,0,0-.759-3.07,23.071,23.071,0,0,1-4.563-11.173C524.461,500.138,525.2,497.3,526.906,495.416Z" transform="translate(-523.266 -491.486)" stroke="#000" stroke-width="0.5"/>
    <path id="Path_68" data-name="Path 68" d="M593.522,555.247a4.449,4.449,0,0,1,3.7,2.181,10.032,10.032,0,0,0-.759,1.434.867.867,0,0,0,.292,1.065.62.62,0,0,0,.9-.347,6.242,6.242,0,0,1,11.887,0,.663.663,0,0,0,.595.434.578.578,0,0,0,.3-.086.867.867,0,0,0,.293-1.064,10.025,10.025,0,0,0-.761-1.439,4.449,4.449,0,0,1,3.7-2.181.8.8,0,0,0,0-1.583,5.667,5.667,0,0,0-4.6,2.561,7.117,7.117,0,0,0-10.935,0,5.666,5.666,0,0,0-4.6-2.561.8.8,0,0,0,0,1.583Z" transform="translate(-584.591 -546.344)" stroke="#000" stroke-width="0.5"/>
  </g>
</svg>
