<svg xmlns="http://www.w3.org/2000/svg" width="56.274" height="32.25" viewBox="0 0 56.274 32.25">
  <g id="Group_285" data-name="Group 285" transform="translate(0.149 0.125)">
    <path id="Path_106" data-name="Path 106" d="M1411.359,2342.439c-3.786,0-7.18,3.76-8.445,9.355a.71.71,0,0,0,.536.85.724.724,0,0,0,.157.018.71.71,0,0,0,.692-.554c1.116-4.934,3.952-8.249,7.059-8.249,2.45,0,4.765,2.053,6.192,5.492a.71.71,0,1,0,1.312-.544C1417.208,2344.819,1414.4,2342.439,1411.359,2342.439Z" transform="translate(-1399.333 -2331.535)" stroke="#000" stroke-width="0.25"/>
    <path id="Path_107" data-name="Path 107" d="M1566.383,2342.439c-3.786,0-7.18,3.76-8.445,9.355a.71.71,0,1,0,1.385.313c1.116-4.934,3.953-8.249,7.059-8.249s5.959,3.332,7.068,8.289a.71.71,0,0,0,.692.555.741.741,0,0,0,.156-.017.71.71,0,0,0,.538-.848C1573.579,2346.216,1570.182,2342.439,1566.383,2342.439Z" transform="translate(-1538.01 -2331.535)" stroke="#000" stroke-width="0.25"/>
    <path id="Path_108" data-name="Path 108" d="M1728.533,2342.439c-3.088,0-5.914,2.433-7.561,6.507a.71.71,0,0,0,1.317.533c1.422-3.519,3.756-5.619,6.244-5.619,3.118,0,5.959,3.332,7.068,8.289a.71.71,0,0,0,.693.555.74.74,0,0,0,.156-.017.71.71,0,0,0,.538-.848C1735.729,2346.216,1732.332,2342.439,1728.533,2342.439Z" transform="translate(-1683.807 -2331.535)" stroke="#000" stroke-width="0.25"/>
    <path id="Path_109" data-name="Path 109" d="M1448.076,2468.675a.708.708,0,0,0-.706.71v3.337a2.774,2.774,0,0,1-2.9,2.626h-9.206a2.774,2.774,0,0,1-2.9-2.626v-3.337a.706.706,0,1,0-1.411,0v3.337a2.774,2.774,0,0,1-2.9,2.626h-9.206a2.774,2.774,0,0,1-2.9-2.626v-3.337a.706.706,0,1,0-1.411,0v3.337a2.774,2.774,0,0,1-2.9,2.626h-9.206a2.774,2.774,0,0,1-2.9-2.626v-3.337a.706.706,0,1,0-1.411,0v3.337a4.187,4.187,0,0,0,4.307,4.046h9.206a4.454,4.454,0,0,1,7.2,0h9.206a4.454,4.454,0,0,1,7.2,0h9.206a4.188,4.188,0,0,0,4.307-4.046v-3.337A.708.708,0,0,0,1448.076,2468.675Z" transform="translate(-1395.088 -2444.769)" stroke="#000" stroke-width="0.25"/>
    <path id="Path_110" data-name="Path 110" d="M1428,2414.343h-7.057v-3.132a.708.708,0,0,0-.706-.71h-5.477a.708.708,0,0,0-.706.71v3.132h-9.53v-3.132a.708.708,0,0,0-.706-.71h-5.477a.708.708,0,0,0-.706.71v3.132h-9.529v-3.132a.708.708,0,0,0-.706-.71h-5.477a.708.708,0,0,0-.706.71v3.132h-7.417a.71.71,0,0,0,0,1.421h7.417v2.552a.708.708,0,0,0,.706.71h5.477a.709.709,0,0,0,.706-.71v-2.552h9.529v2.552a.708.708,0,0,0,.706.71h5.477a.708.708,0,0,0,.706-.71v-2.552h9.53v2.552a.708.708,0,0,0,.706.71h5.477a.708.708,0,0,0,.706-.71v-2.552H1428a.71.71,0,0,0,0-1.421ZM1386.7,2417.6h-4.064v-5.684h4.064Zm16.418,0h-4.064v-5.684h4.064Zm16.418,0h-4.064v-5.684h4.064Z" transform="translate(-1372.71 -2392.581)" stroke="#000" stroke-width="0.25"/>
    <path id="Path_111" data-name="Path 111" d="M1370.821,2244.272a10.582,10.582,0,0,1,10.1-6.969,10.928,10.928,0,0,1,6.95,2.472.7.7,0,0,0,.841.042,16.283,16.283,0,0,1,17.12-.163.7.7,0,0,0,.814-.039,10.962,10.962,0,0,1,6.754-2.312,10.535,10.535,0,0,1,10.163,7.156.706.706,0,1,0,1.343-.439,11.944,11.944,0,0,0-11.506-8.138,12.4,12.4,0,0,0-7.228,2.315,17.767,17.767,0,0,0-17.812.158,12.361,12.361,0,0,0-7.438-2.473,12,12,0,0,0-11.434,7.924.707.707,0,1,0,1.334.466Z" transform="translate(-1369.448 -2235.882)" stroke="#000" stroke-width="0.25"/>
  </g>
</svg>
