<svg id="Group_279" data-name="Group 279" xmlns="http://www.w3.org/2000/svg" width="40" height="56" viewBox="0 0 40 56">
  <path id="Path_96" data-name="Path 96" d="M3193.76,2264.755a.776.776,0,0,0-.992.553l-1.032,3.483h-24.444l-1.088-6.422a.906.906,0,0,0-.155-.373,26.444,26.444,0,0,1-4.689-12.571c-.371-4.6.745-8.1,3.226-10.126,2.456-2.007,6-2.318,9.47-.835l.1.041a10.457,10.457,0,0,0,4.578.969.864.864,0,0,0-.016-1.719h-.017a9.031,9.031,0,0,1-3.968-.849l-.1-.042c-3.985-1.7-8.093-1.3-10.989,1.061s-4.266,6.506-3.851,11.653a28.06,28.06,0,0,0,4.9,13.312l1.173,6.92a.809.809,0,0,0,.774.7h4.439v3.809a.9.9,0,0,0,.246.624.754.754,0,0,0,.542.236h.043l2.266-.135.18,1.021a.809.809,0,0,0,.773.7.711.711,0,0,0,.149-.016.858.858,0,0,0,.625-1.006l-.139-.791,7.463-.445-.14.8a.859.859,0,0,0,.625,1.006.729.729,0,0,0,.149.015.809.809,0,0,0,.773-.7l.213-1.218,2.319-.138a.835.835,0,0,0,.744-.9.823.823,0,0,0-.83-.811l-14.426.86v-2.9h19.658a.8.8,0,0,0,.75-.594l1.208-4.078A.878.878,0,0,0,3193.76,2264.755Z" transform="translate(-3159.719 -2235.819)"/>
  <path id="Path_97" data-name="Path 97" d="M3249.042,2236.027a10.969,10.969,0,0,0-5.962,2.688c-2.208,1.653-4.486,3.37-10.05,3.158H3233a.86.86,0,0,0-.032,1.719c6.164.229,8.813-1.753,11.145-3.5a9.317,9.317,0,0,1,5.088-2.351,9.474,9.474,0,0,1,7.734,2.465c2.089,2.083,3.007,5.316,2.652,9.349a25.509,25.509,0,0,1-4.906,12.241h-26.923a.859.859,0,1,0,0,1.719h27.35a.857.857,0,0,0,.679-.333,27.422,27.422,0,0,0,5.512-13.476c.4-4.556-.687-8.262-3.149-10.717A11.158,11.158,0,0,0,3249.042,2236.027Z" transform="translate(-3221.377 -2235.948)"/>
  <path id="Path_98" data-name="Path 98" d="M3279.245,2553.426a.854.854,0,0,0-.911-.805l-14.886.909a.859.859,0,0,0,.052,1.717l.053,0,2.375-.145.177.921a.859.859,0,1,0,1.687-.324l-.134-.7,6.566-.4-.128.665a.86.86,0,0,0,.682,1.006.882.882,0,0,0,.163.016.86.86,0,0,0,.843-.7l.211-1.1,2.445-.15A.859.859,0,0,0,3279.245,2553.426Z" transform="translate(-3250.943 -2512.762)"/>
  <path id="Path_99" data-name="Path 99" d="M3285.706,2585.817a.855.855,0,0,0-.91-.8l-12.641.773a.859.859,0,0,0,.052,1.717l.053,0,2.03-.124.173.9a.859.859,0,0,0,.844.7.887.887,0,0,0,.161-.015.858.858,0,0,0,.684-1l-.131-.686,4.99-.305-.106.553a.86.86,0,0,0,.683,1.005.9.9,0,0,0,.162.015.859.859,0,0,0,.843-.7l.189-.983,2.12-.13A.859.859,0,0,0,3285.706,2585.817Z" transform="translate(-3258.528 -2541.276)"/>
  <path id="Path_100" data-name="Path 100" d="M3303.7,2650.3l-6.073.371a.859.859,0,0,0,.052,1.717h.053l2.125-.13v1.031a.859.859,0,0,0,1.719,0v-1.136l2.229-.136a.859.859,0,0,0-.1-1.716Z" transform="translate(-3280.719 -2598.15)"/>
  <path id="Path_101" data-name="Path 101" d="M3289.039,2620.729a.882.882,0,0,0,.163.015.858.858,0,0,0,.843-.7l.149-.773,1.7-.1a.859.859,0,0,0,.805-.91.847.847,0,0,0-.91-.805l-10.212.625a.859.859,0,0,0,.052,1.717l.053,0,1.594-.1.152.79a.859.859,0,0,0,.843.7.888.888,0,0,0,.163-.016.858.858,0,0,0,.681-1.006l-.109-.571,3.414-.209-.066.341A.859.859,0,0,0,3289.039,2620.729Z" transform="translate(-3266.737 -2569.536)"/>
</svg>
