<svg xmlns="http://www.w3.org/2000/svg" width="44.255" height="48.275" viewBox="0 0 44.255 48.275">
  <g id="Group_277" data-name="Group 277" transform="translate(2201.125 -5949.85)">
    <g id="Group_145" data-name="Group 145" transform="translate(-2201 5950)">
      <path id="Path_87" data-name="Path 87" d="M713.977,1475.656a7.266,7.266,0,0,0-3.616,2.145c-1.422,1.3-2.65,2.421-5.6,1.746a.716.716,0,0,0-.319,1.4c3.686.844,5.388-.712,6.889-2.085a6.06,6.06,0,0,1,2.918-1.8,4.708,4.708,0,0,1,4.09,1.06c1.34,1.211,1.958,3.233,1.742,5.695a14.842,14.842,0,0,1-3,7.24,3.088,3.088,0,0,0-.552,2.21c.859,4.943-.63,9.89-2.036,11.561-.319.38-.576.514-.7.514-.593,0-1.022-2.471-1.279-3.947-.542-3.122-1.157-6.66-3.9-6.665s-3.35,3.543-3.893,6.665c-.256,1.476-.686,3.947-1.279,3.947-.108,0-.341-.126-.64-.481-1.426-1.7-2.922-6.9-2.117-11.53a3.058,3.058,0,0,0-.558-2.208,14.656,14.656,0,0,1-2.974-7.306c-.249-2.831.613-5.137,2.366-6.328a5.347,5.347,0,0,1,5.461-.17l.048.024a5.8,5.8,0,0,0,2.084.663.716.716,0,1,0,.128-1.427,4.441,4.441,0,0,1-1.568-.515l-.05-.026a6.758,6.758,0,0,0-6.908.266c-2.2,1.492-3.284,4.276-2.988,7.639a15.877,15.877,0,0,0,3.273,8.064,1.644,1.644,0,0,1,.275,1.079c-.833,4.789.613,10.536,2.432,12.7a2.332,2.332,0,0,0,1.736.992c1.8,0,2.212-2.379,2.69-5.134.446-2.567.951-5.475,2.481-5.478s2.038,2.911,2.484,5.478c.478,2.755.892,5.134,2.69,5.134a2.411,2.411,0,0,0,1.8-1.025c1.819-2.162,3.235-7.644,2.352-12.729a1.676,1.676,0,0,1,.274-1.089,16.039,16.039,0,0,0,3.3-7.991c.257-2.919-.527-5.363-2.208-6.883A6.125,6.125,0,0,0,713.977,1475.656Z" transform="translate(-677.551 -1460.015)" stroke="#000" stroke-width="0.25"/>
      <path id="Path_88" data-name="Path 88" d="M519.217,1363.469a.647.647,0,0,0,.507,0c.975-.416,1.915-.849,2.793-1.287a.7.7,0,0,0,.31-.919.656.656,0,0,0-.889-.32c-.778.389-1.607.773-2.467,1.145-11.4-4.927-16.713-12.036-16.713-22.353v-14.2c0-.673.026-1.368.076-2.073a29.415,29.415,0,0,0,16.636-6.377,29.434,29.434,0,0,0,16.638,6.377c.051.707.076,1.4.076,2.073v3.508a.666.666,0,1,0,1.331,0v-3.508c0-.9-.044-1.843-.13-2.8a.676.676,0,0,0-.638-.623,28.162,28.162,0,0,1-16.864-6.443.649.649,0,0,0-.827,0,28.142,28.142,0,0,1-16.862,6.443.676.676,0,0,0-.638.623c-.087.952-.131,1.892-.131,2.8v14.2C501.427,1350.757,507.08,1358.3,519.217,1363.469Z" transform="translate(-501.427 -1315.521)" stroke="#000" stroke-width="0.25"/>
      <path id="Path_89" data-name="Path 89" d="M568.785,1413.588a22.9,22.9,0,0,0,8.871-2.365.647.647,0,0,0,.294-.905.743.743,0,0,0-.969-.275,21.469,21.469,0,0,1-8.888,2.239.7.7,0,0,0-.686.605c-.063.624-.095,1.242-.095,1.838v9.225c0,5.856,2.744,10.271,8.388,13.5a.751.751,0,0,0,.373.1.729.729,0,0,0,.612-.32.644.644,0,0,0-.237-.92c-5.183-2.962-7.7-7-7.7-12.355v-9.225C568.746,1414.354,568.759,1413.973,568.785,1413.588Z" transform="translate(-560.576 -1399.815)" stroke="#000" stroke-width="0.25"/>
    </g>
  </g>
</svg>
