<svg xmlns="http://www.w3.org/2000/svg" width="43.579" height="49.511" viewBox="0 0 43.579 49.511">
  <g id="Group_305" data-name="Group 305" transform="translate(-135.639 -428.088)">
    <g id="Group_171" data-name="Group 171" transform="translate(136.389 428.838)">
      <g id="Group_169" data-name="Group 169" transform="translate(22.891 8.766)">
        <line id="Line_15" data-name="Line 15" y1="6.696" x2="1.645" transform="translate(2.978)" fill="none" stroke="#000" stroke-linecap="round" stroke-linejoin="round" stroke-width="1.5"/>
        <line id="Line_16" data-name="Line 16" y1="4.696" x2="0.011" transform="translate(0 1.2)" fill="none" stroke="#000" stroke-linecap="round" stroke-linejoin="round" stroke-width="1.5"/>
        <line id="Line_17" data-name="Line 17" y1="4.167" x2="2.166" transform="translate(5.903 3.179)" fill="none" stroke="#000" stroke-linecap="round" stroke-linejoin="round" stroke-width="1.5"/>
      </g>
      <g id="Group_170" data-name="Group 170">
        <path id="Path_229" data-name="Path 229" d="M76.786,372.911l-7.767-7.767a2.3,2.3,0,0,1,0-3.254l1.776-1.776a2.3,2.3,0,0,1,3.254,0l7.767,7.767" transform="translate(-68.345 -359.439)" fill="none" stroke="#000" stroke-linecap="round" stroke-linejoin="round" stroke-width="1.5"/>
        <path id="Path_230" data-name="Path 230" d="M116.967,412.121l.6-6.479a3.494,3.494,0,0,0-.755-2.556h0a2.443,2.443,0,0,0-1.862-.916h-4.661l-3.719-4.416" transform="translate(-93.088 -384.237)" fill="none" stroke="#000" stroke-linecap="round" stroke-linejoin="round" stroke-width="1.5"/>
        <path id="Path_231" data-name="Path 231" d="M92.187,388.312l3.685,1.465,1.405-1.405,1.405-1.405-1.465-3.685L94.7,385.8" transform="translate(-83.776 -374.87)" fill="none" stroke="#000" stroke-linecap="round" stroke-linejoin="round" stroke-width="1.5"/>
      </g>
      <path id="Path_232" data-name="Path 232" d="M118.345,412.966a8.157,8.157,0,0,0-3.052,8.723A9.377,9.377,0,0,0,117,425.338a2.938,2.938,0,0,1,.682,2.012,16.609,16.609,0,0,0,3.816,11.163,1.491,1.491,0,0,0,2.588-.563,68.908,68.908,0,0,1,2.189-6.794,3.31,3.31,0,0,1,6.18,0,68.937,68.937,0,0,1,2.189,6.795,1.488,1.488,0,0,0,2.578.573,16.61,16.61,0,0,0,3.825-11.182,2.911,2.911,0,0,1,.678-2,9.4,9.4,0,0,0,1.723-3.684,8.05,8.05,0,0,0-14.084-7.113,8.151,8.151,0,0,0-2.131-1.881" transform="translate(-101.717 -391.058)" fill="none" stroke="#000" stroke-linecap="round" stroke-miterlimit="10" stroke-width="1.5"/>
      <path id="Path_233" data-name="Path 233" d="M155.69,420.166a11.391,11.391,0,0,1,1.487,2.6" transform="translate(-128.038 -396.722)" fill="none" stroke="#000" stroke-linecap="round" stroke-miterlimit="10" stroke-width="1.5"/>
      <path id="Path_234" data-name="Path 234" d="M129.876,426.816c-1.069,1.144-.571,2.388-.547,3.23.038,1.351-.939,1.873-1.844,1.372-.944-.523-1.416-3.183-1.366-5.359a2.906,2.906,0,0,1,1.487-2.647,2.871,2.871,0,0,1,2.565-.062" transform="translate(-107.303 -399.388)" fill="none" stroke="#000" stroke-linecap="round" stroke-miterlimit="10" stroke-width="1.5"/>
    </g>
  </g>
</svg>
