<svg xmlns="http://www.w3.org/2000/svg" width="28" height="20" viewBox="0 0 28 20">
  <g id="Group_371" data-name="Group 371" transform="translate(-718.01 -41.55)">
    <path id="Path_249" data-name="Path 249" d="M761.093,94.866a1.837,1.837,0,0,1-1.032-.773,4.88,4.88,0,0,1-.43-2.541H753a4.88,4.88,0,0,1-.43,2.541,1.837,1.837,0,0,1-1.032.773c-.327.123-.243.686-.07.686h9.7C761.335,95.552,761.419,94.989,761.093,94.866Z" transform="translate(-22.441 -34.002)" fill="#fff"/>
    <path id="Path_250" data-name="Path 250" d="M753.783,42.084V57.277a.533.533,0,0,1-.532.533H734.99V56h16.952V43.364H731.28v3.568h-1.84V42.084a.534.534,0,0,1,.532-.534H753.25A.534.534,0,0,1,753.783,42.084Z" transform="translate(-7.773 0)" fill="#fff"/>
    <path id="Path_251" data-name="Path 251" d="M726.091,58.37h-7.033a1.048,1.048,0,0,0-1.048,1.048V71.941a1.048,1.048,0,0,0,1.048,1.046h7.033a1.048,1.048,0,0,0,1.048-1.046V59.418A1.048,1.048,0,0,0,726.091,58.37Zm-.314,13.257h-6.406V59.73h6.406Z" transform="translate(0 -11.438)" fill="#fff"/>
    <path id="Path_252" data-name="Path 252" d="M726.55,62.517a.86.86,0,0,0,.793.913h2.079a.86.86,0,0,0,.793-.913Z" transform="translate(-5.807 -14.258)" fill="#fff"/>
  </g>
</svg>
