<svg xmlns="http://www.w3.org/2000/svg" width="24" height="24" viewBox="0 0 24 24">
  <path id="Icon_awesome-phone" data-name="Icon awesome-phone" d="M23.128,1.154,18.253.029A1.132,1.132,0,0,0,16.964.68l-2.25,5.25a1.122,1.122,0,0,0,.323,1.312l2.841,2.325a17.372,17.372,0,0,1-8.306,8.306L7.247,15.033a1.124,1.124,0,0,0-1.312-.323L.685,16.96a1.138,1.138,0,0,0-.656,1.294l1.125,4.875A1.125,1.125,0,0,0,2.25,24,21.747,21.747,0,0,0,24,2.25,1.124,1.124,0,0,0,23.128,1.154Z" transform="translate(24) rotate(90)" fill="#fff"/>
</svg>
