<svg xmlns="http://www.w3.org/2000/svg" viewBox="0 0 38.96 4.04"><defs><style>.cls-1{fill:#fff;}.cls-2{fill:none;}</style></defs><g id="Layer_2" data-name="Layer 2"><g id="レイヤー_3" data-name="レイヤー 3"><rect class="cls-1" y="3.04" width="1.94" height="1"/><rect class="cls-2" y="2.04" width="1.94" height="1"/><rect class="cls-1" x="1.94" y="3.04" width="1.94" height="1"/><rect class="cls-2" x="1.94" y="2.04" width="1.94" height="1"/><rect class="cls-1" x="3.88" y="3.04" width="1.94" height="1"/><rect class="cls-2" x="3.88" y="2.04" width="1.94" height="1"/><rect class="cls-1" x="5.82" y="3.04" width="1.94" height="1"/><rect class="cls-2" x="5.82" y="2.04" width="1.94" height="1"/><rect class="cls-1" x="7.76" y="3.04" width="1.94" height="1"/><rect class="cls-2" x="7.76" y="2.04" width="1.94" height="1"/><rect class="cls-1" x="9.71" y="3.04" width="1.94" height="1"/><rect class="cls-2" x="9.71" y="2.04" width="1.94" height="1"/><rect class="cls-1" x="11.65" y="3.04" width="1.94" height="1"/><rect class="cls-2" x="11.65" y="2.04" width="1.94" height="1"/><rect class="cls-1" x="13.59" y="3.04" width="1.94" height="1"/><rect class="cls-2" x="13.59" y="2.04" width="1.94" height="1"/><rect class="cls-1" x="15.53" y="3.04" width="1.94" height="1"/><rect class="cls-2" x="15.53" y="2.04" width="1.94" height="1"/><rect class="cls-1" x="17.47" y="3.04" width="1.94" height="1"/><rect class="cls-2" x="17.47" y="2.04" width="1.94" height="1"/><rect class="cls-1" x="19.41" y="3.04" width="1.94" height="1"/><rect class="cls-2" x="19.41" y="2.04" width="1.94" height="1"/><rect class="cls-1" x="21.35" y="3.04" width="1.94" height="1"/><rect class="cls-2" x="21.35" y="2.04" width="1.94" height="1"/><rect class="cls-1" x="23.29" y="3.04" width="1.94" height="1"/><rect class="cls-2" x="23.29" y="2.04" width="1.94" height="1"/><rect class="cls-1" x="25.24" y="3.04" width="1.94" height="1"/><rect class="cls-2" x="25.24" y="2.04" width="1.94" height="1"/><rect class="cls-1" x="27.18" y="3.04" width="1.94" height="1"/><rect class="cls-2" x="27.18" y="2.04" width="1.94" height="1"/><rect class="cls-1" x="29.12" y="3.04" width="1.94" height="1"/><rect class="cls-2" x="29.12" y="2.04" width="1.94" height="1"/><rect class="cls-1" x="31.06" y="3.04" width="1.94" height="1"/><rect class="cls-2" x="31.06" y="2.04" width="1.94" height="1"/><polygon class="cls-1" points="33 4.04 38.96 4.04 33 0 33 4.04"/></g></g></svg>