<svg xmlns="http://www.w3.org/2000/svg" viewBox="0 0 28.96 4.04"><defs><style>.cls-1{fill:#fff;}.cls-2{fill:none;}</style></defs><g id="Layer_2" data-name="Layer 2"><g id="レイヤー_3" data-name="レイヤー 3"><rect class="cls-1" y="3.04" width="1.92" height="1"/><rect class="cls-2" y="2.04" width="1.92" height="1"/><rect class="cls-1" x="1.92" y="3.04" width="1.92" height="1"/><rect class="cls-2" x="1.92" y="2.04" width="1.92" height="1"/><rect class="cls-1" x="3.83" y="3.04" width="1.92" height="1"/><rect class="cls-2" x="3.83" y="2.04" width="1.92" height="1"/><rect class="cls-1" x="5.75" y="3.04" width="1.92" height="1"/><rect class="cls-2" x="5.75" y="2.04" width="1.92" height="1"/><rect class="cls-1" x="7.67" y="3.04" width="1.92" height="1"/><rect class="cls-2" x="7.67" y="2.04" width="1.92" height="1"/><rect class="cls-1" x="9.58" y="3.04" width="1.92" height="1"/><rect class="cls-2" x="9.58" y="2.04" width="1.92" height="1"/><rect class="cls-1" x="11.5" y="3.04" width="1.92" height="1"/><rect class="cls-2" x="11.5" y="2.04" width="1.92" height="1"/><rect class="cls-1" x="13.42" y="3.04" width="1.92" height="1"/><rect class="cls-2" x="13.42" y="2.04" width="1.92" height="1"/><rect class="cls-1" x="15.33" y="3.04" width="1.92" height="1"/><rect class="cls-2" x="15.33" y="2.04" width="1.92" height="1"/><rect class="cls-1" x="17.25" y="3.04" width="1.92" height="1"/><rect class="cls-2" x="17.25" y="2.04" width="1.92" height="1"/><rect class="cls-1" x="19.17" y="3.04" width="1.92" height="1"/><rect class="cls-2" x="19.17" y="2.04" width="1.92" height="1"/><rect class="cls-1" x="21.08" y="3.04" width="1.92" height="1"/><rect class="cls-2" x="21.08" y="2.04" width="1.92" height="1"/><polygon class="cls-1" points="23 4.04 28.96 4.04 23 0 23 4.04"/></g></g></svg>