<svg id="Layer_1" data-name="Layer 1" xmlns="http://www.w3.org/2000/svg" viewBox="0 0 44 58"><defs><style>.cls-1{fill:#766244;}</style></defs><path class="cls-1" d="M4.19,3.11C.3,5.63-.47,13.51,1,19.93A58.35,58.35,0,0,0,8.67,38,60.34,60.34,0,0,0,22,52.32c5.27,4,12.78,6.48,16.66,4,2-1.27,4.89-4.76,5-5.38L41.6,47.68l-5.74-8.86c-.43-.66-3.1-.06-4.46.71a12.93,12.93,0,0,0-3.53,3.83c-1.25.73-2.31,0-4.51-1-2.7-1.24-5.74-5.11-8.17-8.61-2.21-3.64-4.5-8-4.53-11,0-2.43-.26-3.68.92-4.54a12.92,12.92,0,0,0,4.93-1.65c1.26-.93,2.9-3.13,2.47-3.79L13.24,3.94,11.15.72C10.52.58,6.15,1.83,4.19,3.11Z"/></svg>