<svg id="Layer_1" data-name="Layer 1" xmlns="http://www.w3.org/2000/svg" viewBox="0 0 40 54"><defs><style>.cls-1{fill:#fff;}</style></defs><path class="cls-1" d="M3.58,3.13C0,5.45-.71,12.72.64,18.64A53.67,53.67,0,0,0,7.71,35.27,55.6,55.6,0,0,0,20,48.5c4.86,3.66,11.78,6,15.36,3.65a18.17,18.17,0,0,0,4.63-5l-1.93-3-5.29-8.17c-.39-.6-2.86,0-4.12.66a11.9,11.9,0,0,0-3.24,3.53c-1.16.67-2.14,0-4.16-.93-2.5-1.15-5.3-4.71-7.53-7.94C11.69,28,9.58,24,9.54,21.25c0-2.23-.23-3.39.85-4.18a12,12,0,0,0,4.55-1.52c1.16-.86,2.67-2.88,2.28-3.49l-5.3-8.17L10,.92A18.14,18.14,0,0,0,3.58,3.13Z"/></svg>