<?xml version="1.0" encoding="UTF-8"?><svg xmlns="http://www.w3.org/2000/svg" viewBox="0 0 272 127.01"><defs><style>.d{fill:#fff500;fill-rule:evenodd;}</style></defs><g id="a"/><g id="b"><g id="c"><path class="d" d="M268.58,127.01c-1.3,0-4.68-1.44-5.97-2.22l-16.32-1.24c-.68,1.09-3.79,1.62-7.67,1.62h-1.84c-.47,0-.85-.38-.85-.85v-.38c-.02,.49-1.46,.4-2.2,.74-1.26,.58-2.83,1.29-5.93,1.99-.38,.14-.01-.82-.84-1.17-.7-.27-3.38,.2-4.29,.36-.81,.14-1.24,.82-1.53,.82-.47,0-.85-.98-.85-1.45v-.44h-12.75c-.24,0,.13-.1-.64-.29-1.37-1.55-2.73-1.14-4.16-.33-1.28,.39-2.77,.8-3.85,.8-2.62,0-3.79-1.22-3.79-3.37,0-1,.16-2.14,.19-2.36,.02,.4,.1-.33,.22-.46l18.98-20.01c.81-2.42,3.83-5.86,7.32-9.83,4.1-4.66,8.76-9.95,8.76-12.82,0,.66-.01,.27-.05-.19-.06-.17-.14-.41-.14-.73,0-.21,.07-.4,.21-.56,9.21-9.77,14.5-19.24,14.5-23.81v-4.03c0-1.26,.84-3.06,1.58-4.66,.54-.71,.78-1.69,.81-1.96,0-.04-.08-.35-.15-.64-5.02-12.85-9.77-21.94-25.11-21.94-8,0-10.59,2.82-13.09,5.56-1.33,1.45-2.71,2.95-4.83,3.99l.32,.18c.16,.16,.25,.37,.25,.6,0,1.67-1.91,5.61-4.53,5.61-6.55,0-6.55-9.82-6.55-15.69,0-1.46,.33-3.28,2.89-4.44,.67-.15,.71-.07,.96,.18,.25,.26,.31,.65,.15,.97-.09,.18-.09,.39-.09,.72,0,1.47,.44,1.53,.9,2.32,.57,.67,.82,1.73,1.02,2.26,2.11-.37,4.66-2.22,4.66-4.95,0-1.48-.81-2.8-2.79-3.2-.31-.06-.57-.28-.66-.58-.09-.3-.01-.63,.75-.85-.28,.14,.29-.6,.31-1.61,0-.07,.02-.2,.05-.27C204.79,.23,226.44,0,226.66,0c13.54,0,25.21,5.77,34.66,17.16,1.58,1.99,2.14,4.2,2.8,6.33,.35,1.83,.79,3.9,1.84,5.09,.68,.14,.15,.31,.15,.81,0,12.78,0,23.15-5.8,33.96-2.42,3.54-14.46,19.59-17.19,22.86-1.25,1.49-3.02,3.2-4.9,5.01-3.3,3.18-7.4,7.13-7.4,9.1,0,1.37,9,3.55,33.16,3.55,.47,0,.85,.38,.85,.85v1.04c.13-.06,.99-.11,.36-.16,.7-.32,1.36-.63,1.92-.63,3.89,0,4.71,7.53,4.71,13.85,0,.42,.04,.92,.08,1.43,.05,.62,.1,1.25,.1,1.86,0,4.4-2.4,4.88-3.42,4.88Zm-7.62-17.05c-1.08,0-1.3,0-1.52,0-1.2,0-1.57,.32-3.02,.75-.52,.51-.78,2.04-.78,2.63v.31c0,.77-.02,2.2,.47,2.7,.08,.08,.2,.17,.46,.18,.79-.38,3.05-4.11,4.39-6.56Zm3.28,6.38l-.93-4.89-2.39,4.89h3.31Zm-12.32-1.35c0-.76,0-1.04-.22-1.2l-1.93,2.72c-.61,0-.54,0-.5,0,2.42,0,2.64-.27,2.64-1.53Zm-2.67-4.49c-.98-.35-2.74-.36-3.76-.35-.13,1.47-.54,3.45-.82,4.77l4.58-4.42Zm-7.32-38.63s-.1,.05-.19,.13c.08-.04,.17-.08,.25-.13h-.06Zm-6.59,10.58h.58c-.07-.15-.15-.3-.26-.43-.13,.14-.23,.28-.32,.43Zm-10.91,16.93c1.16-2.74,2.36-4.43,3.73-7.38,.52-.86,1.53-1.75,2.51-2.61,.58-.51,1.5-1.19,1.84-1.76h-.75c-.4,.54-1.22,1.83-2.92,3.3-4.62,5.03-12.99,14.52-15.65,20.94,5.48-.1,8.28-6.62,11.24-12.48Zm-4.12,17.81c0-1.43,1.6-2.19,4.03-5.38,1.07-1.02,3.28-2.56,2.78-3.07,.88-.33-.4,.1-.65-.77-5.26,.17-8.78,6.7-11.11,11.03l-.23,.42c.29,.23,1.32,.58,5.33,.58h.11c2.57,0,5.43-.04,7.58-1.32,2.37-1.41,3.6-4.21,3.73-8.53h-.25l-8.94,9.28c-.16-.21-.38-.12,0-.12-1.35,0-2.36-.55-2.36-2.13Zm17.54-38.75c.29,.26,.81,.56,1.16,1.37,.68-1.17,1.81-2.45,2.53-3.44-1.37,.47-2.79,1.42-3.69,2.07ZM211.96,13.56c1.22,0,2.15-.77,3.29-1.59,1.37-.97,2.91-2.08,5.19-2.08-.12,0,.14,.06,.35,.11l2.05-2.61c-.11-.01-.19-.02-.24-.02-6.32,0-12.19,1.34-12.19,5.93,.05,.08,.32,.25,1.54,.25Zm24.3-5.42c-.46,.09-2.1,.34-3.28,.61-1.22,.67-2.48,.64-4.11,.64-.47,0-.69-.38-.69-.85v-.65c-1.07,.3-1.32,1.05-2.28,2.66h9.77c.12,0,.47-1.06,.59-2.41Zm15.3,13.3h3.66c-.63-.55-1.29-1.31-1.49-2.21-1.04,.79-1.56,1.54-2.17,2.21Zm-7.92-4.64c.05,.05,.08,.06,.11,.06,1.04-.02,1.68-.51,2.77-.9,.8-.29,1.68-.6,2.96-.34-2-2.06-4.52-3.49-6.53-3.94,0,1.62,.02,4.45,.69,5.12Zm9.8,16.69c0,.41,.48,.66,2.09,1.11,1.6,.57,3.79,1.05,3.79,3.81,0,.43-.2,1.06-1.33,1.98-.62,1.1-3.38,3.92-3.61,5.02l3.85,1.84c2.04-2.45,1.94-5.64,2.38-8.73l-.2-.65c0-.73-.44-2.28-.49-3.03-.04-2.2-.08-3.61-.09-4.42l-1.5-2.19-4.89,5.27Zm-1.11,23.24c0,.97,1.52,.99,1.54,.99,.99,0,1.55-.33,1.69-1.94-1.89,.12-3.23,.62-3.23,.96Zm-6.74,11.45c.25,.05,.85,.28,1.19,.41,.98,.12,.59,.23,.85,.35l1.22-2.34c-1.85,.59-2.95,1.08-3.26,1.58Zm-8.25,41.8c-1.06,.03-1.49,.44-1.65,1.71l1.65-1.71Zm3.17,3.58l-4,3.98v.26c1.89-.01,3.08-.09,3.59-.58,.32-.49,.4-1.71,.41-3.67Zm-60.57-24.12c-3.31,0-3.37-3.57-3.41-6.17-.01-.64-.02-1.24-.07-1.75,0-.33-.18-1.76-.33-2.92-.22-1.76-.35-2.86-.35-3.21,0-.49,.1-.94,.2-1.37,.72-.36,.16-.7,.16-1.02,0-1.76-1.05-3.01-2.84-3.72-.31-.01-.34-.02-.37-.04-.52,.2-1.17,.3-1.3,.41-2.69,.33-4.22,.7-3.76,2.32-.02,.23-.16,.72-.28,1.2-.12,.47-.25,1.56-.25,1.07,0,2.13-.13,4.31,.05,6.42,.18,2.11,.37,4.3,.37,7.17,0,1.09-3.21,1.09-4.58,1.09-.65,0-1.97,0-2.54-.79-.19,.09-.42,.08-.1,.65-.69-.79-.81-1.01-.79-1.24l.07-1.37c.17-2.9,.29-5.38,.29-8.51,0-1.53-.37-4.35-.89-6.76-1.27-1.38-1.94-1.72-3.83-2.25-.05-.02-.1-.04-.15-.07-.79,.58-1.91,1.4-3.28,1.81-.08,.28-.21,1.29-.44,1.37-.3,.88-.76,2.22-.78,2.67,0,0,0,.14-.01,.32-.01,.46-.04,.72-.04,.94,0,.84,.1,1.65,.2,2.49,.4,1.64,.21,1.72,.21,2.64,0,2.91-.21,7.93-1.64,8.82-.1,.06-.21,.09-.33,.09,.5,0-.29,.01-.51,.03-.25,.01-.5,.03-.19,.03-.03,0-4.44-.5-4.65-1.38-.02-.09-.02-.19,0-.28,0-.3-.01-.83-.03-1.34-.01-.57-.03-1.12-.03-1.35,0-1.48,.17-2.93,.95-3.62-.45-2.11-.27-3.54-.27-4.99,0-1.28-.13-2.04-.24-2.7,.55-.51-.17-1-.17-1.6,0-1.7,.12-3.56,.23-5.19,.07-1.16,.14-2.15,.14-2.79,0-.17,.07-.32,.18,.29l.36-1.09c.8-.17,.42-.22,.64-.15,.14,.02,.57,.02,.89,.02,.9,0,.84-.07,1.09-.15,.23-.07,.68-.16,.94-.16,.67,0,1.16,.69,1.43,1.31,.36-.17,.7-.34,1.02,.22,1.61-1.55,3.01-2.26,5.36-2.26,2.97,0,6.13,2.41,8.51,4.15,.85-.55,3.22-2.25,3.49-2.56,.08,.3,.21-.18,.33-.22,.65-.18,4.15-.98,4.19-.99,.04-.01,.09-.02,.14-.02,7.03,0,10.22,5.56,10.87,10.76,0,.25,0,.51-.01,.82-.01,.43-.03,.97-.03,1.48,0,.55,.03,1.23,.36,1.57,.59,.1,0,.22,0,.35,0,1.44,.02,2.75,.03,3.91,.01,.94,.02,1.78,.02,2.52,0,1.65,0,5.08-4.21,5.08Zm-33.02-23.02s.02,.06,.03,.09c.76,.01,.23,.05,.32,.13,.01,.01,.03,.02,.04,.03,.03-.09,.07-.18,.11-.25-.13,0,.32-.02-.5,0Zm3.2,1.97c.19,.58,.37-.53,.54-.79v-.02c-.26,.27-.45,1.3-.54,.81Zm6.35-2.96h-.18c-1.03,0-1.42,0-2.18,.59,.38-.1,.77-.17,1.16-.17,.19,0,.36,.09,.48,.6,.04-.27,.09-.44,.14-.47,.32-.22,.73-.5,1.31-.5,.26,0,.49,.16,.58,.4,.05,.54,.05,.3,0,.44,.59,.12,.49,.14,.88,.14,.22,0,.52-.1,.52-.21,0-.31-.35-.83-2.71-.83Zm4.27,2.1c-.26,0-.33-.13-.55-.11,.23-.04,.6-.13,.97-.25,.02,.39-.28,.35-.42,.35Zm3.85,17.82h0v.22c-.18-.39-.36-.31,.03-.22h-.04Zm0-5.76v-.23c-.09,.07-.18,.14-.27,.23h.27Zm-1.39,6.38h.09c0-.1,.02-.19,.06-.27-.09,.05-.18,.09-.25,.13,.04,.04,.07,.08,.1,.13Zm-.06-4.29c-.28,.12-.43,.29-.5,.49l.5-.49Zm1.08-5c.07,0,.14,.01,.2,.03,.1-.29,.16-.58,.16-.82,0-.05,0-.12,0-.18-.42,.12-1.12,.66-1.49,1.12,.21-.08,.6-.16,1.13-.16Zm-.92-5.26c.65-.15,.91-.25,1.89-1.53-.62,.43-1.32,1-1.89,1.53Zm13.41-4.7c-.15,0-.2,.02-.32,.07-.18,.08-.43,.19-.88,.19-.34,0-.62-.28-.62-.62,0-.14,.04,.49,.09-.35-.37-.11-1.1-.22-2.21-.22,.12,.2,.12,.44-.01,.64l-.15,.23c.88,.18,2.36,.48,2.64,.48,.09,0,.26,.75,.41,.54,.2-.3,.9-.54,.48-.54,.34,0,.62,.18,.62,.52,0,.09,0,.17,0,.23,.64-.03,.62-.04,.83,.61,.12-.29,.17-.12,.15,.06,0,0-.02,.17-.04,.32,.09,.14,.16,.3,.23,.47,.03,.06,.19,.14,.55,.22-.2-.1,.25-.29,.93,.46-.19-.99,.05-.83,.23-.86-.87-1.15-2.35-2.44-2.94-2.44Zm4.06,5.29h-.47c-.19,0-.55-.21-.61-.5-.06-.29,.1-.58,1.08-.69,.13-.03-.55-.26-.48-.41-.03-.24-.17-.53-.38-.86,.04,.2-.01,.42-.17,1.39-.17-.65-.44-.31-.64-.04,.22,.08,.51,.26,.51,.65,0,.09-.03,.25-.07,.41,.14,.06,.26,1.06,.32,.31,.1,.22,.07,.47-.08,.66-.17,.21-.22,.58-.28,.97-.03,.83-.06,.42-.11,.65,.07-.03,.15-.04,.22-.04,.18,0,.36,.08,.48,.23,.17,.21,.18,.5,.04,.72,.27-.04,.54-.1,.78-.18,0,.28,.01-.4,.02-.59,.01-.31,.03-.38,.03-.96,0,.18-.07-1.18-.21-1.71Zm.46,5.28c-.31,.24-.62,.51-.91,1.31,.54-.67,.91-.93,.91-1.29h0Zm-1.9,5.38c.04-.35,.12-.17,.22,.02,.13,.28,.28,.59,.28,1.03,0,.22-.11,.41-.29,.52,.04,.42,.13,.68,.23,.96,.11,.3,1.02,.63,.87,1.14,.18-.08,.6-.34,.65-.77,.69-.11-.34-.32-.34-.43,0-.36,.89-.59,.34-.69,0-.01,0-.03,0-.06,0-.19-.07-.4-.15-.63,.36-.3-.21-.64-.21-1.03,0-.25,.77-.43,.35,.25,.03-1.12,.06-1.53,.08-1.29-.71-.4-1.51,.07-2.03,.98Zm-39.67-7.05c.02,.07,.03,.15,.02,.23-.02,.96-.1,.32-.24,.42-1.06,1.57-3.2,1.22-6.52,1.22h-1.61q-4.59,0-6.79,.31l-.96-.09c-.05-.7-.1-.71-.15-.73,.11,1.68,.54,3.9,1.36,4.76,.34,1.21,2.1,.7,2.06,.97,.49,.17,.95,.57,1.31,.51,1.26,.61,1.12,.61,1.34,.61,1.29,0,2.69-.34,4.04-.67,1.38-.33,2.82-.68,4.18-.68,1.77,0,1.77,2.07,1.77,2.75,0,1.31-.18,2-1.15,2.18-.18,.03,.57,.04-.38,.21-.09,.12-.21,.2-.35,.23-.63,.16-3,.54-5.17,.89l-.96,.16s-.07,0-.1,0h.44c-.84,0-.96,0-1.08,0-1.38,0-4.47-.04-6.57-.7-3.63-.99-7.51-7.63-7.51-11.27,0-3.23,1.67-8.63,3.31-11.36,.67-.17,.27-.27,.46-.3,.09-.01,.17,0,.26,.02,.2-.09,.62-.36,.88-.54,.57-.37,1.05-.3,1.87-.14l.29-.76c1.95-.33,2.74-.66,4.17-.66,.22,0,.41,.11,.52,.28,.73-.18,1.28-.18,2.03-.18,1.74,0,4.5,.2,5.16,1.43,2.06,.28,3,2.52,3.64,3.7,.25,.54,.59,1.27,1.06,1.37-.06,.1,.07,1.16,.07,.55v4.46c0,.2-.1,.39-.26,.5l-.44,.32Zm-12.9,10.37c1.19-.04,.64-.19,.86-.41-.23,.03-.4,.06-.5,.09,.43,.15-.21,.26-.37,.3,0,0,.01,.01,.02,.02Zm-.62-.36c.44-.02-.16-.05-.17-.07-.02,.01-.04,.03-.06,.05,.03,0,.06,.02,.23,.02Zm-5.83-9.49c-.22,.03-.14,.08-.08,.14,0-.06-.01-.12-.01,.58,0-.66,.01-.89,.03-.95h0l.06,.24Zm.17-5.34c-.03,.11-.06,.22-.09,.33,.05-.13,.09-.25,.09-.32h0Zm-.06,5.97c0,.07-.02,.13-.05,.2,.05-.02,.09-.05,.12-.07-.02-.04-.05-.08-.07-.12Zm.98,6c.05-.37,.09-.84,.13-.92-.09,.02-.16,.04-.22,.06,.03,.05,.06,.3,.09,.86Zm-.16-2.46c-.05-.07-.1-.14-.16,.64q.89-.02,.88-.04c-.55-.73-.99-.64-1.04-.55,.6-.01,.22-.03,.32-.05Zm-.31-10.72c.19-.29,.43-.39,.68-.91,.29-.36,.61-.78,.83-1.14-.64,.57-1.14,1.27-1.51,2.05Zm7.72-1.19c-2.42,0-4.23,1.06-5.15,3.01,1.15,.32,4.63,.52,6.92,.52,.88,0,2.08-.1,2.4-.2,.53-.07,1.07-.14,1.66-.18-.09-.22-.21,.39-.3-.61-.02,0-.04,0-.05-.01-.21-.05-.37-.2-.44-.4-.41-1.16-3.59-2.13-5.03-2.13Zm4.74-1.6c-.43-.69-.5-.64-.57-.6,.28,.1,.6,.17,.92,.18-.31-.07-.54-.18-.34,.42Zm3.06,.9c-.1,.02-.18,.02-.26,.02-.5-.07-1.6-.48-1.99-1.27-.11,0-.04-.02-.3-.04,.24,.09,.41,.31,.41,1.38,.11-.52,1.2,.45,1.63,.66,.18-.03,.48-.12,.65-.2-.03-.15-.09-.36-.14-.55Zm.89,2.25c-.11,0-.15,.02-.15,.02,0,.3,0,.35,0,.61,.18,.54,.39,1.15,.51,1.96h0c.12-.58,.22-.64,.22-1.19,0-.42-.06-1.4-.58-1.4Zm-22.91,19.38c-.03,.22-.18,.41,.08,.49l-1.15,1.11c-.07-.83-.15-.81-.22-.81,.14,0-.25,.85-.35,.13-.11-.31-.19-.42-.23-.53-.19,.01-.38,.03-.44,.04-.47,.03-.8,.05-.93,.05-.65,0-1.99,0-2.26-1.5-1.94-.35-2.75-2.46-3.35-4.04l-.09,.05c-.02-.35-.03-.41-.04-.47-.58-6.93-.63-13.96-.63-21.16v-1.06c-.02-2.91-.03-6.66,.37-9.9,.02-.2,.15-.38,.33-.47,.79-.41,1.61-.55,2.4-.69,.73-.13,1.42-.24,2.28,.32-.04-.97,.11-1,.24-1,1.43,0,1.09,.49,1.09,1.96,0,3.37-.17,7.64-.34,11.76,.69,2.75-.22,5.6-.29,8.48,0,1.01-.1,2.04-.19,3.04-.09,1.42-.17,1.78-.17,2.65,0,4.79,1.03,6.75,4.36,6.75-.75,0-.68,.01-.61,.04,.99,.35,1.45,.75,1.45,1.26,0,.47-.36,1.32-.91,2.57-.16,.36-.35,.8-.4,.94Zm-6.45-11c.17,.02,.37,.04,.56,.06l-.29-1.73-.27,.03v1.64Zm.54-2.74s.06,0,.09,0c.23-.08-.52-.19-.51-.34,.5,.09,.03,.18-.14,.28,.82,.02,.33,.04,.56,.06Zm-.41-10.86c.28-.58-.23-.35-.33-.15,.11,.04,.9,.1,.31,.19,.13-.47,.24-.87,.29-1.45-.05,.01-.1,.02-.15,.03,.04,.09,.06,.19,.06,.27,0,.16-.06,.32-.18,1.1Zm.35,6.63h.08l-.03-.42c.27,0-.57,0-.61-.01,.05,.58,.22,.26,.56,.44Zm-.73-4.86c0-.05,0-.11,0-.17,0-.04,0-.07,0-.11,.02,.73,.05-.25,.07-.37-.09,.05-.23,.79-.3,.72,.07-.03,.14-.05,.22-.07Zm-.37-6.69c.05-.06,.1-.13,.14-.19-.07,.02-.12,.04-.15,.06,0,.05,0,.09,0,.13Zm1.04-6.3c-.66,.12-.88,.99-.93,1.8h.1c.3,0,.55-.07,.61,.21,.05,.09,.12,.22,.12,.39,0,.04,0,.07,0,.29,.04-.06,.08-.07,.12-.03v-2.66Zm.3,28.8h-.05c-.34,0-.12-.04-.12-.62v-.7c-.36,.15-.56,.34-.56,.65s.12,1.02,.38,.69c.11,.1,.22,.21,.33,.35,.01-.07,.02-.12,.02-.16,0-.09,0-.16,0-.21Zm.89,2.84c-.06,.1-.11,.2-.16,.3h0s.09-.13,.18-.22c0-.02-.01-.05-.02-.08Zm1.24,1.18s-.06,.03-.08,.04c-.18,.09-.44,.22-.81,.27,.55,1.26,1.34,.62,1.94,.71,0-.16,.05,.06,.76-.43-.99-.21-1.53-.47-1.81-.6Zm-10.35-3.61c-2.39,4.24-6.17,6.76-11.54,6.76-1.29,0-2.45-.87-3.58-1.3-.91-.35-1.77-.68-2.61-.73-.03,.06-.06,.12-.09,.18-.26,.5-.75,1.85-1.84,1.85-1.26,0-3.13-.7-4.25-.97-.15-.6-.25-.77-.27-.96-.05-.62-.18-3.57-.36-4.14,0-.02,0-.04,0-.06,0-2.82,.45-5.96,.17-8.64,.1-4.47,.2-8.44,.2-12.57v-1.03c-.01-2.56-.02-4.58,.63-8.31,.25-1.5,1.65-1.5,2.33-1.5,2.09,0,3.38,.41,3.38,2.43,0,1.15-.11,.77-.33,1.11,.07,.13,.09,.29,.05,.44-.04,.14-.04,.7-.04,1.04,0,1.57,.37,5.88,.53,7.8,.03,.33,.04,.61,.06,.83,2.71-1.29,5.94-1.47,8.78-1.47,.23,0,.44,.13,.55,.33,.2,.15,.94,.42,1.49,.61,1.55,.55,3.43,1.21,3.85,2.46,1.62,.43,1.99,2.59,2.51,4.51,.24,.9,.61,2.25,1.15,2.44-.02,.15,.13,.47,.04,.74-.02,.1-.02,.58-.02,.89,0,.52,.07,.96,.15,1.43,.08,.5,.16,1.01,.16,1.63,0,.1-.02,.2-.14,.78-.02,.11-.05,.23-.07,.32,.14,.17,.21,.32,.21,.5,0,.68-.37,1.55-1.1,2.58Zm-21.38-9.19l.15-.14h-.15v.14Zm.18-8.11l.47,.19h.01c-.11-.73-.13-1.46-.13-2.17v-.22c-.13,.16-.36,.23,.26,.21-.09,.06-.16,.15-.16,.27,0,.85-.63,.46-.63,.47,.11,.11,.31,.31,.31,.67,0,.12-.06,.35-.13,.59Zm.38-3.8l-.31,.6h.03c.11,.05,.2,.12,.26,.2v-.44c.01-.12,.02-.24,.02-.37Zm.17-7.4c-.11,.65-.49-.34-.68-.34-.08,0,.55,.01,.55,.01h0c-.64,0,.02,.25,.02,.46,0,.52-.64,.75-.62,.83,.2,.16,.3,.37,.3,.62,0,.32-.16,.66,.54,1.06-.49,.11-1,.26-1.05,.38,0,0,.01,.01,.02,.02,.27,.25,.49,.44,.49,1.08,0,.04-.11,.27-.2,.43-.08,.16,.52,.33,.52,.86v.1c0,.19-.03,.77-.58,.9,.12,0,.24,.03,.34,.1-.04-.16-.02-.33,.06-.48l.28-.48v-5.57Zm.13,12.39c-.11,.12-.27,.19-.45,.19h-.42v.55c.08-.16,.17-.24,.26-.24h.16c.29,0,1.31,.1,.6,.38,.02,.07,.02,.13,.01,.2h.21c-.16-.35,.56-.71-.38-1.08Zm.13,4.56c.47,.68,.78-.22,1.62-.41-1.02,.12-1.35,.44-1.62,.41Zm18.67,8.96h.55c.27-.19,.54-.46-.25-.84-.15,.21-.44,.27-.71,.26h0c.24,.09,.39,.31,.4,.56v.02Zm-.03,1.11c-.55,.07-.45,.19-.4,.32,.06-.03,.1-.06,.11-.09-.06-.11-.15-.26-.19-.31-.09,.67-.14-.2-.17-.31,.58,.06,.58,.12,.58,.26,0,.04,0,.11,.06,.13Zm-8.03-12.32c-.61,0-2.98,.18-4.12,.26l-.62,.05c-2.2,.49-3.56,5.49-3.56,7.37,0,2.22,.97,3.64,2.06,4.78,.65,1.26,1.22,1.28,1.43,1.96,.61,.14,1.53,.44,1.82,.94h2.78c.06-.11,.16,.54,.28,0,.98-.71,2.6-.9,2.71-.9,1.75,0,2.08-3.6,2.08-5.79,0-2.93-1.46-8.67-4.84-8.67Zm2.98-1.67c.16,.12,.26,.16,.58,.17,.55-.02-.15-.03-.09-.04,.32-.04-.32-.08-.49-.13Zm1.89,.9c-.15,.46-.25-.24-.28-.4-.15-.07-.39-.16-.67-.24,.08,.06,.14,.14,.18,.24l.97,2.21h.02c.44-.12,.43-.12,.62-.01,.19,.62,.31,.32,.31,.54v1.19c.72,1.03,.99,1.48,1.2,2.31,.75,.38,.21,.82,.31,.98,.12,.19,.13,.43,.02,.63-.03,.07-.08,.12-.14,.17,.01,.01,.03,.03,.03,.03,.12,.12,.18,.96,.18,.44,0,.16-.05,.35-.17,.93-.04-.01-.08,.12-.09,.18,0,.09,.04,.13,.32,.33,.21,.14,.53,.71,.68,.74-.02-5.27-1.23-8.82-3.51-10.27Zm-23.89,11.61c0,.08-.02,.16-.05,.63-.19,.06-.53,.25-.75,.38q-.19,.1-.19,.86c0-.53,0-.48,0-.44,.22,.14,1.01,.41,.39,.67-.17,.24-.36,.43-.6,.47-.17,.2-.4,.9-.54,1.34-.29,.88-.56,1.7-1.07,2.08-3.75,2.81-8.07,4.11-13.59,4.11-.12,0,.61-.03-.33-.1l-3.22-2.45c-2.28-.1-3.02-1.41-3.67-2.57-.43-.77-.84-1.49-1.44-1.88-.11-.07-.19-.17-.24-.29-1.14-2.78-1.29-5.35-1.29-8.17,0-.07,.01-.14,.04-.21l1.98-5.5c.15-.44,3.33-3.49,3.61-3.73,1.97-1.8,5.21-3.06,7.85-3.06,1.81,0,3.92,.72,5.81,1.97,5.16,3.46,7.35,7.69,7.35,14.65,0-.35-.02,.14-.03,.56-.01,.31-.02,.59-.02,.65Zm-11.76,6.85c.44,0,.98-.1,1.55-.27h-2.99l-.12,.13c.49,.11,.94,.13,1.56,.13Zm-6.04-1.35v.33c.24-.07,.43-.16,.5-.25-.11-.09,.54-.19-.53,.31,.02-.52,.03-.46,.03-.39Zm-4.03-9.96s0-.08,.01-.12c-.08,.04-.16,.08-.24,.12h.23Zm-1.96-1.02c1.03-.08,.33-.17,.49-.04-.23,.31-.09-.12-.49,.04Zm-.03,3.29c-.02,.06-.03,.14-.04,.22,.55-.06,.38-.14,.57-.22h-.53Zm.75,2.8l.02,.06s.07-.05,.1-.08c-.04,0-.08,.01-.12,.02Zm.48-9.54c.34,.05-.19,.32-.25,.67,.49-.08,.97-.25,1.31-.19-.33-.41-.7-.48-1.06-.48Zm1.67,13.82c.06-.08,.12-.21,.18-.4-.08-.34-.12-.47-.12-.6v-.16l-.56-.17c.21,.38,.4,.63,.51,1.33Zm-.02-15.71c-.13,.53-.33,.29-.46,.44,.04,0,.09,0,.16,0,.16,0,.92-.02,.85-.04l.07,.43c-.23-.51-.47-.81-.62-.84Zm1.84,16.15c-.17,.05-.36,.11,.24,.16-.56,.03-.42,.01-.24-.16Zm3.11-19.67c-.46,.11-.99,.48-1.5,.84h0c.08,.03,.15,.05,.22,.07,.16,.05,.3,.09,.38,.11,.31,0,.71-.09,1.09-.8,.01-.01,.03-.03,.04-.04-.08-.04-.15-.1-.23-.17Zm5.02-.03c-.08,.06-.2,.15-.32,.27,.08,.02,.16,.03,.24,.05,.67,.14,2.23,.41,2.04,.89,.09-.91-1.4-1.17-1.95-1.21Zm1.61,3.2c-.48-.03-.94-.12-1.39-.2-.55-.1-1.07-.2-1.59-.2-2.24,0-3.46,.8-5.19,2.47,.41,.12,.01,.43-.21,.73-.06,.47-.14,1.09-.65,1.47,.31,.81-.83,3.86-.88,3.78-.05,.31-.05,.53-.05,.78,0,2.9,1.36,4.81,4.06,5.92,.27,0,.73,.03,1.18,.05,.48,.02,.95,.05,1.12,.05,6.04,0,7.19-2.92,7.19-8.3,0-.98-.63-3.28-1.12-4.41-1.07-.37-1.9-1.3-2.45-2.14Zm3.54-.1s.02,.06,.04,.08h.03s-.05-.06-.07-.08Zm.58,14.85c.4-.07,.77-.2,.97-.38-.32,0-.71,.15-.97,.38Zm1.79-1.76c0,.07,0,.14,0,.21,.01-.07,.03-.14,.04-.21h-.03Zm.33-8.21c-.09,.01-.14,.03-.15,.04,.03,.05,.08,.14,.16,.28,.02,.04,.05,.09,.07,.14,.04-.01,.08-.03,.12-.03-.05-.16-.13-.34-.2-.43Zm.37,3.48l-.18-.6c.06,.02,.13,.04,.2,.05,0-.09-.01-.17-.02,.54Zm-.14,1.52c-.06,.26-.14,.45-.22,1.01-.03,.27-.06-.27-.08-.21,.63,.28,.63-.47,.63-.66-.05-.07-.18-.11-.33-.13Zm-25.08-10.59c0-.62,.03-.39,.09-.08,.1,.65-.42,.81-1.46,1.11-1.81,.53-5.57,1.64-5.87,4.01-.03,1.08-.12,.67-.22,1.38-.2,1.37-.51,2.41-.51,3.21,0,1.24,.17,2.49,.35,3.82,.19,1.37,.38,3.1,.38,4.22,0,.19-.12,1.34-.26,2.11l.12,.13c.13,.15,.18,.91,.13,.54-.26,1.15-3.8,1.16-3.83,1.16-.17,0-.41,0-.29-.08-.78,.28-.75,.39-1.8,.39-.02,0-1.71-.08-1.71-.93l-.36-3.2v-21.75c0-.34,.28-.62,.62-.62h5.47c.92,0,1.25,.54,1.25,1.03,0,.04,0,.08,0,.13,1.7-1.1,4.61-2.88,7.35-2.88,.2,0,.38,.09,.5,.25,.28,.37,.28,.92,.28,1.62,0,.55-.05,1.11-.1,2.5-.05-.17-.11,.48-.11,1.92Zm-9.85,17.43v-.03s-.04,.04-.06,.06c.02,0,.04-.01,.06-.02Zm-.26-3.35c-.08,.1-.16,.78-.23,.29-.14,.17-.28,.34-.02,.51,.09-.08,.22-.29,.26-.8Zm-.06-8.02l-.92,1.13c.31-.11,.58-.23,.74-.31,.06-.28,.12-.55,.18-.82Zm-.24,4.25v-.16c-.06,.42-.77,.91-1.16,1.41,.62-.2,1.16-.68,1.16-1.25Zm-1.92,7.18c.13-.11,.26,.33,.38-.36-.16,.57-.31,.8-.41,.2,.01,.05,.02,.1,.04,.16Zm.37-4.15c-.34,.12-.65,.33-.03,.72-.47-.22-.2-.48,.03-.72Zm1.64-15.21c-.78-.05-.57-.12-1.96-.19,.06,.1,.1,.21,.1,1,0-.46-.02-.29-.04-.15,.13-.09,.25-.19,.39-.32h0c.2,.38,.49,0,.72-.12,.18-.04,.29-.19,.79-.21h0Zm-.74,5.91c.45-.12,.89-.23,1.1-.29,.1-.03,.3-.03,.31-.01,.18-.75,.38-.94,.63-2.21-.75,.82-1.46,1.85-2.04,2.52Zm8.11-7.18c-.05-.04-.1-.07-.15-.11-.03,.09-.08,.18-.15,.24l-.03,.03c.34,.58,.65,.62,.68,1.42,.17-.29,.27-.63,.27-1,0-.12-.45-.45-.61-.58Zm-23.31,12.7c-1.38,.29-3.31,1.15-5.53,1.15-.79,0-2.03-.54-3.03-.6-.33-.02-.63-.04-.43-.05-.17,.51-.53,.3-.65,.48-.03,.04-.07,.1-.11,.18v10.68c0,.32-.22,.51-.45,.71-.11,.21-.33,.22-.48,.22-1.48,0-3.7-.51-4.85-1.37-.16-.12-.25-.3-.25-.5,0-2.42-.17-4.85-.34-6.59-.17-2.97,.02-5.4,.02-7.83,0-.96-.24-1.97-.14-2.86,.08-.66,.15-1.28,.15-1.7,0-.72-.11-1.04-.21-1.33-.08-.23,.2-.47,.2-.79,0-.37-.25-.58-.17-.74,.08-.15,.18,.47,.18-1.08,0-.36-.11-.61-.22-.88,.72-.24-.2-.49-.2-.78,0-.56,.11-1.07,.22-1.56,.1-.45,.19-.87,.19-1.29,0-.52-.12-.54-.49-.62-.25-.05-.91,.03-.91-.88,0-.67,.44-1.11,1.4-1.6v-2.46c0-.96,1.08-1.85,1.51-1.85h6.98l.49-.25c.09-.04,.18-.07,.28-.07h5.72c.06,0,.12,0,.18,.03,.72,.22,1.25,.55,1.82,1.15,.76,.21,1.55,.7,3.05,1.07,.13,.03,.25,.11,.33,.21,.92,.37,.6,.73,.89,1.07,2.11,2.51,3.78,4.5,3.78,8.5,0,5.1-3.13,11.11-8.93,12.23Zm-12.31,6.36c.78,.12,.71,.27-.27,.44,.5,.3,.21-.25,.27-.44Zm.12-14.18c0-.28,0-.14-.04-.73-.55,.6-1.04,1.32-1.11,1.96,1.43-.08,1.15-.37,1.15-1.23Zm-.36-4.72c0-.11,0-.21-.01-.31-.4,.6-.72,1.37-.72,1.92,0,.05,0,.1,0,.13,.12-.02,.26-.03,.39-.02,.09-.12,.19-.24,.3-.35,0-.2,.01-.41,.02-.6,.01-.26,.02,.14,.02-.76Zm-.18,20.85h-.18c-.11,0-.22-.03-.31-.08,.39,.99-.42,.92-.68,1.29,.37-.24,.88-.75,1.17-1.21Zm-.2-10.12c-.44,.15-.61,.32-.65,.66l.65-.66Zm.1-12.72c.03-.95,.07-1.24,.11-1.53-.3,.21-.61,.49-.81,1.53h.7Zm-.03-6.91c.05,.07,.08,.8,.09,.23,.04,.09,.09,.2,.11,.34,.34-.24,.69-.16,1.03-.68-.53,.02-.93,.06-1.24,.11Zm10.81,18.49c.2,.05,.46,.09,.69,.12,0-.17,.06-.33,.18,.36,.15-.96,.46-1.15,1.6-1.31-1.49,.14-2.17,.26-2.13,.38-.53,.48-.39,.25-.35,.46Zm-6.94,.71c-.04,.33-.06-.16-.07-.25-.27,.05-.47,.11-.61,.5,.46,.36,.44-.27,.68-.25Zm-1.06-14.74v2.29c.06,.67,.11,1.7,.16,2.89,.08,1.85,.23,5.16,1.18,6.11h3.2l.03-.05c.14-.24,.43-.36,.7-.29,.08,.02,.15,.06,.21,.1,.8-.27,1.79,.38,2.52-.21,.26-.13,.47-.24,.76-.27,1.92-.13,2.79-1.75,3.46-4.62,.11-.37,.33-1.13,.35-1.46,0-1.01-1.7-4.1-2.53-4.53-.17-.08-.81,.2-2.89,.2-.16,0-.58,.1-1.05,.21-.6,.15-1.28-.65-1.6-.65-1.2,.05-3.76,.21-4.48,.27Zm12.88-2.24c-.53,0-.76-.15-.86-.37-.1-.22-.06-.49,.11,.21l.03-.27c-2.44-1.84-4.29-2.06-7.06-2.06-.59,0-1.05,.1-.87,.32-.51,.02-.43,.17-.35,.73,.14-.53,.24-.38,.27-.22,.03,.17,0,.33-.11,.47-.05,.16-.11,.85-.17,.21,1.25-.27,1.66-.3,2.06-.3,.27,0,.53,.01,.76,.03,.06,0,.12,0,.18,.01l.33-.36s.04-.05,.07-.07c.24-.24,.62-.24,.87-.01,.12,.11,.18,.26,.19,.41,.61,.07,.7,.14,.98,.58,1.16-.21,1.89-.06,2.17,.46,.49,.72,.21,.36,.03,.53,.41,.33,.95,.78,1.61,.94-.26,.21-.11,.46,0,.87,.18,.1,.22,.17,.86,.2-.13,.03,.07,.2,.14,.43,.07,1.12,0,.49-.19,.65l-.03,.03c.1,.06,.2,.12,.3,.19-.04-.16-.04-.23-.04-.27,0-.26,.13-.49,.4-.93,.63-.11,.16-.27,.23-.38-.34-.6-1.38-2.01-1.9-2.01Zm2.87,3.63c.03,.11-.4,.46-.48,.34-.14,.14-.34,.2-.53,.17,.14,.22,.24,.49,.3,.84,.39-.29,.73-.63,.73-.93,0-.19,0-.32-.02-.42Zm1.74,3.07c-.79-.05-.73-.13-.73-.32,0-.17-.02-.27-.03-.31-.02,0-.07,0,.22,0-.89,0-.93,.43-1.56,.93,.52-.02,1.05,.41,2.1-.3Zm-1.23,2.5c-.46,.22-1.05,.52-1.45,.76h1.14c.1-.14,.22-.45,.32-.76Zm-.9,2.6c.18,.16-1.42,.53-1.68,1.74,.16-.5,.26-.32,.26-.11,0,.68-1.23,1.23-2.88,1.68,.34,.01,.81,.04,1.17,.04,.57-.06,2.57-1.86,3.13-3.34Z"/></g></g></svg>