<?xml version="1.0" encoding="UTF-8"?><svg xmlns="http://www.w3.org/2000/svg" viewBox="0 0 252.6 122.73"><defs><style>.d{fill:#fff500;fill-rule:evenodd;}</style></defs><g id="a"/><g id="b"><g id="c"><path class="d" d="M251.75,113.56h-.77c.04,.77,.1,1.86,.17,2.86,.09,1.5,.17,2.8,.17,3.26s-.6,3.05-1.95,3.05h-5.01c-.91,0-1.14-.1-1.3-.28-.16-.18-.24-.42-.22-.09,.03-.83-.05-.96,.71-1.05-1.17-.36-2.14-.78-4.63-.79-.53,.12-1.18,.68-1.18,1.35,0,.34-.2,.64-.51,.78-.11,.05-.23,.07-.34,.07,.5,0-.41-.08-.57-.22-1.89-1.18-7.07-7.49-7.07-10.9,0-.25,.18-.91,.46-1.56-.37-.09-.65-.43-.65-.82,0-3.18,0-7.75,1.28-11.34,0-8.78,.15-16.4,.72-23.77-.29-6.49-.17-12.63-.17-18.84,0-10.72-.85-17.07-2.52-18.88-.11-.12-.18-.26-.21-.42-.1-.55-.17-1.09-.24-1.61-.33-2.49-.59-3.34-1.92-3.39-.82,.19-2.54,1.07-3.93,2.11-3.02,1.25-4.6,2.05-5.26,2.24-.35,.17-.85,.33-1.23,.14-.08-.04-.21-.09-.25-.1-.34,0-.61-.2-.74-.52-.13-.32-.02-.68,.22-.92l.58-.58c-.19-.12-.41-.22-.36-.17-.57,.14-.81,.2-1.04,.16-.27-.04-.5-.22-.62-.46-2.03-3.16-3.58-7.51-3.58-11.94,0-3.11,2.15-3.44,3.18-3.56,.11-.01,.25-.03,.36-.05,.08-.21,.24-.38,.45-.48,8.6-3.76,14.12-9.23,20.23-16.82,.16-.2,.4,.29,1.41,.29h12.65c.47,0,.85-.23,.85,.24,0,1.02,.32,1.88,.66,2.79,.38,1.02,.81,2.17,.81,3.63v.54c.02,1.19,.03,2.41-.51,3.58,.4,.07,.7,.42,.7,.84,0,1.44,0,3.28-.72,5.38h.05c.47,0,.85-.16,.85,.31,0,1.98-.36,11.73-.56,13.66,0,.27-.16,.92-.28,3.03-.46,0-.7,.86-.78,1.29,.15,.66,.38,.4,1.06,.5-.23,.12,0,.43,0,.8v18.72c1.28,.76,1.28,2.44,1.28,3.31,0,.67,0,2.12-.7,3.03l.21,.17c.18,.15,.28,.35,.3,.58,.02,.23-.05,.45-.2,.62l-.63,.73,.63,1.37c.13-.49,.2-.29,.2-.09v14.29l.99,.85c.19,.16,.3,.4,.3,.64v31.56c0,.47-.38,.85-.85,.85Zm-13.23-105.23c-3.56,1.63-6.39,4.52-9.13,7.33-2.08,2.47-4.23,4.32-6,6-1.45,.49-2.2,.85-2.86,1.89-1.76,.11-2.68,.65-3.12,2.94,4-.3,5.43-2.16,7.42-3.82,1.64-1.37,3.06-2.56,4.72-2.56,2.31,0,3.7,.38,5.77,2.91,.2-.02,.27,.29,.18,.57s-.32,.51-.61,.58c-.8,.2-.82,.42-.82,1.56,0,.67,.07,.72,.79,1.13l.26,.16c.26,.15,.41,.43,.41,1.03,0,.45-.36,1.1-.71,1.97-.27,.24-.53,.7-.57,1.11,2.56,8.82,2.56,11.8,2.56,26.9,0,4.06-.07,8.13,.67,11.11-.27,1.53-.5,2.78-.55,4.01,1.13,1.31,1.18,3.98,1.17,6.06h.8c.37,0,.69,.23,.81,.89,.04-.2,.23,.39,.23,.87,0,.2-.07,.39-.2,.54-.04,.05-.82,.96-2.01,1.81,.66,1.91-.32,4.12-.58,6.26-.26,2.15-.21,4.38-.21,7.04q0,.56,1.24,.56c.38,0,.7,.24,.81,1,.11-.04-.03,.35,.02,.56-1.69,.89-2.1,2.22-2.52,4.26,.93-.13,1.51-.49,3.01-.91,.29-.66,1.53-1.42,4.86-1.42-.36,0-.07,.18,.08,.46,.15,.28,.12,.73-.06,.88-1.21,1.7-3.03,2.65-4.63,3.49-2.35,1.23-4.21,2.21-4.21,5.01,0,3.54,3.37,5.54,10.6,5.38v-2.37c-2.11,.76-5.26,1.14-5.76,1.14-.34,0-.65-.21-.78-.52-.13,.4-.06-.68,.18-.93,.42,.06,3.69-2.17,3.64-1.82,.09-.29,.18-.44,.94-.44h-.12c.19,0,.36,.6,.5-.03,.43,.14,.99,.37,1.4,.7v-2.34l-1.78-1.39c-.29-.31-.45-.63-.42-.96,.03-.33,.25-.61,.56-.72,2.44-.86,2.92-2.51,2.92-5.07v-1.05c.01-1.53,.02-3.26-.3-3.58-.02-.02-.1-.03-.14-.03-.95,0-2.19,1.15-3.4,.66-1.19,.32-2.31,.96-3.21,.96-.47,0-.85-.72-.85-1.19s.38-.85,.85-.85c1.78,0,5.48-3.08,6.44-5.09h-4.24c-.37,0-.7,.05-.81-.6,.37-.36,.03-.74,.34-.95,.33-.22,.7-.44,1.1-.43,1.82-1.29,3.11-2.16,3.11-3.63,0-.97,0-1.17-1.96-1.17-1.06,0-1.4-.26-1.49-.63-.1-.37,.06-.14,.39-.95,2.08-1.21,3.07-2.1,3.07-3.67,0-1.29-.43-1.73-1.54-1.73-.42,0-.77-.3-.84-.71-.07-.41,.17-.81,.57-.94,.33-.15,1.35-1.15,1.62-1.59v-.41c.02-2.38,.05-7.35-1.81-9.22-.48-.48-1.05-.71-1.75-.71-.28,.04-1.17,.57-1.44,.84-.03,.04-.06,.07-.08,.11-.26,.35-.75,.44-1.13,.76-.37-.78-.51-1.26-.19-1.65,.38-.08-.02-.16,.05-.24,1.11-1.43,2.62-2.62,4.15-3.27v-9.34l-.85-.85c-.31-.31-.33-.81-.04-1.15l.9-.51V11.5c-1.44,.98-3.52,1.64-5.53,2.57-1.21,.09-2.35,.45-3.27,1-.34,.21-.78,.14-1.05-.15-.27-.29-.31-.73-.08-1.06,2.32-3.38,5.06-4.95,8.59-4.95h1.78c-.59,0-.5,.01-.42,.04v-1.68c-.39-.63-1.59-.97-4.93-1.24-.04,0-.07,0-.1-.01-.45,0-.73,.09-.92,.25l.75,.64c.22,.19,.33,.48,.29,.76-.04,.29-.23,.53-.49,.65Zm-59.29,78.79c-3.3,0-3.36-3.57-3.4-6.18-.01-.64-.02-1.24-.07-1.76,0-.33-.18-1.77-.32-2.92-.22-1.76-.35-2.86-.35-3.22,0-.49,.1-.94,.2-1.37,.08-.36,.16-.71,.16-1.02,0-1.77-1.05-3.02-3.12-3.73-.03-.01-.06-.02-.09-.04-.52,.2-1.17,.3-1.88,.41-2.11,.34-3.64,.7-3.97,2.32,0,.23-.02,.72-.03,1.95-.01-.28-.02,.28-.02,.33,0,2.14,.18,4.32,.36,6.43,.18,2.12,.36,4.31,.36,6.84,0,1.43-3.2,1.43-4.57,1.43-.65,0-1.97,0-2.53-.19-.19-.51-.42-.52-.59-.27-.2-.48-.31-.69-.3-.92l.07-1.37c.17-3.13,.29-5.39,.29-8.52,0-1.01-.37-4.35-.89-6.77-1.27-1.38-2.2-.9-3.83-2.25,.67-.02,.17-.04-.15-.07-.79,1.31-2.21,1.4-3.27,1.81-.08,.28-.21,.99-.44,1.37-.3,.89-.76,2.23-.78,2.67,0,0,0,.14-.01,.32-.01,.29-.04,.72-.04,.94,0,.85,.1,1.65,.2,2.5,.1,.85,.21,1.73,.21,2.65,0,2.92-.21,7.95-1.64,8.84-.1,.06-.21,.09-.33,.09-.07,0-.29,.01-.51,.02-.25,.01-.5,.03-.58,.03-.04,0-4.05-.5-4.26-1.39-.02-.09-.02-.19,0,.41,0-.99-.01-1.52-.03-2.04-.01-.57-.03-1.12-.03-1.35,0-1.49,.17-2.94,.34-4.05,.16-1.69,.34-3.12,.34-4.57,0-1.29,.1-2.04-.24-2.26-.09-.96-.17-.98-.17-2.06,0-1.7,.12-3.56,.22-5.2,.43-.41,.14-1.42,.14-2.8,0-.16,.07-.32,.18,.06l.36-.86c.17-.17,1.02-.22,.64-.15,.14,.02,.57,.02,.89,.02,.6,0,.98-.07,1.09-.15,.23-.07,.5-.16,.94-.16,.67,0,1.16,.69,1.43,1.31,.36-.17,.69-.35,1.02-.11,1.61-1.22,3-1.93,5.35-1.93,2.96,0,6.12,1.72,8.49,4.15,.85,.18,3.22-2.25,3.49-2.03,.61-.63,.21-.72,.32-.75,.65-.18,4.14-.99,4.18-.99,.05-.01,.09-.02,.14-.02,7.02,0,10.2,5.57,10.85,10.78,0,.25,0,.51-.01,.82-.01,.44-.03,.97-.03,1.49,0,.55,.03,1.23,.26,1.58,.07,.1,.1,.22,.1,.34,0,1.44,.02,2.75,.03,3.92,.01,.94,.02,1.78,.02,2.52,0,1.65,0,5.09-4.2,5.09Zm-32.96-23.06s.02,.06,.03,.09c.12,.01,.23,.05,.51,.13,.14,.01,.27,.02,.39,.04,.35-.09-.47-.18-.43-.25,.28,0-.36-.02-.5,0Zm3.19,1.97c.65-.02,.37-.53,.54-.8v-.02c-.26,.27-.45,.71-.54,.82Zm6.34-2.97h.08c-.69,0-1.68,0-2.44,.59,.38-.1,.77-.17,1.26-.17,.09,0,.26,.09,.38,.22,.04-.03,.09-.06,.13-.09,.32-.22,.73-.5,1.31-.5,.26,0,.49,.16,.58,.4,.05,.14,.05,1.07,0,.44,.25,.13,.49,.15,.88,.15,.22,0,.52-.1,.52-.21,0-.31-.35-.83-2.71-.83Zm4.26,1.61c-.26,0-.33,.03-.55,.39,.23-.04,.6-.13,.97,.46-.15-.8-.28-.85-.42-.85Zm3.85,18.35h0v-.14c-.18-.03-.36,.06-.53,.14h.53Zm0-5.77v-.23c-.09,.07-.18,.15,.11,.23h-.11Zm-1.39,6.39h.22c0-.1,.2-.19,.58-.27-.75,.05-.83,.09-.9,.14,.04,.04,.07,.08,.1,.13Zm-.06-4.29c-.28,.12-.43,.29-.5,.49l.5-.49Zm1.08-5c.22,0,.9,.01,.2,.03,.1-.29,.16-.03,.16-.82,0-.05,0-.12,0-.18-.42,.12-1.12,.66-1.59,1.12,.54-.08,.7-.16,1.23-.16Zm-.7-5.27c.43-.15,.69,.44,1.66-1.53-.61,.43-1.32,1-1.66,1.53Zm13.16-4.71c-.15,0-.2,.02,.53,.07-1.03,.08-1.27,.19-1.72,.19-.34,0-.62-.28-.62-.62,0-.14,.04,.64,.09-.35-.37-.11-1.1-.22-2.21-.22,.12,.2,.12,.45-.01,.65l-.15,.23c.88,.18,2.36,.87,2.63,.88,.55,0,.25-.28,.41-.45,.2-.03,.39-.05,.48-.05,.34,0,.62,.28,.62,.62,0,.09,0,.17,0,.23,.27-.03,1.41-.04,.83,.19,.12,.13,.17,.31,.15,.48,0,0-.02,.17-.03,.32,.09,.14,.16,1.06,.23,.47,.03,.06,.06,.14,.1,.22,.25-.1,.7-.29,.99-.14,.2-.4,.43-.38,.61,.31-.87-1.73-2.35-3.02-2.93-3.02Zm4.06,5.3h-.47c-.3,0-.55-.21-.61-.5s.1-.58,.38-.69c.01-.03,.15-.26,.23-.41-.03,.45-.17-.54-.38-.86,.04,.2-.01,.42-.17,.79-.17-.05,.35,.28-.64,.56,.43,.08,.51,.8,.51,.65,0,.09-.03,.25-.07,.41,.14,.06,.25,.5,.32,.31,.1,.22,.07,.47-.08,.66-.17,.66-.22,.58-.28,.97-.03,.3-.06,.43-.11,.65,.07-.03,.15-.04,.22-.04,.18,0,.36,.08,.48,.23,.17,.21,.18,.5,.04,.72,.27-.04,.54-.1,.78-.18,0-.2,.01-.4,.02-.6,.01-.32,.03-.63,.03-.96,0-.36-.07-1.18-.21-1.72Zm.46,5.29c-.31,.24-.62,.51-.68,1.39,.31-.75,.69-1.01,.69-1.38h0Zm-1.58,5c.4,.04-.19,.22-.1,.42,.13,.27,.28,.59,.28,1.03,0,.22-.12,1.14-.29,.53,.04,.42,.13,.68,.23,.96,.11,.3,.23,.63,.28,1.14,.77-.08,1.18-.34,1.23-.77-.2-.11-.34-.32-.34-.55,0-.24,.13-.47,.34-.57,0-.01,0-.03,0-.06,0-.19-.07-.4-.15-.63-.1-.3-.21-.06-.21-1.03,0-.25,.13-.43,.35-.15,.02-.72,.35-1.14,.6-1.32-1.23,.02-2.03,.5-2.23,1.01Zm-39.92-6.67c.02,.08,.03,.15,.02,.23-.02,.17-.1,.32-.24,.42-1.06,1.08-2.99,1.22-6.51,1.22h-.73q-5.46,0-8.14-.17l-.47-.31c-.05,0-.1-.02-.14-.04,.11,1.69,.54,3.91,1.36,4.76,.34,.8,1.29,.7,2.05,.97,.49,.17,.95,.33,1.31,.51,.88,.61,1.68,.61,1.33,.61,1.29,0,2.69-.34,4.04-.67,1.38-.34,2.81-.68,4.17-.68,1.76,0,1.76,2.07,1.76,2.75,0,1.31,.45,2.01-1.15,2.18-.18,.03-.25,.04-.38,.22-.08,.12-.21,.2-.35,.23-.63,.16-2.99,.54-5.16,.89l-.97,.16s-.07,0-.1,0h-.65c-1.69,0-4.15-.04-6.56-.7-3.62-1.19-7.5-7.64-7.5-11.29,0-3.26,1.67-8.65,3.31-11.39,.1-.16,.48-.27,.46-.3,.09-.01,.17,0,.26,.02,.2-.09,1.4-.36,.88-.54,.56-.37,1.05-.7,1.48-.74l.68-.17c1.35-.33,2.74,.2,4.16,.2,.22,0,1.09-.75,.52-.58,.73-.18,1.28-.18,2.03-.18,1.73,0,4.49,.2,5.15,1.43,2.06,.27,3,2.32,3.64,3.7,.25,.54,.58,1.27,.79,1.37,.21,.1,.34,.56,.34,.56v4.47c0,.2,.23,.39-.26,.5l-.44,.32Zm-12.88,10.39c.32-.04,.64-.19,.86-.41-.23,.03-.27,.06-.5,.09-.08,.15-.21,.26-.37,.31,0,0,.01,0,.02,.02Zm-.76-.36s-.02-.05-.03-.07l-.06,.05s.06,.01,.08,.02Zm-5.97-8.89c.08,.3,.16-.54,.64-.48-.1-.06-.15,.7-.15,.08,0-.33,.11-.39,.32-.46h0l-.81,.86Zm.47-5.97c-.03,.11-.06,.22-.09,.77,.05-.58,.09-.7,.09-.76h0Zm-.06,5.99c0,.07-.02,.13-.05,.2,.05-.02,.09-.05,.12-.07-.02-.04-.05-.08-.07-.12Zm.98,5.61c.05-.36,.09-.44,.13-.52-.09,.02-.16,.04-.22,.06,.03,.05,.06,.11,.09,.46Zm.3-2.06c-.41-.07-.56-.14-.62,.21,0-.02,0-.03,0-.06-.06-.28-.11-.19-.15-.1,.11-.01,.21-.03,.77-.05Zm-.77-10.73c.19-.29,.43-.59,.68-.91,.29-.36,.9-.77,.82-1.14-.64,.94-1.14,1.28-1.5,2.06Zm7.71-1.19c-2.14,0-4.22,1.07-5.14,3.01,1.14,.32,4.62,.53,6.91,.53,1.65,0,1.61-.1,2.39-.21,.53-.07,1.07-.14,1.66-.18-.1-.22,.32-.19-.3-.61-.02,0-.03,0-.05,0-.21-.05-.38-.2-.45-.4,.1-1.17-3.58-2.13-5.03-2.13Zm4.37-1.44c-.06-.38-.13,.04-.2-.77,.28,.1,.62,.17,.91,.18-.31-.07-.54-.18-.71,.58Zm3.42,.74c-.09,.02,.29,.02-.26,.02-.5-.07-1.6-.48-1.99-1.27-.11-.01-.21-.02-.3-.04,.24,.09,.41,.31,.41,.58,.11,.27,1.2,1.25,1.62,1.45,.18-.03,.48-.12,.65-.2-.03,.13-.09-.36-.15-.55Zm.89,2.26s-.15,.02-.15,.02c0,.05,0,.35,0,.61,.26,.78,.42,1.23,.51,1.47h0c.12-.08,.22-.15,.22-.69,0-.42-.06-1.4-.57-1.4Zm-22.87,19.41c-.03,.22,.43,.41-.39,.5l-.68,.83c-.07,.27,.14-.53-.22-.53-.12,0-.25,.57-.35-.11-.11-.07-.18-.17-.23-.29-.19,.01-.38,.03-.56,.04-.35,.03-.68,.05-.99,.05-.47,0-1.68,0-2.08-1.5-1.94-.35-1.95-2.47-3.34-4.05l-.1-.25c-.02-.06-.03-.11-.04-.17-.58-6.93-.63-13.98-.63-21.2v-1.65c-.02-2.99-.03-6.09,.52-9.34,.25-.2,0-.38,.18-.47,.79-.41,1.61-.55,2.4-.69,.73-.13,1.42-.25,2.09-.57,.15-.07,.29-.11,.42-.11,.64,0,1.09,.49,1.09,1.19,0,4.16-.17,8.43,.36,12.57-.8,2.75-.92,5.6-.98,8.38,0,1.59-.1,2.91-.19,3.9-.09,.26-.17,1.03-.17,1.9,0,4.8,1.02,6.76,3.54,6.76,.07,0,.45,.01,.21,.04,1.81,.35,1.45,.75,1.45,1.26,0,.47-.36,1.33-.91,2.57-.16,.36-.35,.8-.4,.94Zm-6.44-11.02s.04,.04,.06,.06l-.03-1.74-.03,.03v1.64Zm.06-2.75h0c.02-.08,.04-.2,.06-.34-.06,.09-.1,.18-.13,.28,.02,.02,.05,.04,.07,.06Zm.07-11.54c-.09,.87-.23,.32-.33,.52,.1,.04,.21,.1,.31,.19,.56-.47,.24-.88,.29-1.45-.05,.01-.1,.02,.37,.03,.41,.09-.46,.19-.46,.27,0,.16,.45,.32-.18,.44Zm-.08,7.31h0v-.42s-.09,0-.14-.01c.05,.12,.09,.26,.13,.44Zm-.3-4.87c0-.06,0-.11,0-.17,0-.04,0-.07,0-.11,.02,.07,.05-.25,.07-.37-.09,.05-.22,.21-.3,.72,.07-.03,.14-.05,.22-.07Zm-.37-6.7c.05-.06,.1-.13,.14-.19-.06,.02-.11,.04-.15,.06,0,.04,0,.09,0,.13Zm1.04-6.31c-.66,.11-.88,.5-.93,1.52h.1c.3,0,.55,.21,1.1,.49,.09,.09-.38,.22-.38,.39,0,.04,0,.08,0,.11,.04,0,.08,0,.12,0v-2.51Zm.3,28.84h-.05c-.34,0-.62-.28-.62-.62v-.7c-.04,.97-.06,.34-.06,.65s.12,.62,.38,.69c.1,.1,.22,.21,.33,.35,.01-.07,.02-.12,.02-.16,0-.09,0-.16,0-.21Zm.89,2.85c-.05,.1-.11,.2-.16,.3h0s.09-.13,.17-.22c0-.03-.01-.05-.02-.07Zm1.24,1.18l-.08,.04c-.18,.09-.44,.22-.81,.27,.55,.37,1.34,.62,1.94,.72,0-.16,.05,.08,.16-.43-.39-.21-.93-.47-1.21-.6Zm-10.33-3.62c-2.38,4.25-6.16,6.47-11.52,6.47-1.29,0-2.45-.57-3.57-1-.91-.35-1.77-.68-2.6-.73-.03,.05-.06,.12-.09,.17-.26,1.26-.75,1.56-1.84,1.56-1.26,0-3.12-.4-4.25-1.17-.15-.11-.25-.27-.27-.46-.05-.62-.31-3.58-.36-4.15,0-.02,0-.04,0-.06,0-2.83,.08-5.97,.16-9.18,.91-3.95,.2-7.93,.2-11.58v-1.26c-.01-2.82-.02-4.85,.63-8.58,.91-1.5,1.65-1.5,2.33-1.5,2.08,0,3.37,.41,3.37,2.44,0,.36-.11,.77-.33,1.12,.07,.13,.09,.65,.05,.44-.03,.14-.03,.71-.03,1.04,0,.87,.37,5.71,.53,8.28,.03-.13,.05,.16,.06,.37,2.7-1.29,5.93-1.47,8.76-1.47,.23,0,.53,.13,.55,.33,.2,.15,1.42,.42,1.48,.61,1.54,.55,3.59,1.22,3.85,2.46,1.4,.43,1.99,2.59,2.51,4.52,.24,.9,.61,2.25,.9,2.44,1.03,.15,.38,.47,.29,.74-.02,.1-.02,1.39-.02,.89,0,.52,.07,.96,.15,1.43,.08,.5,.16,1.01,.16,1.63,0,.1-.02,.2-.14,.78-.03,.11-.05,.23-.07,.32,.14,.18,.21,.32,.21,1.24,0-.05,.21,.82-1.1,1.86Zm-21.34-9.21l.14-.14h-.14v.14Zm.18-8.12l.47,.19h.01c-.11-.73-.13-.85-.13-2.18,0-.07,0-.15,0-.22-.13,.16-.37,.23-.56,.21,0,.06-.02,.15-.02,.27,0,.37,.05,1.18,.05,1.19,.11-.61,.31-.41,.31-.04,0,.12-.06,.35-.13,.59Zm.38-3.8l-.31,.6h.03c.11,.05,.2,.12,.26,.2,0-.14,0,.18,.01-.44,0-.12,0-.24,.01-.37Zm.17-7.41c-.11-.13-.49-.34-.27-.34-.49,0-.51,.01-.51,.01,.02,0,0,.11,0,.46,0,.52,.04,1.64,.26,1.67,0-.68,.1-.47,.1-.21,0,.61-.16,.66-.34,1.06-.05,.11-.12,.57-.17,.38l.02,.02c1.05,.25,.49,.44,.49,.77,0,.36-.11,.58-.2,.74,.12,.16-.17,.56-.17,.86v.11c0,.19,0,.77,.51,.9-.28,0-.17,.03-.07,.1-.04-.16-.02-.33,.06-.48l.28-.48v-5.58Zm.13,12.41c-.11,.12-.27,.19-.45,.19h-.42v.24c.74-.01,.17-.02,.26-.02h.16c.29,0,.54,.2,.71,.48,.16,.07,.2,.13,.14,.2h-.02c.54-.36-.28-.72-.38-1.08Zm.13,4.57c.47,.12,.78-.22,.95-.41-.35,.12-.67,.26-.95,.41Zm18.64,9.75h.24c.03-.95,.05-1.23,.07-1.61-.15,.21-.43,.27-.71,.26h0c.24,.09,.39,.31,.4,1.11v.24Zm-.72,.35c.61,.07,.25,.19,.29,.32,.07-.03,.1-.06,.11-.09-.06-.11-.15-.26-.19-.31,.23,.24-.14-.2-.17-.31-.06,.06-.06,.12-.06,.88,0-.58,0-.51,0-.49Zm-7.33-12.34c-.61,0-2.98,.48-4.11,.26l-.62,.05c-2.2,.5-3.94,5.5-3.94,7.38,0,2.22,1.35,3.65,2.44,4.79,.65,.86,1.22,1.29,1.43,1.96,.61,.14,1.53,.44,1.81,.94h2.74s.02,0,.03,0c.06-.11,.16,.16,.28-.26,.98-.45,2.25-.99,2.7-.99,1.53,0,2.08-3.27,2.08-5.46,0-2.93-1.46-8.68-4.83-8.68Zm2.97-1.67c.16,.12,.26,.16,.31,.17,.06-.02,.12-.03,.59-.04-.57-.04-.74-.08-.91-.13Zm1.89,1.66c-.15-.85-.24-.99-.28-1.16-.07-.07-.39-.15-.67-.24,.08,.06,.14,.14,.18,.24l.97,2.22h.02c.19-.12,1.32-.13,.62-.01,.19,.11,.31,.32,.31,.54v1.19c.72,1.19,.99,2.33,1.2,2.32,.1,.39,.3,.82,.31,.98,.12,.19,.13,.43,.02,.63-.04,.07,.41,.12-.04,.17,.06,.01,.19,.03,.21,.03-.16,.12-.1,.46-.1,.44,0,.16-.05,.35,.18,.78-.39,.14-.43,.27-.44,.34,0,.09,.04,.13,.32,.32,.21,.15,.52,.36,.68,.74-.01-4.51-1.23-8.84-3.5-9.53Zm-23.85,10.88c0,.08-.02,.16-.05,.24-.19,.46-.4,.65-.75,.77q-.19,.11-.19,.43c0,.44,0-.05,0,0,.22,.14,.34,.41,.28,.67-.06,.89-.25,.43-.49,.47-.17,.2-.1,.91-.54,1.34-.28,.88-.55,1.7-1.07,2.08-3.35,2.81-8.06,4.12-13.56,4.12-.12,0-.23-.03-.33-.1l-3.91-2.46c-1.58-.1-2.31-1.41-2.8-2.57-.6-.77-1.01-1.5-1.61-1.88-.11-.07-.19-.17-.24-.29-1.14-2.78-.86-5.58-.86-8.18,0-.07,.12-.14,.36-.21l1.74-5.51c-.37-.44,2.81-3.49,3.08-3.74,1.97-1.8,5.2-3.07,7.84-3.07,1.8,0,3.92,.72,5.8,1.98,5.15,3.47,7.34,7.71,7.34,14.48,0-.15-.02,.34-.03,1.33-.01-.25-.02,.02-.02,.09Zm-11.74,6.86c.44,0,.97-.1,1.55-.27h-2.99l-.12,.13c.48,.11,.94,.13,1.56,.13Zm-6.03-1.35v.33c.75-.06,.43-.16,.5-.25-.11-.09-.32-.19-.53-.05,.02,.63,.03-.1,.03-.03Zm-4.02-9.97s0-.08,.01-.12c-.08,.04-.16,.08-.24,.12h.23Zm-1.95-1.02c.26-.07,.33,.44,.49-.26-.23,.03-.39,.75-.49,.26Zm-.03,3.3c-.02,.06-.03,.14-.04,.22,.18-.06,.38-.14,.56-.22h-.53Zm.75,2.8l.02,.06s.07-.05,.1-.08c-.04,0-.08,.01-.12,.02Zm.89-9.56c-.49,.05-.59,.32-.66,.67,.49-.08,.97-.25,1.31-.48-.33-.12-.7-.19-.65-.19Zm1.26,13.47c.06-.08,.12,.05,.18-.26-.08-.11-.12-.23-.12-.37v.09l-.56-.41c.19,.34,.39,.62,.5,.96Zm-.02-15.37c-.13,.1-.33,.29-.45,.44,.04,0,.09,0,.16,0,.16,0,.55-.02,.85-.04l.07-.17c.44-.16-.47-.21-.62-.24Zm1.84,16.71c-.17-.48-.36-.42-.53-.37,.21,.03,.36,.01,.53,.37Zm3.11-20.23c-.46,.11-.99,.48-1.5,.84h0c.08,.03,.15,.05,.22,.07,.16,.05,.3,.09,.39,.11,.71,0,.71-.41,1.09-.8,.01-.01,.03-.03,.04-.04-.08-.04-.15-.1-.23-.17Zm5.02-.03c-.08,.06-.2,.15-.32,.27,.08,.02,.16,.03,.24,.05,.67,.14,1.42,.3,2.04,.35-.63-.37-1.4-.63-1.95-.66Zm1.61,3.2c-.47-.03-.94-.12-1.39-.2-.55-.1-1.07-.2-1.59-.2-1.85,0-3.45,.8-5.18,2.47-.14,.12-.18,.77-.21,.73-.06,.47-.14,1.1-.65,1.47-.27,.82-.83,3.4-.88,3.79-.05,.32-.05,.53-.05,.78,0,2.61,1.36,4.6,4.05,5.93,.27,0,1.56,.03,1.17,.05,.65,.02,.95,.05,1.12,.05,6.03,0,7.17-2.92,7.17-7.47,0-1.83-.62-4.13-1.12-5.27-1.07-.38-1.9-1.31-2.45-2.14Zm3.54-.1s.02,.06,.04,.08l.03-.02s-.05-.04-.07-.07Zm.58,14.88c.4-.08,.77-.2,.97-.38,.03,0-.71,.9-.97,.38Zm1.78-2.18c0,.07,0,.13,0,.2,.01-.07,.03-.13,.04-.2h-.03Zm.33-7.81c-.09,0-.14,.03-.15,.04,.03,.05,.08,.13,.16,.28,.02,.04,.05,.09,.07,.14,.04-.01,.08-.03,.12-.03-.05-.16-.13-.34-.2-.42Zm.37,2.98l-.18-.09c.06,.02,.13,.04,.2,.06,0-.09-.01-.17-.02,.04Zm-.14,2.03c-.06,.26-.14,.45-.22,.62-.03,.22-.06,.81-.08,.18,1.07-.14,1.07-.47,1.07-.67-.4-.07-.63-.11-.78-.13Zm-25.04-11.4c0,.25,.07,.6,.09,.71,.09,.65-.42,.81-1.46,1.11-1.8,.53-5.56,1.64-5.86,4.02-.03,.55-.11,.68-.22,1.19,0,1.73-.51,2.6-.51,3.41,0,1.24,.17,2.5,1.07,3.83-.53,1.37-.34,2.79-.34,4.23,0,.19-.12,1.35-.26,2.11l.11,.13c.13,.15,.18,.58,.14,.54-.26,1.15-3.79,1.16-3.83,1.16-.17,0-.41,0-.64-.08-.43,.28-.28,.39-1.44,.39-.02,0-1.71-.08-1.71-.93l-.36-3.2v-21.78c0-.34,.27-.62,1.36-.62h4.71c.92,0,1.24,.53,1.24,1.03,0,.04,0,.09,0,.14,1.7-1.1,4.6-2.88,7.34-2.88,.19,0,.38,.09,.5,.25,.28,.87,.28,.92,.28,1.62,0,.55-.05,1.11-.1,1.84-.05,.5-.11,1.15-.11,1.8Zm-9.83,18.25v-.03s-.04,.04-.06,.06c.02,0,.04-.02,.06-.02Zm-.25-3.36c-.08,.1-.16,.4-.24,.29-.14,.17,.43,.34-.42,.51,.49-.08,.62-.29,.65-.8Zm-.06-8.03l-.92,1.14c.31-.11,.58-.23,.74-.32,.06-.28,.12,.04,.17-.82Zm-.24,4.74v-.64c-.35,.42-.77,.91-1.16,1.41,.62-.2,1.16-.68,1.16-.77Zm-1.92,6.71c.13-.11,.26-.03,.38-.36-.16,.07-.31,.44-.41,1.03,0-.78,.02-.73,.03-.67Zm.37-3.35c-.34-.69,.2-.48-.55-.09,.05-.22,.31-.48,.55,.09Zm1.24-16.05c-.38-.05-.7-.12-1.56-.18,.06,.1,.1,.21,.1,.53,0,.01-.02,.18-.05,.32,.13-.09,.26-.2,.39-.33h0c.74-.2,.49-.23,.72,.55,.17-.8,.29-.86,.4-.88h0Zm-.34,5.92c1.19-.11,.88-.23,1.1-.29,.1-.03,.21-.03,.73-.01-.24-.75-.05-1.48,.2-2.21-.75,1.55-1.46,1.69-2.03,2.52Zm8.1-7.19c-.05-.04-.1-.08-.15-.11-.03,.09-.08,.18-.15,.25-.01,.01-.02,.02-.03,.03,.34,.21,1.07,.62,1.39,1.42-.54-.29-.44-.63-.44-1.01,0,.27-.45-.45-.61-.58Zm-23.27,12.72c-.67,.29-3.47,.69-5.52,.69-.79,0-2.03-.07-3.02-.13-.33-.02-.63-.04-.58-.05-.18,.17-.37,.29-.5,.48-.03,.04-.06,.1-.11,.18v10.7c0,.32-.22,.51-.45,.71-.11,.1-.33,.22-.48,.22-1.48,0-3.7-.51-4.84-1.37-.16-.12-.25-.3-.25-.5,0-2.43-.17-4.86-.34-7.02-.17-2.56-.02-4.99-.02-7.43,0-.96-.2-1.97-.1-2.87,.08-.66,.15-1.28,.15-1.7,0-.72-.11-1.04-.21-1.33-.08-.23,.16-.47,.16,.03,0-1.2-.21-1.41-.13-1.57,.08-.15,.17-.16,.17-1.08,0-.36-.1-.61-.21-.88,.67-.24-.2-.49-.2-.78,0-.1,.97-1.07,.22-1.12,.1-.89,.19-1.31,.19-1.74,0-.52-.11-.55-.49-.62-.25,.66-.51-.19-.51-.88s.03-1.31,.95-1.6v-2.71c0-.71,1.12-1.61,1.55-1.61h6.97l.49,.5c.09-.44,.18-.66,.28-.66h5.72c.06,0,.12,.09,.18,.25,.72-.16,1.25,.17,1.82,.52,.76,.47,1.55,.96,3.04,1.33,.13,.03,.24,.11,.33,.21,.55,.38,.6,.73,.89,1.08,2.1,3.16,3.77,5.04,3.77,9.12,0,4.5-3.13,10.53-8.92,11.64Zm-12.96-6.6c.96-.08,.8-.38,.8-1.23,0-.28,0-.51-.03-.73-.55,.6-1.04,1.95-.76,1.96Zm.43-5.96c0-.11,0-.21-.01-.31-.4,.98-.72,1.37-.72,1.92,0,.05,0,.1,0,.13,.12-.02,.25-.03,.39-.02,.09-.12,.18-.24,.29-.35,0-.2,.01-.41,.02-.61,.01-.26,.03-.52,.03-.76Zm.24,18.93c.66,.12-.18,.27-.27,.43,.38,.28,.21-.25,.27-.43Zm-.43,1.95h-.18c-.11,0-.22-.03-.31-.08,.29,.64-.42,.92-.68,1.3,.37-.24,.88-.75,1.17-1.22Zm-.2-10.13c-.44,.15-.61,.32-.65,.66l.65-.66Zm.1-13c.03-.69,.07-.99,.11-1.28-.3,.21-.61,.5-.82,1.28h.7Zm-.04-6.66c.05,.07,.08,.15,.09,.82,.04-.51,.1-.39,.11-.25,.34-.24,.69-.47,1.03-.68-.53,.02-.93,.06-1.24,.11Zm10.8,18.52c.2,.05,.46,.09,.69,.12,.89-.16,.06-.33,.18-.17,.15-.43,.46-.62,1.31-.78-1.19,.14-1.87,.26-2.1,.38-.26,.08-.12,.25-.08,.46Zm-6.93,1.31c-.04-.68-.06-.77-.07-.86-.27,.05-.47,.11-.61,.17,.3,.18,.44,.47,.68,.69Zm-1.06-15.37v2.3c.06,.67,.1,1.7,.16,2.9,.08,1.85,.23,5.17,1.02,6.12h3.35l.03-.05c.14-.24,.43-.36,.7-.29,.08,.02,.15,.06,.21,.1,.8-.27,1.79-.18,2.51-.42,.26-.02,.47-.04,.59-.06,2.71-.13,2.94-1.95,3.61-4.63,.11-.37,.33-1.32,.35-1.46,0-1.01-1.7-4.11-2.53-4.54-.17-.08-.81-.29-2.88-.29-.16,0-.58,0-1.05,.02-.6,.81-1.28,.25-1.6,.25-1.2,.46-3.75-.01-4.47,.06Zm12.58-1.8c-.25,0-.47-.6-.57-.82-.1-.22-.06-.49,.11-.57l.02-.13c-2.43-1.2-4.28-1.43-7.05-1.43-.58,0-1.05,.1-1.07,.32-.31,.01-.22,.05-.14,.1,.14,.74,.24,.24,.27,.4,.03,.17,0,.34-.11,.47-.05,.07-.11,.14-.17,.74,1.02-.8,1.66-.83,2.06-.83,.27,0,.53,.02,.76,.03,.06,0,.12,0,.17,.01l.33-.36s.05-.05,.07-.07c.24-.24,.62-.24,.87-.01,.12,.11,.18,.26,.19,.41,.97,.07,.69,.14,.98,.19,1.16,.19,1.89,.33,2.17,.85,.09,.17,.1,.36,.03,.53,.41,.33,.95,.78,1.26,.94,.08,.21,.23,.46,.35,.66,.18,.3,.22,.38,.68,.41,.05,.03,.25,.2,.32,.43,.07,.4,0,.49-.19,.65l-.03,.02c.1,.06,.2,.12,.3,.19-.04-.16-.04-.23-.04-.27,0-.26,.13-.49,.4-.93,.25-.11,.16-.27,.23,.17-.34-1.16-1.38-2.12-2.19-2.12Zm3.15,3.19c-.16,.1-.4,.26-.48,.56-.14-.08-.34-.02-.53-.05,.14,.22,.24,.49,.3,1.19,.39-.64,.73-.98,.73-1.28,0-.19-.01-.32-.02-.42Zm1.34,3.08c.49-.05-.33-.13-.33-.32,0-.17-.01-.27-.03-.31-.02,0,.5,0-.13,0-.53,0-.79,.43-1.21,1.5,.52-.19,1.05-.65,1.7-.86Zm-.83,2.51c-.46,.22-1.04,.52-1.45,1.04h1.14c.1-.42,.22-.72,.31-1.04Zm-.89,2.61c-.19,.49-1.42,.53-.94,1.62-.58-.38-.48-.2-.48,0,0,.68-1.23,1.24-2.88,1.68,.34,.01,.81,.03,1.16,.03,.57-.06,2.57-1.86,3.13-3.35Z"/></g></g></svg>