<?xml version="1.0" encoding="UTF-8"?><svg xmlns="http://www.w3.org/2000/svg" viewBox="0 0 279 126.01"><defs><style>.d{fill:#fff500;fill-rule:evenodd;}</style></defs><g id="a"/><g id="b"><g id="c"><path class="d" d="M264.27,93v32.16c0,.47-.38,.85-.85,.85h-14.73c-.2,0-.39-.07-.54-.2l-.75-.92c-.55-.16-.67-.4-.67-.65,0-.63,.03-1.64,.06-2.88,.05-1.97,.12-4.67,.12-7.38,0-17.21-1.98-19.5-9-19.5-1.14,0-1.41-.16-1.56,0-.82,0-1.76,.22-2.17,.53l-.63-1.76c-.33,.08-.6,.27-.93,.5-.24,.41-1.32,.92-1.67,.92-2.35,0-3.53-.41-4.23-1.12-1.19,.44-3.17,.89-8.88,1.41-4.97,.5-10.05,.81-11.5,.81-.37,0-.68-.23-.8-.56-.09,.23-.98,.38-1.23,.38-.37,0-.69-.23-.81-.58-.08-.13-.53-.42-.77-.52-.6,.02-.92,.2-1.39,.45-.37,.21-.8,.44-1.4,.61-.25,.07-.53,.02-.75-.14-.21-.16-.34-.41-.34-.68v.08c-2.15-.56-4.42-1.24-4.42-5.22,0-2.02,2.65-5.18,7.02-10.16,2.21-2.51,4.49-5.11,5.43-6.76,.04-.07,.08-.13,.45-.18,.45-.76,2.07-2.59,2.79-4.21,1.4-2.07,2.14-3.12,2.68-3.6,3.81-9.9,7.72-15.71,11.86-21.87,2.77-4.12,5.63-8.37,8.46-13.98,.02-.08,.04-.16,.06-.24,.05-.17,.1-.37,.1-.61,0-.12-.06-.37-.09-.54-.05-.22-.09-.05-.09-.56,0-.09,.02-.18,.05-.27,3.5-10.29,10.96-26.61,16.09-26.61,2.38,0,4.33,.69,6.21,1.35,1.77,.62,3.44,1.22,5.39,1.22,.83,0,.44,.09,.6,.25,.16,.16,.25,.37,.25,.6,0,.72,1.22,1.39,.9,2.25,.75,1.27,1.67,2.84,1.67,5.26,0,9.75-.33,20.71-.64,31.31-.32,10.72-.65,22.08-.65,31.88l.9,1.42h11.87c.89,0,1.5,.48,2.45,7.07,.45,3.14,.79,6.63,.79,6.61,0,1.72-1.7,3.7-14.73,3.78Zm-21.82-68.84c-.48,.11-.79,.32-.98,.66,.32-.17,.64-.41,.98-.66Zm-4.71,13.18l-2.21,2.57c-.17,.96-.43,.31-.68,.29-.26-.01-.5,.22-.65-.35l-.06-.09c-.33,.59-.7,1.12-1.13,1.6,.33,.29,.53,.9,.53,1.29,0,.25-.07,.49-.14,.77-.1,.38-.23,.84-.23,1.43,0,.47-.38,.85-.85,.85-.44,0-.84,0-.32-.01-1.15,0-1.42-.01-1.66-.01-.63,0-1.11,.03-.72,.18-.76,.66-.83,1.04-.85,1.78,4.74-.43,6.9-4.03,9.65-7.84,2.59-3.6,5.26-7.3,9.57-8.62h-8.29s-2.44,3-2.44,4.52c0,.14,.7,.24-.11,.26,.33,0,.62,.19,.76,.49,.31,.3,.07,1.26-.14,.9Zm-18.55,33.35c-1.02,.08-2.19,.29-2.84,.77,1.07-.08,2.21-.29,2.84-.77Zm2.57,17.5c5.18,0,6.22-.63,9.73-4.47-2.36,.81-5.62,2.2-7.49,3-2.11,.9-2.5,1.07-2.8,.95-.43-.04-.94-.17-1.06-.2-.28-.07-.5-.27-.6-.54-.09-.27-.04-.57,.13-.8,.56-.71,1.52-1.33,2.54-1.98,1.1-.7,2.3-1.46,3.48-2.29-3.89,.26-6.37,1.6-9.57,3.01,.42,.03-.13,.06-.19,.09,.04,.02,.19,.44,.6,.38-.1-.04,0,.47-.26,.85,.45,.28-.41,.64-.41,1.31,0-.03,1.39,.67,5.91,.67Zm31.1,4.77c1.81,0,2.89-.41,2.89-.8,0-.02,0,.85,0,.68-.05-.06-.13-.12-.25-.12-1.01,0-1.74-.38-2.64,.24Zm2.89,9.9v-1.71c-1.12,.21-2.04,.83-2.55,1.71h2.55Zm-5.16-4.19c.26-.21,.57-.21,1.8-.21,.92,0,2.43-.53,2.86-1.94-1.96,.12-3.91,.67-4.66,2.15Zm-1.21-78.84c1.1,.44,2.18,.42,3.36,.52-.41-.01,.85-.1,.79-.17,.24-.03,.77,.04,.68,.2,.19,.16,.29,.4,.29,.64,0,3.16-2.95,3.74-5.32,4.21-1.23,.24-2.42,.47-3.23,.97l9.38,1.81,1.52-1.65v-9.95c-.75,.55-2.54,1.5-7.47,3.42Zm-26.77,45.15v-.37c-1.67,.1-2.33,.52-3.23,1.57,1.22-.34,2.74-.85,3.23-1.2Zm14.35,18.76c1.99-.18,5.32-.84,8.47-1.84-1.13,1.07-1.63,.24-3.48,.27-2.98,.07-4.56,.26-4.99,1.57Zm12.42-5.04c.19,1.19-1,1.97-1.87,2.47,1.86-.71,3.96-1.55,4.65-2.47h-2.78Zm-.14-32.13c1.08,0,2.76-.19,3.35-.83l-3.34-.8-.53,1.58c.22,.03,.43,.05,.52,.05Zm-1.41-6.79c.41-.24,1.43-1.12,1.85-2.14h-2.86c.08,.86,.32,2.02,1.01,2.14Zm4.57,16.01c-2.62,0-3.04,.45-3.04,2.82,0,1.36,1.47,1.53,1.36,1.53,1.67,0,5.04-1.95,5.04-3.55,0-.22,.05-.8-3.36-.8Zm-8.79,8.44c.03-5.54,.06-11.77-2.12-16.74-1.58,2.26-5.13,8.4-7.83,13.09-2.21,4.55-5.11,8.87-6.3,11.2,2.9,2.12,6.57,3.04,11.76,3.04,3.15,0,4.49-2.6,4.49-8.69v-1.9Zm8.54-29.99c.41-.04,1.01,.05,1.7,.05,.85,0,1.73,.59,2.7-.28,.04-.11,.18-.11,.41-.01-.04-.44-.07-.85-.08-1.2l-.43-.35-4.29,1.8Zm.85,6.5c-.74-.19-1.45,.25-2.06,.74,.68,.33,1.45,.33,2.35,.33,4.08,0,3.93-1.01,3.93-3.92,0-.46-.04-1.08-.09-1.73-.74,1.84-2.53,3.62-4.14,4.59Zm-2.72,9.86c.09,1.69,3.44,2.24,5.48,2.36v-4.95c-1.95,.41-5.09,1.91-5.48,2.59Zm5.48,22.92v-.78c-.62,.13-1.23,.41-1.77,.78h1.77Zm-28.6-13.86c-1.79,.35-3.39,.88-3.93,2.05,1.36-.19,3.26-.74,3.93-2.05Zm-.26-3.81c0,.1-.01,.42-.04,.28,2.78-.4,5.44-3.55,6.1-6.44-.09,.04-.18,.08-.27,.11-2.12,.87-5.2,2.15-6.7,3.81,.62,.72,.91,1.85,.91,2.24Zm24.67,8.71c.24,.42,1.32,1.26,1.72,1.26,.47,0,.85,.38,.85,.85s-.38,.85-.85,.85c-1.47,0-3.93,.37-3.93,2.82,0,.04,0,.06,0,.06,.09,.01,.75,.01,.99,.01,4.63,0,6.58-4.65,6.85-9.22-2.23,.38-5.48,1.99-5.62,3.38Zm5.07,17.31c-.32-.41-.89-.92-1.17-.98-.26,0-1.35,.31-5.32,2.88,2.19-.08,4.15-.65,6.5-1.91Zm-16.22,4.73c-.51,.09-1.67,1.36-2.82,.99,2.04,.28,5.35,1.23,6.28,1.36-1.55-1.39-2.93-2.07-3.47-2.34Zm-29.82-1c.39-.84,.63-1.07,.77-1.32-2.6,.37-6.7,1.93-7.53,4.28,.88,0,.45,0,.67,0,4.26,.05,7.38,.08,10.01-2.93-.64,.3-1.29,.6-1.96,.88-.1,.04-.22,.07-.33,.07h-1.11c-.36,0-.68-.23-.8-.37-.12-.54-.01-.92,.27-.61ZM249.63,15.71c1.66,.19,4.17-1.22,5.14-1.22,.09,0,.39,.03,.75,.07,.35,.04,.92,.11,1.09,.11,.09,0,.17,.01,.25,.04v-5.79c0-.41-.58-.62-1.73-.62-3.53,0-8.56,3.21-8.26,8.46,.4-.2,1.59-.63,2.76-1.05Zm6.51,100.96c-1.18-.23-2.97,.17-2.97-2.51,0-1.62,.8-2.9,1.51-4.02,.48-.76,.94-1.49,1.14-2.28h-2.03c-.35,1.12-.94,4.42-.94,6.3,0,4.29,1.41,4.84,2.65,4.84,.92,0,2.46-.15,2.46-1.17,0-.68-.31-.87-1.82-1.16Zm-38.82-40.53c-3.53,.03-4.14,.29-5.87,3.7,1.99-.96,5.18-1.63,5.87-3.7Zm49.96,7.74c-.96-.66-3.47,.36-4.97,1.01h9.57c-1.29-1.45-3.07-1.01-4.61-1.01Zm-87.08-2.69c-3.31,0-3.37-3.57-3.42-6.18,0-.64-.02-1.24-.07-1.75,0-.33-.18-1.76-.33-2.92-.22-1.76-.01-2.86-.01-3.21,0-.49-.24-.94-.14-1.37,.08-.36,.16-.46,.16-1.02,0-1.76-1.05-3.02-3.12-3.72-.03-.01-.06-.02-.09-.04-.52,.2-.98,.3-1.88,.41-2.12,.34-3.65,1.31-3.98,2.32,0,.23-.02,.72-.03,1.2-.01,.47-.02,.93-.02,1.07,0,2.98,.19,4.32,.37,6.42,.18,2.11,.86,4.3,.86,6.45,0,1.81-3.71,1.81-5.08,1.81-.65,0-1.97,0-2.54-.79-.19,.09-.42,.08-.6-.03,.61-.12-.31-.33-.3-.56l.62-1.37c-.38-3.12-.26-5.38-.26-8.51,0-1.53-.37-4.01-.89-6.76-1.28-1.38-2.21-1.72-3.84-2.25-.05-.02-.1-.04-.15-.07-.79,.58-2.22,1.4-3.28,1.81-.07,.28-.21,.69-.44,1.37-.3,.89-.76,2.22-.78,2.67,0,0,0,.14-.01,.32-.01,.29-.04,.72-.04,.94,0,.85,.2,2.18,.2,2.49,.1,.85,.21,1.73,.21,2.65,0,2.91-.21,7.94-1.65,8.83-.1,.06-.21,.09-.33,.09-.07,0,.23,.01-.51,.03-.25,.01-.5,.03-.58,.03-.04,0-4.06-.21-4.27-1.38-.02,.38-.02-.19,0-.28,0-.3-.01-.49-.03-1.34-.01-.57-.02-1.12-.02-1.35,0-1.48,.17-2.94,.34-4.34,.17-1.39,.34-2.43,.34-4.27,0-1.29-.13-2.04-.25-2.7-.09-.51-.17-1-.17-1.6,0-1.7,.12-3.56,.23-4.76,.07-1.6,.14-2.6,.14-3.24,0,.64,.07-.32,.18-.44l.37-.36c.17-.17,.42-.22,.64-.15,.14,.02,.57,.02,.89,.02,.6,0,.84-.07,1.09-.15,.24,.78,.5-.06,.94-.06,.67,0,1.16,.59,1.43,1.21,.36-.17,.7-.34,1.02-.51,1.62-.82,3.01-1.53,5.37-1.53,2.98,0,6.14,1.55,9.41,4.15-.04-.55,2.34-2.25,2.61-2.57,.08-.09,.21-.18,.33-.22,.66-.18,4.16-.98,4.45-.99,.46-.01-.17-.02-.12-.02,7.04,0,10.24,5.56,11.35,10.77,.05,.25-.04,.51-.14,.82-.14,.44,.12,.97,.12,1.49,0,.55-.16,1.23-.24,1.58,.07,.1,.1,.22,.1,.34,0,2.19,.02,2.75,.03,3.92,.01,.94,.02,1.78,.02,3.25,0,.92,0,4.36-4.22,4.36Zm-33.07-23.04s.02,.06,.03,.09c.12,.01,.23,.05,.32,.13,.01,.01,.03,.02,.04,.04,.03-.09,.07-.18,.11-.25-.13,0-.35-.02-.5,0Zm3.2,2.8c.19-1.1,.37-1.37,.54-1.63v-.02c-.26,.27-.45,.54-.54,1.65Zm6.36-3.8h-.18c-1.04,0-1.42,0-2.19,.59,.38-.1,.77-.17,1.16-.17,.16,0,.32,.07,.44,.18,.01,.01,.03,.03,.04,.04,.24-.03,.68-.06,.14-.09,.33-.22,.73-.5,1.31-.5,.26,0,.49,.16,.7,.4,.53,.15,.5,.3-.03,.72,.16-.16,.4-.14,.79-.14,.22,0,.52,.55,.52-.21,0-.31,.19-.83-2.71-.83Zm4.27,1.61c-.26,0-.33,.03-.55,.39,.23,.74,.86-.13,.97-.25-.15-.09-.28-.14-.42-.14Zm3.86,18.97h0v-.9c-.18,.09-.36,.18-.53,.9h.53Zm0-6.4v.49c-.09-.65-.18-.58-.27-.49h.27Zm-1.39,6.39h.09c0-.1,.02-.19,.06-.27-.09,.05-.17,.09-.25,.14,.04,.04,.07,.08,.1,.13Zm-.06-4.29c-.28,.12-.43,.29-.5,.49l.5-.49Zm1.08-5c.07,0,.14,.01,.2,.03,.1-.29,.16-.58,.16-.82,0-.05,0-.12,0-.19-.42,.12-1.12,1.55-1.59,1.12,.31-.08,.7-.16,1.23-.16Zm-.92-5.27c.66-.15,.91-.25,1.89-1.53-.62,.66-1.32,1-1.89,1.53Zm13.43-4.7c-.15,0-.2,.02-.32,.08-.18,.08-.43,.18-.88,.18-.34,0-.62-.28-.62,.01,0-.77,.04-.88,.09-.98-.37-.11-1.1-.21-1.97-.22-.13,.2-.13,.45-.1,.64l-.3,.23c.88,.18,2.36,.48,2.64,.48,.09,0,.26-.03,.41-.05,.2-.03,.39-.05,.48-.05,.34,0,.81,.51,.81,.62,0,.09,0,.17,.03,.23,.06-.03,.41-.04,.61,.19,.12,.13,.42,1.13,.95,.48,0,0-.81,.17-.83,.32,.63,.14,.16,.3,.23,.96,.03-.43,.06-.35,.1-.28,.26-.1,.79-.29,.99-.43,.2-.1,.43-.08,.61,.03-.45-1.15-2.36-2.44-2.94-2.44Zm4.45,5.29h-.85c-.3,0-.43-.21-.61-.5-.06-.29,.64-.58,.38-.69,.01-.03,.15-.26,.23-.41-.03-.24-.17-.53-.38-.86,.04,.2-.01,.42,0,.57-.33,.17-.6,.51-.81,.78,.22,.08,.51,.26,.51,.65,0,.1-.03,.25-.07,.42,.14,.06,.91,.16,.32,.31,.1,.22,.07,.47,.47,.66-.72,.21-.77,.58-.83,.97-.03,.2-.06,.75-.11,.65,.07-.03,.15-.04,.22-.04,.83,0,.36,.08,.48,.23,.17,.21,.18,.5,.04,.72,.28-.04,.54,.58,.79-.18,0-.2,.01-.4,.02-.59,.01,.46,.02-.63,.02-.96,0-.61-.07-1.18,.17-1.72Zm.09,6.18c-.31-.65-.62-.38-.91-.1,.54-.16,.92-.42,.92-.57,0-.04,0-.08,0,.67Zm-1.9,3.92c.04,.78,.12,.42,.22,.62,.13,.28,1.14,.75,1.14,1.03,0,.22-.98,.41-1.15,.52,.04,.42,.13,.68,.6,.96-.26,.3-.14,.63-.09,1.87,1.62-.81,1.18-1.07,1.23-1.5-.2-.11-.34-.32-.34-.55,0-.25,.13-.47,.34-.57,0-.01,0-.03,0-.06,0-.19-.07-.4-.15-.63-.1-.3-.21-.64-.21-1.03,0-.25,.13-.05,.35-.63,.02-.25,.06-.66,.08-1.03-.71,.46-1.51,.68-2.03,1Zm-39.73-6.46c.02,.08,.03,.15,.02,.23-.02,.17-.1,.32-.24,1.11-1.07,.13-3.2,.53-6.53,.53h-1.61q-4.6,0-7.28-.4l-.48-.07c-.05,0-.1-.02-.14-.04,.11,1.69,.54,3.9,1.36,4.76,.34,.37,1.3,.7,2.37,.97,.18,.17,.64,.33,1,.51,.88,.61,1.12,.61,1.34,.61,1.29,0,2.69-.34,4.05-.67,1.39-.34,2.82-.68,4.18-.68,1.77,0,1.77,2.07,1.77,2.75,0,1.31-.18,2.01-1.15,2.18-.18,.03-.25,.04-.38,.22,.59,.12-.21,.2-.35,.23-.63,.16-3.01,.54-5.18,.89l-.97,.16s-.07,0-.1,0h-.29c-.11,0,.11,0-.35,0-1.69,0-4.48-.04-6.58-.7-3.63-1.19-7.52-7.64-7.52-11.28,0-3.85,1.67-8.43,3.32-11.37,.1-.16,.27-.17,.46-.3,.09-.01,.17,0,.25,.12,.69-.19,.62-.46,.89-.64,.57-.37,1.05-.69,1.48-.73l.68-.17c1.35-.33,2.75-.67,4.8-.67-.41,0-.22,.29-.11,.28,.73-.08,1.29-.08,2.03-.08,1.74,0,4.51,.1,5.17,1.33,2.06,.28,3.01,2.32,3.65,3.7,.25,.53,.83,1.27,.79,1.37,.21,.1,.34,.32,.34,1.16v3.86c0,.2-.1,.39-.26,.8l-.44,.02Zm-12.92,10.38c.32-.04,.64-.19,.86-.41-.23,.03-.4,.06-.5,.09-.08,.14-.21,.26-.38,.3l.02,.02Zm-.76-.36s-.02-.05-.03-.07c-.02,.02-.04,.03-.06,.05,.03,0,.06,.01,.08,.02Zm-5.99-9.5c.08,.03,.16,.08,.22,.93-.01-.85-.01-.91-.01-.97,0-.07,.01-.13,.03-.2h0l-.24,.24Zm.47-5.35c-.03,.11-.06,.22-.09,.33,.05-.14,.09-.25,.09-.32h0Zm-.06,5.98c0,.07-.02,.13-.05,.2,.05-.03,.09-.05,.12-.07-.02-.04-.05-.08-.07-.12Zm.99,5.31c.05-.07,.09-.15,.13-.23-.09,.02-.16,.04-.22,.06,.03,.06,.06,.11,.09,.17Zm-.16-1.25c-.05-.59-.1-.66-.16-.74h0c-.06,.08-.11,.33-.15,.26,.11,.84,.22,.68,.32,.47Zm-.31-11.25c.19,.08,.43-.59,.68-.91,1.11,.2,.61-.78,.83-1.14-.64,.57-1.14,1.27-1.51,2.05Zm7.73-1.19c-2.42,0-4.23,1.06-5.16,3.01,1.15,.32,4.64,.52,6.93,.52,.88,0,1.62-.1,2.65-.2,.29-.07,.83-.14,1.42-.18-.1,.39-.21-.46-.3-.61-.02,0-.04,0-.05-.01-.21-.05-.37-.2-.44-.4-.41-1.17-3.59-2.13-5.04-2.13Zm4.38-2.33c-.06,.04-.13,.08,.04,.12,.04,.5,.37,.17,.67,.18-.31,.4-.54-.18-.71-.31Zm3.43,1.63c-.1,.02-.18,.02-.26,.02-.5-.06-1.6-.48-1.99-1.27-.11,0-.21-.02-.3-.04,.24,.09,.41,.32,.41,.58,.11,.42,1.2,1.25,1.63,1.45,.18-.03,.49,.58,.65-.2-.03-.15-.09-.36-.14-.55Zm.89,2.26c-.11,0-.15,.02-.15,.02,0,.05,0,.97,0,.61,.18,.54,.39,1.15,.51,1.47h0c.39-.08,.22-.15,.22-.69,0-.42,.63-1.41-.58-1.41Zm-22.94,20.26c-.03-.64-.18-.45-.39-.37l-.68,.26c-.07,.03-.15,.04-.22,.04-.12,0,.36-.04-.35-.11-.11-.07-.18-.17-.23-.29-.19,0-.38,.02-.56,.04-.35,.03-.69,.05-1,.05-.47,0-1.82,0-1.24-.82-2.79-1.03-3.6-3.15-4.2-4.45l-.09-.53c-.02-.05-.04-.11-.04-.17-.32-6.93-.63-13.97-.63-21.18v-1.64c-.02-2.99-.03-6.09,.37-9.34,.03-.2,.15,.35,.33-.47,.79-.41,1.61-.55,3.17-.69-.03-.12,.66,.25,1.33-.57,.15-.07,.3-.11,.43-.11,.64,0,1.09,.49,1.09,1.19,0,4.15-.17,8.42-.34,12.55-.11,2.75-.22,5.6,.36,8.38,0,1.11-.75,2.14-.84,3.14-.09,.92-.17,1.78-.17,2.66,0,4.8,1.03,6.75,3.55,6.75,.07,0,.14,.01,.21,.04,.99,.35,1.46,1.48,1.46,1.26,0,1.01-.36,1.32-.12,2.57-.95,.36-1.15,.8-1.19,1.8Zm-6.46-11.05c.02-.8,.04-.78,.06-.76l-.03-1.73-.03,.03v2.46Zm.06-3.57h0c.02-.08,.04-.2,.06-.14-.06,.72-.11-.01-.14,.08,.02,.02,.05,.04,.07,.06Zm.07-11.53c-.09,.09,.27,.32-.33,.52,.62,.04,.21,.1,.31,.19,.13,0,.24-.88,.29-.8-.05,.11-.1,.2-.15,.26,.04-.79,.06-.69,.06-.61,0,.16-.07,.32-.18,.44Zm-.08,7.3h0v-.42s-.09,0,.55-.01c-.64,.12-.59,.26-.56,.44Zm-.3-4.87c0-.06,0-.11,0,.46,0-.36,0-.7,0-.74,.02-.13,.05-.25,.07-.37-.09,.05-.22,.21-.3,.72,.07-.03,.14-.05,.22-.06Zm-.37-6.7c.05-.06,.1-.13,.15-.19-.07,.02-.12,.04-.15,.06,0,.04,0,.09,0,.13Zm1.04-6.31c-.66,.12-.88,.5-.93,1.52h.1c.65,0,.55,.21,.61,.49,.05,.09,.12,.22,.12,.39,0,.04,0,.08-.01,.11,.04,0,.08,0,.12,0v-2.51Zm.3,29.3h-.05c-.34,0-.62-.76-.62-1.11v-.7c-.04,.15-.06,1.03-.06,.65,0,.31,.12,.43,.38,1.33,.1-.54,.22-.42,.33-.29,.01-.07,.02-.12,.02-.16,0-.09,0-.16,0,.28Zm.89,2.36c-.06,.1-.11,1.08-.16,.3h0s.09,.46,.17-.22c0-.02-.01-.05-.02-.07Zm1.39,1.89c-.17,.12-.2-.68-.23-.67-.18,.09-.44,.22-.81,.27,.55,.37,1.35,.73,2.56,.72-.04-.16-.56-.31-.45-.43-.39-.21-.93-.47-1.07,.11Zm-10.51-4.33c-2.39,4.25-6.18,6.34-10.69,6.34-2.15,0-3.32-.44-4.45-.87-.91-.35-1.78-.68-2.61-.73-.03,.06-.06,.12-.09,.18-.26,.5-.25,1.43-1.84,1.43-1.26,0-3.13-.27-4.26-1.04-.15-.11-.25-.27-.27-.46-.05-.62-.31-3.58,.28-4.15-.01-.02-.02-.04-.02,.8,0-3.68-.55-6.82-.46-10.14,.1-3.84,.2-7.71,.2-11.95v-1.03c-.01-2.56-.02-4.59,1.26-8.32-.37-1.3,1.04-1.3,1.71-1.3,2.09,0,3.38,.21,3.38,2.24,0,.36-.11,.77-.33,1.12,.07,.13,.09,.29,.05,.54-.03,.04-.03,.63-.03,1.41,0,.3,.37,5.23,1.13,7.34-.29,.33-.08,.61,.07,.83,2.11-1.29,5.48-1.47,8.19-1.47,1.06,0,.44,.13,.55,.33,.2,.15,.94,.42,1.49,.61,1.55,.55,3.43,1.22,3.86,2.46,1.41,.89,1.99,2.59,2.52,4.51,.24,1.16,.61,2.25,.9,2.44,.24,.15,.38,.89,.29,.74-.02,.1-.02,.58-.02,.89,0,.52,.07,.96,.15,1.43,.08,.5,.16,1.01,.16,1.63,0,.1-.02,.2-.14,1.21-.02-.32-.05-.21-.07-.11,.14,.17,.21,.32,.21,.51,0,.68-.37,1.55-1.1,2.59Zm-21.41-9.2l.15-.14h-.15v.14Zm.18-8.11l.47,.19h.01c-.11-.73-.14-1.46-.14-2.17,0,.74,0,.02,0-.22-.14,.16-.37,.23-.57,.21,0,.06-.02,.15-.02,.27,0,.37,.05,.47,.06,.47,.11,.11,.31,.31,.31,.67,0,.12-.06,.35-.13,.59Zm.38-3.8l-.31,.6h.03c.11,.35,.2,.76,.26,.2,0-.06,0-.29,.01-.44,0-.12,0-.24,.01-.37Zm.17-7.41c-.11-.13-.49-.34-.68-.34-.08,0-.11,.01-.11,.01h0s0,.12,0,1.19c0-.21,.04,.02,.06,.1,.2,.79,.3,.37,.3,.62,0,.32-.16,.66-.34,1.06-.05,.11,.73,.26,.23,.38,.07,0,.14,.01,.21,.02-.31,.25-.1,.44-.1,.77,0,.36-.11,.58-.2,.74-.08,.16-.17,.33-.17,.86v.1c0,.19,0,.77,.11,.9,.12,0,.24,.03,.34,.09-.04-.16-.02-.33,.06-.48l.28-.48v-5.57Zm.13,12.4c-.11,.12-.27,.19-.45,.19h-.42v.24c.08-.01,.17-.02,.26-.02h.16c.29,0,.54,.2,.61,.48,.02,.06,.02,.13,.01,.2h.21c-.16,.26-.29-.72-.38-1.08Zm.13,4.56c.47-.08,1.01-.22,.95-.41-.35,.12-.68,.26-.95,.41Zm18.7,8.97h.24c.03-.18,.05-.46,.07-.5,.73-.13-.44-.07-.71-.08h0c.24,.09,.39,.31,.4,.56v.02Zm-.72,1.11c.15,.67,.25,.19,.29,.32,.07-.03,.1-.06,.11-.09-.06-.11-.15-.26-.19-.31-.09-.09-.14-.2-.17-.31-.06,.06-.06,.12-.06,.26,0,.04,0,.11,0,.13Zm-7.35-12.33c-.62,0-2.99,.18-4.13,.26l-.62,.05c-2.2,.49-3.96,5.49-3.96,7.37,0,2.22,1.36,3.64,2.45,4.79,.65,.68,1.23,1.28,1.82,2.79,.22-.69,1.15-.38,1.43,.41h2.75s.02,0,.03,0c.06-.42,.16-.51,.28-.56,.98-.45,2.25-.99,2.71-.99,1.53,0,2.09-3.26,2.09-5.45,0-2.93-1.47-8.67-4.85-8.67Zm2.98-1.67c.28,.12,.26,.16,.31,.17,.06-.02,.12-.03,.18-.04-.16,.63-.12,.22-.5-.13Zm1.89,.9c-.15-.09-.24-.24-.28-.4-.16-.08,.34-.16-.67-.24,.08,.06,.14,.14,.18,.24l.97,2.22h.02c.19-.12,.43-.12,.62-.01,.19,.11,.31,.41,.31,.54v1.19c.72,.4,1,1.48,1.21,2.32,.1,.38,.21,.82,.31,.98,.12,.19,.13,.43,.02,.63-.03,.07-.08,.12-.14,.17,.02,.01,.03,.03,.03,.03,.12,.12,.18,.27,.18,.44s-.05,.35-.17,.78c-.04,.14-.08,.57-.09,1.23,0-.8,.04-.76,.32-.56,.21,.14,.53,.36,.68,.74-.01-5.28-.95-8.83-3.52-10.28Zm-23.93,11.62c0,.08-.01,.16-.05,.24-.19,.46-.53,.65-.59,.77q-.35,.11-.35,.29s0,.1,0,.14c.72,.96,.35,.41,.28,.67,.45,.24-.25,.9-.49,1.33-.17-.66-.4,.15,.23,.48-1.06,.88-1.33,1.7-1.76,2.08-3.85,2.81-8.17,4.12-13.69,4.12-.12,0-.23-.03,.35-.1l-4.6-1.72c-1.58-.83-2.32-2.15-2.98-3.31-.43-.77-.84-1.34-1.44-1.88-.11-.07-.19-.17-.24-.29-1.14-2.78-1.3-5.57-1.3-8.18,0,.79,.01,.08,.04-.21l1.98-5.5c.15-.31,3.34-3.49,3.61-3.73,1.98-1.8,5.55-3.06,7.86-3.06,1.81,0,3.93,.72,5.82,1.97,5.16,4.35,7.37,7.7,7.37,14.17,0,.15-.02,.64-.03,1.06-.01,.31-.02,.59-.02,.65Zm-11.39,6.85s.78-.1,1.17-.27h-2.99l-.12,.13c.49,.11,.94,.13,1.95,.13Zm-6.44-1.22v.2c.24-.07,.43-.16,.5,.57-.11-.82-.32-1.02-.53-1.1,.02,.06,.03,.13,.03,.33Zm-4.04-9.62c0-.38,0-.56,.01-.6-.08,.04-.16,.2-.24,.6h.23Zm-1.96-1.21c.17-.36,.33-.45,.49-.55-.23,.03-.39,.11-.49,.55Zm-.03,3.01c-.02,.06-.03,.14-.04,.22,.18-.06,.38-.14,.57-.22h-.53Zm.75,2.8v.06s.08-.05,.12-.08c-.04,0-.08,.01-.12,.02Zm.48-9.55c-.08,.05-.04,.32-.25,.67,.49-.08,.97-.15,1.31-.48-.33-.12-.7-.19-1.06-.19Zm1.67,13.23c.06,0,.11-.02,.63-.04-.53-.11-.57-.23-.57-.37v-.61l-.56,.99c.21-.33,.4-.08,.51,.03Zm-.02-15.13c-.13,.1-.33,.28-.46,.44,.04,0,.1,0,.16,0,.16,0,.56-.02,.85,.84l.07-1.16c-.23-.05,.03-.1-.62-.13Zm1.84,16.16c-.17,.05-.36,.11-.54,.3,.22,.27,.36,.11,.54-.3Zm3.12-19.68c-.46,.11-.99,.48-1.5,1.23,0,.2,0,.3,0,.5,.08-.59,.15-.37,.22-.16,.16-.62,.3-.57,.39-.56,.31,0,.71-.41,1.29-.8-.06-.01,.08-.03,.21-.04-.45-.04-.52-.1-.6-.17Zm5.03-.03c-.08,.06-.2,.15-.32,.27,.08,.02,.16,.03,.24,.05,.67,.14,1.42,.3,2.04,.35-.63-.37-1.4-.62-1.95-.66Zm1.61,3.2c-.48-.03-.94-.12-.84-.2-1.11,.18-1.63-.2-2.15-.2-2.24,0-2.67,.8-5.19,2.47-.14,.12,.72,.43,.33,.73-.61,.47-.69,1.09-1.2,1.47-.27,.82-.83,3.21-.88,3.78-.05,.31-.05,.53-.05,.78,0,2.6,1.36,4.59,4.06,5.92,.27,0,.73,.03,1.18,.05,.48,.02,.95,.05,1.12,.05,6.05,0,7.56-2.92,7.56-8.31,0-.98-.99-3.28-1.49-4.42-1.08-.37-1.78-1.31-2.46-2.14Zm4.14-.1c-.44,.03-.31,.06-.17,.08,.1,0,.21-.01,.31-.02-.23-.02-.45-.05-.14-.07Zm-.02,14.87c.4,.23,.78-.2,.97-.38-.33,0-.71,.15-.97,.38Zm1.79-2.3s0,.01,0,.02c.01,0,.03-.01,.04-.02h-.03Zm.33-7.68c-.09,0-.14,.03-.15,.04,.03,.05,.08,.14,.16,.28,.02,.04,.05,.09,.07,.14,.04-.01,.08-.03,.12-.03-.05-.16-.13-.33-.2-.42Zm1.06,2.7l-.86,.32c.06,.21,.36,.4,1.05,.56-.05-.73-.12-.81-.19-.88Zm-.82,2.3c-.06,.26-.14,.45-.22,.61-.03,.06-.06,.12-.08,.18,.63-.14,.63-.47,.63-.66-.05-.07,.66-.11-.33-.13Zm-25.12-11.39c0,.17,.03,.4,.09,.71,.89,.65-.43,.81-1.46,1.11-1.81,1.42-5.57,1.64-5.88,4.02-.03,.25-.12,.67-.22,1.18-.2,1.04-.51,2.61-.51,3.41,0,1.24,.33,2.49,.35,3.82,.19,1.37,.38,2.79,.38,4.22,0,.19-.12,1.34-.26,2.11l.11,.13c.13,.15,.18,.35,.14,1.13-.26,.55-3.8,.57-3.84,.57-.17,0-.41,0,.14,.65-1.2-.46-1.75-.35-2.22-.35-.02,0-1.72-.08-1.72-.93l-.36-3.2v-21.76c0-.34,.27-.62,.62-.62h5.47c.92,0,1.25,.53,1.25,1.04,0,.35,0,.81,0,.13,1.71-.81,4.61-2.88,7.36-2.88,.19,0,.38,.09,.5,.25,.54,.37,.54,.92,.54,1.62,0,.55-.31,1.11-.36,1.71-.05,.62-.11,2.13-.11,1.92Zm-9.86,18.23v-.03s-.04,.04-.06,.26c.02-.21,.04-.21,.06-.22Zm-.25-3.35c-.08,.1-.16,.19-.24,.28-.14,.9-.28,.34,.05,.51,.02-.08,.15-.29,.19-.8Zm-.06-8.03l-.92,1.14c.62-.11,.58-.23,.74-.32,.06-.28,.12-.55,.18-.82Zm-.24,4.25v-.16c.1,.42-.77,.92-1.17,1.41,.62-.2,1.17-.68,1.17-1.25Zm-1.92,7.56c.13-.48,.26-.6,.38-.72-.16,.07-.31,.14-.41,.2,.01,.05,.02,.1,.04,.53Zm.37-4.53c-.34,.12-.65,.33-.73,.72,.23-.22,.49-.48,.73-.72Zm2.07-15.22c-1.21-.05-1.79-.12-2.39-.18,.06,.1,.1,.21,.1,.33,0,.38-.02,.37-.04,.51,.13-.09,.26-.2,.39-.33,.2-.2,.49-.23,.73-.11,.18-.14,.29-.19,1.22-.21h0Zm-1.17,5.91c.45-.11,.89-.23,1.1-.29,.1-.03,.74-.03,.31-.01,.18-.75,.38-1.48,.63-1.63-.43,.23-1.46,1.11-2.04,1.93Zm8.12-7.18c-.05-.04-.1-.08-.15-.11-.03,.09-.08,.17-.15,.24-.01,.01-.02,.02-.04,.03,.34,.21,.65,.62,.68,1.42,.17-.29,.27-.63,.27-1.01,0-.12-.13-.45-.61-.58Zm-23.35,12.71c-1.39,.29-3.12,.69-5.54,.69-.79,0-2.03-.07-3.03-.13-.33-.02-.63-.04-.32-.05-.17,.17-.63,.29-.76,1.34-.03-.81-.06-.76-.11-.67v10.68c0,.32-.22,.51-.45,.71-.11,.1-.34,.22-.49,.22-1.48,0-3.71-.51-4.85-1.37-.16-.12-.25-.3-.25-.26,0-2.66-.17-5.09-.34-7.44-.17-2.36,.04-4.57,.04-7.22,0-.96-.26-1.97-.16-2.87,.08,0,.15-1.28,.15-1.44,0-.98-.11-1.31-.21-1.59-.08-.23,.22-.47,.22-.8,0-.37-.27-.58-.19-.74,.08-.03,.17-.34,.17-.32,0-1.12-.11-1.37-.22-1.63,.74-.24-.2-.49-.2-.78,0-.56,.11-1.07,.22-1.56,.1-.45,.19-.87,.19-1.29,0-.11-.11-.34-.49-.62-.25-.05-.92-.19-.92-.31,0-1.25,.44-1.89,1.42-2.18v-2.71c0-.35,1.06-1.61,1.5-1.61h6.99l.49-.24c.09-.04,.18-.07,.28-.07h5.73c.06,0,.12,0,.18,.03,.73,.94,1.26,.55,1.82,.89,.76,.47,1.55,.96,3.05,2.12,.13-.76,.25-.69,.33-.58,.3,.37,.6,.97,.89,1.07,2.11,2.52,3.78,4.5,3.78,8.51,0,5.1-3.14,11.12-8.95,12.24Zm-12.32,6.36c-.09,.12-.03,.27-.27,.44,.56-.12,.21-.26,.27-.44Zm.12-14.19c0-.17,0-.51-.03-.73-.55,.6-1.04,1.32-1.05,1.96,1.44-.08,1.09-.37,1.09-1.23Zm-.36-4.72c0-.11,0-.21-.01-.31-.4,.6-.73,1.37-.73,1.92,0,.05,0,.1,0,.13,.12-.02,.26-.03,.39-.02,.09-.12,.19,.11,.3-.35,0-.2,.01-.41,.02-.61,.01,.32,.03-.52,.03-.76Zm-.19,20.86h-.18c-.11,0-.22-.03-.31-.08,.45,.46-.42,.92-.69,1.3,.37-.24,.88-.75,1.18-1.22Zm-.2-10.12c-.44,.15-.61,.32-.65,.66l.65-.66Zm.1-13.49c.03-.2,.07-.49,.11-.43-.3-.14-.61,.14-.82,.43h.7Zm-.04-6.16c.05,.07,.08,.15,.09,.23,.04,.09,.1,1,.11,.34,.34-.24,.69-.47,1.03-.68-.53,.02-.94,.06-1.24,.11Zm10.83,18.5c.2,.05,.46,.09,.69,.12,0-.16,.06-.32,.18-.45,.15-.15,.46-.34,.78-.5-.66,.14-1.35,.26-2.02,.38,.19,.08,.32,.25,.36,.46Zm-6.95,.71c-.04-.08-.07-.16-.07-.25-.27,.05-.47,.11-.61,.17,.57,.04,.44,.07,.68,.09Zm-1.07-14.76v2.3c.06,1.34,.11,1.7,.16,2.9,.08,1.85,.23,5.16,1.29,6.11h3.1l.19-.05c-.02-.24,.26,.13,.54,.41,.08,.2,.15-.65,.21-.6,.8-.27,1.8-.35,2.52-.42,.26-.02,.47-.04,.96-.06,1.72-.13,2.58-1.94,3.26-3.94,.11-1.06,.33-2,.48-2.15-.03-1.01-1.84-4.1-2.67-3.82-.17-.79-.81-1-2.89-1-.16,0,.01,.01-1.05,.02-.6,.01-1.28,.03-1.6,.03-1.2,.05-3.76,.59-4.49,.27Zm13.16-2.24c-.8,0-1.02-.15-1.12-.37-.1-.22-.06,.4,.11-.67l.02-.03c-2.44-1.2-4.3-1.43-7.07-1.43-.59,0-1.05,.1-.72,.32-.67,.02-.58,.05-.5,.1,.14,.09,.24,.56,.27,.4,.03,.17,0,.33-.11,.47-.05,.07-.11,.14-.17,.2,1.4-.27,1.67-.3,2.06-.3,.27,0,.53,.02,.76,.03,.06,0,.12,0,.18,.01l.33-.36s.04-.05,.07-.07c.24-.24,.63-.24,.87-.01,.12,.11,.18,.26,.19,.41,.83,.07,.7,.14,.98,.18,1.16,.19,1.89,.33,2.17,.85,.38,.17,.45,.36,.03,.53,.41,.33,.95,.78,1.88,1.77-.53-.62-.39-.37-.27-.16,.18,.81,.22,.37,1.14,.4-.4,.03-.2,.2-.12,.44,.07,.24,0,1.26-.19,.65l-.03,.03c.1,.06,.2,.12,.3,.19-.04-.16-.04-.23-.04-.27,0-.26,.13-.48,.66-.93,.66-.11-.1-.27-.04-.39-.34-.6-1.38-2.01-1.64-2.01Zm2.61,3.63c.33,.1-.4,.26-.48,.34-.14,.14-.34,.56-.53,.27,.14,.12,.24,.39,.3,.74,.39-.29,.73-.63,.73-.93,0-.19-.01-.32-.02-.42Zm.91,3.08s.11-.13,.11-.32c0,.56-.02-.26-.03-.31-.02,0-.07,0,.53,0-1.2,0-.94,.43-1.88,.93,.52-.02,1.06-.08,1.27-.3Zm-.4,3.22c-.46-.5-1.05-.2-1.45,.04h1.14c.1-.14,.22-.44,.32-.04Zm-.9,1.89c-.7,.16-1.42,.53-1.68,1.12,.16,.11,.26,.3,.26,.5,0,.68-1.24,1.23-2.89,1.68,.34,.81,.82,.3,1.17,.3,.57-.32,2.58-2.12,3.14-3.6Z"/></g></g></svg>