<?xml version="1.0" encoding="UTF-8"?><svg xmlns="http://www.w3.org/2000/svg" viewBox="0 0 276 127"><defs><style>.d{fill:#fff500;fill-rule:evenodd;}</style></defs><g id="a"/><g id="b"><g id="c"><path class="d" d="M265.57,45.99c-2.12,3.23-5.32,8.91-5.4,10.15,.27,.45,1.77,1.47,2.58,2.02,.62,.42,1.16,.78,1.53,1.09,10.84,9.73,11.72,22.88,11.72,38.51,0,2.69-1.01,3.85-1.74,4.7-.43,.5-.65,.76-.65,1.41,0,.32,.04,.68,.08,1.06,.05,.46,.1,.99,.1,1.52,0,5.86-14.33,20.17-21.83,20.17-.17,0-1.7,.04-3.82,.08-4.67,.11-12.48,.29-14.4,.29-3.3,0-10.42-.18-14.1-.29-2.22-.04-3.36-.07-2.97-.07-.35,0-.67,0-.71,0-2.83-.36-7.64-1.08-11.85-1.97-7.42-.69-7.36-2.53-7.36-3.48v-.07h-2.4c-.47,0-.85-.38-.85-.85,0-7.48,2.41-14.58,7.16-21.11,.13-.17,.31-.29,.52-.33,1-.2,1.21-.2,1.27-.2,1.13,0,2.26,1.06,3.74,2.56,.38,.39,1.65,1.75,1.15,1.1,.31-.08,.9-.37,1.13-.55,.07-.17,.2-.32,.36-.42,1.12-.15,.59-.15,.85,0,7.67,4.44,16.11,6.69,22.95,6.69,12.08,0,20.13-2.67,20.13-15.71,0-6.65-2.76-10.79-5.78-17-1.11-.34-1.07-.79-.78-1.08,.17,.21,.26-.32,.3-.39-.27-2.03-12.08-4.67-17.78-5.94-7.23-1.62-10.09-2.35-10.96-3.29-.36,.18-.76,.4-.96,1.32l-.35-.64c-.16,.08-.34,.11-.52,.08-2.99-.5-7.52-.39-7.52-4.7,0-1.81,2.88-11.75,5.11-12.74,.13-.06,.26-.08,.4-.07,.03,0,2.97,.36,6.94,.36,10.68,0,28.6-1.57,28.6-10.92,0-8.04-4.04-14.7-12.1-18.31-1.21-.16-5.98-.34-6.93-.34-4.04,0-8.05,1.02-11.94,2-3.99,1.01-8.11,2.05-12.35,2.05-.47,0-.85-.38-.85-.85,0-1.69-1.08-3.31-1.8-5.85-1.78-2.44-3.17-4.85-3.17-7.76,0-.99,0-3.04,17.33-5.83,8.69-1.4,18.28-2.38,22.1-2.38,20.15,0,29.46,17.61,29.46,35.73,0,2.49-.38,4.72-1.19,7.05-.37,.09-1.27,1.47-2.42,3.22Zm-13.43-35.22c-.51-.63-.93-.98-1.47-.98-2.95,.13-5.87,1.42-7.06,2.67,2.87-.48,6.52-1.26,8.79-1.67,.34,0-.29-.01-.26-.02Zm6.34,14.16c-.06-.3,.04-.61,.27-.81,.23-.2,.55-.26,.83-.17,1.31,.14,.68,.14,1.2,.14,1.36,0,1.36-1.33,1.36-1.91,0-.79-.02-1-.04-1.36l-5.65-6.54c-.17-.04-.07-.08-.63-.08-1.64,0-2.97,.32-4.5,.68-1.46,.35-3.08,.74-4.37,.9,.41,.54,2.49,1.14,4.6,1.51,.38,.07,.66,.38,.7,1.32,.04-.19,.41,.17-.54,.31l-1.14,.44c1.23,1.52,2.42,4.22,3.87,8.42,.74,.95,1.43,2.59,1.91,3.31,.15,.23,.18,.52,.09,.78l-.64,1.67,1.52,.76c.35,.18,.54,.57,.45,.96-.09,.38-.43,.66-.83,.66-.14,0-.3,.36-.38,.8,1.65,.63,4.44,1.61,6.25,1.99,.11-1.56,1.2-8.32,1.2-9.89,0-2.28-.52-2.28-.81-2.28s-.65,.08-1.01,.16c-.45,.1-.92,.2-1.38,.2-1.21,0-2.06-.72-2.31-1.97Zm-17.15,31.73c-1.17,.74-2.38,.76-3.42,1.25l.29,.29c.24,.24,.32,.61,.18,.93-.13,.32-.44,.53-.79,.53h-6.81c-.36,0-.68-.22-.8-.56-.07-.18-.07-.37-.01-.55h-2.5c-.34,0-.64-.2-.78-.1-.13-.72-.07-1.08,.15-1.32l.89-.96h-3.76c-.47,0-.85-.38-.85-.85v-.99c-4.46,.06-6.26,.91-6.99,1.63-.35,.35-.51,.73-.51,1.19,0,2.77,8.67,3.66,12.84,3.01,1.82,.03,3.13,.06,3.8,.21,3.13,1.54,6,2.15,9.29,3.53,3.26,1.87,6.82,3.63,10.76,3.63,.47,0,.85,.38,.85,.85,0,1.82-.4,2.27-.81,2.77-.04,.05-.1,.12-.11,.14,.03,.18,.26,.96,.46,1.18l.57-.22-.32-.37c-.22-.25-.27-.61-.13-.91,.14-.3,.44-.5,.77-.5h7.91c.27,0,.99,.13,.69,.35,.16,.51,.21,.5,.13,.76-.61,1.96-2.34,1.94-3.62,1.93-1.35-.01-2.29,.04-2.93,1.08,.8,1.09,1.34,3.77,2.17,9.2,.34,2.46,.73,4.78,1.02,5.37,.41,.96,4.2,3.56,5.14,4.04,.35,.18,.54,.57,.45,.96-.09,.38-.43,.66-.83,.66h-3.57v9.45c0,.12-.02,.23,.82,.34-.85-.02-.82-.03-.78-.04,.35-.09,.72,.03,.92,.33l-.71,.47,.71-.46c2.71,4.07,2.71,4.76,2.71,4.51,0,.2-.07,.4-.2,.55-.05,.21-.17,.39-.34,.51,.46,.16-.52,.2-.78,.1-2.26-.82-3.14-1.97-3.14-4.11,0-.17,.04,.42,.11-.72,.03-.16,.07-.33,.08-.42,0-.08,.03-.16,.05,.57-1.05,.07-2.43,2.5-3.11,3.78l-.17-.35c-.21,.31-.6,.45-.96,.34-.08-.11-.6-.44-.6-.82v-.47c-.54,0-1.11,.36-.95,.73-3.93,2.68-7.88,4.43-9.85,7.06-.22,.29-.6,.41-.62,.3-.68-.12-.91-.22-.91-.81v-1.68c-1.06,.81-1.91,.39-2.8,.69-1.1,.62-2.23,.75-3.71,.75-.06,0-.12,0-.17-.02-2.39-.49-6.45-1.27-7.19-1.27-2.09,0-6.44,2.41-7.29,5.2,1.1-.19,2.17-.66,3.21-1.12,1.32-.58,2.68-1.04,4.08-1.04,.94,0,.85,.24,.85,.71v2.81c2.96-.1,9.26-.83,9.71-5.11,.04-.33,.25-.6,.56-.71,.47-.11,.65-.03,.88,.72,.71,.19,.9,1.34,1.08,2.78,.27,1.37,.48,1.97,1.08,1.97,4.09,0,4.42-.91,5.23-3.1,.32-.86,.71-1.93,1.4-3.1,.13-.22,.35-.36,.59-.41,.25-.04,.5,.03,.69,.19l.66,.56c.95-1.15,2.15-3,2.66-3.85,.2-.33,.59-.48,.96-.38,.37,.1,.62,.44,.62,1.36v.56c0,.11-.02,.22-.06,.32-.69,1.72-1.23,2.68-1.63,3.38-.57,1-.26,1.43-.38,3.1,5.3-1.02,15.27-11.48,15.27-16.52v-.96c.02-1.64-.02-2.54-1-2.64-.27-1-.36-1.37-.24-1.7,.12-.33,.44-.55,.8-.55h2.83c-.05-19.01-1.71-33.44-19.58-33.44-1.1,0-2.15,0-3.38,.18-.42,.05-.81-.19-.93-.59-.12-.4,.06-.83,.43-1.01,.17-.08,1.17-.13,.84-.23,.82-.18,3.07-.67,3.96-1.28-.19-.37-.32-.48-.4-.54-.61,.04-.82,.26-1.2,.65l-.19,.2c-.23,.23-.56,.31-.86,.21l-6.41-2.21c-.76-.12-1-.05-.98-.85,.02-.38,.29-.71,.67-.79,5.8-1.27,16.63-7.16,16.63-13.89,0-.58-2.26-2.44-3.86-2.88-.42,4.68-3.77,8.58-9.69,11.14,.17,.62,.17,1.23,.17,1.87,0,2.44-2.03,2.7-5.03,3.56Zm-22.36,57.22c.34,.26,.43,.73,.22,1.1-.28,.48-.58,.93-.91,1.36,.24,.57-.36,1.19-.41,1.77h1.11l3.54-4.57c-1.41-.62-3.69-1.56-4.13-1.64-2.74,0-7.61,4.42-8.51,7.45,2.7,.48,5.65-1.66,6.92-3.87,.92-.59,.62-1.1,1.06-1.53,.3-.3,.78-.33,1.12-.07Zm-11.49-.31c-.71,0-.97-.13-1.13-.35-.16,.18-.21-.5-.13-.76,.52-1.7,2.46-2.32,2.89-2.82,.54-.26,1.03-.49,1.42-.83-.91-.92-2.67-1.67-3.78-2.15-.41-.17-.64-.32-1.01-.45-3.03,.29-3.85,7.15-3.85,9.99,0,.14-.65,.95,2.57,.95,.97,0,3.15-1.7,4.44-3.59h-1.43Zm-.37-101.13c0-.14,.38-.24,.1-.26,.27,.02-.24,.12-.24,.26s.51,.24,.79,.26c-.28-.02-.65-.12-.65-.26Zm13.62,4.42c0-.1-.03-.21-.07-.3-.04,.09-.07,.19-.07,.3,0,1.02,.06,.38,.1,.43-.02-.06,.04,.59,.04-.43Zm-1.83-4.16c1.76,0,1.99-.26,2.27-1.16-1.46,.15-2.85,.43-4.03,1.16h1.76Zm44.82,64.03c.47,0,.85,.38,.85,.85v.81h1.54c.27,0,.52,.12,.68,.34,.16,.21,.39,.49,.14,.75-.55,1.9-2.8,1.9-3.76,1.9,.61,0-.52-.05-.93-.1-.32-.04-.63-.08-.74-.09,.04-.02-.83-.4-.83-.85,0-1.46,.97-3.61,3.06-3.61Zm3.9,8.57c.34,.19,.51,.58,.93,.96-.61,.38-.95,.64-1.34,.64h-2.58c-2.11,0-4.31-.2-6.03-2.56-.19,.38-.21-.6-.07-.89,.15-.29,.44-.47,.76-.47h1.1c.92,0,5.18,1.2,7.22,2.31Zm-7.22,2.29c2.13,0,4.05,.97,5.13,2.59,.23,.34,.18,.79-.11,1.07l-1.11,1.1c-.17,.17-.38,.25-.6,.25s-.44-.08-.6-.25l-3.31-3.03c-.24-.52-.32-.89-.18-1.21,.13-.32,1.13-.52,.79-.52Zm-80.27,3.34c-3.31,0-3.37-3.58-3.41-6.2-.01,.1-.02-1.25-.07-1.76,0-.33-.18-1.77-.33-2.63-.22-2.06-.35-3.16-.35-3.52,0-.49,.95-.94,.2-1.38,.08,.26,.16-.71,.16-1.02,0-1.77-1.05-3.03-3.12-3.74-.03-.01-.06-.02-.09-.04-.52,.2-1.17,.3-1.88,.9-2.12-.15-3.65,.22-3.98,1.84,0,.23-.02,.73-.03,1.2-.01,1-.03,.93-.03,1.08,0,2.14,.19,4.33,.36,6.45,.18,2.12,.37,4.32,.37,6.47,0,1.82-3.21,1.82-4.58,1.82-.65,0-1.97,0-2.54-.79-.19,.09-.41,.08-.6-.03,.22-.12-.31-.33-.3-.42l.25-1.55c0-3.12,.12-5.38,.12-7.62,0-2.42-.37-5.25-.89-7.68-1.28-1.38-2.21-1.73-3.84-1.76-.05-.16-.1-.4-.15-.57-.79,.59-2.22,1.41-3.28,1.82,.59,1.03-.21,.69-.44,1.37-.3,1.47-.76,2.23-.78,2.68,0,0,0,.14-.01,.32-.01,.29-.04,.72-.04,.95,0,.85,.1,1.65,.87,2.5-.56,.85-.45,1.73-.45,2.65,0,2.93,.44,7.96-1.65,8.86-.1,.06-.21,.1-.33,.1-.07,0-.13,.01-.51,.02-.25,.01-.5,.03-.58,.03-.04,0-4.06-.5-4.27-1.39-.02-.09-.02-.19,0-.28,0-.3-.01-.83-.03-1.35-.01-.57-.02-1.12-.02-1.35,0-1.49,.78-2.95,.34-4.36,.17-1.39,.34-2.83,.34-4.29,0-1.29-.13-2.05-.24-2.71-.09-.16-.17-1-.17-1.61,0-1.7,.12-3.57,.22-5.22,.07-1.16,.14-2.16,.14-2.8,0-.17,.07-.32,.18-.44l.98-.36c-.44-.17-.19-.22,.03-.15,.14,.02,.57,.02,.9,.02,.6,0,.84-.08,1.09-.15,.23-.07,.5-.16,.94-.16,.67,0,1.16,.69,2,1.32-.21-.17,.13-.35,1.21-.51,.86-.82,3.11-1.54,4.61-1.54,2.97,0,6.13,1.55,8.52,4.17,.85-.55,3.23-2.26,3.5-2.57,.08-.09,.21-.18,.33-.22,.66-.18,4.16-.99,4.19-1,.3,0,.77-.01,.14-.01,7.04,0,10.23,5.58,11.18,10.81,.4,.25-.3,.51-.31,.83-.01,.44-.03,.97-.03,1.49,0,.56,.03,1.24,.26,1.72,.07-.03,.11,.09,.11,.21,0,1.44,.02,2.76,.03,3.93,.01,.94,.02,2.47,.02,2.53,0,1.66,0,5.1-4.22,5.1Zm-32.16-23.12c-.88,.03-.87,.06-.86,.09,.12,.01,.23,.05,.32,.32,.01,.11,.03,.23,.04,.36,.04-.61,.07-.69,.11-.77-.13,0-.35-.02,.39,0Zm2.31,1.98c.19-.26,.37-.53,.54-.8v-.02c-.26,.27-.46,.54-.54,.82Zm6.36-2.97h-.18c-1.02,0-.87,0-2.18,.59,.38-.1,1.38-.17,1.16-.17,.19,0,.37,.09,.48,.23,.04-.03,.3-.06,.78-.09-.32-.22,.08-.5,.67-.5,.26,0,.49,.39,.58,.41,.26,.14,.23,.3,0,.44,.25,.13,.49,.15,.88,.15,.8,0,.52-.11,.52-.21,0-.31-.19-.84-2.71-.84Zm4.27,1.61c-.26,0-.33,.03-.55,.39,.23-.05,.61-.14,.97-.25-.15-.1,.35-.15-.42-.15Zm3.86,18.39h0v-.27c-.18,.09-.36,.18-.53,.27h.53Zm0-5.51v-.5c-.09,.07-.18,.15-.27,.5h.27Zm-1.39,6.14h.09c0-.1,.02-.19,.06-.27-.09,.05-.18,.09-.25,.14,.04,.04,.07,.08,.1,.13Zm-.06-4.31c.22,.12-.43,.29-.5,.49l.5-.49Zm1.08-5.02c.07,0,.14,.01,.2,.03,.11-.29,.16-.58,.16-.82,0-.05,0-.12,0-.19-.42,.12-1.12,.66-1.59,1.13,.31-.08,.7-.16,1.23-.16Zm-.92-5.29c.66-.15,.92-.25,1.89-1.54-.62,.43-.77,1.01-1.89,1.54Zm13.43-4.72c-.15,0-.2,.02-.32,.07-.18,.08-.43,.19-.88,.19-.34,0-.62,.52-.62-.62,0-.14,.04-.25,.09-.35-.37-.11-.24-.21-2.22-.22,.99,.2,.98,.45,0,.65l-.15,.66c.88-.25,2.36,.05,2.64,.05,.09,0,.26-.03,.41-.05,.87-.03,.39-.05,.48-.05,.34,0,.62,.28,.62,1.05,0-.34,0-.26,0-.2,.27-.03,.62-.04,.83,.19,.12,.13,.17,.31,.15,.48,0,0-.02,.17-.03,.32,.18,.14,.9,.3,.23,.47,.03,.06,.06,.14,.1,.22,.26-.1,.7-.29,.99-.43,.2-.1,.43-.08,.61,.03-.87-1.16-2.35-2.45-2.94-2.45Zm4.07,5.31h-.47c-.3,0-.55-.21-.61-.5-.06-.29,.21-.58,.38-.7,.01-.03,.15-.26,.23-.41-.03-.24-.17-.54-.38-.86,.04,.2-.01,.42-.17,.57-.17,.17-.44,.75-.64,.78,.22,.08,.51,.26,.51,.65,0,.54-.03,.25-.07,.42,.14,.06,.47,.17,1.14,.31-.71,.22-.75,.47-.79,.66-.28,.22-.33,.58-.38,.98-.03,.2-.06,.43-.11,.65,.07-.03,.15-.04,.22-.04,.39,0,.36,.57,.48,.23,.17,.21,.18,.5,.04,.72,.28-.04,.54-.1,.79-.18,0-.2,.01-.4,.02-.6,.01-.32,.02-.63,.02-.97,0-.61-.07-1.18-.21-1.72Zm.46,5.3c-.31,.24-.62,.51-.91,.8,1.29-.16,.92,.47,.92-.78h0Zm-1.9,4.81c.04,.25,.12,.42,.22,.62,.13,.28,.71,.59,.71,1.03,0,.22-.55,.42-.72,.53,.04,.42,.13,.68,.24,.96,.11,.3,.23,.64,.28,1.14,1.18-.08,1.18-.34,1.23-.28-.2-.61-.34-.82-.34-1.05,0-.25,.12-.19,.34-.57,0-.01,0-.03,0-.06,0-.19-.07-.4-.15-.64-.1-.3-.21-.64-.21-1.03,0-.25,.13-.43,.35-.63,.03-.25,.06-.66,.08-1.03-.71,.21-.91,.68-2.03,1Zm-39.71-5.96c.02-.46,.03-.38,.02-.3-.02,.17-.1,.32-.24,.42-1.07,.82-3.2,1.22-5.72,1.22h-2.42q-4.59,0-7.28-.4l-.48-.07c-.05,0-.1-.02-.14-.04,.11,1.69,.54,3.92,1.36,4.78,.34,.37,1.29,.71,2.06,.97,.49,.17,.95,.33,1.31,.51,.88,.61,1.12,.61,1.34,.61,1.29,0,2.69-.34,4.05-.67,2.16-.33,2.82-.68,4.18-.68,1.77,0,1.77,2.27,1.77,2.76,0,1.47-.18,2.01-1.15,2.18-.18,.03-.25,.04-.38,.22,.25,.12-.21,.2-.35,.23-.63,.16-3,.54-5.17,.89l-.97,.16s-.07,0-.1,0h-.29c-.11,0,.07,0-.36,0-1.69,0-4.48-.04-6.57-.71-3.63-1.19-7.52-7.4-7.52-11.32s1.67-8.67,3.32-11.41c.1-.16,.27-.27,.46-.3,.09-.01,.17,0,.26,.02,.39-.09,.62-.36,.88-.54,.56-.37,1.05-.7,1.48-.74l.68-.17c1.35-.33,2.75-.67,4.5-.67-.1,0,.09,.11,.2,.28,.73-.18,1.28-.18,2.03-.18,1.74,0,5.35,.2,5.17,1.44,2.06,.28,3.01,2.32,3.65,3.71,.25,.54,.59,2.15,.79,1.37,.21,.11,.34,.32,.34,.56v4.48c0,.2-.1,.39-.26,.5l-.44,.85Zm-12.91,9.89c.32-.04,.64-.2,.86,.13-.23,.26-.4-.49-.5-.46-.08,.15,.41,.26-.38,.31l.02,.02Zm-.76-.36c-.01,.77-.02,.52-.03,.27-.02,.16,.85,.33,.66,.5-.69,.07-.66-.78-.64-.77Zm-5.99-9.53c.08,.03,.16,.07,.22,.14,0-.06-.01-.12-.01-.18,0-.07,.01-.13,.03-.2h0l-.24,.24Zm.47-5.37c-.03,.11-.06,.22-.09,.33,.05-.14,.09-.26,.09-.32h0Zm-.06,6c0,.07-.03,.14-.05,.2,.05-.02,.09-.05,.12-.07-.02-.04-.05-.08-.07-.12Zm.99,5.33c.05-.07,.09-.15,.13-.23-.09,.02-.16,.04-.22,.06,.03,.06,.06,.11,.09,.17Zm-.16-1.77c-.05-.07-.1-.14-.16-.22h0c-.06,.08-.11,.17,.62,.26-.67-.01-.56-.03-.46-.05Zm.5-10.58c-.62-.47-.38-.77-.13-1.09,.81-.36,.61-.78,.83-1.15-.64,.57-1.14,1.28-.7,2.24Zm6.92-1.38c-2.42,0-4.23,1.07-5.15,3.02,1.14,.32,4.64,.53,6.93,.53,.88,0,1.62-.1,2.4-.21,.53,.8,1.66,.07,1.66-.18-.09-.22-.21-.46-.3-.61-.02,0-.03,0-.05,0,.68-.05-.38-.2-.45-.4-.42-1.17-3.59-2.14-5.04-2.14Zm4.38-2.33c-.06,.04,.45,.09-.21,.12,.28,.1,.6,.17,.92,.18-.31-.07-.54-.18-.71-.31Zm3.43,1.63c-.1,.02-.18,.02-.26,.02-.5,.67-1.6-.48-1.99-1.27-.11-.01-.21-.02,.44-.04-.5,.09-.33,.32-.33,.58,.11,.27,1.2,1.25,1.63,1.45,.18-.03,.49-.12,.65-.21-.03-.15-.09-.36-.15-.55Zm.89,2.26c-.11,0-.15,.02-.15,.02,0,.05,0,.35,0,.79,.26,.61,.43,1.07,.51,1.3h0c.12-.08,1.08-.15,1.08-.69,0-.42-.56-1.41-1.43-1.41Zm-22.94,19.46c-.03,.88-.18,.41-.39,.5l-.68,.26c-.07,.03-.15,.04-.22,.04-.12,0,.09-.04-.35-.11-.11-.07-.18-.18-.23-.29-.19,.01-.38,.02-.56,.04-.35,.03-.69,.05-.99,.05-.47,0-1.82,0-1.52-1.51-2.51-.35-3.31-2.47-3.92-4.06l-.1-.25c-.02-.05-.03-.11-.04-.17-.58-6.95-.63-14.02-.63-20.36v-2.54c-.02-3-.03-6.1,.37-8.6,.03-.97,.15-1.15,.33-1.24,.8-.41,1.61-.05,2.9-.69,.24-.13,.93-.24,1.6-.57,.15-.08,.29-.11,.43-.11,.64,0,1.09,.49,1.09,1.19,0,4.17-.17,8.45-.34,12.88-.11,2.48-.23,5.34,.08,8.13,0,1.12-.47,2.15-.56,3.15-.09,.92-.17,1.79-.17,2.67,0,5.42,1.03,7.05,3.55,7.05,.07,0,.14,.12,.21,.36,.99-.25,1.46,.15,1.46,.66,0,.48-.36,1.33-.91,2.58-.16,.36-.35,.8-.4,.94Zm-6.46-11.04s.04,.04,.06,.06l-.03-1.74-.03,.03v1.65Zm.06-2.29s0-.03,0-.06c.02-.49,.04-.61,.06-.75-.06,.09-.11,.19-.14,.28,.02,.12,.05,.31,.07,.53Zm.07-12.04c-.09,.09,0,.32-.33,.52,.35,.39,.21,.98,.31,.19,.13-.47,.24-.88,.29-1.45-.05,.01-.1,.02-.15,.03,.04,.09,.06,.19,.06,.61,0-.17-.06-.01-.18,.11Zm-.08,7.32h0v-.42s.72,0,.29-.01c.47,.12-.33,.26-.3,.44Zm-.3-4.89c0-.06,0-.11,0-.17,0-.04,0-.07,0-.11,.02-.13,.05-.25,.07-.37-.09,.05-.23,.21-.3,.72,.07-.03,.14-.05,.22-.07Zm-.37-6.72c.05-.06,.1,.48,.14,.4-.07-.34-.11-.13-.15,.05,0-.54,0-.5,0-.45Zm1.04-6.33c-.66,.11-.88,.5-.93,1.53h.09c1.19,0,.55,.21,.61,.49,.06,.1,.12,.22,.12,.39,0,.04,0,.08,0,.11,.04,0,.08,0,.12,0v-2.52Zm.31,28.92h-.05c-.34,0-.62-.28-.62-.62v-.7c-.04,.15-.06,.34-.06,.65s.12,.43,.39,.69c.1,.1,.22,.37,.33,.35,.01,.72,.02,.17,.02-.16,0-.09,0-.16,0-.21Zm.89,2.85c-.05,.1-.11,.2-.16,.3h0s.09-.13,.18-.22c0-.03-.01-.05-.02-.07Zm1.24,1.19s-.06,.03-.08,.04c-.18,.09-.44,.98,0,.27-.26,.37,.53,.62,1.48,.72-.03-.16,.54-.31-.18-.43-.39-.21-.93-.47-1.21-.6Zm-10.36-3.63c-2.39,4.26-6.18,6.36-10.92,6.36-1.93,0-3.09-.45-4.22-.88-.91-.35-1.78-.68-2.61-.73-.03,.35-.06,.72-.09,.18-.26,.5-.45,1.43-1.84,1.43-1.26,0-3.13-.28-4.26-1.05-.15-.11-.25-.28-.27-.04-.05-1.05-.31-4.01,.09-4.58-.02-.02-.02-.04-.02-.06,0-2.83-.36-5.98-.28-9.31,.1-3.85,.2-7.84,.2-11.99v-1.03c-.01-2.57-.02-4.6,1.08-8.35-.19-1.5,1.22-1.5,1.89-1.5,2.09,0,3.38,.88,3.38,3.25,0-.44-.11-.03-.33,.32,.07,.13,.09,.29,.05,.44-.03,.15-.03,.71-.03,1.05,0,.77,.37,5.72,.53,7.84,.82,.33,.31,.61,.47,.83,2.3-.7,5.54-1.47,8.38-1.47,.83,0,.44,.26,.55,.33,.2,.16,.94,.42,1.49,.61,1.55,.55,3.43,1.65,3.86,2.46,1.41,.43,1.99,2.6,2.51,4.53,.24,.9,.61,3.01,.9,2.45,.24,.15,.38,.47,.29,.88-.02-.03-.02,.45-.02,.76,0,.52,.07,.97,.15,1.44,.08,.5,.16,1.01,.16,1.64,0,.92-.02,.2-.14,.78-.03,.11-.05,.23-.07,1.15,.14-.65,.21-.5,.21-.32,0,.68-.37,1.55-1.1,2.6Zm-21.41-9.23l.14-.14h-.14v.14Zm.18-8.14l.47,.3s0,.03,.01,.04c-.11-.88-.13-1.61-.13-2.33,0-.07,0-.15,0-.22-.14,.16-.37,.23-.56,.21,0,.06-.02,.15-.02,1.06,0-.42,.05-.32,.06-.32,.11,.11,.31,.31,.31,.68,0,.12-.06,.35-.13,.59Zm.38-3.71l-.31,.5h.03c.11,.05,.2,.12,.26,.2,0-.15,0-.29,.01-.44,0-.12,0-.25,0-.27Zm.17-7.53c-.11-.13-.49-.34-.68-.34-.16,0-.11,.01-.11,.01,.03,0,0,.12,0,.46,0,.52,.04,.75,.06,.83,.2,.16,.3,.37,.3,.62,0,.32-.16,.67-.34,1.07-.05,.11,.53,.26,.03,.38,.07,0,.14,.01,.21,.02-.11,.25,.1,1.21,.1,.77,0,.36-.11,.58-.2,.75-.08,.16-.17,.33-.17,1.1v-.13c0,.19,0,.78,.11,1.2,.12,0,.24,.34,.34-.2-.04-.16-.02-.33,.06-.48l.28-.48v-5.59Zm.93,12.62c-.92-.06-1.07,.01-1.25,.01h-.42v.24c.08-.01,.17-.02,.26-.02h.16c.29,0,.54,.2,.61,.48,.01,.07,.02,.48,.01,.2h.21c-.16-.36-.28-.72,.42-.9Zm-.67,4.4c.47-.08,1.08-.22,.95-.41-.35,.12-.68,.26-.95,.41Zm18.7,9h.24c.03-.18,.05-.47,.07-.84,.49,.21-.44,.55-.71,.41h0c.24-.06,.39,.16,.4,.41v.02Zm-.72,1.12c.15,.07,.25,.19,.29,.72,.07-.25,.1-.45,.11-.49-.06-.11-.15-.26-.19-.31-.09-.09-.14-.2-.17-.31-.06,.06-.06,.12-.06,.26,0,.04,0,.11,0,.13Zm-7.35-12.37c-.62,0-2.99,.18-4.13,.26l.22,.05c-3.05,.5-4.8,5.51-4.8,7.92,0,1.71,1.36,3.13,2.45,4.28,.65,.68,1.23,1.29,1.59,1.97,.44,.14,1.37,.44,1.66,.94h2.75s.02,0,.03,0c.06-.11,.16-.2,.28-.26,.98,.1,2.25-1,2.71-1,1.53,0,2.09-3.27,2.09-5.05,0-3.36-1.46-9.12-4.85-9.12Zm2.98-1.68c.16,.12,1.04,.16,.31,.17,.06-.02,.12-.03,.18-.04-.16-.04-.32-.08-.49-.13Zm1.89,.9c-.14-.09-.24-.24-.28-.4-.16,.77,.12-.05-.67-.24,.08,.06,.14,.76,.18,.24l.97,2.22h.02c.19-.12,.43-.12,.62-.01s.31,.32,.31,.54v1.2c.72,.4,1,1.49,2.02,2.32-.71,.39-.6,.82-.5,.98,.12,.19,.13,.43,.02,1.12-.04-.42-.08-.36-.14-.32,.02,.01,.03,.03,.03,.03,.12,.12,.18,.28,.18,.44s-.05,.74-.17,.78c-.04,.14-.08,.27-.09,.34,0,.09,.04,.13,.32,.33,.21,.14,1.21,.36,.68,.75-.01-5.3-.83-8.66-3.51-10.31Zm-23.92,11.66c0,.08-.02,.16-.05,.24-.19,.46-.53,.65-.75,.77q-.19,.11-.19,.29s0,.1,0,.14c.53,.14,.35,1.23,1.13,.67-.58,.24-1.09,.43-1.33,.48-.17,.41-.4,.91,.06,1.34-.89,1.3-1.16,1.71-1.68,2.09-3.76,3.5-8.08,4.13-13.6,4.13-.12,0-.23-.03,.2-.1l-4.45-2.46c-1.58-.1-2.32-1.41-2.98-2.58-.43-.77-.84-1.5-1.44-1.89-.11-.07-.19-.17-.24,.39-1.14-3.47-1.3-6.27-1.3-8.88,0-.07,.01-.14,.04-.21l1.98-5.52c.15-.44,3.34-3.5,3.61-3.74,1.98-1.81,5.41-3.07,7.86-3.07,1.81,0,3.93,1.1,5.82,1.98,5.16,3.47,7.36,7.97,7.36,14.21,0,.15-.02,.64-.03,1.06-.01,.31-.02,.59-.02,.65Zm-11.53,6.88c.19,0,1.13-.01,1.31-.27h-2.99l-.12,.13c.49,.99,.94,.13,1.81,.13Zm-6.29-1.36v1.14c.24-.66,.43-.97,.5-1.07-.11-.09-.32-.19-.53-.28,.02,.06,.03,.13,.03,.2Zm-4.04-10s0-.08,.01-.12c-.08,.04-.16,.08-.24,.12h.23Zm-1.96-1.02c.17-.07,.33-.17,.5-.27-.23,.03,.41,.11-.5,.27Zm-.03,3.71c-.02-.34-.03-.27-.04-.18,1.05-.06,.38-.14,.57,.18h-.53Zm.75,2.41l.02,.06s.07-.05,.1-.08c-.04,0-.08,.01-.12,.02Zm.48-9.58c-.08,.05,.01,.32-.25,.67,.49-.08,.97-.25,1.31-.48-.33-.12-.7-.19-1.06-.19Zm1.67,13.28c.06,0,.11-.02,.5-.04-.4-.11-.45-.24-.45-.37v-.61l-.56,.28c.19,.34,.39,.62,.51,.74Zm-.02-15.18c-.13,.1-.33,.28-.46,.44,.04,0,.1,0,.16,0,.17,0,.56-.02,.85-.04l.07-.28c-.23-.05-.47-.1-.62-.13Zm1.84,16.22c-.17,.05-.36,.11-.53,.16,.21,.03,.36,.01,.53-.16Zm3.12-19.75c-.46,.11-.99,.48-1.5,.84h0c.08,.03,.15,.05,.22,.07,.16,.05,.3,.09,.39,.1,.31,0,.71-.41,1.09-.35,.01-.12,.13-.25,.26-.39-.3-.14-.38-.2-.45-.27Zm5.03-.03c-.08,.06-.2,.15-.32,.96,.08,.16,.16-.66,.24-.64,.67,.14,1.42,.3,2.04,.35-.63-.37-1.4-.63-1.95-.66Zm1.61,3.4c-.48-.22-.94-.31-.99-.39-.96-.1-1.47-.2-2-.2-2.24,0-3.46,.8-5.19,3.36-.14-.76,.58-.45,.2-.15-.47,.47-.56,1.1-1.06,1.48-.27,.82-.83,3.22-.88,3.8-.05,.32-.05,.53-.05,.79,0,2.61,1.36,4.61,4.06,5.94,.27,0,.73,.03,1.18,.05,.48,.02,.95,.05,1.12,.05,6.05,0,7.39-2.24,7.39-8.34,0-.99-.83-3.29-1.32-4.43-1.08-.37-1.9-1.31-2.46-1.96Zm3.55-.28s.11,.06,.26,.97c.1-.5,.2-.9,.31-.91-.23-.02-.46-.05-.57-.07Zm.58,14.92c.4-.08,.78-.2,.97-.38-.31,0-.71,.15-.97,.38Zm1.79-2.31v.02l.04-.02h-.04Zm.33-7.71c-.09,0-.14,.03-.15,.04,.03,.05,.08,.53,.16,.28,.02,.04,.05,.09,.07,.14,.04-.01,.08-.03,.12-.03-.05,.7-.13-.34-.2-.43Zm.9,2.71l-.7,.19c.06,.02,.82,.04,.88,.06-.05-.09-.11-.17-.18-.24Zm-.66,2.31c-.06,.26-.14,.45-.22,.62-.03,.06-.06,.12-.08,.18,.63-.14,.63-.47,.63-.67-.05-.07,.48-.11-.33-.13Zm-25.11-11.43c0,.25,.07,.77,.09,.71,.09,.65-.43,.81-1.46,1.12-1.81,.54-5.57,1.65-5.88,4.03-.03,.25-.12,.68-.22,1.19-.22,1.1-.51,3.36-.51,3.42,0,1.24,.86,2.5,.35,3.83,.19,1.37,.38,2.8,.38,4.24,0,.19-.12,1.35-.26,2.86l.11-.61c.13,.15,.18,.35,.13,.54-.26,1.15-3.8,1.17-3.84,1.17-.17,0-.41,0,.05-.08-1.11,.28-1.66,.4-2.13,.4-.02,0-1.72-.08-1.72-.93l-.36-2.45v-22.6c0-.34,.27-.62,.62-.62h5.47c.92,0,1.25,.53,1.25,1.04,0,.04,0,.08,0,.13,1.7-1.1,4.61-2.89,7.36-2.89,.2,0,.38,.09,.5,.25,.43,.37,.43,1.64,.43,1.62,0,.55-.2,1.12-.25,1.72-.05,.63-.11,1.27-.11,1.93Zm-9.86,18.3v-.03s-.04,.04-.06,.06c.02,0,.04-.02,.06-.02Zm-.26-3.37c-.08,.1-.16,.19-.24,.29-.14,.17-.28,.34-.03,.51,.1,.55,.23-.29,.26-.8Zm-.06-8.05l-.92,1.14c.54-.11,.58-.23,.74-.32,.06-.28,.12-.55,.18-.82Zm-.24,4.27v-.16c.02,.42-.77,.92-1.17,1.41,.62-.2,1.17-.68,1.17-1.26Zm-1.92,7.21c.13-.11,.26-.23,.38-.36-.16,.07-.31,.14-.41,.2,0,.05,.02,.1,.03,.16Zm.37-4.17c-.34,.12-.65,.33-.73,.73,.22-.22,.49-.48,.73-.73Zm1.98-15.28c-1.12-.05-1.7-.12-2.3-.19,.06,.1,.1,.21,.1,.34,0,.21-.02,.38-.05,.61,.13-.19,.26-.3,.39-.43,.2-.2,.49-.23,.72-.11,.17-.14,.29-.19,1.13-.21h0Zm-1.08,5.93c.45-.11,.89,.19,1.1-.3,.1-.03,.62-.03,.31-.01,.18-.75,.38-1.48,.63-2.22-.52,.82-1.46,1.7-2.04,2.53Zm8.12-6.56c-.05-.37-.1-.72-.15-.76-.03,.55-.08,.18-.15,.25l-.03,.03c.34,.21,.65,.62,.68,1.42,.17-.29,.27-.4,.27-1.01,0-.13-.23-.45-.61,.07Zm-23.34,12.1c-1.39,.29-3.17,.69-5.53,.69-.79,0-2.03-.07-3.03-.13-.33-.02-.63-.04-.34-.05-.18,.17-.62,.3-.74,.48-.03,.04-.07,.1-.11,.18v10.72c0,.66-.22,.51-.45,.71-.11,.1-.34,.22-.49,.22-1.49,0-3.71-.51-4.85-1.37-.16-.12-.25-.3-.25-.5,0-2.43-.17-4.87-.34-7.24-.17-2.36,.04-4.81,.04-7.25,0-.97-.26-1.98-.16-2.88,.08-.66,.15-1.28,.15-1.71,0-.72-.11-1.05-.21-1.34-.08-.23,.22-.47,.22-.8,0-.37-.27-.58-.19-.74,.08-.15,.18-.34,.18-1.08,0-.36-.1-.62-.21-.88,.73-.24-.2-.49-.2,0,0-1.35,.11-1.73,.22-2.36,.1,.22,.19-.87,.19-1.3,0-.52-.11-.55-.49-.62-.25-.05-.92-.19-.92-.88,0-.36,.44-1.32,1.42-1.61v-2.72c0-.72,1.06-1.61,1.49-1.61h6.99l.49-.25c.09-.04,.18-.07,.28-.07h5.73c.06,0,.12,.01,.18,.03,.73,.22,1.26,.91,1.82,.9,.76,.47,1.55,.96,3.05,1.33,.13,.03,.25,.11,.33,.21,1.15,.38,.6,.73,.89,1.18,2.11,2.42,3.78,4.41,3.78,8.43,0,5.12-3.14,11.16-8.95,12.28Zm-12.32,6.39c-.09,.13-.04,.27-.27,.44,.54-.11,.21-.25,.27-.44Zm.12-14.24c0-.28,0-.51-.04-.74-.55,.6-1.04,1.32-1.07,1.97,1.43-.08,1.1-.38,1.1-1.23Zm-.36-4.74c0-.11,0-.04-.01-.31-.4,.6-.73,1.37-.73,1.93,0,.05,0,.1,0,.13,.12-.02,.24-.03,.39-.02,.09-.12,.19-.24,.3-.35,0-.21,.01-.41,.02-.61,.01-.26,.02-.52,.02-.77Zm-.19,20.93h-.18c-.11,0-.22-.03-.31,.72,.44-.34-.42,.21-.69,.5,.37-.24,.88-.75,1.18-1.22Zm-.2-10.06c-.44,.05-.61,.22-.65,.57l.65-.57Zm.1-13.63c.03-.2,.07-.49,.11-.78-.3,.21-.61,.5-.82,.78h.7Zm-.04-6.18c.05,.07,.08,.15,.09,.23,.04,.09,.09,.2,.11,.35,.34-.24,.69-.47,1.03-.68-.53,.02-.94,.06-1.24,.11Zm10.83,18.57c.2,.05,.46,.09,.69,.12,0-.17,.06-.33,.18-.45,.15-.15,.46-.34,.78-.24-.66-.13-1.34,0-1.15,.11-.68,.08-.54,.25-.5,.46Zm-6.95,.71c-.04-.08-.06-.17-.07-.25-.27,.05-.47,.11-.61,.17,.54,.04,.44,.07,.68,.09Zm-1.07-14.81v2.94c.06,.03,.11,1.07,.16,2.26,.08,1.86,.23,5.18,1.26,6.14h3.12l.14,.52c.03-.81,.32-.93,.59-.86,.08,.02,.15,.06,.21,.1,.8-.28,1.8-.36,2.52-.42,.26-.02,.47-.04,.92-.06,1.77-.13,2.63-1.95,3.3-4.64,.11-.37,.33-1.32,.44-1.47,.6-1.02-1.8-4.12-2.62-4.55-.17-.08-.81-.29-2.89-.29-.16,0-.39,.01-1.05,.02-.6,.02-1.28,.03-1.6,.03-1.2,.05-3.76,.2-4.49,.27Zm13.12-2.25c-.75,0-.97-.15-1.07-.37-.1-.22-.06-.49,.11-.67l.03-.03c-2.44-1.21-4.3-1.31-7.07-1.31-.59,0-1.05-.01-.76,.2-.62,.01-.54,.05-.45,.1,.14,.09,.24,.24,.27,.4,.03,.76,0,.34-.11,.47-.05,.07-.11,.14-.17,.21,1.36-.27,1.67-.3,2.06-.3,.27,0,.53,.02,.76,.03,.06,0,.12,0,.17,.01l.33-.36s.05-.05,.07-.08c.24-.24,.63-.24,.87,0,.12,.11,.18,.97,.19,.41,.79,.07,.7,.14,.98,.19,1.16,.19,1.89,.33,2.17,.85,.32,.17,.4,.36,.03,.53,.41,.34,.95,.78,1.83,.94-.48,.21-.33,.46-.21,.67,.18,.3,.22,.38,1.08,.41-.35,.03-.14,.34-.07,.44,.07,.24,0,.49-.19,.65l-.03,.03c.1,.06,.2,.57,.3,.19-.04-.16-.04-.23-.04-.27,0-.26,.13-.49,.6-.93,.66-.11-.04-.27,.03-.39-.34-.6-1.38-2.02-1.69-2.02Zm2.66,3.65c.27,.1-.4,.26-.48,.34-.14,.14-.34,.2-.53,.17,.14,.22,.24,.49,.3,.84,.39-.29,.73-.63,.73-.94,0-.19-.01-.32-.02-.42Zm.91,3.09c.05-.05,.11-.13,.11-.32,0-.17-.01-.27-.03-.31-.02,0-.06,0,.47,0-1.14,0-.95,.78-1.82,.94,.52-.02,1.06-.08,1.27-.3Zm-.4,2.51c-.46,.22-1.05,.52-1.45,.76h1.14c.1-.14,.22,.2,.31-.76Zm-.9,2.61c-.7,.16-1.42,.53-1.68,1.13,.16,.11,.26,.3,.26,1,0,.18-1.23,.75-2.89,1.19,.34,.01,.82,.03,1.17,.03,.57-.06,2.58-1.86,3.14-3.35Z"/></g></g></svg>