<?xml version="1.0" encoding="UTF-8"?><svg xmlns="http://www.w3.org/2000/svg" viewBox="0 0 143.5 149.89"><defs><style>.d{stroke:#c7b299;}.d,.e{stroke-width:7.46px;}.d,.e,.f{fill:none;stroke-linecap:round;stroke-linejoin:round;}.e{stroke:#2abbe1;}.f{stroke:#0071bc;stroke-width:4.47px;}</style></defs><g id="a"/><g id="b"><g id="c"><g><g><polyline class="e" points="139.77 83.89 71.75 25.35 43.7 49.49 26.45 49.49"/><line class="e" x1="3.73" y1="83.89" x2="28.98" y2="62.16"/><polyline class="d" points="120.59 82.4 120.59 146.16 22.91 146.16 22.91 82.4"/></g><path class="f" d="M46.58,75.87c0,5.4-2.5,7.83-5.59,7.83s-5.59-2.42-5.59-7.83,5.59-11.74,5.59-11.74c0,0,5.59,6.34,5.59,11.74Z"/><path class="f" d="M46.58,101.51c0,5.4-2.5,7.83-5.59,7.83s-5.59-2.42-5.59-7.83,5.59-11.74,5.59-11.74c0,0,5.59,6.34,5.59,11.74Z"/><path class="f" d="M46.58,127.15c0,5.4-2.5,7.83-5.59,7.83s-5.59-2.42-5.59-7.83,5.59-11.74,5.59-11.74c0,0,5.59,6.34,5.59,11.74Z"/><g><line class="f" x1="133.08" y1="25.14" x2="133.08" y2="35.66"/><line class="f" x1="133.08" y1="42.47" x2="133.08" y2="49.83"/><line class="f" x1="133.08" y1="56.77" x2="133.08" y2="64.13"/></g><g><line class="f" x1="117.42" y1="15.23" x2="117.42" y2="25.76"/><line class="f" x1="117.42" y1="32.57" x2="117.42" y2="39.93"/><line class="f" x1="117.42" y1="46.86" x2="117.42" y2="54.23"/></g><g><line class="f" x1="101.76" y1="2.24" x2="101.76" y2="12.76"/><line class="f" x1="101.76" y1="19.57" x2="101.76" y2="26.93"/><line class="f" x1="101.76" y1="33.87" x2="101.76" y2="41.23"/></g><g><line class="f" x1="7.81" y1="25.14" x2="7.81" y2="35.66"/><line class="f" x1="7.81" y1="42.47" x2="7.81" y2="49.83"/><line class="f" x1="7.81" y1="56.77" x2="7.81" y2="64.13"/></g><g><line class="f" x1="23.47" y1="15.23" x2="23.47" y2="25.76"/><line class="f" x1="23.47" y1="32.57" x2="23.47" y2="39.93"/><line class="f" x1="23.47" y1="46.86" x2="23.47" y2="54.23"/></g><g><line class="f" x1="39.13" y1="2.24" x2="39.13" y2="12.76"/><line class="f" x1="39.13" y1="19.57" x2="39.13" y2="26.93"/><line class="f" x1="39.13" y1="33.87" x2="39.13" y2="41.23"/></g></g></g></g></svg>