<?xml version="1.0" encoding="UTF-8"?><svg xmlns="http://www.w3.org/2000/svg" viewBox="0 0 121.84 112.71"><defs><style>.d{fill:#2abbe1;}.d,.e{fill-rule:evenodd;}.f{stroke:#2abbe1;}.f,.g{fill:none;stroke-linecap:round;stroke-linejoin:round;stroke-width:5.63px;}.h{fill:#fff505;}.e{fill:#c7b299;stroke-miterlimit:10;stroke-width:.65px;}.e,.g{stroke:#c7b299;}</style></defs><g id="a"/><g id="b"><g id="c"><g><g><polyline class="f" points="59.14 26.05 67.7 18.74 119.03 62.91"/><line class="f" x1="16.37" y1="62.91" x2="28.5" y2="51.69"/><polyline class="g" points="104.56 61.79 104.56 109.9 30.84 109.9 30.84 102.87"/></g><path class="h" d="M118.87,28.59c-6.99,2.21-8.33,4-9.97,13.39-1.65-9.39-2.98-11.18-9.97-13.39,6.99-2.21,8.33-4,9.97-13.39,1.65,9.39,2.98,11.18,9.97,13.39Z"/><path class="h" d="M95.23,8.86c-4.63,1.46-5.51,2.65-6.6,8.86-1.09-6.21-1.97-7.4-6.6-8.86,4.63-1.46,5.51-2.65,6.6-8.86,1.09,6.21,1.97,7.4,6.6,8.86Z"/><g><path class="e" d="M6.77,38.29H2.99v12.75l27.26,2.04c.69,.05,1.23,.63,1.23,1.33v5.33c0,.73-.6,1.33-1.33,1.33s-1.33-.6-1.33-1.33v-4.09c-5.47-.41-27.26-2.04-27.26-2.04-.69-.05-1.23-.63-1.23-1.33v-15.32c0-.74,.6-1.33,1.33-1.33H6.77c.73,0,1.33,.6,1.33,1.33,0,.73-.6,1.33-1.33,1.33h0Z"/><path class="e" d="M23.07,65.57s-.55,18.62-.86,29.01c-.06,2.15,.74,4.23,2.24,5.77,1.5,1.54,3.55,2.41,5.7,2.41h0c2.15,0,4.21-.87,5.7-2.41,1.5-1.54,2.31-3.62,2.24-5.77-.31-10.39-.86-29.01-.86-29.01-.02-.72-.61-1.29-1.33-1.29h-11.5c-.72,0-1.31,.57-1.33,1.29h0Zm12.37,29.09c.04,1.43-.5,2.81-1.49,3.84-1,1.03-2.36,1.6-3.79,1.6h0c-1.43,0-2.8-.58-3.79-1.6-1-1.03-1.53-2.41-1.49-3.84,.26-8.75,.69-23.33,.82-27.72h8.92"/><path class="e" d="M23.51,60.32v5.29c0,.74,.6,1.33,1.33,1.33h10.61c.74,0,1.33-.6,1.33-1.33v-5.29c0-.74-.6-1.33-1.33-1.33h-10.61c-.74,0-1.33,.6-1.33,1.33h0Zm2.66,1.33h7.95v2.63h-7.95v-2.63h0Z"/><path class="d" d="M5.44,29.3v15.33c0,1.83,1.48,3.31,3.31,3.31H51.56c1.83,0,3.31-1.48,3.31-3.31v-15.33c0-1.83-1.48-3.31-3.31-3.31H8.75c-1.83,0-3.31,1.48-3.31,3.31h0Z"/></g></g></g></g></svg>