<?xml version="1.0" encoding="UTF-8"?><svg xmlns="http://www.w3.org/2000/svg" viewBox="0 0 147.47 149.37"><defs><style>.d{stroke:#c7b299;}.d,.e{fill:none;stroke-linecap:round;stroke-linejoin:round;stroke-width:7.46px;}.e{stroke:#2abbe1;}.f{fill:#c7b299;}.g{fill:#fff505;}</style></defs><g id="a"/><g id="b"><g id="c"><g><g><polyline class="e" points="7.7 83.37 75.72 24.83 143.74 83.37"/><polyline class="d" points="124.56 81.88 124.56 145.64 26.88 145.64 26.88 81.88"/></g><path class="g" d="M143.47,37.88c-9.27,2.93-11.04,5.3-13.22,17.75-2.18-12.45-3.95-14.82-13.22-17.75,9.27-2.93,11.04-5.3,13.22-17.75,2.18,12.45,3.95,14.82,13.22,17.75Z"/><path class="g" d="M112.15,11.74c-6.13,1.94-7.3,3.51-8.74,11.74-1.44-8.23-2.61-9.8-8.74-11.74,6.13-1.94,7.3-3.51,8.74-11.74,1.44,8.23,2.61,9.8,8.74,11.74Z"/><rect class="f" x="9.16" y="26.9" width="10.7" height="29.09" transform="translate(36.47 3.42) rotate(49.3)"/><rect x="12.8" y="20.9" width="32.37" height="16.19" transform="translate(32.07 -11.89) rotate(49.3)"/></g></g></g></svg>