<?xml version="1.0" encoding="UTF-8"?><svg xmlns="http://www.w3.org/2000/svg" viewBox="0 0 166.94 155.73"><defs><style>.d{stroke:#c7b299;}.d,.e{stroke-width:7.46px;}.d,.e,.f{fill:none;stroke-linecap:round;stroke-linejoin:round;}.e{stroke:#2abbe1;}.f{stroke:#0071bc;stroke-width:4.47px;}.g{fill:#0071bc;}.h{fill:#fff505;}</style></defs><g id="a"/><g id="b"><g id="c"><g><g><polyline class="e" points="27.16 89.73 95.19 31.19 163.21 89.73"/><polyline class="d" points="144.03 88.24 144.03 152 46.34 152 46.34 88.24"/></g><g><line class="f" x1="4.49" y1="34.04" x2="30.6" y2="67.24"/><line class="f" x1="17.39" y1="23.9" x2="21.12" y2="28.65"/><line class="f" x1="39.77" y1="52.36" x2="43.5" y2="57.1"/><line class="f" x1="26.56" y1="35.56" x2="34.33" y2="45.44"/><line class="f" x1="32.04" y1="12.38" x2="58.15" y2="45.58"/><line class="f" x1="44.94" y1="2.24" x2="48.67" y2="6.98"/><line class="f" x1="67.32" y1="30.69" x2="71.05" y2="35.43"/><line class="f" x1="54.11" y1="13.9" x2="61.88" y2="23.78"/></g><path class="g" d="M10.4,81.06c-4.58,2.87-7.96,2.03-9.6-.59-1.64-2.62-.91-6.03,3.67-8.89,4.58-2.87,12.92-1.49,12.92-1.49,0,0-2.4,8.1-6.98,10.97Z"/><path class="g" d="M15.86,98.48c-2.78,4.63-6.18,5.42-8.83,3.83-2.65-1.59-3.54-4.96-.76-9.59s10.84-7.18,10.84-7.18c0,0,1.53,8.31-1.26,12.94Z"/><path class="h" d="M163.83,44.24c-9.27,2.93-11.04,5.3-13.22,17.75-2.18-12.45-3.95-14.82-13.22-17.75,9.27-2.93,11.04-5.3,13.22-17.75,2.18,12.45,3.95,14.82,13.22,17.75Z"/><path class="h" d="M132.51,18.1c-6.13,1.94-7.3,3.51-8.74,11.74-1.44-8.23-2.61-9.8-8.74-11.74,6.13-1.94,7.3-3.51,8.74-11.74,1.44,8.23,2.61,9.8,8.74,11.74Z"/></g></g></g></svg>