<?xml version="1.0" encoding="UTF-8"?><svg xmlns="http://www.w3.org/2000/svg" viewBox="0 0 143.5 128.26"><defs><style>.d{stroke:#c7b299;}.d,.e{fill:none;stroke-linecap:round;stroke-linejoin:round;stroke-width:7.46px;}.e{stroke:#2abbe1;}.f{fill:#fff505;}</style></defs><g id="a"/><g id="b"><g id="c"><g><g><polyline class="e" points="3.73 62.27 71.75 3.73 139.77 62.27"/><polyline class="d" points="120.59 60.78 120.59 124.53 22.91 124.53 22.91 60.78"/></g><path class="f" d="M88.5,96.78c-9.27,2.93-11.04,5.3-13.22,17.75-2.18-12.45-3.95-14.82-13.22-17.75,9.27-2.93,11.04-5.3,13.22-17.75,2.18,12.45,3.95,14.82,13.22,17.75Z"/><path class="f" d="M57.18,70.64c-6.13,1.94-7.3,3.51-8.74,11.74-1.44-8.23-2.61-9.8-8.74-11.74,6.13-1.94,7.3-3.51,8.74-11.74,1.44,8.23,2.61,9.8,8.74,11.74Z"/></g></g></g></svg>