<?xml version="1.0" encoding="UTF-8"?><svg xmlns="http://www.w3.org/2000/svg" viewBox="0 0 147.11 149.37"><defs><style>.d,.e,.f{stroke:#c7b299;}.d,.e,.g{fill:none;stroke-linecap:round;stroke-linejoin:round;}.d,.g{stroke-width:7.46px;}.e{stroke-width:2.24px;}.e,.f{fill-rule:evenodd;}.f{fill:#c7b299;stroke-miterlimit:10;stroke-width:.87px;}.g{stroke:#2abbe1;}.h{fill:#fff505;}</style></defs><g id="a"/><g id="b"><g id="c"><g><g><polyline class="g" points="7.34 83.37 75.36 24.83 143.38 83.37"/><polyline class="d" points="124.2 81.88 124.2 145.64 26.52 145.64 26.52 81.88"/></g><path class="h" d="M143.83,37.88c-9.27,2.93-11.04,5.3-13.22,17.75-2.18-12.45-3.95-14.82-13.22-17.75,9.27-2.93,11.04-5.3,13.22-17.75,2.18,12.45,3.95,14.82,13.22,17.75Z"/><path class="h" d="M112.51,11.74c-6.13,1.94-7.3,3.51-8.74,11.74-1.44-8.23-2.61-9.8-8.74-11.74,6.13-1.94,7.3-3.51,8.74-11.74,1.44,8.23,2.61,9.8,8.74,11.74Z"/><path class="e" d="M38.68,37.98c.29-.25,.4-.65,.29-1.02l-.45-1.43,1.36,.64c.35,.16,.76,.11,1.05-.15l4.89-4.27c.2-.17,.32-.42,.33-.69,.01-.26-.09-.52-.27-.71l-12.27-12.74c-.36-.37-.95-.4-1.33-.06L8.85,38.02c-.39,.34-.44,.93-.12,1.33l10.98,13.87c.16,.21,.41,.34,.67,.36,.26,.02,.53-.06,.73-.24l17.57-15.36h0Zm-1.75-1.04l-16.33,14.27s-7.6-9.6-9.77-12.34l22.02-19.24,10.92,11.34-3.64,3.18-2.78-1.3c-.35-.16-.76-.11-1.05,.15s-.4,.65-.29,1.02l.92,2.93h0Z"/><path class="e" d="M20.18,40.8l5.53,7.15c.33,.42,.94,.5,1.36,.17,.42-.33,.5-.94,.17-1.36l-5.53-7.15c-.33-.42-.94-.5-1.36-.17-.42,.33-.5,.94-.17,1.36h0Z"/><path class="e" d="M25.26,42.38l2.85,3.5c.34,.41,.95,.48,1.36,.14s.48-.95,.14-1.36l-2.85-3.5c-.34-.41-.95-.48-1.36-.14-.41,.34-.48,.95-.14,1.36h0Z"/><path class="f" d="M10.59,22.51l-4.57,4.82c-.83,.87-1.13,2.12-.78,3.27,.83,2.79,2.67,8.99,2.67,8.99,.09,.32,.34,.56,.66,.65,.32,.09,.66,.02,.91-.2l24.7-21.59c.25-.22,.37-.55,.32-.87-.05-.33-.26-.61-.56-.74,0,0-5.9-2.66-8.55-3.85-1.1-.49-2.37-.37-3.35,.34l-5.38,3.88L8.67,7.16c-.76-.96-1.87-1.57-3.07-1.7-1.2-.13-2.62,.42-3.51,1.2h0c-.89,.78-1.63,2.12-1.66,3.32-.03,1.21,.43,2.39,1.28,3.27l8.88,9.26h0Z"/></g></g></g></svg>