<svg xmlns="http://www.w3.org/2000/svg" width="84.626" height="84.85" viewBox="0 0 84.626 84.85">
  <defs>
    <style>
      .cls-1 {
        fill: #fff;
        fill-rule: evenodd;
      }
    </style>
  </defs>
  <path id="b03_icon.svg" class="cls-1" d="M232.571,3925.92a1.928,1.928,0,0,1-.337-0.03,131.675,131.675,0,0,1-21.781-6.16,1.754,1.754,0,0,1-1.024-2.27,1.772,1.772,0,0,1,2.282-1.01,127.742,127.742,0,0,0,21.192,5.98A1.76,1.76,0,0,1,232.571,3925.92Zm5.8-25.04a2.06,2.06,0,0,1-.545-0.08l-17.737-5.72a1.753,1.753,0,0,1-1.136-2.21,1.772,1.772,0,0,1,2.227-1.13l17.736,5.71A1.756,1.756,0,0,1,238.373,3900.88Zm32.231-30.77a1.771,1.771,0,0,1-1.708-1.3l-4.314-16.07a1.768,1.768,0,0,1,3.417-.91l4.314,16.07a1.755,1.755,0,0,1-1.253,2.15A1.439,1.439,0,0,1,270.6,3870.11Zm21.038-3.04H291.6a1.755,1.755,0,0,1-1.727-1.79l0.52-22.5a1.768,1.768,0,0,1,3.535.08l-0.52,22.5A1.761,1.761,0,0,1,291.642,3867.07Zm-40.883,16.16a1.776,1.776,0,0,1-1.295-.56c-6.257-6.69-12.69-13.4-18.91-19.89a1.757,1.757,0,0,1,.062-2.49,1.778,1.778,0,0,1,2.5.06c6.227,6.5,12.666,13.22,18.937,19.92a1.758,1.758,0,0,1-.091,2.49A1.789,1.789,0,0,1,250.759,3883.23Z" transform="translate(-209.312 -3841.06)"/>
</svg>
