<?xml version="1.0" encoding="UTF-8"?><svg xmlns="http://www.w3.org/2000/svg" viewBox="0 0 72.89 86.09"><defs><style>.d{fill:#efcda1;}.e{fill:#93ba75;}.f{fill:#e9f7dc;}.g{fill:#1a1a1a;}.h{fill:#f7e4ca;}</style></defs><g id="a"/><g id="b"><g id="c"><g><g><path class="h" d="M72.02,74.99c-.89-5.89-1.64-8.12-9.81-9.06-3.09-.36-11.51-1.22-14.64-3.01-3.13-1.79-2.63-10.74-2.63-10.74H27.83s.5,8.95-2.63,10.74c-3.13,1.79-11.55,2.66-14.64,3.01-8.17,.95-8.92,3.17-9.81,9.06-.72,4.72-.74,11.03-.74,11.03H72.76s-.03-6.31-.75-11.03Z"/><path class="d" d="M25.95,62.28h0c5.66,.13,15.21-1.22,19.07-5.95,0,0,0-.01,0-.02-.07-.83-.1-1.61-.11-2.27h0c0-.22,0-.42,0-.61v-.02c0-.18,0-.35,0-.49v-.02c0-.14,0-.27,.01-.38h0c0-.11,0-.19,0-.25v-.09H27.83s.41,7.43-1.88,10.1Z"/><path class="h" d="M55.64,29.84h-.38c.16-1.31,.32-2.6,.48-3.82,.82-6.32,2.68-24.77-19.36-24.77S16.2,19.71,17.03,26.02c.16,1.22,.32,2.51,.48,3.82h-.38c-3.35-2.48-3.63,4-2.24,6.21,1.16,1.84,1.18,2.03,1.88,4.05,.52,1.49,1.37,1.68,2.09,1.52,.09,.88,.17,1.65,.22,2.26,.31,3.41,8.49,10.23,10.35,12.36,1.74,2,4.64,1.22,5.56,1.18,.94-.04,1.38-.07,1.38-.07,0,0,.45,.02,1.39,.07,.93,.04,3.83,.82,5.56-1.18,1.85-2.14,10.04-8.96,10.35-12.36,.06-.61,.13-1.38,.22-2.26,.71,.16,1.57-.03,2.09-1.52,.7-2.02,.72-2.22,1.88-4.05,1.4-2.21,1.11-8.69-2.24-6.21Z"/></g><path class="g" d="M19.23,37.7s2.3-9.3,2.39-11.03c.15-3.1,6.86-7.31,7.6-10.59,.47-2.08-3.27-12.91-3.27-12.91,0,0-10.25,0-10.24,16.3,0,2.92,1.8,10.37,1.8,10.37,0,0,1.28,4.58,1.72,7.86Z"/><path class="g" d="M53.53,37.7s-.45-9.35-2.39-11.03c-3.58-3.1-21.18-7.31-21.92-10.59-.47-2.08-3.27-12.91-3.27-12.91,0,0,1.7-2.28,6.56-2.9,10.59-1.34,23.82,1.74,24.55,19.19,.12,2.92-1.8,10.37-1.8,10.37,0,0-1.28,4.58-1.72,7.86Z"/><path class="g" d="M29.22,16.08s-.56,4.06,10.51,8.25c0,0-1.56-3.31-2.01-5.48,0,0-.45,5.58,13.42,9.3,0,0-4.77-4.29-4.62-6.26,.15-1.97-11.93-11.63-11.93-11.63l-5.37,5.82Z"/><path class="f" d="M72.14,75.05c-.9-5.89-1.64-8.12-9.81-9.06-3.09-.36-11.51-1.22-14.64-3.01-.82-.47-1.39-1.42-1.78-2.58,0,0-4.4,2.87-9.39,2.84-5.36-.03-9.42-2.85-9.42-2.85h0c-.4,1.16-.96,2.12-1.78,2.58-3.13,1.79-11.55,2.66-14.64,3.01-8.17,.95-8.92,3.17-9.81,9.06-.72,4.72-.75,11.03-.75,11.03H72.89s-.03-6.31-.74-11.03Z"/><path class="e" d="M21.51,64.31c-3.77,.92-8.64,1.43-10.83,1.68-2.57,.3-4.41,.72-5.75,1.35,3.77,2.19,5.62,14.39,6.17,18.75h25.4l.65-7.76c-9.75,0-14.98-11.98-15.64-14.02Z"/><path class="e" d="M51.49,64.31c3.77,.92,8.64,1.43,10.84,1.68,2.57,.3,4.41,.72,5.75,1.35-3.77,2.19-5.62,14.39-6.17,18.75h-25.4l-.65-7.76c9.75,0,14.98-11.98,15.64-14.02Z"/></g></g></g></svg>