<?xml version="1.0" encoding="UTF-8"?><svg xmlns="http://www.w3.org/2000/svg" viewBox="0 0 56.32 92.09"><defs><style>.d{fill:#fff;}.e{fill:#4d4d4d;}.f{fill:#efcda1;}.g{fill:#333;}.h{fill:#93ba75;}.i{fill:#d6e2cc;}.j{fill:#d40000;}.k{fill:#4f290f;}.l{fill:#f7e4ca;}</style></defs><g id="a"/><g id="b"><g id="c"><g><path class="k" d="M42.19,52.67s2.1-1.9,2.31-2.8l-1.53-.63-.78,3.43Z"/><path class="k" d="M14.13,52.67s-2.1-1.9-2.31-2.8l1.53-.63,.78,3.43Z"/><path class="g" d="M31.05,6.03c1.49,5.93-2.78,8.58-8.51,10.03-5.73,1.45-10.76,1.13-12.25-4.8C8.81,5.42,12.91,2.06,18.64,.62,24.38-.83,29.53,0,31.05,6.03Z"/><g><path class="l" d="M55.62,81.77c-.84-5.51-5.55-7.64-8.34-8.47-2.79-.84-7.42-1.14-10.34-2.82-2.93-1.67-2.46-10.04-2.46-10.04h-12.64s.47,8.37-2.46,10.04-7.55,1.98-10.34,2.82c-2.79,.84-7.5,2.97-8.34,8.47-.67,4.41-.7,10.32-.7,10.32H56.32s-.03-5.9-.7-10.32Z"/><path class="f" d="M21.29,67.25h0c3.4-.63,9.98-2.73,13.17-5.13,0-.25,0-.48,0-.68v-.02c0-.09,0-.18,0-.26v-.05c0-.07,0-.13,0-.19,0-.02,0-.03,0-.04,0-.06,0-.11,0-.15,0-.01,0-.02,0-.04,0-.04,0-.08,0-.11v-.02s0-.05,0-.07c0-.03,0-.05,0-.05h-12.64s.21,3.82-.55,6.81Z"/><path class="l" d="M46.16,39.56s2.67-11.39-.44-17.73c-3.35-6.83-8.36-10.73-17.57-10.73s-14.22,3.9-17.57,10.73c-3.1,6.34-.44,17.73-.44,17.73-4.18-.84-3.4,3.74-2.09,5.81,1.08,1.72,1.11,1.9,1.76,3.79,.94,2.72,3.1,.84,3.1,.84,1.25,3.49,2.14,4.31,7.14,8.92,4.36,4.02,5.88,3.97,8.08,3.97s3.7,.05,8.09-3.97c5.02-4.59,5.89-5.44,7.15-8.92,0,0,2.16,1.88,3.1-.84,.65-1.89,.68-2.07,1.76-3.79,1.31-2.07,2.09-6.64-2.09-5.81Z"/></g><path class="e" d="M40.14,11.09c-10.24-5.35-18.86,0-18.86,0C.05,13.44,7.48,40.21,7.48,40.21h.01c.46-.62,1.29-.93,2.66-.66-.29-1.95,2.11-4.32,5.87-7.11,3.76-2.79,5.26-6.83,5.26-6.83,0,0,3.77,7.11,13.2,8.99,9.43,1.88,11.42,3.21,11.68,4.95,1.37-.28,2.21,.04,2.66,.66h.01s5.7-21.6-8.69-29.12Z"/><path class="h" d="M19.38,70.48c-2.93,1.67-7.55,1.98-10.34,2.82-2.79,.84-7.5,2.97-8.34,8.47-.67,4.41-.7,10.32-.7,10.32H56.32s-.03-5.9-.7-10.32c-.84-5.51-5.55-7.64-8.34-8.47-2.79-.84-7.42-1.14-10.34-2.82-.13-.07-.24-.16-.36-.26H19.73c-.11,.1-.23,.18-.36,.26Z"/><path class="d" d="M36.8,70.48c-.13-.07-.24-.16-.36-.26H19.73c-.11,.1-.23,.18-.36,.26-1.32,.76-2.99,1.23-4.68,1.6h0l13.39,14.7,13.39-14.69h0c-1.69-.38-3.36-.85-4.68-1.6Z"/><polygon class="i" points="21.07 68 28.16 70.29 26.14 75.35 17.08 71.45 21.07 68"/><polygon class="i" points="35.25 68 28.16 70.29 30.18 75.35 39.24 71.46 35.25 68"/><path class="j" d="M45.81,50.34c0,.53-.43,.96-.96,.96s-.96-.43-.96-.96,.43-.96,.96-.96,.96,.43,.96,.96Z"/><path class="j" d="M10.51,50.34c0,.53,.43,.96,.96,.96s.96-.43,.96-.96-.43-.96-.96-.96-.96,.43-.96,.96Z"/></g></g></g></svg>