<?xml version="1.0" encoding="UTF-8"?><svg xmlns="http://www.w3.org/2000/svg" viewBox="0 0 37.98 23.32"><defs><style>.d{fill:#fff;fill-rule:evenodd;}</style></defs><g id="a"/><g id="b"><g id="c"><path class="d" d="M9.32,8c1.12,.65,2.16,1.4,3.11,2.24l.05,.04c.92,1.1,1.5,1.98,1.5,3.27,0,2.45-2.09,4.44-4.65,4.44s-4.66-1.99-4.66-4.44c0-1.3,1.21-2.25,1.61-3.28l.18-.02c.69-.84,1.99-1.6,2.86-2.24Zm9.62,15.32h19.04V5.44c-2.49,.05-4.85,.55-7,1.43,.88,.58,1.68,1.66,2.43,1.9v.02c1.33,1.2,2.14,2.89,2.14,4.76,0,3.63-3.09,7.23-6.89,7.23s-6.89-3.6-6.89-7.23c0-1.87,.81-3.56,2.12-4.75l.03-.02c.76-.32,1.57-1.31,2.43-1.88h0c-2.26-.92-4.78-1.46-7.39-1.46h.07c-2.61,0-5.13,.54-7.39,1.45h0c.86,.57,1.67,1.56,2.43,1.88l.02,.02c1.31,1.2,2.41,2.89,2.41,4.75,0,3.63-3.37,7.23-7.18,7.23s-6.89-3.6-6.89-7.23c0-1.87,1.41-3.56,2.13-4.76v-.02c.76-.24,1.56-1.32,2.44-1.9C4.85,5.99,2.49,5.49,0,5.44V23.32H18.95Zm9.71-15.32c-1.12,.65-2.16,1.4-3.11,2.24l-.04,.04c-.92,1.1-1.5,1.98-1.5,3.27,0,2.45,2.08,4.44,4.66,4.44,3.01,0,4.65-1.99,4.65-4.44,0-1.3-.58-2.25-1.52-3.28l-.03-.02c-.95-.84-2-1.6-3.11-2.24Zm9.32-4.7V0H0V3.31m.03,0c3.95,.1,6.37,.93,9.07,2.27h0c2.9-1.44,6.4-2.28,9.89-2.28s6.99,.85,9.89,2.28h0c2.7-1.34,5.84-2.18,9.07-2.27"/></g></g></svg>