<?xml version="1.0" encoding="UTF-8"?><svg xmlns="http://www.w3.org/2000/svg" viewBox="0 0 35.94 35.94"><defs><style>.d{fill:#e8382e;fill-rule:evenodd;}</style></defs><g id="a"/><g id="b"><g id="c"><path class="d" d="M35.14,31.25c-3.31-3.31-6.62-6.62-9.93-9.93,3.54-5.35,2.96-12.62-1.75-17.16C18.08-1.38,9.37-1.38,4.15,4.15c-5.54,5.22-5.54,13.93,0,19.31,4.55,4.71,11.82,5.29,17.16,1.75l9.93,9.93c1.07,1.07,3.72,1.07,3.89,0,1.07-.18,1.07-2.83,0-3.89Zm-15.57-11.68c-3.22,3.22-8.46,3.22-11.68,0-3.22-3.22-3.22-8.46,0-11.68,3.22-3.22,8.46-3.22,11.68,0,3.22,3.22,3.22,8.46,0,11.68Z"/></g></g></svg>