<?xml version="1.0" encoding="UTF-8"?><svg xmlns="http://www.w3.org/2000/svg" viewBox="0 0 37.75 37.71"><defs><style>.d{fill:#62a931;fill-rule:evenodd;}</style></defs><g id="a"/><g id="b"><g id="c"><path class="d" d="M20.4,25.11l-8.04-8.03c-.28,.53-.68-.37-1.05-.24-3.06,1.02-5.87,.31-9-2.12C.06,12.47,.2,9.29,0,6.4c.15,.21,.87-.79,1.3-.37l3.02,3.02c1.13,.49,1.29,.49,1.78,0l2.96-2.96c.49-.49,.49-.52,0-1.78L6.04,1.3c-.43-.43,.47-1.16,.37-1.3,2.9,.16,6.1,.06,8.56,2.34,2.18,2.62,3.76,5.91,1.87,8.95-.12,.37,.63,.77,.25,1.05l8.04,8.03c.28,.28,1.31,.49,1.05,.25,3.06-1.02,6.86-.31,9,2.21,2.26,2.17,3.03,5.35,2.31,8.23-.15,.59-.88,.79-1.3,.37l-3.02-3.02c-.49-.49-1.29-.49-1.78,0l-2.96,2.95c-.49,.49-.49,1.29,0,1.78l3.02,3.01c.43,.43,.22,1.16-.37,1.3-2.9,.72-6.1-.06-8.36-2.34-2.39-2.41-3.08-5.91-2.08-8.95,.39,.28,.03-.77-.25-1.05Z"/></g></g></svg>