<?xml version="1.0" encoding="UTF-8"?><svg xmlns="http://www.w3.org/2000/svg" viewBox="0 0 37.82 32.78"><defs><style>.d{fill:#e9b800;fill-rule:evenodd;}</style></defs><g id="a"/><g id="b"><g id="c"><path class="d" d="M18.83,0c10.49,0,18.99,6.8,18.99,15.18,0,4.84-2.84,9.15-7.26,12.55l.03-.12s-.17,4.21,1.64,5.16c.04,.25-7.56-3.14-7.56-3.14h.01c-1.84,.98-3.61,.73-5.85,.73C8.34,30.36,0,23.57,0,15.18S8.34,0,18.83,0Zm6.14,15.23c0,1.39,1.15,2.52,2.57,2.52s2.57-1.13,2.57-2.52-1.15-2.53-2.57-2.53-2.57,1.13-2.57,2.53Zm-8.71,0c0,1.39,1.15,2.52,2.57,2.52s2.57-1.13,2.57-2.52-1.15-2.53-2.57-2.53-2.57,1.13-2.57,2.53Zm-8.71,0c0,1.39,1.15,2.52,2.57,2.52s2.57-1.13,2.57-2.52-1.15-2.53-2.57-2.53-2.57,1.13-2.57,2.53Z"/></g></g></svg>