<?xml version="1.0" encoding="UTF-8"?><svg xmlns="http://www.w3.org/2000/svg" viewBox="0 0 38.3 33"><defs><style>.d{fill:#e8382e;fill-rule:evenodd;}</style></defs><g id="a"/><g id="b"><g id="c"><path class="d" d="M34.96,20.36C34.69,3.55,26.04,0,18.79,0S2.9,3.55,2.63,20.36c-2.21,.8-2.63,1.77-2.63,2.88s.42,2.09,2.64,2.89c.19,3.24,2.55,6.5,2.66,6.64,.11,.15,.28,.23,.45,.23,.04,0,.09,0,.14-.02,.22-.06,.39-.24,.52-.47l.66-5.27c3.35,.6,7.43,.93,11.74,.93s8.39-.33,11.74-.93l.76,5.27c.22,.22,.2,.41,.42,.47,.04,.01,.09,.02,.14,.02,.18,0,.35-.08,.45-.23,.11-.14,2.47-3.41,2.66-6.64,2.22-.8,3.35-1.77,3.35-2.89s-1.12-2.08-3.33-2.88Zm-22.69-.25c-3.54-.25-6.57-.77-8.63-1.46l.14-2.93c2.03,.68,5.01,1.2,8.49,1.45v2.94Zm10.97,.75h-2.46v2.47h-3.96v-2.47h-1.99v-3.97h1.99v-2.47h3.96v2.47h2.46v3.97Zm1.99-.75v-2.94c3.48-.26,6.46-.77,8.49-1.45l.14,2.93c-2.06,.69-5.08,1.21-8.63,1.46Z"/></g></g></svg>