<svg id="h_tel.svg" xmlns="http://www.w3.org/2000/svg" width="48.03" height="29.5" viewBox="0 0 48.03 29.5">
  <defs>
    <style>
      .cls-1 {
        fill: #fff;
      }

      .cls-1, .cls-2 {
        fill-rule: evenodd;
      }

      .cls-2 {
        fill: #009f41;
      }
    </style>
  </defs>
  <path id="white" class="cls-1" d="M1554.01,67.332h48.02V96.778h-48.02V67.332Z" transform="translate(-1554 -67.313)"/>
  <path id="freedial" class="cls-2" d="M1565.8,77.427a24.029,24.029,0,0,1,3.93,2.83l0.06,0.044a5.51,5.51,0,0,1,1.9,4.135,5.891,5.891,0,0,1-11.77,0,5.517,5.517,0,0,1,1.91-4.153l0.04-.026A24.527,24.527,0,0,1,1565.8,77.427ZM1577.97,96.8h24.06V74.185a24.6,24.6,0,0,0-8.84,1.81,27.464,27.464,0,0,1,3.06,2.4l0.02,0.02a8.118,8.118,0,0,1,2.69,6.019,8.719,8.719,0,0,1-17.42,0,8.136,8.136,0,0,1,2.68-6.009l0.03-.029a27.337,27.337,0,0,1,3.07-2.378v0a24.87,24.87,0,0,0-9.34-1.838h0.09a24.87,24.87,0,0,0-9.34,1.838v0a27.337,27.337,0,0,1,3.07,2.378l0.03,0.029a8.108,8.108,0,0,1,2.69,6.009,8.725,8.725,0,0,1-17.43,0,8.118,8.118,0,0,1,2.69-6.019l0.02-.02a26.693,26.693,0,0,1,3.07-2.4,24.7,24.7,0,0,0-8.85-1.809V96.8h23.95Zm12.28-19.372a24.465,24.465,0,0,0-3.93,2.83l-0.05.044a5.475,5.475,0,0,0-1.9,4.135,5.886,5.886,0,0,0,11.76,0,5.483,5.483,0,0,0-1.91-4.153l-0.04-.026A23.666,23.666,0,0,0,1590.25,77.427Zm11.79-5.934V67.31h-48.02v4.183m0.04,0.012a27.98,27.98,0,0,1,11.47,2.876h0a28.489,28.489,0,0,1,25,0h0A27.9,27.9,0,0,1,1602,71.505" transform="translate(-1554 -67.313)"/>
</svg>
