<svg xmlns="http://www.w3.org/2000/svg" viewBox="0 0 98.4 102.4"><g id="Layer_2" data-name="Layer 2"><g id="Layer_1-2" data-name="Layer 1"><g id="Layer_2-2" data-name="Layer 2"><g id="Layer_1-2-2" data-name="Layer 1-2"><path d="M2.39,99.73a8.17,8.17,0,0,1,0-11.55L39.59,51,2.39,13.79h0A8.17,8.17,0,0,1,13.94,2.24l43,43a8.16,8.16,0,0,1,0,11.53h0l-43,43a8.14,8.14,0,0,1-11.51,0h0"/><path d="M96,2.46A8.17,8.17,0,0,1,96,14L58.75,51.2,96,88.4h0A8.2,8.2,0,0,1,84.4,100h0l-43-43a8.16,8.16,0,0,1,0-11.53h0l43-43a8.15,8.15,0,0,1,11.52,0h0"/></g></g></g></g></svg>