<svg xmlns="http://www.w3.org/2000/svg" viewBox="0 0 98.34 102.19"><defs><style>.cls-1{fill:#fff;}</style></defs><g id="Layer_2" data-name="Layer 2"><g id="Layer_1-2" data-name="Layer 1"><path class="cls-1" d="M2.39,99.73a8.17,8.17,0,0,1,0-11.55L39.59,51,2.39,13.79h0A8.17,8.17,0,0,1,13.94,2.24l43,43a8.16,8.16,0,0,1,0,11.53l0,0-43,43a8.14,8.14,0,0,1-11.52,0l0,0"/><path class="cls-1" d="M96,2.46A8.17,8.17,0,0,1,96,14L58.75,51.2,96,88.4h0A8.17,8.17,0,0,1,84.4,100l-43-43a8.16,8.16,0,0,1,0-11.53l0,0,43-43a8.15,8.15,0,0,1,11.52,0l0,0"/></g></g></svg>