<?xml version="1.0" encoding="UTF-8"?><svg xmlns="http://www.w3.org/2000/svg" viewBox="0 0 385.79 71.36"><defs><style>.d{fill:#62a931;}.e{fill:#e9b800;}.f{fill:#535353;}.g{fill:#00a0dc;}.h{fill:#e8382e;}</style></defs><g id="a"/><g id="b"><g id="c"><g><path class="h" d="M148.26,40.84c-2.45-.38-6.05-1.78-10.74-4.19-4.54-2.15-8.58-4.56-12.01-7.17-2.35-1.89-4.07-3.5-4.98-4.45,.27-1.17,.45-2.21,.56-3.21,4.1,0,7.32,.16,9.81,.44,1.96,.42,3.81,.12,5.18-.84,1.46-.9,2.34-1.92,2.5-2.87,.06-.37-.03-.71-.26-.99-.47-.56-1.47-.81-3.15-.81h-13.7c0-.69,.02-1.41,.03-2.14,.02-.98,.03-1.99,.03-3.04,0-.41,.01-.86,.03-1.35,.02-.6,.04-1.25,.04-1.94,.07-1.46-.17-2.53-.76-3.26-.57-.72-1.45-1.09-2.53-1.09s-1.92,.5-2.49,1.4c-.53,.83-.73,2.06-.6,3.56,.24,2.95,.37,5.62,.39,7.94-2.94,0-5.03-.07-6.19-.1-.49-.01-.82-.02-.95-.02-1.77-.2-3.77-.08-5.61,.33-1.97,.35-3.47,1.3-4.11,2.58-.75,1.28-.74,2.58,.02,3.65,.73,1.05,2.71,1.13,6.08,.25,2.37-.77,5.99-1.31,10.49-1.57-.03,.18-.06,.35-.05,.45-.44,2.88-1.54,5.31-3.26,7.23-1.89,2.03-4.56,4.09-7.7,5.97-3.74,2.19-7.05,3.51-10.15,4.05-1.26,.3-2.13,.92-2.31,1.66-.17,.68,.08,1.66,.69,2.76,.66,1.25,1.55,2.03,2.65,2.33,1.11,.3,2.89-.11,5.24-1.18,1.66-.59,4.01-1.97,7.86-4.61,3.27-2.25,5.94-4.67,7.92-7.2,.89-1.16,1.54-2.11,2.08-3.03,.1,.06,.21,.12,.31,.17,1.01,.5,2.75,1.73,5.18,3.65,2.63,2.13,7.08,6.08,12.53,11.1,1.46,1.46,3.2,2.19,5.2,2.19,.9,0,1.84-.15,2.84-.44,3.11-.93,5.3-1.91,6.68-3.02,.59-.5,.82-.99,.69-1.48-.2-.76-1.24-1.26-3.47-1.65Z"/><g><path class="f" d="M132.89,65.53c0,3.29-2.57,5.83-5.79,5.83s-5.86-2.62-5.86-5.88,2.65-5.86,5.83-5.86,5.82,2.5,5.82,5.91Zm-9.5,0c0,2.28,1.72,3.79,3.7,3.79s3.65-1.67,3.65-3.81-1.54-3.85-3.68-3.85c-2.01,0-3.67,1.56-3.67,3.87Z"/><path class="f" d="M147.55,65.53c0,3.29-2.57,5.83-5.79,5.83s-5.86-2.62-5.86-5.88,2.65-5.86,5.83-5.86,5.82,2.5,5.82,5.91Zm-9.5,0c0,2.28,1.72,3.79,3.7,3.79s3.65-1.67,3.65-3.81-1.54-3.85-3.68-3.85c-2.01,0-3.67,1.56-3.67,3.87Z"/><path class="f" d="M149.51,59.9h2.29l2.09,4.01,2.06-4.01h2.28l-3.28,6.35v4.85h-2.14v-4.85l-3.31-6.35Z"/><path class="f" d="M163.71,59.9h2.15l4.32,11.2h-2.22l-.87-2.31h-4.57l-.92,2.31h-2.22l4.32-11.2Zm1.09,2.96l-1.48,3.84h2.96l-1.48-3.84Z"/><path class="f" d="M173.3,59.9h2.04l4.8,7.36v-7.36h2.14v11.2h-2.06l-4.79-7.35v7.35h-2.14v-11.2Z"/><path class="f" d="M197.56,65.53c0,3.29-2.57,5.83-5.79,5.83s-5.86-2.62-5.86-5.88,2.65-5.86,5.83-5.86,5.82,2.5,5.82,5.91Zm-9.5,0c0,2.28,1.72,3.79,3.7,3.79s3.65-1.67,3.65-3.81-1.54-3.85-3.68-3.85c-2.01,0-3.67,1.56-3.67,3.87Z"/><path class="f" d="M202.16,59.9h2.09l2.59,7.81,2.62-7.81h2.06l1.89,11.2h-2.06l-1.2-7.08-2.39,7.08h-1.87l-2.36-7.08-1.23,7.08h-2.07l1.93-11.2Z"/><path class="f" d="M216.75,59.9h2.14v11.2h-2.14v-11.2Z"/><path class="f" d="M223,59.9h2.14v3.85l3.04-3.85h2.57l-3.93,4.99,4.31,6.21h-2.53l-3.46-4.98v4.98h-2.14v-11.2Z"/><path class="f" d="M238.03,59.9h2.15l4.32,11.2h-2.22l-.87-2.31h-4.57l-.92,2.31h-2.22l4.32-11.2Zm1.09,2.96l-1.48,3.84h2.96l-1.48-3.84Z"/><path class="f" d="M246.06,59.9h6.19v2.09h-2.06v9.11h-2.14v-9.11h-2v-2.09Z"/><path class="f" d="M258.08,59.9h2.15l4.32,11.2h-2.22l-.87-2.31h-4.57l-.92,2.31h-2.22l4.32-11.2Zm1.09,2.96l-1.48,3.84h2.96l-1.48-3.84Z"/></g><path class="f" d="M118.29,30.32c-.54,.92-1.19,1.87-2.08,3.03-1.99,2.53-4.65,4.96-7.92,7.2-3.85,2.64-6.2,4.02-7.86,4.61-2.35,1.08-4.12,1.48-5.24,1.18-1.09-.29-1.99-1.07-2.65-2.33-.62-1.09-.86-2.07-.69-2.76,.19-.74,1.05-1.36,2.31-1.66,3.1-.54,6.41-1.86,10.15-4.05,3.14-1.87,5.81-3.94,7.7-5.97,1.72-1.91,2.82-4.35,3.26-7.23,0-.1,.02-.27,.05-.45-4.5,.26-8.12,.8-10.49,1.57-3.38,.88-5.36,.8-6.08-.25-.76-1.07-.77-2.37-.02-3.65,.64-1.28,2.14-2.22,4.11-2.58,1.84-.41,3.83-.53,5.61-.33,.13,0,.46,0,.95,.02,1.16,.03,3.25,.1,6.19,.1-.02-2.32-.15-4.98-.39-7.94-.14-1.5,.07-2.73,.6-3.56,.57-.9,1.46-1.4,2.49-1.4s1.96,.38,2.53,1.09c.58,.73,.83,1.79,.76,3.26,0,.69-.02,1.35-.04,1.94-.01,.49-.03,.94-.03,1.35,0,1.05-.02,2.06-.03,3.04-.01,.73-.03,1.45-.03,2.14h13.7c1.68,0,2.68,.26,3.15,.81,.23,.28,.33,.62,.26,.99-.16,.95-1.05,1.97-2.5,2.87-1.37,.96-3.21,1.26-5.18,.84-2.49-.29-5.71-.43-9.81-.44-.11,1-.29,2.04-.56,3.21,0,0-.72,2.59-2.23,5.29Z"/><path class="d" d="M209.51,36.73c-1.57,0-3.9-.54-7.13-1.67-3.21-1.11-5.94-2.33-8.07-3.58l-2.98-2.21s.1-.02,.15-.04l.32-.08c1.72-.45,3.23-.98,4.16-1.48,.75-.44,1.44-.75,1.8-.87,2.03-.68,2.32-1.96,2.22-2.93-.14-1.17-.67-2.3-1.51-3.22-.63-.64-1.22-.71-1.6-.67-.38,.05-.92,.26-1.36,1-.26,.39-.87,1.04-1.58,1.71l-.1,.08c-.83,.64-1.95,1.51-3.37,2.37-1.19,.74-2.46,1.39-3.7,1.91-.44-.53-1.03-1.17-1.66-1.68-1.25-1.03-2.76-1.87-4.37-2.42-.7-.26-1.41-.59-2.03-.89,3.26-2.02,5.3-3.56,6.14-4.23,1.52-.09,3.08-.03,4.77,.2,1.72,.22,3.15-.04,4.23-.79,1.11-.69,1.87-1.56,2.04-2.33h0c.07-.34,0-.66-.22-.91-.4-.48-1.25-.72-2.6-.72h-13.41c-2.96,0-4.92,0-5.42-.06-1.56-.14-3.1-.05-4.58,.27-1.53,.35-2.76,1.12-3.38,2.13-.61,1.15-.59,2.27,.04,3.05,.66,.9,2.3,.98,5.05,.24,1.37-.51,3.41-.85,6.07-1.04-1.62,.9-3.35,1.8-5.15,2.68-5.34,2.53-8.82,3.99-10.93,4.59-1.81,.52-3.18,1.19-3.77,1.87-.51,.68-.47,1.59,.13,2.53,.6,.83,1.43,1.35,2.4,1.5,.92,.15,2.18-.14,3.52-.81,2.2-.92,5.09-2.4,8.82-4.52,.24,.09,.53,.13,.86,.13h0c.76,.04,1.48,.13,2.15,.22-1.26,.92-3.45,2.3-6.59,4-4.32,2.32-7.65,3.89-9.64,4.53-1.73,.67-2.99,1.36-3.45,1.89-.6,.69-.56,1.64,.12,2.58,.58,.72,1.46,1.21,2.36,1.29,.85,.07,2.07-.25,3.43-.89,2.62-1.21,6.22-3.29,10.42-6.03,4.12-2.72,6.53-4.44,7.93-5.67,.02,.01,.05,.03,.07,.04,.14,.09,.29,.18,.43,.25,.49,.24,.95,.64,1.33,1.12-.32,.3-.7,.72-1.03,1.2-.96,1.16-4.31,3.41-8.98,6.01-5.48,3.19-9.09,5.04-11.4,5.83-1.04,.43-2.89,1.27-3.53,2.11-.54,.73-.44,1.68,.26,2.53,.59,.82,1.52,1.31,2.44,1.31h0c1.04,.08,2.25-.27,3.57-1.02,3-1.44,7.03-3.88,11.97-7.26,3.51-2.36,6.51-4.6,8.57-6.41,.07,.67,.07,1.37-.01,2.09-.25,1.54-1.07,3.24-2.37,4.91-1.43,1.75-3.8,3.77-6.88,5.84-1.37,1.01-1.98,2.02-1.81,3.05,.33,1.31,2.03,1.48,3.47,1.48,1.87,0,3.96-1.04,6.39-3.2,2.63-2.56,4.44-4.84,5.38-6.79,.94-2.09,1.41-4.15,1.41-6.12,0-.55-.06-1.15-.14-1.75,.45,.26,1.12,.74,1.98,1.35l.81,.58c1.12,.92,3.58,2.98,7.54,6.5,1.91,1.63,4.35,1.97,7.06,1,2.38-.86,4.36-1.91,5.58-2.98,.5-.5,.67-.98,.51-1.43-.25-.69-1.2-1.09-3.13-1.29Z"/><path class="f" d="M183.71,33.5c.07,.67,.07,1.37-.01,2.09-.25,1.54-1.07,3.24-2.37,4.91-1.43,1.75-3.8,3.77-6.88,5.84-1.37,1.01-1.98,2.02-1.81,3.05,.33,1.31,2.03,1.48,3.47,1.48,1.87,0,3.96-1.04,6.39-3.2,2.63-2.56,4.44-4.84,5.38-6.79,.94-2.09,1.41-4.15,1.41-6.12,0-.55-.06-1.15-.14-1.75,.45,.26,1.12,.74,1.98,1.35l.81,.58c1.12,.92,3.58,2.98,7.54,6.5,1.91,1.63,4.35,1.97,7.06,1,2.38-.86,4.36-1.91,5.58-2.98,.5-.5,.67-.98,.51-1.43-.25-.69-1.2-1.09-3.13-1.29-1.57,0-3.9-.54-7.13-1.67-3.21-1.11-5.94-2.33-8.07-3.58l-2.98-2.21s.1-.02,.15-.04l.32-.08c1.72-.45,3.23-.98,4.16-1.48,.75-.44,1.44-.75,1.8-.87,2.03-.68,2.32-1.96,2.22-2.93-.14-1.17-.67-2.3-1.51-3.22-.63-.64-1.22-.71-1.6-.67-.38,.05-.92,.26-1.36,1-.26,.39-.87,1.04-1.58,1.71l-.1,.08c-.83,.64-1.95,1.51-3.37,2.37-1.19,.74-2.46,1.39-3.7,1.91-.44-.53-1.03-1.17-1.66-1.68-1.25-1.03-2.76-1.87-4.37-2.42-.7-.26-1.41-.59-2.03-.89,3.26-2.02,5.3-3.56,6.14-4.23,1.52-.09,3.08-.03,4.77,.2,1.72,.22,3.15-.04,4.23-.79,1.11-.69,1.87-1.56,2.04-2.33h0c.07-.34,0-.66-.22-.91-.4-.48-1.25-.72-2.6-.72h-13.41c-2.96,0-4.92,0-5.42-.06-1.56-.14-3.1-.05-4.58,.27-1.53,.35-2.76,1.12-3.38,2.13-.61,1.15-.59,2.27,.04,3.05,.66,.9,2.3,.98,5.05,.24,1.37-.51,3.41-.85,6.07-1.04-1.62,.9-3.35,1.8-5.15,2.68-5.34,2.53-8.82,3.99-10.93,4.59-1.81,.52-3.18,1.19-3.77,1.87-.51,.68-.47,1.59,.13,2.53,.6,.83,1.43,1.35,2.4,1.5,.92,.15,2.18-.14,3.52-.81,2.2-.92,5.09-2.4,8.82-4.52,.24,.09,.53,.13,.86,.13h0c.76,.04,1.48,.13,2.15,.22-1.26,.92-3.45,2.3-6.59,4-4.32,2.32-7.65,3.89-9.64,4.53-1.73,.67-2.99,1.36-3.45,1.89-.6,.69-.56,1.64,.12,2.58,.58,.72,1.46,1.21,2.36,1.29,.85,.07,2.07-.25,3.43-.89,2.62-1.21,6.22-3.29,10.42-6.03,4.12-2.72,6.53-4.44,7.93-5.67,.02,.01,.05,.03,.07,.04,.14,.09,.29,.18,.43,.25,.49,.24,.95,.64,1.33,1.12,0,0,.8,.77,1.87,4.29Z"/><path class="f" d="M159.85,19.28c.08,0,.17,.01,.25,.01,.72,0,1.42-.32,1.99-.89,.7-.54,1.03-1.86,1.03-4.07-.06-.76-.06-1.4-.06-1.78,0-.28,.06-.49,.09-.54,.17-.21,.97-.91,4.35-1.25,2.36-.24,6.31-.52,11.68-.52,4.74-.06,9.03-.02,12.72,.13,4.14,.24,5.46,.75,5.88,1.03h.01c.04,.07,.13,.21,.2,.43,.08,.2,.22,.62,.29,1.18,.07,.56,.27,1.12,.4,1.42,.26,1.09,.66,2.04,1.11,2.58,.46,.46,1.02,.73,1.52,.73,.74,0,1.42-.82,1.75-1.29,.61-.77,.95-1.8,.95-2.91,0-.06,.02-.14,.04-.24,.04-.22,.09-.48,.09-.74,0-.16,.02-.33,.04-.47,.02-.15,.03-.27,.03-.37,0-.04,.01-.1,.02-.16,.02-.14,.04-.29,.04-.42,0-1.04-.38-1.95-1.12-2.69-.71-.71-1.76-1.33-3.05-1.81-1.38-.46-3.49-.75-5.93-.81-2.85-.12-6.31-.19-10.3-.2,.06-.09,.12-.18,.19-.26,.05-.06,.08-.13,.09-.21,.43-2.41-.4-4.11-2.36-4.78-2.03-.6-3.33-.46-3.97,.42-.74,.9-.6,2.44,.44,4.51,.07,.09,.14,.2,.21,.33-4.94,.01-9.24,.14-12.48,.26-3.22,.14-5.26,.65-6.22,1.55-1.11,.96-1.78,2.25-1.99,3.82-.06,.48-.13,.93-.2,1.35-.08,.5-.15,.94-.19,1.33-.21,2-.07,3.38,.42,4.12,.46,.61,1.2,1.07,2.03,1.23Z"/><path class="f" d="M252.39,15.52c-3-2.5-7.19-3.95-11.71-4.07-.38-.06-.63-.06-.94-.06-4.24,0-8.55,1.14-12.12,3.22-3.38,1.92-5.88,4.4-7.42,7.36-1.35,2.41-2.13,5.51-2.13,8.5,0,1.25,.12,2.43,.36,3.5,.56,2.3,1.55,4.17,2.93,5.55,1.42,1.55,3.44,2.4,5.7,2.4,.19,0,.52,0,.72-.06,1.91-.14,3.42-.97,4.87-2.69,2.36-2.73,3.48-5.16,4.63-8.44,1.1-3.62,1.94-7.48,2.54-10.45,.2-1.19,.36-2.82,.44-4.01h.17c1.24,0,2.19,.09,3,.28,3.26,.68,7.34,2.65,8.29,8.22,.15,.85,.22,1.76,.22,2.79,0,2.85-.72,5.11-2.2,6.94-.91,1.23-1.69,1.82-3.41,2.85-1.29,.72-2.36,1.05-3.86,1.51l-.38,.12c-.31,.12-.88,.26-1.39,.39l-.63,.17c-.13,.04-.26,.06-.39,.09-.49,.1-1.09,.23-1.39,.8-.13,.18-.13,.36-.13,.44,0,.42,.31,.78,.61,1.13l.14,.17c.24,.28,.54,.57,.82,.83,.12,.12,.24,.23,.39,.37l.11,.09c.66,.54,1.56,1.29,2.5,1.29,.62,0,1.77-.23,2.83-.73,3.41-1.43,5.63-2.73,8.27-5.87,1.75-1.98,2.96-4.53,3.39-7.19v-.02c.12-.99,.18-2.04,.18-3.1,0-5.13-1.82-9.62-5-12.31Zm-17.57,1.29c-.02,.27-.04,.54-.06,.81-.05,.6-.09,1.19-.15,1.6-.24,2.08-.57,4.35-1.31,6.88-.63,2.33-1.47,4.53-2.67,6.93-.71,1.55-2,3.45-2.76,3.73-.13,.06-.37,.06-.64,.06-.84,0-1.72-.38-2.27-.98-.92-1.06-1.47-2.72-1.69-5.17-.09-.27-.09-.62-.09-.94,0-1.82,.48-3.71,1.37-5.44,1.38-2.41,3.72-4.67,6.11-5.89,.01,0,.03-.01,.04-.02,1.23-.78,2.68-1.22,4.12-1.56Z"/><path class="f" d="M323.94,40.41c-3.03-1.03-6.31-2.51-9.75-4.39-3.4-1.89-6.23-3.78-8.18-5.48-1.67-1.46-3.23-2.84-3.87-3.75,0-.19,.02-.37,.03-.54,0-.03,0-.05,0-.08,2.97-.04,5.74,.07,8,.33,1.88,.27,3.52,0,4.89-.79,1.32-.84,2.14-1.78,2.3-2.67h0c.06-.37-.03-.71-.26-.98-.44-.52-1.38-.77-2.96-.77h-11.88c0-.88,.02-1.75,.03-2.6,.01-.77,.03-1.51,.03-2.22,1.54,.01,3.2,.08,4.94,.19,1.89,.16,3.11-.23,3.62-1.11,.62-.85,.67-1.82,.16-2.67-.49-.89-1.68-1.25-3.62-1.1-1.22,0-2.34,.02-3.35,.04-.63,.01-1.22,.02-1.76,.03,0-.78,.04-1.52,.07-2.23,.03-.77,.06-1.49,.06-2.17,0-1.99-.34-3.51-.93-4.24-.62-.93-1.49-1.32-2.26-1.05-.78,.15-1.42,.77-1.92,1.85-.42,.99-.57,2.64-.43,4.88,0,.37-.01,.81-.03,1.31-.01,.5-.03,1.04-.04,1.62-1.96-.14-3.89-.39-5.59-.61-1.5-.15-2.96,.48-3.99,1.72-1.5,1.69-1.28,2.91-.83,3.64,.46,.74,1.55,1.47,4.09,.74,1.25-.24,3.32-.54,6.22-.69,.06,1.08,.05,2.29,.04,3.57,0,.34,0,.69,0,1.04h-5.01c-1.86-.15-3.62-.03-5.23,.34-1.72,.41-3.07,1.25-3.83,2.39-.85,1.61-.45,2.73,.06,3.4,.82,.98,2.72,1.06,5.68,.21,1.9-.65,4.49-1.07,7.39-1.18-.72,1.07-1.42,2-2.01,2.64-.57,.75-1.6,1.68-2.97,2.71-1.43,1.09-2.97,2.1-4.72,3.1-1.73,1.09-4.21,2.39-7.33,3.86-1.32,.49-2.22,1.5-2.46,2.8-.16,1.17,.33,2.31,1.31,3.06,1.07,.77,2.66,.71,4.42-.13,.99-.36,2.68-1.51,5.07-3.25,2.2-1.59,4.43-3.51,6.64-5.72,1.07-1.12,2.1-2.12,2.94-2.87v10.29c.05,2.13,.24,4.88,.95,5.89,.5,.63,1.13,.97,1.75,.97,.18,0,.36-.03,.53-.09,.88-.26,1.55-1.28,1.84-2.79,.28-1.56,.4-3.52,.33-5.82v-8.06c.28,.3,.59,.61,.92,.95,.63,.64,1.33,1.36,2.08,2.18,4.16,4.31,7.02,6.97,8.35,8.15,1.2,1.12,3.28,1.27,6.4,.43,2.01-.64,4.51-1.57,4.97-2.39,.17-.34,.2-.7,.08-1.02-.1-.27-.35-.63-1-.89Z"/><path class="f" d="M280.81,27.38c.42-1.04,.62-2.08,.62-3.18v-3.97c0-.77,.14-1.72,.37-2.58,.4-1.2-.03-2.29-1.22-3-1.13-.56-2.76-.84-4.59-.77-3.2,.07-5.45,.2-6.5,.26-.34,0-.78-.05-1.26-.1-.32-.03-.65-.07-.98-.09-.9-.08-1.76,.26-2.36,.94-.6,.68-.9,1.92-.9,3.71,0,1.69,.07,3.8,.2,6.27,.14,2.99,.63,4.75,1.54,5.41,.48,.28,1.05,.42,1.73,.42,.57,0,1.21-.1,1.92-.29,.74-.12,1.51-.21,2.26-.25,1.05,0,2.21,.07,3.25,.19,1.47,.22,2.73,.04,3.63-.51,1.13-.64,1.9-1.47,2.29-2.46Zm-4.84-5.65c0,2.68-.5,3.07-.49,3.07-.17,.06-1.91,.09-4.01,.21h-.25c-.87,.06-1.42,.07-1.66,.04-.14-.34-.37-1.4-.37-3.25,0-2.65,.34-3.06,.37-3.09,.13-.09,.91-.33,2.99-.33,1.73,0,2.72,.07,2.94,.21,.13,.11,.48,.89,.48,3.14Z"/><path class="g" d="M367.81,25.96c-5.29-2.02-8.43-2.96-9.83-2.96h0c-.45-.03-.91-.09-1.36-.14-.15-.02-.29-.03-.43-.05,.27-.5,.52-1.01,.71-1.48,.76-1.74,.96-2.88,.63-3.63-.36-.63-1.11-1.13-1.99-1.33-.89-.24-1.81,.01-2.38,.67-.55,.63-1.09,1.72-1.47,2.99-.48,1.72-2.32,4.9-4.24,8.08-1.6,2.5-4.21,5.1-7.75,7.74-3.47,2.58-6.61,4.54-9.34,5.8-2.42,1.05-2.22,2.55-2.02,3.16,.39,1.01,1.44,1.94,2.82,2.49,1.57,.6,3.67,.01,6.25-1.75,2.05-1.47,4.54-3.68,7.62-6.76,2.96-3.03,5.26-5.86,6.84-8.42l1.06-1.77c.18-.06,.36-.15,.54-.25l.11-.06c1.27-.48,2.78-.75,4.25-.75,1.33,0,3.18,.61,6.02,1.99,.79,.28,1.41,.85,1.83,1.67,.43,.74,0,1.64-.47,2.33-1.04,1.96-2.56,3.97-4.42,5.82-2.08,2.23-3.77,3.42-4.36,3.81-2.77,1.48-3,2.77-2.71,3.56,.33,1.14,1.4,1.72,3.18,1.72h0c.06,0,.12,0,.17,0,1.65,0,3.53-1.01,5.57-2.99,3.12-2.74,5.38-5.23,6.54-7.22,1.1-1.89,2.21-3.71,3.1-5.17,1.17-1.61,1.16-3.11-.04-4.46-1.05-1.12-2.62-2.06-4.41-2.66Z"/><path class="f" d="M356.17,22.81c.14,.02,.29,.03,.43,.05,.45,.05,.92,.1,1.36,.14h0c1.4,0,4.54,.94,9.83,2.96,1.79,.6,3.37,1.54,4.41,2.66,1.2,1.35,1.21,2.85,.04,4.46-.89,1.46-1.99,3.28-3.1,5.17-1.16,1.98-3.43,4.48-6.54,7.22-2.04,1.98-3.92,2.99-5.57,2.99-.06,0-.12,0-.17,0h0c-1.78,0-2.85-.58-3.18-1.72-.28-.79-.05-2.08,2.71-3.56,.6-.39,2.29-1.58,4.36-3.81,1.86-1.86,3.38-3.86,4.42-5.82,.46-.68,.89-1.59,.47-2.33-.41-.82-1.04-1.39-1.83-1.67-2.85-1.38-4.69-1.99-6.02-1.99-1.47,0-2.98,.27-4.25,.75l-.11,.06c-.18,.09-.36,.19-.54,.25,0,0,2.66-3,3.27-5.79Z"/><path class="f" d="M385.75,13.47c-.2-.79-1.18-1.2-3.01-1.28-.53,0-1.48-.04-2.83-.09-1.77-.07-4.22-.16-7.31-.24l-13.88-.37c.75-1.37,1.26-2.62,1.53-3.75,.43-2.68-.42-4.38-2.53-5.03-2.53-.9-3.68-.27-4.19,.41-.72,.88-.56,2.52,.45,4.61,.58,1.32,.87,2.51,.87,3.64v.1h-1.14c-6.49,0-12.52,.11-17.92,.33-1.67,.07-3.18,.72-4.46,1.94-1.19,.99-1.87,2.22-1.87,3.37,0,1.04,.5,1.91,1.38,2.39,.3,.15,.68,.22,1.15,.22,.98,0,2.35-.32,4.18-.98,2.85-1.02,6.28-1.75,10.18-2.19,4.19-.54,7.87-.85,10.91-.91,5.39,.31,9.59,.81,12.49,1.49,2.71,.57,4.87,1.21,6.45,1.94,1.76,.61,3.32,.7,4.51,.25,1.2-.5,2.38-1.42,3.5-2.73,1.22-1.36,1.72-2.38,1.54-3.11Z"/><path class="e" d="M280.81,27.38c.42-1.04,.62-2.08,.62-3.18v-3.97c0-.77,.14-1.72,.37-2.58,.4-1.2-.03-2.29-1.22-3-1.13-.56-2.76-.84-4.59-.77-3.2,.07-5.45,.2-6.5,.26-.34,0-.78-.05-1.26-.1-.32-.03-.65-.07-.98-.09-.9-.08-1.76,.26-2.36,.94-.6,.68-.9,1.92-.9,3.71,0,1.69,.07,3.8,.2,6.27,.14,2.99,.63,4.75,1.54,5.41,.48,.28,1.05,.42,1.73,.42,.57,0,1.21-.1,1.92-.29,.74-.12,1.51-.21,2.26-.25,1.05,0,2.21,.07,3.25,.19,1.47,.22,2.73,.04,3.63-.51,1.13-.64,1.9-1.47,2.29-2.46Zm-4.84-5.65c0,2.68-.5,3.07-.49,3.07-.17,.06-1.91,.09-4.01,.21h-.25c-.87,.06-1.42,.07-1.66,.04-.14-.34-.37-1.4-.37-3.25,0-2.65,.34-3.06,.37-3.09,.13-.09,.91-.33,2.99-.33,1.73,0,2.72,.07,2.94,.21,.13,.11,.48,.89,.48,3.14Z"/><g><path class="f" d="M4.92,47.06c-.05,.38,.22,.84,.6,.93,.44,.1,.9,.15,1.35,.16,1.25,.04,2.49,.01,3.73,.34,.81,.21,1.7,.1,2.56,.14,3.09,.15,6.16-.03,9.23-.43,.86-.11,1.69-.09,2.55-.02,1.25,.11,2.51,.11,3.76,.09,3.43-.03,6.85-.1,10.28-.14l10.39-.04c5.88-.08,11.76-.03,17.64-.03,.74,0,1.48,.03,2.22,.1,.75,.06,1.48-.04,2.21-.2,.53-.12,.81-.52,.75-.99-.05-.39-.35-.69-.8-.76-.22-.03-.46-.04-.68-.03-.47,.01-.91-.02-1.16-.52-.07-.13-.26-.28-.39-.28-.87,.02-.98-.49-.99-1.22-.08-3.42-.21-6.85-.32-10.27,0-.25-.02-.51,.03-.79,2.08,.25,3.55,.43,3.55,.43,.57,.04,1.09-.33,1.31-.91,.19-.51,.09-1.06-.35-1.39-.63-.49-1.29-.94-1.94-1.4-3.1-2.14-6.1-4.42-9.02-6.81-.8-.65-1.66-1.21-2.49-1.82-.92-.68-1.87-1.32-2.73-2.07-1.05-.91-2.2-1.62-3.47-2.17-1.99-.87-3.92-1.85-5.78-2.98-.53-.32-1.11-.59-1.68-.85-1.19-.56-2.39-1.09-3.57-1.65-1.76-.83-3.55-1.57-5.43-2.06-1.77-.46-3.47-1.13-5.19-1.74-.54-.19-1.08-.36-1.63-.52-1.74-.53-3.13,.04-4.25,1.39-.66,.79-1.33,1.58-1.9,2.43-.2,.3-.43,.59-.64,.88v-2.26c0-1.71-.42-1.82-1.67-1.84-1.25-.02-2.21-.62-2.96-.18-.74,.43-.42,4.44-.42,7.08v3.03c-.42,.43-.85,.86-1.28,1.28-2.79,2.72-5.21,5.75-7.76,8.67-.3,.34-.59,.7-.81,1.09h0c-1.12,1.87-3.62,3.45-1.98,4.17,.21,.22,.46,.28,.73,.22,.89,.13,2.3,.12,3.01,.1,.04,2.12,.07,4.24,.11,6.36,.04,1.83-.03,3.65-.23,5.47-.1,.95-.17,1.02-1.17,1.05-.63,.02-1.26,0-1.88,.02-.28,0-.57,.04-.84,.13-.36,.11-.54,.41-.59,.77Zm47.61-13.18c0-1.04,0-2.09,0-3.13,.46,.31,.91,.55,1.35,.63,.84,.15,7.42,.95,12.27,1.54-.14,2.34-.12,4.67-.08,7.01,.03,1.54,.06,3.08,.07,4.61,0,.9-.07,.96-.93,1.06-1.53,.19-3.06,.29-4.6,.32-2.16,.03-4.33,.12-6.49,.17-.61,.01-.73-.09-.8-.63-.48-3.84-1.01-7.69-.79-11.58Zm-40.84,2.91c-.14-2.73-.18-5.47-.25-8.21-.02-.57,0-1.11,.43-1.6,.97-1.12,1.84-2.33,2.84-3.42,1.85-2.02,3.75-3.99,5.66-5.95,1.32-1.35,2.55-2.77,3.66-4.29,.71-.97,1.45-1.91,2.19-2.85,.81-1.03,.82-1.03,1.92-.4,3.57,2.54,12.91,10.75,14.07,12.09,1.17,1.34,5.67,5.03,7.3,6.2,.44,.31,.85,.66,1.26,1-.02,1.64-.03,3.28-.05,4.91-.03,2.97,.02,5.93,.5,8.88,.12,.73,.12,1.48,.13,2.22,.01,.62-.16,.77-.81,.83-.17,.01-.34,.02-.51,.02-1.71,0-3.42-.02-5.14-.04-.17,0-.34-.02-.51-.04-.32-.05-.52-.24-.54-.56-.02-.51-.02-1.03,0-1.54,.05-1.49-.03-2.96-.16-4.44-.11-1.28-.51-2.45-1.12-3.56-.36-.64-.85-1.02-1.38-1.46-.61-.51-1.21-.44-2-.51-1.6-.15-2.72,.67-3.33,2.15-.33,.79-.55,1.62-.69,2.47-.36,2.14-.55,4.3-.61,6.47-.03,.93-.08,.98-.95,1.03-.34,.02-.68,.02-1.03,.02-3.2,0-6.39,0-9.59,0,0,.02,0,.04,0,.05-3.37,0-6.73,0-10.1,0-.34,0-.69,0-1.02-.06-.15-.02-.32-.14-.31-.35,.01-.34,0-.68,.05-1.02,.39-2.67,.22-5.35,.08-8.03Z"/><path class="f" d="M74.12,45.98c.63-.03,1.17,.43,1.14,.97-.03,.49-.49,.89-1.05,.91-.62,.03-1.18-.46-1.15-.98,.03-.48,.49-.88,1.05-.9Z"/><path class="f" d="M2.26,46.31c.15-.06,.32-.09,.49-.13,.17,.02,.34,.02,.51,.06,.36,.08,.61,.3,.66,.68,.05,.38-.15,.64-.49,.8-.44,.21-.88,.22-1.29-.05-.25-.16-.4-.41-.36-.72,.03-.3,.21-.52,.49-.64Z"/><path class="f" d="M77.14,46.72c.32-.02,.64,.28,.68,.63,.04,.35-.21,.67-.56,.71-.42,.06-.8-.28-.78-.68,.02-.32,.35-.65,.66-.66Z"/><path class="f" d="M.56,46.81c.32,.02,.51,.22,.51,.56,0,.29-.29,.56-.55,.52-.31-.05-.5-.23-.52-.56,.06-.31,.23-.53,.56-.51Z"/><path class="f" d="M23.25,38.09c.21-.11,.42-.27,.64-.3,.86-.14,1.73-.25,2.59-.35,.13-.02,.28,.01,.41,.06,.28,.1,.52,.29,.53,.69,.02,.57,.03,1.14,0,1.71-.03,.63-.32,1.03-.8,1.24-.7,.31-1.43,.37-2.16,.38-.18,0-.37,0-.55,0-1.02,0-1.15-.16-1.2-1.48-.01-.34,0-.68,.02-1.03,.02-.44,.21-.74,.53-.92Z"/><path class="f" d="M22.87,33.64c.18-.74,.68-1.22,1.32-1.19,.55,.02,1.09,.11,1.63,.16,.6,.05,1,.49,1.35,1.04,.37,.6,.4,1.29,.18,1.93-.17,.52-.55,.63-.96,.65h0c-.07,0-.13,0-.2,0-.03,0-.07,0-.1,0-.33,0-.86,.02-1.26,.06-.09,0-.18,.02-.27,.03-1.91,.14-2.12-.16-1.71-2.52,0-.06,.01-.11,.02-.17Z"/><path class="f" d="M20.85,36.48c-.36,.03-.73,0-1.09,0-.71,.01-1.23-.05-1.23-.05-.43-.05-.67-.38-.65-.9,.01-.51,.04-1.02,.11-1.53,.09-.61,.38-1.04,.89-1.14,.58-.11,1.17-.2,1.76-.23,.95-.05,1.15,.19,1.12,1.32-.01,.57-.06,1.14-.15,1.69-.08,.48-.36,.8-.77,.83Z"/><path class="f" d="M19.3,37.88c.09,.02,.18,.02,.27,.03,.41,.03,.82,.03,1.23,.09,.4,.06,.67,.41,.7,.91,.03,.62,0,1.25-.02,1.87-.02,.37-.19,.65-.5,.71-.67,.15-1.35,.33-2.04,.25-.57-.06-.93-.44-1.07-1.12-.06-.27-.08-.56-.1-.84-.11-1.42,.51-2.12,1.53-1.9Z"/><path class="f" d="M27.28,19.87c-1.29,.07-1.67-.09-1.61-1.58,0-.05,0-.21,0-.38,.07-1.07,.61-1.5,1.67-1.32,.36,.06,.63,.27,.64,.66,.01,.67,.02,1.35-.02,2.02-.02,.39-.31,.57-.69,.59Z"/><path class="f" d="M30.52,19.87c-1.52,.05-1.99,.09-1.95-1.67,0-1.15,.01-1.16,.98-1.39,1.02-.24,1.33-.08,1.52,.89,.1,.49,.1,1.01,.09,1.51,0,.37-.25,.64-.64,.65Z"/><path class="f" d="M26.79,23.68c-.58-.1-.89-.51-1.03-1-.11-.37-.1-.78-.08-1.17,.04-.65,.33-.9,.98-.91,.93-.02,1.26,.26,1.33,1.13,.01,.17,0,.34,0,.51h.02c0,.17,0,.34,0,.51-.03,.79-.43,1.08-1.22,.94Z"/><path class="f" d="M28.66,21.89c0-.06-.02-.36,.06-.62,.06-.2,.2-.44,.37-.53,1.13-.61,2.09-.03,2.06,1.23,0,.23-.02,.46-.08,.68-.18,.77-.82,1.14-1.71,1.01-.46-.07-.66-.4-.7-1.19,0-.11,0-.23,0-.56Z"/></g></g></g></g></svg>