<svg xmlns="http://www.w3.org/2000/svg" viewBox="0 0 191.22 193.98"><defs><style>.cls-1{fill:#4a627f;}</style></defs><g id="Layer_2" data-name="Layer 2"><g id="Layer_1-2" data-name="Layer 1"><path class="cls-1" d="M53.67,23.85a2.22,2.22,0,0,0-1.73-1.13,10.19,10.19,0,0,0-3.33.53,14.43,14.43,0,0,1-3.8.63,4.73,4.73,0,0,1-4.35-2.14A4.49,4.49,0,0,1,40,17.66a7.37,7.37,0,0,1,3.22-3.76,8,8,0,0,1,3.29-1.24,5.62,5.62,0,0,1,3.08.44,5.16,5.16,0,0,1,2.29,2l-2.7,1.71a2.94,2.94,0,0,0-2-1.43,3.8,3.8,0,0,0-2.63.7A3.88,3.88,0,0,0,42.9,18,2.23,2.23,0,0,0,43.17,20a2,2,0,0,0,1.7.93,10.66,10.66,0,0,0,3.32-.54,14.5,14.5,0,0,1,3.71-.63,5.54,5.54,0,0,1,2.62.57,4.8,4.8,0,0,1,1.85,1.77,4.41,4.41,0,0,1,.47,4.05,7.66,7.66,0,0,1-3.33,3.72A8.94,8.94,0,0,1,50,31.23a6.26,6.26,0,0,1-3.31-.33,5.16,5.16,0,0,1-2.42-2.08L47,27.1a3,3,0,0,0,2.18,1.51,4.6,4.6,0,0,0,3-.87,4,4,0,0,0,1.77-1.92A2.2,2.2,0,0,0,53.67,23.85Z"/><path class="cls-1" d="M69.91,21.73a5.15,5.15,0,0,1-.79-1.07,5.2,5.2,0,0,1-6.4,2.81,3.77,3.77,0,0,1-2.26-2.26,3.92,3.92,0,0,1,.32-3.73,7.94,7.94,0,0,1,4-2.76l1.76-.67-.32-.84a2.15,2.15,0,0,0-3.09-1.34A2.67,2.67,0,0,0,61.66,13a1.62,1.62,0,0,0-.16,1.49l-2.88,1.1a3.43,3.43,0,0,1,0-2.24,4.94,4.94,0,0,1,1.35-2.17,7.12,7.12,0,0,1,2.49-1.55,5.75,5.75,0,0,1,4-.23A4.32,4.32,0,0,1,69,12l2.2,5.78a7,7,0,0,0,1.54,2.58l.08.21Zm-4-.87a3.55,3.55,0,0,0,1.45-1,3,3,0,0,0,.71-1.55l-.92-2.42-1.56.6a4.41,4.41,0,0,0-2.19,1.47,1.93,1.93,0,0,0-.21,1.89,1.8,1.8,0,0,0,1.06,1.11A2.29,2.29,0,0,0,66,20.86Z"/><path class="cls-1" d="M80,19l-3,.67L72.78.66l3-.66Z"/><path class="cls-1" d="M90.61,17.93a6.38,6.38,0,0,1-4.87-1.51,6.78,6.78,0,0,1-2.16-4.78l0-.38a8.2,8.2,0,0,1,.53-3.72,6,6,0,0,1,2-2.67,5.85,5.85,0,0,1,3.13-1.12,5.38,5.38,0,0,1,4.45,1.48,7.57,7.57,0,0,1,1.88,4.95l.08,1.24-9,.62a4.1,4.1,0,0,0,1.32,2.61,3.43,3.43,0,0,0,2.57.81,4.2,4.2,0,0,0,3.33-2L95.71,15A5.5,5.5,0,0,1,93.65,17,7,7,0,0,1,90.61,17.93ZM89.43,6.22a2.56,2.56,0,0,0-2,1,4.56,4.56,0,0,0-.83,2.54l5.87-.41,0-.23a3.78,3.78,0,0,0-1-2.28A2.6,2.6,0,0,0,89.43,6.22Z"/><path class="cls-1" d="M108.59,11.31a8.11,8.11,0,0,1,1.59-3.37A5.86,5.86,0,0,1,112.93,6a6.33,6.33,0,0,1,3.44-.11,6,6,0,0,1,4,2.75,7,7,0,0,1,.76,5.05l-.15.7a8.2,8.2,0,0,1-1.56,3.37,5.9,5.9,0,0,1-2.73,1.92,6.45,6.45,0,0,1-3.47.1,6,6,0,0,1-4.11-2.92,7.45,7.45,0,0,1-.55-5.42Zm3,.95a5.57,5.57,0,0,0,.12,3.43,3.05,3.05,0,0,0,4.75,1.06,6.12,6.12,0,0,0,1.64-3.28,5.47,5.47,0,0,0-.14-3.42,2.87,2.87,0,0,0-2.1-1.73,2.82,2.82,0,0,0-2.6.64A6,6,0,0,0,111.54,12.26Z"/><path class="cls-1" d="M124,22.81l4.37-10.59-1.94-.8.87-2.11,1.94.8L129.76,9a4.7,4.7,0,0,1,2.52-2.78,4.84,4.84,0,0,1,3.76.2,7.59,7.59,0,0,1,1.51.87l-1,2.2a6.13,6.13,0,0,0-1.06-.54,2,2,0,0,0-2.91,1.26l-.46,1.12,2.58,1.07-.87,2.11-2.58-1.06L126.89,24Z"/><path class="cls-1" d="M151.79,26.17a7.6,7.6,0,0,0-1-.81,2.83,2.83,0,0,0-3.27-.36l-5.51,7.61-2.5-1.81,8.06-11.13L150,21.4l-.84,1.29a3.48,3.48,0,0,1,3.56.36,2.76,2.76,0,0,1,.78.79Z"/><path class="cls-1" d="M152,41.5a6.39,6.39,0,0,1-2-4.67,6.71,6.71,0,0,1,2.2-4.76l.28-.27a8.21,8.21,0,0,1,3.16-2,6.05,6.05,0,0,1,3.36-.2,5.87,5.87,0,0,1,2.89,1.63,5.39,5.39,0,0,1,1.79,4.34,7.56,7.56,0,0,1-2.51,4.66l-.88.87-6.33-6.36a4.14,4.14,0,0,0-1.11,2.7,3.41,3.41,0,0,0,1.07,2.48,4.2,4.2,0,0,0,3.65,1.24l.05,2.3a5.57,5.57,0,0,1-2.91-.22A6.88,6.88,0,0,1,152,41.5Zm8.08-8.56a2.61,2.61,0,0,0-2.08-.83,4.64,4.64,0,0,0-2.45,1l4.14,4.17.16-.16a3.7,3.7,0,0,0,1.08-2.24A2.56,2.56,0,0,0,160.06,32.94Z"/><path class="cls-1" d="M162.82,54.8a4.46,4.46,0,0,1,.87-1,4.78,4.78,0,0,1-3.29-2.13,4.84,4.84,0,0,1-.91-3.46,3.75,3.75,0,0,1,1.69-2.72,3.87,3.87,0,0,1,3.7-.53,7.9,7.9,0,0,1,3.59,3.21l1.05,1.57.75-.51a2.16,2.16,0,0,0,.6-3.31,2.75,2.75,0,0,0-1.4-1.14A1.66,1.66,0,0,0,168,45l-1.73-2.55a3.44,3.44,0,0,1,2.18-.56,4.93,4.93,0,0,1,2.41.82,7.44,7.44,0,0,1,2.08,2.07,5.81,5.81,0,0,1,1.14,3.87,4.3,4.3,0,0,1-2,3.13l-5.14,3.46a7.1,7.1,0,0,0-2.16,2.09l-.18.12Zm0-4a3.5,3.5,0,0,0,1.33,1.17,2.93,2.93,0,0,0,1.67.34l2.14-1.45L167,49.43a4.63,4.63,0,0,0-1.93-1.8,1.93,1.93,0,0,0-1.88.23,1.78,1.78,0,0,0-.85,1.28A2.31,2.31,0,0,0,162.77,50.75Z"/><path class="cls-1" d="M167.75,64l-1.34-2.78L184,52.81l1.33,2.78Z"/><path class="cls-1" d="M173.17,81.84a6.34,6.34,0,0,1,.87-5,6.68,6.68,0,0,1,4.46-2.77l.37-.07a8.19,8.19,0,0,1,3.76,0,6.07,6.07,0,0,1,2.91,1.68,5.89,5.89,0,0,1,1.52,3,5.4,5.4,0,0,1-.9,4.61,7.59,7.59,0,0,1-4.66,2.5l-1.22.24-1.78-8.79a4.12,4.12,0,0,0-2.41,1.64,3.45,3.45,0,0,0-.47,2.66,4.16,4.16,0,0,0,2.36,3l-1.23,2a5.54,5.54,0,0,1-2.3-1.78A6.78,6.78,0,0,1,173.17,81.84Zm11.46-2.69a2.58,2.58,0,0,0-1.28-1.83,4.52,4.52,0,0,0-2.62-.49l1.16,5.76.23,0a3.77,3.77,0,0,0,2.13-1.28A2.58,2.58,0,0,0,184.63,79.15Z"/><path class="cls-1" d="M178.6,98.38a1.4,1.4,0,0,0,1.25-.7,7.27,7.27,0,0,0,.74-2.26,11.08,11.08,0,0,1,.81-2.63,3.48,3.48,0,0,1,3.21-2.35,3.62,3.62,0,0,1,3,1.46,5.94,5.94,0,0,1,1.24,3.8,6.15,6.15,0,0,1-1.17,4,3.86,3.86,0,0,1-3.15,1.55l0-3.08a1.93,1.93,0,0,0,1.47-.68,2.51,2.51,0,0,0,.57-1.76,2.74,2.74,0,0,0-.49-1.65,1.51,1.51,0,0,0-1.26-.63,1.26,1.26,0,0,0-1.1.61,8.46,8.46,0,0,0-.77,2.42,11.39,11.39,0,0,1-.92,2.87,4.06,4.06,0,0,1-1.3,1.55,3.43,3.43,0,0,1-1.88.52,3.61,3.61,0,0,1-3-1.5,6.61,6.61,0,0,1-1.19-4,7.11,7.11,0,0,1,.57-3,5,5,0,0,1,1.65-2.07A4,4,0,0,1,179.1,90l0,3a2.15,2.15,0,0,0-1.67.84,3.22,3.22,0,0,0-.57,2,3.17,3.17,0,0,0,.48,1.85A1.45,1.45,0,0,0,178.6,98.38Z"/><path class="cls-1" d="M190.8,111.52l-3.31-.46-.33,2.4-2.26-.31.33-2.4-7.6-1a1.62,1.62,0,0,0-1.17.15,1.44,1.44,0,0,0-.49,1.05,4.94,4.94,0,0,0,0,1.09l-2.36-.33a7.42,7.42,0,0,1,0-2c.32-2.35,1.78-3.34,4.37-3l7.71,1.07.31-2.23,2.27.31-.32,2.24,3.31.45Z"/><path class="cls-1" d="M170.46,123a4.4,4.4,0,0,1,1.33,0,5.21,5.21,0,0,1,1.72-6.78,3.8,3.8,0,0,1,3.18-.39,3.93,3.93,0,0,1,2.74,2.56,7.93,7.93,0,0,1-.26,4.8l-.56,1.81.86.27a2.43,2.43,0,0,0,1.81-.07,2.35,2.35,0,0,0,1.15-1.54,2.74,2.74,0,0,0,0-1.81,1.67,1.67,0,0,0-1.08-1l.91-2.94a3.31,3.31,0,0,1,1.79,1.34,5,5,0,0,1,.88,2.4,7.23,7.23,0,0,1-.32,2.91,5.74,5.74,0,0,1-2.3,3.32,4.36,4.36,0,0,1-3.69.4l-5.92-1.84a6.94,6.94,0,0,0-3-.37l-.21-.07Zm3.12-2.59a3.58,3.58,0,0,0-.08,1.78,2.93,2.93,0,0,0,.78,1.51l2.48.77.49-1.59a4.61,4.61,0,0,0,.19-2.64,1.94,1.94,0,0,0-1.36-1.33,1.84,1.84,0,0,0-1.53.15A2.3,2.3,0,0,0,173.58,120.44Z"/><path class="cls-1" d="M181.4,140.69l-3-1.48-1.08,2.17-2.05-1,1.08-2.18-6.87-3.4a1.74,1.74,0,0,0-1.16-.23,1.46,1.46,0,0,0-.8.84,4.84,4.84,0,0,0-.37,1L165,135.37a8,8,0,0,1,.64-2c1.06-2.13,2.75-2.61,5.1-1.45l7,3.46,1-2,2.05,1-1,2,3,1.49Z"/><path class="cls-1" d="M159.57,143.24a6.39,6.39,0,0,1,4.27-2.8,6.71,6.71,0,0,1,5.06,1.37l.31.22a8.19,8.19,0,0,1,2.53,2.78,6,6,0,0,1,.76,3.28,6,6,0,0,1-1.12,3.13,5.41,5.41,0,0,1-4,2.49,7.55,7.55,0,0,1-5-1.7l-1-.72,5.21-7.31a4.12,4.12,0,0,0-2.85-.63,3.39,3.39,0,0,0-2.27,1.46,4.16,4.16,0,0,0-.6,3.81l-2.26.43a5.58,5.58,0,0,1-.28-2.9A6.87,6.87,0,0,1,159.57,143.24Zm9.8,6.53a2.57,2.57,0,0,0,.46-2.19,4.51,4.51,0,0,0-1.43-2.24L165,150.12l.18.13a3.7,3.7,0,0,0,2.39.69A2.55,2.55,0,0,0,169.37,149.77Z"/><path class="cls-1" d="M136.36,170.44a2.25,2.25,0,0,0,1.71,1.16,10.53,10.53,0,0,0,3.34-.49,15.09,15.09,0,0,1,3.81-.58,4.74,4.74,0,0,1,4.32,2.2,4.5,4.5,0,0,1,.37,4.09,7.35,7.35,0,0,1-3.27,3.71,8,8,0,0,1-3.3,1.2,5.7,5.7,0,0,1-3.08-.48,5.26,5.26,0,0,1-2.27-2l2.73-1.67a2.93,2.93,0,0,0,2,1.46,3.8,3.8,0,0,0,2.64-.67,3.92,3.92,0,0,0,1.73-1.85,2.23,2.23,0,0,0-.24-2,2,2,0,0,0-1.69-1,11.07,11.07,0,0,0-3.33.5,14.17,14.17,0,0,1-3.72.57,5.47,5.47,0,0,1-2.61-.6,4.79,4.79,0,0,1-1.82-1.79,4.39,4.39,0,0,1-.42-4.06,7.72,7.72,0,0,1,3.38-3.68,9.14,9.14,0,0,1,3.53-1.3,6.2,6.2,0,0,1,3.3.38,5.07,5.07,0,0,1,2.39,2.11l-2.73,1.68a3,3,0,0,0-2.17-1.53,4.57,4.57,0,0,0-3,.82,4,4,0,0,0-1.79,1.9A2.19,2.19,0,0,0,136.36,170.44Z"/><path class="cls-1" d="M120.11,172.33a4.71,4.71,0,0,1,.78,1.08,5.18,5.18,0,0,1,6.43-2.73,3.79,3.79,0,0,1,2.23,2.3,3.9,3.9,0,0,1-.37,3.72,7.93,7.93,0,0,1-4,2.71l-1.78.65.31.84a2.41,2.41,0,0,0,1.15,1.4,2.33,2.33,0,0,0,1.92,0,2.74,2.74,0,0,0,1.45-1.09,1.65,1.65,0,0,0,.17-1.49l2.89-1.06a3.46,3.46,0,0,1,0,2.25A5,5,0,0,1,130,183a7.15,7.15,0,0,1-2.51,1.52,5.75,5.75,0,0,1-4,.18,4.33,4.33,0,0,1-2.56-2.7l-2.13-5.81a6.85,6.85,0,0,0-1.5-2.6l-.08-.21Zm4,.92a3.53,3.53,0,0,0-1.46,1,2.9,2.9,0,0,0-.73,1.54l.89,2.43,1.56-.57a4.45,4.45,0,0,0,2.21-1.45,1.91,1.91,0,0,0,.23-1.88,1.79,1.79,0,0,0-1-1.12A2.28,2.28,0,0,0,124.06,173.25Z"/><path class="cls-1" d="M110,174.88l3-.62,3.93,19.1-3,.62Z"/><path class="cls-1" d="M99.33,175.84a6.39,6.39,0,0,1,4.85,1.59,6.71,6.71,0,0,1,2.09,4.81l0,.38a8.16,8.16,0,0,1-.59,3.71,5.92,5.92,0,0,1-5.23,3.72A5.43,5.43,0,0,1,96,188.5a7.62,7.62,0,0,1-1.81-5l-.06-1.25,9-.49a4.17,4.17,0,0,0-1.28-2.63,3.46,3.46,0,0,0-2.56-.85,4.21,4.21,0,0,0-3.36,1.91l-1.74-1.5a5.58,5.58,0,0,1,2.09-2A7,7,0,0,1,99.33,175.84Zm1,11.74a2.6,2.6,0,0,0,2-1,4.53,4.53,0,0,0,.86-2.52l-5.87.32,0,.23a3.71,3.71,0,0,0,1,2.29A2.61,2.61,0,0,0,100.35,187.58Z"/><path class="cls-1" d="M81.29,182.22a8,8,0,0,1-1.63,3.35,5.9,5.9,0,0,1-2.77,1.89,6.45,6.45,0,0,1-3.44.06,6,6,0,0,1-4-2.81,7,7,0,0,1-.7-5.05L69,179a8.14,8.14,0,0,1,1.61-3.34,5.76,5.76,0,0,1,2.76-1.88,6.36,6.36,0,0,1,3.47-.06,6,6,0,0,1,4.06,3,7.39,7.39,0,0,1,.48,5.43Zm-2.93-1a5.57,5.57,0,0,0-.07-3.44,2.86,2.86,0,0,0-2.08-1.74,2.83,2.83,0,0,0-2.65.61,6.11,6.11,0,0,0-1.69,3.27,5.41,5.41,0,0,0,.09,3.41,3,3,0,0,0,4.69,1.16A6,6,0,0,0,78.36,181.24Z"/><path class="cls-1" d="M66,170.51,61.46,181l1.92.83-.9,2.1-1.92-.83-.5,1.16A4.7,4.7,0,0,1,57.5,187a4.84,4.84,0,0,1-3.75-.26,7,7,0,0,1-1.5-.89l1-2.19a6,6,0,0,0,1,.56A2,2,0,0,0,57.24,183l.48-1.12-2.56-1.1.9-2.1,2.56,1.1,4.52-10.52Z"/><path class="cls-1" d="M38.3,166.77a8.56,8.56,0,0,0,1,.83,2.83,2.83,0,0,0,3.26.4l5.61-7.53,2.48,1.84-8.21,11L40,171.57l.86-1.28a3.49,3.49,0,0,1-3.56-.41,3,3,0,0,1-.77-.8Z"/><path class="cls-1" d="M38.32,151.45a6.42,6.42,0,0,1,2,4.7A6.72,6.72,0,0,1,38,160.88l-.27.26a8.18,8.18,0,0,1-3.2,2,6,6,0,0,1-3.36.15,5.89,5.89,0,0,1-2.87-1.67,5.38,5.38,0,0,1-1.73-4.36,7.57,7.57,0,0,1,2.57-4.62l.9-.87,6.24,6.45a4.12,4.12,0,0,0,1.14-2.69,3.38,3.38,0,0,0-1-2.49,4.2,4.2,0,0,0-3.63-1.29l0-2.29a5.44,5.44,0,0,1,2.9.25A6.67,6.67,0,0,1,38.32,151.45Zm-8.19,8.45a2.57,2.57,0,0,0,2.06.85,4.62,4.62,0,0,0,2.47-1l-4.09-4.23-.16.16a3.82,3.82,0,0,0-1.11,2.23A2.57,2.57,0,0,0,30.13,159.9Z"/><path class="cls-1" d="M27.64,138a4.46,4.46,0,0,1-.87,1A4.82,4.82,0,0,1,30,141.16a4.87,4.87,0,0,1,.86,3.47,3.78,3.78,0,0,1-1.73,2.69,3.9,3.9,0,0,1-3.71.48,7.93,7.93,0,0,1-3.54-3.26l-1-1.58-.75.49a2.39,2.39,0,0,0-1.1,1.44,2.34,2.34,0,0,0,.46,1.87,2.69,2.69,0,0,0,1.38,1.15,1.6,1.6,0,0,0,1.49-.17L24,150.32a3.36,3.36,0,0,1-2.18.53,4.91,4.91,0,0,1-2.4-.85,7.22,7.22,0,0,1-2.05-2.1A5.79,5.79,0,0,1,16.32,144a4.32,4.32,0,0,1,2.05-3.1l5.18-3.39a7.08,7.08,0,0,0,2.19-2.06l.18-.11Zm0,4.05a3.41,3.41,0,0,0-1.31-1.19,2.92,2.92,0,0,0-1.66-.36L22.5,141.9l.91,1.39a4.64,4.64,0,0,0,1.91,1.83,2,2,0,0,0,1.89-.21,1.8,1.8,0,0,0,.86-1.27A2.29,2.29,0,0,0,27.64,142Z"/><path class="cls-1" d="M22.86,128.71l1.3,2.8L6.46,139.7l-1.3-2.8Z"/><path class="cls-1" d="M17.68,110.83a6.42,6.42,0,0,1-.93,5,6.73,6.73,0,0,1-4.5,2.7l-.38.07a8.26,8.26,0,0,1-3.75-.1,6,6,0,0,1-2.89-1.73,5.86,5.86,0,0,1-1.48-3,5.35,5.35,0,0,1,1-4.59,7.51,7.51,0,0,1,4.69-2.44l1.23-.23,1.66,8.82a4.13,4.13,0,0,0,2.43-1.62,3.36,3.36,0,0,0,.51-2.64A4.19,4.19,0,0,0,12.91,108l1.25-1.93a5.5,5.5,0,0,1,2.28,1.81A6.83,6.83,0,0,1,17.68,110.83ZM6.19,113.37a2.57,2.57,0,0,0,1.25,1.85,4.58,4.58,0,0,0,2.62.52L9,110l-.23,0a3.81,3.81,0,0,0-2.15,1.24A2.58,2.58,0,0,0,6.19,113.37Z"/><path class="cls-1" d="M12.47,94.2a1.39,1.39,0,0,0-1.26.68,7.11,7.11,0,0,0-.76,2.25,11.85,11.85,0,0,1-.85,2.62,3.52,3.52,0,0,1-3.24,2.31,3.7,3.7,0,0,1-3-1.51,5.9,5.9,0,0,1-1.18-3.81,6.12,6.12,0,0,1,1.23-4A3.87,3.87,0,0,1,6.6,91.25v3.09A1.94,1.94,0,0,0,5.11,95a2.56,2.56,0,0,0-.59,1.76A2.75,2.75,0,0,0,5,98.4a1.5,1.5,0,0,0,1.26.65,1.27,1.27,0,0,0,1.11-.6A8,8,0,0,0,8.14,96a11.46,11.46,0,0,1,1-2.85,4.21,4.21,0,0,1,1.33-1.53,3.45,3.45,0,0,1,1.88-.5,3.58,3.58,0,0,1,3,1.55,6.45,6.45,0,0,1,1.14,4,7.19,7.19,0,0,1-.61,3,5,5,0,0,1-1.68,2.05,4,4,0,0,1-2.3.74v-3a2.21,2.21,0,0,0,1.69-.82,3.23,3.23,0,0,0,.59-2,3.1,3.1,0,0,0-.46-1.85A1.42,1.42,0,0,0,12.47,94.2Z"/><path class="cls-1" d="M.52,80.61l3.29.56.41-2.39,2.26.39-.41,2.39,7.55,1.3a1.74,1.74,0,0,0,1.18-.11,1.49,1.49,0,0,0,.53-1,4.36,4.36,0,0,0,.05-1.09l2.36.41a7.72,7.72,0,0,1-.06,2c-.4,2.34-1.89,3.28-4.47,2.84L5.54,84.6l-.38,2.23-2.25-.39.38-2.23L0,83.65Z"/><path class="cls-1" d="M21,69.66a4.86,4.86,0,0,1-1.33,0,4.79,4.79,0,0,1,.35,3.9,4.88,4.88,0,0,1-2.17,2.85,3.78,3.78,0,0,1-3.18.34,3.91,3.91,0,0,1-2.7-2.59,7.92,7.92,0,0,1,.32-4.8l.59-1.8L12,67.23a2.39,2.39,0,0,0-1.81,0A2.38,2.38,0,0,0,9,68.8a2.68,2.68,0,0,0,0,1.81,1.65,1.65,0,0,0,1.07,1l-1,2.93a3.42,3.42,0,0,1-1.78-1.36,5,5,0,0,1-.83-2.42,7.2,7.2,0,0,1,.35-2.9,5.81,5.81,0,0,1,2.34-3.29,4.36,4.36,0,0,1,3.7-.35l5.89,1.91a6.81,6.81,0,0,0,3,.42l.2.07ZM17.79,72.2a3.43,3.43,0,0,0,.11-1.77,3,3,0,0,0-.76-1.52l-2.47-.8-.51,1.58a4.6,4.6,0,0,0-.23,2.64,1.94,1.94,0,0,0,1.34,1.34,1.8,1.8,0,0,0,1.53-.13A2.23,2.23,0,0,0,17.79,72.2Z"/><path class="cls-1" d="M10.24,51.87l3,1.53,1.11-2.16,2,1-1.1,2.16,6.82,3.5a1.67,1.67,0,0,0,1.15.24,1.43,1.43,0,0,0,.82-.83,5,5,0,0,0,.38-1l2.13,1.09a7.65,7.65,0,0,1-.67,1.94c-1.08,2.11-2.79,2.57-5.11,1.37l-6.93-3.54-1,2-2-1.05,1-2-3-1.52Z"/><path class="cls-1" d="M32.11,49.61a6.37,6.37,0,0,1-4.3,2.74,6.7,6.7,0,0,1-5-1.44l-.31-.23A8.18,8.18,0,0,1,20,47.87a6.11,6.11,0,0,1-.71-3.29,5.87,5.87,0,0,1,1.17-3.11,5.34,5.34,0,0,1,4-2.43,7.55,7.55,0,0,1,5,1.76l1,.73-5.31,7.24a4.12,4.12,0,0,0,2.84.68A3.44,3.44,0,0,0,30.23,48a4.15,4.15,0,0,0,.66-3.8l2.26-.4a5.51,5.51,0,0,1,.24,2.91A6.89,6.89,0,0,1,32.11,49.61ZM22.4,43a2.58,2.58,0,0,0-.49,2.17,4.65,4.65,0,0,0,1.4,2.27l3.48-4.74-.18-.13a3.73,3.73,0,0,0-2.38-.72A2.58,2.58,0,0,0,22.4,43Z"/></g></g></svg>