<svg xmlns="http://www.w3.org/2000/svg" viewBox="0 0 187.95 180.75"><defs><style>.cls-1{fill:#4a627f;}</style></defs><g id="Layer_2" data-name="Layer 2"><g id="Layer_1-2" data-name="Layer 1"><path class="cls-1" d="M28.38,21l10.81,5.83L34.9,15.31l2.54-2.21,9.85,11.32-2,1.7-3.25-3.73-4.14-5.16,4.24,11.63-1.4,1.23L29.86,24.28l4.53,4.81,3.25,3.73-2,1.7L25.83,23.21Z"/><path class="cls-1" d="M54.41,20.54a5.17,5.17,0,0,1-4.09.64A5.46,5.46,0,0,1,47,18.47l-.15-.27A6.68,6.68,0,0,1,46,15.29a4.82,4.82,0,0,1,2.42-4.61,4.35,4.35,0,0,1,3.77-.5,6.15,6.15,0,0,1,3.14,2.93l.5.88-6.3,3.65a3.36,3.36,0,0,0,1.89,1.43,2.77,2.77,0,0,0,2.16-.33,3.36,3.36,0,0,0,1.73-2.61l1.82.44a4.59,4.59,0,0,1-.77,2.24A5.68,5.68,0,0,1,54.41,20.54Zm-5-8.11a2.07,2.07,0,0,0-1.08,1.46,3.75,3.75,0,0,0,.3,2.14l4.13-2.39-.09-.16a3,3,0,0,0-1.53-1.31A2.06,2.06,0,0,0,49.37,12.43Z"/><path class="cls-1" d="M58.48,5.87,59,7A4,4,0,0,1,61.5,4.47q3.24-1.27,4.75,2.42l2.68,6.86-2.33.91L64,7.94a2.32,2.32,0,0,0-1-1.3,2,2,0,0,0-1.58.07,2.42,2.42,0,0,0-1.6,2.1l2.89,7.39-2.33.91L56.29,6.73Z"/><path class="cls-1" d="M78.2,10.34a3.9,3.9,0,0,1-2.78,1.95,3.45,3.45,0,0,1-2.91-.45,4.47,4.47,0,0,1-1.57-2.79L69.38,2l2.44-.54,1.56,7c.3,1.38,1,1.94,2.17,1.69a2.49,2.49,0,0,0,2.13-1.81L76,.54,78.39,0,80.8,10.88l-2.3.51Z"/><path class="cls-1" d="M128.84,1.73,128,14l8.71-8.65,3.06,1.4-6.24,13.64-2.36-1.08,2.06-4.5,3-5.9-8.85,8.66-1.69-.78.79-12.34-2.52,6.11L121.88,15,119.52,14,125.77.32Z"/><path class="cls-1" d="M140,25.27a5.16,5.16,0,0,1-2.26-3.47,5.41,5.41,0,0,1,1.12-4.1l.18-.25a6.62,6.62,0,0,1,2.26-2,4.83,4.83,0,0,1,5.2.3,4.39,4.39,0,0,1,2,3.23A6.15,6.15,0,0,1,147.11,23l-.59.82-5.92-4.24a3.35,3.35,0,0,0-.53,2.31,2.82,2.82,0,0,0,1.19,1.84,3.4,3.4,0,0,0,3.09.5l.35,1.83a4.49,4.49,0,0,1-2.36.22A5.5,5.5,0,0,1,140,25.27Zm5.32-7.94a2.09,2.09,0,0,0-1.77-.38,3.66,3.66,0,0,0-1.83,1.16l3.88,2.78.1-.15a3.08,3.08,0,0,0,.57-1.94A2.1,2.1,0,0,0,145.3,17.33Z"/><path class="cls-1" d="M155,22.92l-.84,1a4,4,0,0,1,3.36,1.19q2.5,2.43-.24,5.33l-5.14,5.28-1.79-1.75,5-5.17a2.34,2.34,0,0,0,.77-1.45,2,2,0,0,0-.72-1.41,2.43,2.43,0,0,0-2.58-.59L147.34,31l-1.79-1.74,7.77-8Z"/><path class="cls-1" d="M159.09,42.7A3.88,3.88,0,0,1,156.17,41a3.48,3.48,0,0,1-.8-2.83,4.49,4.49,0,0,1,1.89-2.59L163,31.21l1.5,2-5.74,4.33c-1.13.85-1.34,1.75-.63,2.68a2.46,2.46,0,0,0,2.52,1.18l6.4-4.82,1.5,2-8.9,6.71-1.42-1.88Z"/><path class="cls-1" d="M186.19,71.09l-10.74,6,12,2.58L188,83l-14.84,2.2-.38-2.56,4.89-.73,6.58-.71-12.08-2.69-.27-1.85,10.77-6.06-6.49,1.22-4.9.73L170.85,70l14.84-2.2Z"/><path class="cls-1" d="M172.55,93.29a5.21,5.21,0,0,1,1.66-3.8,5.44,5.44,0,0,1,4-1.3h.31a6.78,6.78,0,0,1,3,.77,4.88,4.88,0,0,1,2,1.9,4.8,4.8,0,0,1,.62,2.62,4.38,4.38,0,0,1-1.6,3.45A6.16,6.16,0,0,1,178.35,98l-1,0,.31-7.28a3.3,3.3,0,0,0-2.22.83,2.73,2.73,0,0,0-.89,2,3.37,3.37,0,0,0,1.27,2.86l-1.35,1.3A4.63,4.63,0,0,1,173,95.82,5.7,5.7,0,0,1,172.55,93.29Zm9.55.11a2.09,2.09,0,0,0-.65-1.7,3.72,3.72,0,0,0-2-.89l-.2,4.76h.18a3,3,0,0,0,1.93-.59A2.09,2.09,0,0,0,182.1,93.4Z"/><path class="cls-1" d="M182.74,104.59l-1.28-.17a4,4,0,0,1,.84,3.47c-.44,2.28-2,3.18-4.59,2.71l-7.23-1.42.48-2.46,7.09,1.39a2.3,2.3,0,0,0,1.63-.14,2,2,0,0,0,.79-1.38,2.43,2.43,0,0,0-.91-2.48l-7.79-1.52.48-2.46,10.94,2.15Z"/><path class="cls-1" d="M168.39,118.8a3.88,3.88,0,0,1-.15-3.38,3.44,3.44,0,0,1,1.94-2.22,4.5,4.5,0,0,1,3.2.17l6.79,2.46-.85,2.36-6.76-2.46c-1.33-.48-2.2-.17-2.6.94a2.46,2.46,0,0,0,.39,2.76l7.52,2.73-.85,2.35-10.48-3.8.81-2.22Z"/><path class="cls-1" d="M159.38,157l-10.87-5.72,4.41,11.46L150.4,165l-10-11.22,1.94-1.72,3.28,3.7,4.2,5.11-4.36-11.58,1.39-1.24,11,5.7-4.58-4.77L150,145.25l1.95-1.73,10,11.22Z"/><path class="cls-1" d="M133.36,157.69a5.15,5.15,0,0,1,4.08-.68,5.45,5.45,0,0,1,3.31,2.68l.16.27a6.64,6.64,0,0,1,1,2.89,4.86,4.86,0,0,1-.51,2.68,4.8,4.8,0,0,1-1.86,2,4.4,4.4,0,0,1-3.77.54,6.15,6.15,0,0,1-3.16-2.9l-.52-.87,6.27-3.72a3.37,3.37,0,0,0-1.91-1.41,2.79,2.79,0,0,0-2.16.35,3.42,3.42,0,0,0-1.7,2.63l-1.82-.42a4.64,4.64,0,0,1,.75-2.25A5.57,5.57,0,0,1,133.36,157.69Zm5.12,8.06a2.1,2.1,0,0,0,1.07-1.47,3.7,3.7,0,0,0-.33-2.14l-4.1,2.44.09.15a3,3,0,0,0,1.55,1.3A2.05,2.05,0,0,0,138.48,165.75Z"/><path class="cls-1" d="M129.41,172.41l-.54-1.16a4,4,0,0,1-2.46,2.59q-3.22,1.31-4.77-2.37l-2.76-6.84,2.33-.93,2.69,6.7a2.36,2.36,0,0,0,1,1.29,1.93,1.93,0,0,0,1.58-.09,2.43,2.43,0,0,0,1.58-2.12l-3-7.36,2.32-.93,4.16,10.34Z"/><path class="cls-1" d="M109.7,168.13a3.9,3.9,0,0,1,2.75-2,3.48,3.48,0,0,1,2.92.42,4.51,4.51,0,0,1,1.6,2.78l1.64,7-2.44.57-1.63-7c-.32-1.38-1.05-1.93-2.2-1.67a2.49,2.49,0,0,0-2.1,1.84l1.81,7.79-2.43.57-2.53-10.86,2.3-.53Z"/><path class="cls-1" d="M65.87,179.61l-.21-12.28-7.94,9.37-3.17-1.13,5.05-14.13,2.45.87L60.38,167l-2.47,6.14L66,163.72l1.75.63L68,176.71l2-6.31,1.66-4.65,2.45.87-5,14.13Z"/><path class="cls-1" d="M52.75,157.12a5.18,5.18,0,0,1,2.55,3.26,5.44,5.44,0,0,1-.76,4.18l-.16.27a6.59,6.59,0,0,1-2.08,2.23,4.83,4.83,0,0,1-2.6.84,4.78,4.78,0,0,1-2.6-.7,4.37,4.37,0,0,1-2.29-3,6.15,6.15,0,0,1,1-4.17l.52-.87,6.26,3.72a3.32,3.32,0,0,0,.32-2.35,2.74,2.74,0,0,0-1.34-1.73,3.38,3.38,0,0,0-3.11-.23l-.51-1.8a4.51,4.51,0,0,1,2.33-.42A5.47,5.47,0,0,1,52.75,157.12Zm-4.62,8.36a2.1,2.1,0,0,0,1.8.23,3.8,3.8,0,0,0,1.72-1.31L47.55,162l-.1.16a3,3,0,0,0-.39,2A2.07,2.07,0,0,0,48.13,165.48Z"/><path class="cls-1" d="M38,160.75l.76-1.05a4,4,0,0,1-3.45-.9q-2.7-2.2-.22-5.33l4.67-5.7,1.94,1.59L37.09,155a2.28,2.28,0,0,0-.64,1.5,1.92,1.92,0,0,0,.84,1.35,2.41,2.41,0,0,0,2.61.37l5-6.14,1.93,1.59-7.06,8.62Z"/><path class="cls-1" d="M32.22,141.38a3.88,3.88,0,0,1,3.06,1.47,3.41,3.41,0,0,1,1,2.75,4.48,4.48,0,0,1-1.66,2.74l-5.37,4.83-1.68-1.87L33,146.5c1.05-.94,1.18-1.85.4-2.73a2.49,2.49,0,0,0-2.62-1l-6,5.35-1.67-1.86,8.3-7.45L33,140.61Z"/><path class="cls-1" d="M2.78,115.42,13,108.55.78,107,0,103.74l14.59-3.47.61,2.52-4.82,1.15-6.49,1.28,12.27,1.63.43,1.82-10.21,7,6.36-1.78,4.82-1.14.6,2.52-14.6,3.47Z"/><path class="cls-1" d="M14.48,92.15a5.18,5.18,0,0,1-1.34,3.91,5.44,5.44,0,0,1-3.93,1.65H8.9a6.64,6.64,0,0,1-3-.52,4.81,4.81,0,0,1-3-4.28,4.37,4.37,0,0,1,1.3-3.58A6.14,6.14,0,0,1,8.3,87.93l1,0,.3,7.27a3.31,3.31,0,0,0,2.14-1,2.72,2.72,0,0,0,.72-2.07A3.42,3.42,0,0,0,11,89.34l1.23-1.4a4.55,4.55,0,0,1,1.62,1.72A5.61,5.61,0,0,1,14.48,92.15ZM5,92.84a2.1,2.1,0,0,0,.79,1.64,3.7,3.7,0,0,0,2,.72l-.2-4.77H7.39a3,3,0,0,0-1.87.75A2.09,2.09,0,0,0,5,92.84Z"/><path class="cls-1" d="M3.36,81.76l1.29.07a4,4,0,0,1-1.14-3.39q.38-3.47,4.34-3.1l7.33.79-.27,2.49-7.18-.77a2.25,2.25,0,0,0-1.61.29,1.89,1.89,0,0,0-.67,1.43A2.4,2.4,0,0,0,6.57,82l7.89.85-.27,2.49L3.1,84.11Z"/><path class="cls-1" d="M16.43,66.34a3.87,3.87,0,0,1,.44,3.36,3.46,3.46,0,0,1-1.73,2.38,4.55,4.55,0,0,1-3.21.11L5,70.32,5.6,67.9l7,1.86c1.36.37,2.2,0,2.5-1.15a2.47,2.47,0,0,0-.62-2.72L6.7,63.82l.64-2.42,10.77,2.89-.61,2.28Z"/></g></g></svg>