<svg xmlns="http://www.w3.org/2000/svg" viewBox="0 0 184.26 188.08"><defs><style>.cls-1{fill:#4a627f;}</style></defs><g id="Layer_2" data-name="Layer 2"><g id="Layer_1-2" data-name="Layer 1"><path class="cls-1" d="M38.89,29.06l-4.34,3.87L36,36.35l-2,1.8-5.75-15L30,21.62l14.21,7.43-2,1.81ZM33.7,30.87,37,28l-5.76-3.2Z"/><path class="cls-1" d="M51.69,18a6.69,6.69,0,0,1,1.19,4.12,3.82,3.82,0,0,1-1.91,3,3.69,3.69,0,0,1-3.34.4l.53,1.09-1.93,1.19L37.92,14.28,40.05,13l3,4.9a3.62,3.62,0,0,1,1.81-2.62,3.81,3.81,0,0,1,3.52-.4,6.88,6.88,0,0,1,3.22,3Zm-2.24,1.13a4.75,4.75,0,0,0-2-2,2.15,2.15,0,0,0-2.06.2,2.34,2.34,0,0,0-1.2,2.41l2.41,3.91a2.36,2.36,0,0,0,2.73,0A2.09,2.09,0,0,0,50.44,22a4.62,4.62,0,0,0-.82-2.6Z"/><path class="cls-1" d="M54.76,16.15a6.63,6.63,0,0,1-.52-3,4.81,4.81,0,0,1,.92-2.56,5.22,5.22,0,0,1,2.23-1.68,4.87,4.87,0,0,1,3.94,0,5.68,5.68,0,0,1,2.87,3l.23.54a6.45,6.45,0,0,1,.53,3,4.66,4.66,0,0,1-.91,2.55,5.17,5.17,0,0,1-2.25,1.69,4.83,4.83,0,0,1-4.09,0,6,6,0,0,1-2.9-3.34Zm2.4-.75a4.43,4.43,0,0,0,1.68,2.22,2.31,2.31,0,0,0,2.2.15,2.29,2.29,0,0,0,1.45-1.66A5,5,0,0,0,62,13.16,4.45,4.45,0,0,0,60.36,11a2.34,2.34,0,0,0-2.21-.17,2.32,2.32,0,0,0-1.43,1.64A4.88,4.88,0,0,0,57.16,15.4Z"/><path class="cls-1" d="M75.83,14a3.86,3.86,0,0,1-2.76,2,3.45,3.45,0,0,1-2.91-.42,4.5,4.5,0,0,1-1.6-2.78L67,5.72l2.44-.56,1.61,7c.31,1.38,1,1.93,2.19,1.67A2.45,2.45,0,0,0,75.29,12L73.5,4.21l2.44-.56,2.5,10.87-2.3.52Z"/><path class="cls-1" d="M83.92,0l.25,2.7,2-.19.17,1.85-2,.18.58,6.2a1.37,1.37,0,0,0,.34.9,1.17,1.17,0,0,0,.92.19,3.22,3.22,0,0,0,.86-.18l.19,1.93a6.35,6.35,0,0,1-1.62.39q-2.88.27-3.17-2.9l-.59-6.29L80,5,79.85,3.1l1.83-.17L81.42.23Z"/><path class="cls-1" d="M103.58,13.27a3.89,3.89,0,0,1-3.26.92,3.43,3.43,0,0,1-2.6-1.38,4.48,4.48,0,0,1-.56-3.16L98,2.48l2.49.3-.86,7.14q-.24,2.1,1.5,2.31a2.46,2.46,0,0,0,2.6-1l1-8,2.49.3-1.32,11.06-2.35-.28Z"/><path class="cls-1" d="M116.21,14.16A1.14,1.14,0,0,0,116,13a6,6,0,0,0-1.6-1.09,9.5,9.5,0,0,1-1.86-1.23,2.84,2.84,0,0,1-1.09-3,2.94,2.94,0,0,1,1.82-2,4.88,4.88,0,0,1,3.24-.1,5,5,0,0,1,2.84,1.84,3.15,3.15,0,0,1,.49,2.8l-2.41-.68a1.57,1.57,0,0,0-.19-1.3A2,2,0,0,0,116,7.39a2.22,2.22,0,0,0-1.4,0,1.22,1.22,0,0,0-.78.84,1,1,0,0,0,.23,1,6.84,6.84,0,0,0,1.7,1.15,9.09,9.09,0,0,1,2,1.37,3.32,3.32,0,0,1,.91,1.37,2.75,2.75,0,0,1,0,1.58,2.92,2.92,0,0,1-1.87,2,5.35,5.35,0,0,1-3.39,0,5.84,5.84,0,0,1-2.22-1.14,4,4,0,0,1-1.24-1.76,3.29,3.29,0,0,1-.06-2l2.34.66a1.76,1.76,0,0,0,.27,1.5,2.56,2.56,0,0,0,1.45.9,2.51,2.51,0,0,0,1.55.05A1.19,1.19,0,0,0,116.21,14.16Z"/><path class="cls-1" d="M136,22.74l-5-2.93-2.81,2.41-2.34-1.37,12.45-10.1,2,1.18-2.66,15.82-2.35-1.37Zm-3.33-4.37,3.75,2.19,1.26-6.47Z"/><path class="cls-1" d="M150.5,31.48a6.73,6.73,0,0,1-3.56,2.41,3.76,3.76,0,0,1-3.42-.9,3.63,3.63,0,0,1-1.42-3l-.87.83-1.73-1.46,10.24-12.07,1.91,1.62-3.72,4.38a3.64,3.64,0,0,1,3,.91,3.84,3.84,0,0,1,1.46,3.23,6.86,6.86,0,0,1-1.85,4Zm-1.77-1.78A4.76,4.76,0,0,0,150,27.21a2.13,2.13,0,0,0-.83-1.89,2.32,2.32,0,0,0-2.66-.39l-3,3.5a2.33,2.33,0,0,0,.82,2.6,2.08,2.08,0,0,0,1.94.51,4.51,4.51,0,0,0,2.22-1.6Z"/><path class="cls-1" d="M153.16,33.83a6.55,6.55,0,0,1,2.67-1.42,4.74,4.74,0,0,1,2.72.08,5.1,5.1,0,0,1,2.28,1.6,4.85,4.85,0,0,1,1.27,3.73,5.7,5.7,0,0,1-1.95,3.65l-.44.39a6.63,6.63,0,0,1-2.65,1.43,4.71,4.71,0,0,1-2.71-.08A5.21,5.21,0,0,1,152,41.6a4.87,4.87,0,0,1-1.25-3.9,6.06,6.06,0,0,1,2.27-3.79Zm1.46,2.05A4.39,4.39,0,0,0,153,38.16a2.3,2.3,0,0,0,.54,2.14,2.28,2.28,0,0,0,2,.86,4.92,4.92,0,0,0,2.66-1.34,4.42,4.42,0,0,0,1.57-2.29,2.31,2.31,0,0,0-.53-2.14,2.28,2.28,0,0,0-2-.85A4.79,4.79,0,0,0,154.62,35.88Z"/><path class="cls-1" d="M161.78,53.2a3.88,3.88,0,0,1-2.73-2,3.46,3.46,0,0,1-.51-2.9,4.48,4.48,0,0,1,2.15-2.39l6.18-3.73,1.29,2.14L162,48c-1.22.73-1.52,1.6-.91,2.6a2.48,2.48,0,0,0,2.39,1.44l6.86-4.14,1.29,2.14-9.54,5.76-1.22-2Z"/><path class="cls-1" d="M177.6,56.5l-2.49,1.08.79,1.81-1.7.74-.79-1.8-5.7,2.48a1.4,1.4,0,0,0-.75.6,1.21,1.21,0,0,0,.1.94,4.22,4.22,0,0,0,.45.76l-1.78.77a6.26,6.26,0,0,1-.87-1.41q-1.16-2.64,1.76-3.92L172.41,56l-.73-1.68,1.7-.74.73,1.68,2.49-1.08Z"/><path class="cls-1" d="M171.09,79.33a3.84,3.84,0,0,1-1.88-2.82,3.42,3.42,0,0,1,.51-2.9,4.47,4.47,0,0,1,2.83-1.51l7.08-1.4.49,2.46-7.06,1.39c-1.39.28-2,1-1.74,2.14a2.48,2.48,0,0,0,1.76,2.16l7.86-1.55.48,2.46-10.94,2.16L170,79.6Z"/><path class="cls-1" d="M174.14,91.59a1.15,1.15,0,0,0,1-.59,5.81,5.81,0,0,0,.54-1.86,9.81,9.81,0,0,1,.6-2.15,2.82,2.82,0,0,1,2.55-2,3,3,0,0,1,2.46,1.11,4.88,4.88,0,0,1,1.09,3,5,5,0,0,1-.86,3.27A3.14,3.14,0,0,1,179,93.77l-.1-2.5a1.54,1.54,0,0,0,1.18-.58,2,2,0,0,0,.42-1.44,2.2,2.2,0,0,0-.43-1.33,1.22,1.22,0,0,0-1-.48,1,1,0,0,0-.88.52,6.46,6.46,0,0,0-.56,2,9.87,9.87,0,0,1-.68,2.35,3.33,3.33,0,0,1-1,1.29,2.78,2.78,0,0,1-1.51.46,2.88,2.88,0,0,1-2.48-1.15,5.24,5.24,0,0,1-1.06-3.22,5.72,5.72,0,0,1,.39-2.46,4,4,0,0,1,1.3-1.72,3.25,3.25,0,0,1,1.83-.68l.1,2.43a1.74,1.74,0,0,0-1.33.73,3.07,3.07,0,0,0,0,3.14A1.16,1.16,0,0,0,174.14,91.59Z"/><path class="cls-1" d="M172.16,113.06l1.21-5.68-3.16-1.92.56-2.65,13.49,8.68-.49,2.29-15.85,2.41.56-2.66Zm3.11-4.52-.91,4.25,6.54-.83Z"/><path class="cls-1" d="M168.38,129.58A6.72,6.72,0,0,1,165,127a3.76,3.76,0,0,1-.22-3.53,3.64,3.64,0,0,1,2.46-2.3l-1.07-.57.86-2.09,14.65,6-.94,2.32-5.33-2.17a3.58,3.58,0,0,1,.08,3.18,3.82,3.82,0,0,1-2.61,2.4,6.89,6.89,0,0,1-4.36-.52Zm1.14-2.24a4.68,4.68,0,0,0,2.76.44,2.12,2.12,0,0,0,1.54-1.37,2.33,2.33,0,0,0-.45-2.66L169.12,122a2.33,2.33,0,0,0-2.22,1.58,2.1,2.1,0,0,0,.12,2,4.52,4.52,0,0,0,2.21,1.61Z"/><path class="cls-1" d="M167,132.86a6.6,6.6,0,0,1,2.17,2.09,4.75,4.75,0,0,1,.77,2.61,5.13,5.13,0,0,1-.81,2.67,4.84,4.84,0,0,1-3.16,2.36,5.64,5.64,0,0,1-4.08-.72l-.5-.3a6.51,6.51,0,0,1-2.18-2.08,4.72,4.72,0,0,1-.77-2.6,5.3,5.3,0,0,1,.82-2.69,4.83,4.83,0,0,1,3.32-2.39,6,6,0,0,1,4.31,1Zm-1.5,2a4.48,4.48,0,0,0-2.67-.81,2.49,2.49,0,0,0-2.05,3.38,4.89,4.89,0,0,0,2.1,2.11,4.46,4.46,0,0,0,2.66.79,2.32,2.32,0,0,0,1.87-1.17,2.27,2.27,0,0,0,.19-2.17A4.81,4.81,0,0,0,165.47,134.88Z"/><path class="cls-1" d="M151.24,147a3.89,3.89,0,0,1,1.06-3.22,3.48,3.48,0,0,1,2.6-1.38,4.47,4.47,0,0,1,2.93,1.3l5.47,4.72-1.64,1.9-5.44-4.7q-1.6-1.39-2.76-.06a2.49,2.49,0,0,0-.62,2.72l6.06,5.23-1.63,1.9-8.44-7.29,1.54-1.78Z"/><path class="cls-1" d="M153,163.1l-1.8-2-1.47,1.31L148.49,161l1.47-1.3L145.83,155a1.41,1.41,0,0,0-.8-.53,1.16,1.16,0,0,0-.86.39,3.4,3.4,0,0,0-.59.66l-1.29-1.45a6.13,6.13,0,0,1,1.08-1.27c1.43-1.28,2.86-1.12,4.27.46l4.19,4.72,1.38-1.22,1.23,1.39-1.37,1.22,1.8,2Z"/><path class="cls-1" d="M129.28,164a3.85,3.85,0,0,1,2.09-2.67,3.47,3.47,0,0,1,2.91-.42,4.47,4.47,0,0,1,2.32,2.22l3.55,6.29L138,170.68l-3.52-6.27c-.7-1.23-1.56-1.56-2.58-1a2.46,2.46,0,0,0-1.5,2.34l3.92,7L132.1,174l-5.47-9.72,2.06-1.15Z"/><path class="cls-1" d="M118.58,170.76a1.14,1.14,0,0,0,.88.76,5.83,5.83,0,0,0,1.92-.06,9.33,9.33,0,0,1,2.24-.1,2.87,2.87,0,0,1,2.68,1.8,3,3,0,0,1-.3,2.69,4.84,4.84,0,0,1-2.56,2,4.92,4.92,0,0,1-3.37.2,3.15,3.15,0,0,1-2-2l2.34-.87a1.53,1.53,0,0,0,.93.93,2.06,2.06,0,0,0,1.5,0,2.24,2.24,0,0,0,1.12-.83,1.19,1.19,0,0,0,.13-1.14,1,1,0,0,0-.76-.67,6.57,6.57,0,0,0-2.06.08,9.55,9.55,0,0,1-2.44.09,3.29,3.29,0,0,1-1.54-.58,2.74,2.74,0,0,1-.92-1.28,2.91,2.91,0,0,1,.32-2.72,5.27,5.27,0,0,1,2.73-2,5.76,5.76,0,0,1,2.46-.39,4,4,0,0,1,2,.69,3.23,3.23,0,0,1,1.21,1.54l-2.27.85a1.75,1.75,0,0,0-1.11-1,3.1,3.1,0,0,0-3,1A1.17,1.17,0,0,0,118.58,170.76Z"/><path class="cls-1" d="M97.55,175.51l5.78-.6.85-3.6,2.7-.28-4.09,15.5-2.32.25-7.2-14.34,2.7-.28Zm5.27,1.56-4.32.45,2.81,6Z"/><path class="cls-1" d="M80.69,177.06a6.7,6.7,0,0,1,1.44-4,3.77,3.77,0,0,1,3.29-1.31,3.65,3.65,0,0,1,3,1.62l.2-1.2,2.26.16-1.1,15.79-2.49-.17.4-5.74a3.61,3.61,0,0,1-3,1.07,3.79,3.79,0,0,1-3.09-1.73,6.75,6.75,0,0,1-.87-4.31Zm2.48.39a4.8,4.8,0,0,0,.45,2.76,2.14,2.14,0,0,0,1.79,1A2.32,2.32,0,0,0,87.79,180l.32-4.58a2.34,2.34,0,0,0-2.2-1.61,2.07,2.07,0,0,0-1.87.75,4.55,4.55,0,0,0-.85,2.59Z"/><path class="cls-1" d="M77.13,176.74a6.52,6.52,0,0,1-1.31,2.72A4.75,4.75,0,0,1,73.58,181a5.06,5.06,0,0,1-2.79.06,4.87,4.87,0,0,1-3.23-2.26,5.68,5.68,0,0,1-.59-4.1l.13-.57a6.55,6.55,0,0,1,1.29-2.72,4.68,4.68,0,0,1,2.23-1.54,5.17,5.17,0,0,1,2.82-.06,4.82,4.82,0,0,1,3.31,2.4,6,6,0,0,1,.41,4.4ZM74.75,176a4.52,4.52,0,0,0-.07-2.78,2.35,2.35,0,0,0-1.7-1.41,2.31,2.31,0,0,0-2.15.51,5,5,0,0,0-1.36,2.65,4.44,4.44,0,0,0,.09,2.78,2.34,2.34,0,0,0,1.69,1.42,2.3,2.3,0,0,0,2.12-.5A4.87,4.87,0,0,0,74.75,176Z"/><path class="cls-1" d="M58.76,166.22a3.87,3.87,0,0,1,3.39,0,3.41,3.41,0,0,1,2.12,2,4.44,4.44,0,0,1-.32,3.19l-2.79,6.66-2.31-1,2.78-6.63c.54-1.31.28-2.18-.81-2.64a2.46,2.46,0,0,0-2.77.26L55,175.52l-2.31-1L57,164.27l2.17.91Z"/><path class="cls-1" d="M44,172.87l1.37-2.34-1.7-1,.93-1.6,1.7,1,3.14-5.37a1.35,1.35,0,0,0,.25-.92,1.17,1.17,0,0,0-.63-.7,3.7,3.7,0,0,0-.81-.36l1-1.67a6.07,6.07,0,0,1,1.54.63q2.49,1.46.88,4.2L48.5,170.2l1.58.92-.94,1.6-1.58-.92-1.37,2.34Z"/><path class="cls-1" d="M35.81,150.61A3.89,3.89,0,0,1,39,151.77a3.48,3.48,0,0,1,1.31,2.64,4.53,4.53,0,0,1-1.39,2.89L34,162.62l-1.84-1.69,4.86-5.3c1-1,1-2,.14-2.75a2.47,2.47,0,0,0-2.7-.7l-5.41,5.89-1.85-1.69,7.54-8.21,1.74,1.6Z"/><path class="cls-1" d="M26.09,142.54a1.16,1.16,0,0,0-.46,1.07,6,6,0,0,0,.66,1.81,9.63,9.63,0,0,1,.8,2.09,2.86,2.86,0,0,1-.88,3.11,3,3,0,0,1-2.65.55,4.77,4.77,0,0,1-2.68-1.81,5,5,0,0,1-1.24-3.14,3.12,3.12,0,0,1,1.23-2.56l1.56,2a1.57,1.57,0,0,0-.6,1.17,2,2,0,0,0,.51,1.41,2.21,2.21,0,0,0,1.14.81,1.19,1.19,0,0,0,1.12-.22,1,1,0,0,0,.4-.94,6.56,6.56,0,0,0-.72-1.93,9.79,9.79,0,0,1-.84-2.29,3.32,3.32,0,0,1,.07-1.65,2.75,2.75,0,0,1,.94-1.27,2.89,2.89,0,0,1,2.68-.54,5.26,5.26,0,0,1,2.76,2A5.77,5.77,0,0,1,31,144.34a4,4,0,0,1,0,2.16,3.24,3.24,0,0,1-1.09,1.63l-1.51-1.9a1.81,1.81,0,0,0,.65-1.38,2.65,2.65,0,0,0-.65-1.58,2.54,2.54,0,0,0-1.23-.94A1.17,1.17,0,0,0,26.09,142.54Z"/><path class="cls-1" d="M15,124.05l2.38,5.3,3.68-.31,1.11,2.47-16,1-1-2.13L16.58,119l1.11,2.48Zm.16,5.5-1.78-4L8.6,130.11Z"/><path class="cls-1" d="M8.29,108.49a6.71,6.71,0,0,1,4.29.12,3.78,3.78,0,0,1,2.26,2.72,3.61,3.61,0,0,1-.63,3.3l1.2-.17.55,2.2L.61,120.49,0,118.07l5.58-1.4a3.63,3.63,0,0,1-1.95-2.52,3.8,3.8,0,0,1,.69-3.47,6.84,6.84,0,0,1,3.83-2.16Zm.4,2.48a4.73,4.73,0,0,0-2.49,1.28,2.15,2.15,0,0,0-.43,2,2.34,2.34,0,0,0,1.94,1.87L12.17,115a2.34,2.34,0,0,0,.84-2.59,2.08,2.08,0,0,0-1.28-1.55,4.63,4.63,0,0,0-2.73,0Z"/><path class="cls-1" d="M7.5,105a6.58,6.58,0,0,1-3-.41A4.83,4.83,0,0,1,2.34,103a5.13,5.13,0,0,1-.92-2.63,4.87,4.87,0,0,1,1.15-3.77,5.71,5.71,0,0,1,3.72-1.83l.58-.06a6.64,6.64,0,0,1,3,.39A4.66,4.66,0,0,1,12,96.72a5.09,5.09,0,0,1,.93,2.66,4.83,4.83,0,0,1-1.26,3.89A6,6,0,0,1,7.62,105Zm0-2.51a4.6,4.6,0,0,0,2.63-.93,2.48,2.48,0,0,0-.34-3.94,5,5,0,0,0-2.94-.47,4.48,4.48,0,0,0-2.61.95,2.44,2.44,0,0,0,.3,3.9A4.88,4.88,0,0,0,7.51,102.52Z"/><path class="cls-1" d="M11.8,84.27a3.93,3.93,0,0,1,1,3.23,3.46,3.46,0,0,1-1.28,2.65,4.44,4.44,0,0,1-3.13.69l-7.2-.57.2-2.49,7.17.56q2.12.16,2.25-1.59a2.49,2.49,0,0,0-1.11-2.56l-8-.62L2,81.07,13.08,82l-.19,2.35Z"/><path class="cls-1" d="M.87,72.38,3.52,73,3.93,71l1.81.39-.41,1.92,6.08,1.31a1.4,1.4,0,0,0,1-.06,1.16,1.16,0,0,0,.46-.82,4.24,4.24,0,0,0,.09-.88l1.89.41A6,6,0,0,1,14.7,75c-.41,1.88-1.64,2.6-3.72,2.15L4.8,75.78l-.38,1.8-1.81-.39L3,75.39.34,74.83Z"/><path class="cls-1" d="M19.46,57.61A3.9,3.9,0,0,1,19.34,61a3.45,3.45,0,0,1-2.1,2.06,4.55,4.55,0,0,1-3.18-.42l-6.58-3,1-2.28,6.55,3c1.28.58,2.17.34,2.66-.73a2.49,2.49,0,0,0-.17-2.78l-7.29-3.32,1-2.27,10.14,4.61-1,2.15Z"/><path class="cls-1" d="M24.14,45.84a1.13,1.13,0,0,0-1.16-.1,5.89,5.89,0,0,0-1.52,1.18,9.12,9.12,0,0,1-1.74,1.41,2.86,2.86,0,0,1-3.23.12,3,3,0,0,1-1.34-2.34A4.8,4.8,0,0,1,16,43a5,5,0,0,1,2.6-2.16,3.14,3.14,0,0,1,2.82.39l-1.37,2.09a1.55,1.55,0,0,0-1.3-.22,2.06,2.06,0,0,0-1.18.93,2.18,2.18,0,0,0-.43,1.33,1.23,1.23,0,0,0,.57,1,1,1,0,0,0,1,.08,6.27,6.27,0,0,0,1.62-1.28,9.05,9.05,0,0,1,1.92-1.5,3.34,3.34,0,0,1,1.58-.45,2.71,2.71,0,0,1,1.5.5,2.9,2.9,0,0,1,1.35,2.38,5.32,5.32,0,0,1-1,3.24A5.82,5.82,0,0,1,24,51.1a4,4,0,0,1-2.05.64A3.25,3.25,0,0,1,20,51.22l1.34-2a1.78,1.78,0,0,0,1.51.19,2.61,2.61,0,0,0,1.3-1.11,2.46,2.46,0,0,0,.51-1.46A1.15,1.15,0,0,0,24.14,45.84Z"/></g></g></svg>