<svg xmlns="http://www.w3.org/2000/svg" viewBox="0 0 185.52 182.31"><defs><style>.cls-1{fill:#4a627f;}</style></defs><g id="Layer_2" data-name="Layer 2"><g id="Layer_1-2" data-name="Layer 1"><path class="cls-1" d="M21.53,40.86l-1.68,2.36,4.7,3.35L23,48.69,10.82,40l3-4.3a6.19,6.19,0,0,1,3.28-2.59,4.11,4.11,0,0,1,3.56.8A4.19,4.19,0,0,1,22.34,36a4.47,4.47,0,0,1,.1,2.55l7,.88.11.07L28,41.75ZM18.14,42l1.55-2.19a2.93,2.93,0,0,0,.65-2.06,2.3,2.3,0,0,0-1.05-1.66,2.48,2.48,0,0,0-1.92-.52,2.94,2.94,0,0,0-1.74,1.27L14,39.09Z"/><path class="cls-1" d="M34.65,34.6a5.17,5.17,0,0,1-3.77,1.7A5.42,5.42,0,0,1,27,34.55l-.22-.21a6.59,6.59,0,0,1-1.68-2.55,5,5,0,0,1-.19-2.73,4.81,4.81,0,0,1,1.3-2.36,4.38,4.38,0,0,1,3.5-1.49,6.13,6.13,0,0,1,3.81,2l.72.7-5.11,5.2a3.34,3.34,0,0,0,2.2.87,2.74,2.74,0,0,0,2-.89,3.34,3.34,0,0,0,1-3l1.87-.06A4.52,4.52,0,0,1,36,32.42,5.6,5.6,0,0,1,34.65,34.6Zm-7-6.49a2.12,2.12,0,0,0-.66,1.7,3.77,3.77,0,0,0,.87,2l3.34-3.4-.13-.13a3,3,0,0,0-1.82-.85A2.06,2.06,0,0,0,27.64,28.11Z"/><path class="cls-1" d="M44.88,25.65A3.44,3.44,0,0,1,44,25a3.92,3.92,0,0,1-1.59,2.76,4,4,0,0,1-2.77.88,3.06,3.06,0,0,1-2.27-1.26,3.18,3.18,0,0,1-.59-3,6.5,6.5,0,0,1,2.46-3l1.23-.92-.44-.58A2,2,0,0,0,38.83,19a1.91,1.91,0,0,0-1.49.47,2.21,2.21,0,0,0-.87,1.18,1.34,1.34,0,0,0,.22,1.2l-2,1.51a2.8,2.8,0,0,1-.55-1.74,4.22,4.22,0,0,1,.57-2,5.88,5.88,0,0,1,1.6-1.76,4.68,4.68,0,0,1,3.08-1.09A3.53,3.53,0,0,1,42,18.29l3,4A5.78,5.78,0,0,0,46.81,24l.11.14Zm-3.29.21a2.73,2.73,0,0,0,.9-1.12,2.45,2.45,0,0,0,.21-1.37l-1.27-1.68-1.08.81A3.72,3.72,0,0,0,39,24.15a1.54,1.54,0,0,0,.27,1.51,1.42,1.42,0,0,0,1.07.63A1.79,1.79,0,0,0,41.59,25.86Z"/><path class="cls-1" d="M53.27,17a1.14,1.14,0,0,0-1-.64,5.88,5.88,0,0,0-1.9.33,8.83,8.83,0,0,1-2.2.43,2.87,2.87,0,0,1-2.9-1.41,3,3,0,0,1-.08-2.7,4.77,4.77,0,0,1,2.25-2.33A5,5,0,0,1,50.77,10a3.17,3.17,0,0,1,2.31,1.67l-2.2,1.2a1.53,1.53,0,0,0-1.05-.8,2,2,0,0,0-1.47.26,2.14,2.14,0,0,0-1,1,1.18,1.18,0,0,0,0,1.15,1,1,0,0,0,.85.55,6.43,6.43,0,0,0,2-.37,8.9,8.9,0,0,1,2.4-.42,3.22,3.22,0,0,1,1.61.35,2.74,2.74,0,0,1,1.09,1.14,3,3,0,0,1,.07,2.74A5.43,5.43,0,0,1,53,20.86a5.79,5.79,0,0,1-2.38.73,4,4,0,0,1-2.12-.4,3.18,3.18,0,0,1-1.41-1.35l2.13-1.16a1.81,1.81,0,0,0,1.25.88,2.63,2.63,0,0,0,1.66-.36,2.56,2.56,0,0,0,1.14-1.05A1.15,1.15,0,0,0,53.27,17Z"/><path class="cls-1" d="M57,12.21a6.42,6.42,0,0,1-.4-3,4.73,4.73,0,0,1,1-2.52,5.08,5.08,0,0,1,2.3-1.58,4.81,4.81,0,0,1,3.94.12,5.71,5.71,0,0,1,2.74,3.1l.21.55a6.58,6.58,0,0,1,.4,3,4.64,4.64,0,0,1-1,2.5A5.13,5.13,0,0,1,63.86,16a4.88,4.88,0,0,1-4.09-.19A6,6,0,0,1,57,12.33Zm2.42-.65A4.5,4.5,0,0,0,61,13.86,2.48,2.48,0,0,0,64.7,12.5a5,5,0,0,0-.32-3,4.52,4.52,0,0,0-1.6-2.28A2.34,2.34,0,0,0,60.59,7a2.31,2.31,0,0,0-1.5,1.58A4.86,4.86,0,0,0,59.4,11.56Z"/><path class="cls-1" d="M71.34,2l.32,1.25a4,4,0,0,1,2.9-2.08Q78,.5,78.8,4.4l1.4,7.24-2.46.47L76.37,5a2.36,2.36,0,0,0-.75-1.46,2,2,0,0,0-1.57-.21,2.4,2.4,0,0,0-2,1.77l1.5,7.79-2.46.47L69,2.44Z"/><path class="cls-1" d="M120.45,10.56l-2.73-1-2,5.42-2.45-.89L118.42,0l5,1.8a6.09,6.09,0,0,1,3.37,2.47,4.09,4.09,0,0,1,.17,3.65A4.19,4.19,0,0,1,125.38,10a4.68,4.68,0,0,1-2.44.78l1,7,0,.12L121.31,17Zm-2-3,2.52.92a3,3,0,0,0,2.16.08,2.35,2.35,0,0,0,1.32-1.46,2.49,2.49,0,0,0,0-2,2.88,2.88,0,0,0-1.69-1.33l-2.58-.94Z"/><path class="cls-1" d="M130,21.55a5.15,5.15,0,0,1-2.63-3.19,5.39,5.39,0,0,1,.65-4.2l.15-.27a6.76,6.76,0,0,1,2-2.29,4.89,4.89,0,0,1,2.58-.91,4.8,4.8,0,0,1,2.62.63,4.4,4.4,0,0,1,2.36,3,6.13,6.13,0,0,1-.92,4.2l-.49.88L130,15.83a3.36,3.36,0,0,0-.26,2.36,2.77,2.77,0,0,0,1.38,1.69,3.39,3.39,0,0,0,3.13.15l.55,1.78a4.5,4.5,0,0,1-2.32.49A5.61,5.61,0,0,1,130,21.55Zm4.4-8.48a2.06,2.06,0,0,0-1.8-.18,3.64,3.64,0,0,0-1.69,1.36L135,16.57l.09-.16a3,3,0,0,0,.35-2A2.11,2.11,0,0,0,134.37,13.07Z"/><path class="cls-1" d="M141.27,29a3.57,3.57,0,0,1,.4-1,3.87,3.87,0,0,1-3.07-.81A3.91,3.91,0,0,1,137,24.78a3.13,3.13,0,0,1,.61-2.53,3.17,3.17,0,0,1,2.73-1.35,6.46,6.46,0,0,1,3.57,1.56l1.22.94.45-.58a2,2,0,0,0,.46-1.39,1.91,1.91,0,0,0-.85-1.31,2.16,2.16,0,0,0-1.37-.52,1.31,1.31,0,0,0-1.09.52l-2-1.53a2.75,2.75,0,0,1,1.53-1,3.93,3.93,0,0,1,2.07,0,5.74,5.74,0,0,1,2.12,1.07,4.62,4.62,0,0,1,1.87,2.69,3.5,3.5,0,0,1-.75,2.91l-3.07,4a5.75,5.75,0,0,0-1.14,2.16l-.1.14Zm-1.08-3.11a2.77,2.77,0,0,0,1.33.56,2.35,2.35,0,0,0,1.37-.16l1.28-1.66-1.06-.83a3.68,3.68,0,0,0-2-.89,1.56,1.56,0,0,0-1.39.65,1.47,1.47,0,0,0-.32,1.2A1.9,1.9,0,0,0,140.19,25.91Z"/><path class="cls-1" d="M151.82,34.86a1.14,1.14,0,0,0,.36-1.11,5.81,5.81,0,0,0-.83-1.75,9.44,9.44,0,0,1-1-2,2.86,2.86,0,0,1,.6-3.18,3,3,0,0,1,2.58-.79,4.79,4.79,0,0,1,2.84,1.55,5.07,5.07,0,0,1,1.53,3,3.14,3.14,0,0,1-1,2.66l-1.73-1.8a1.56,1.56,0,0,0,.49-1.22,2.08,2.08,0,0,0-.64-1.36,2.24,2.24,0,0,0-1.21-.7,1.21,1.21,0,0,0-1.1.33,1,1,0,0,0-.31,1,6.62,6.62,0,0,0,.9,1.86,9.85,9.85,0,0,1,1.05,2.2,3.25,3.25,0,0,1,.08,1.65,2.76,2.76,0,0,1-.81,1.35,2.91,2.91,0,0,1-2.62.79,5.35,5.35,0,0,1-2.94-1.71,5.89,5.89,0,0,1-1.34-2.1,4.1,4.1,0,0,1-.17-2.15,3.23,3.23,0,0,1,.93-1.72l1.68,1.75a1.8,1.8,0,0,0-.52,1.43,2.62,2.62,0,0,0,.79,1.51,2.58,2.58,0,0,0,1.32.83A1.16,1.16,0,0,0,151.82,34.86Z"/><path class="cls-1" d="M157.43,37.12a6.67,6.67,0,0,1,2.79-1.18,4.83,4.83,0,0,1,2.7.32,5.24,5.24,0,0,1,2.14,1.8,4.85,4.85,0,0,1,.93,3.83,5.7,5.7,0,0,1-2.26,3.46l-.48.35a6.6,6.6,0,0,1-2.77,1.19,4.6,4.6,0,0,1-2.68-.32,5,5,0,0,1-2.16-1.81,4.82,4.82,0,0,1-.9-4,6,6,0,0,1,2.59-3.58Zm1.27,2.17a4.47,4.47,0,0,0-1.78,2.14,2.47,2.47,0,0,0,2.3,3.21,4.88,4.88,0,0,0,2.77-1.1,4.4,4.4,0,0,0,1.76-2.14,2.45,2.45,0,0,0-2.25-3.21A4.94,4.94,0,0,0,158.7,39.29Z"/><path class="cls-1" d="M171.14,48.28l-1.12.64a4,4,0,0,1,2.78,2.24c1,2.08.37,3.73-2,5l-6.6,3.28-1.11-2.24,6.47-3.22a2.27,2.27,0,0,0,1.2-1.11,1.92,1.92,0,0,0-.21-1.57,2.42,2.42,0,0,0-2.23-1.41l-7.11,3.53-1.11-2.24,10-5Z"/><path class="cls-1" d="M176.2,91.46l.05-2.91-5.77-.09,0-2.61,15,.25-.09,5.27a6.17,6.17,0,0,1-1.23,4,4.08,4.08,0,0,1-3.39,1.35A4.2,4.2,0,0,1,178.3,96a4.65,4.65,0,0,1-1.53-2l-6.3,3.27h-.13l0-2.79Zm2.15-2.87,0,2.67a3,3,0,0,0,.64,2.08,2.33,2.33,0,0,0,1.8.77,2.5,2.5,0,0,0,1.88-.66,3,3,0,0,0,.71-2l0-2.75Z"/><path class="cls-1" d="M169.09,104.1a5.18,5.18,0,0,1,2.11-3.56,5.43,5.43,0,0,1,4.18-.81l.3,0a6.6,6.6,0,0,1,2.84,1.12,4.78,4.78,0,0,1,2,4.79,4.4,4.4,0,0,1-2,3.24,6.16,6.16,0,0,1-4.25.56l-1-.17,1.18-7.18a3.32,3.32,0,0,0-2.3.55,2.8,2.8,0,0,0-1.13,1.88,3.4,3.4,0,0,0,.92,3l-1.49,1.13a4.59,4.59,0,0,1-1.24-2A5.64,5.64,0,0,1,169.09,104.1Zm9.48,1.26a2.1,2.1,0,0,0-.45-1.76,3.71,3.71,0,0,0-1.85-1.13l-.77,4.71.18,0a3,3,0,0,0,2-.35A2.15,2.15,0,0,0,178.57,105.36Z"/><path class="cls-1" d="M165.89,117.3a3.76,3.76,0,0,1,1.08,0,3.88,3.88,0,0,1-.28-3.16,3.94,3.94,0,0,1,1.75-2.32,3.09,3.09,0,0,1,2.58-.28,3.18,3.18,0,0,1,2.2,2.11,6.39,6.39,0,0,1-.26,3.89l-.47,1.46.69.23a2,2,0,0,0,1.47,0,1.9,1.9,0,0,0,.95-1.24,2.22,2.22,0,0,0,0-1.46,1.32,1.32,0,0,0-.86-.86l.77-2.38A2.78,2.78,0,0,1,177,114.4a4,4,0,0,1,.69,2,6,6,0,0,1-.29,2.36,4.65,4.65,0,0,1-1.9,2.66,3.48,3.48,0,0,1-3,.29l-4.78-1.55a5.78,5.78,0,0,0-2.42-.34l-.16,0Zm2.57-2.06a2.68,2.68,0,0,0-.09,1.43,2.36,2.36,0,0,0,.62,1.24l2,.65.41-1.29a3.69,3.69,0,0,0,.19-2.14A1.61,1.61,0,0,0,170.5,114a1.48,1.48,0,0,0-1.24.11A1.82,1.82,0,0,0,168.46,115.24Z"/><path class="cls-1" d="M164,129.19a1.15,1.15,0,0,0,1.16,0,5.77,5.77,0,0,0,1.37-1.37,9.55,9.55,0,0,1,1.56-1.6,2.84,2.84,0,0,1,3.18-.51,2.9,2.9,0,0,1,1.62,2.16,4.83,4.83,0,0,1-.5,3.2,5,5,0,0,1-2.33,2.45,3.13,3.13,0,0,1-2.84,0l1.11-2.24a1.56,1.56,0,0,0,1.32.05,2.1,2.1,0,0,0,1.06-1.06,2.19,2.19,0,0,0,.25-1.37,1.19,1.19,0,0,0-.68-.92,1,1,0,0,0-1,0,7.26,7.26,0,0,0-1.45,1.47,9.31,9.31,0,0,1-1.71,1.73,3.35,3.35,0,0,1-1.52.64,2.77,2.77,0,0,1-1.55-.32,2.9,2.9,0,0,1-1.63-2.2,5.3,5.3,0,0,1,.62-3.34,5.54,5.54,0,0,1,1.53-2,3.92,3.92,0,0,1,2-.89,3.17,3.17,0,0,1,1.93.29l-1.08,2.18a1.76,1.76,0,0,0-1.52,0,2.68,2.68,0,0,0-1.16,1.25,2.59,2.59,0,0,0-.33,1.52A1.16,1.16,0,0,0,164,129.19Z"/><path class="cls-1" d="M163.71,135.24a6.53,6.53,0,0,1,2,2.22,4.77,4.77,0,0,1,.61,2.65,5.2,5.2,0,0,1-1,2.62,4.89,4.89,0,0,1-3.3,2.17,5.69,5.69,0,0,1-4-1l-.49-.33a6.6,6.6,0,0,1-2.05-2.21,4.66,4.66,0,0,1-.61-2.63,5.22,5.22,0,0,1,1-2.64,4.89,4.89,0,0,1,3.46-2.2,6,6,0,0,1,4.24,1.25Zm-1.61,1.92a4.58,4.58,0,0,0-2.62-1,2.33,2.33,0,0,0-1.93,1.06,2.31,2.31,0,0,0-.32,2.19,5,5,0,0,0,2,2.24,4.45,4.45,0,0,0,2.61.94,2.45,2.45,0,0,0,2.26-3.21A4.9,4.9,0,0,0,162.1,137.16Z"/><path class="cls-1" d="M157.84,151.87l-1-.84a4,4,0,0,1-1.17,3.37c-1.61,1.68-3.38,1.61-5.33-.21l-5.31-5.1,1.73-1.81,5.21,5a2.32,2.32,0,0,0,1.45.76,2,2,0,0,0,1.41-.73,2.41,2.41,0,0,0,.57-2.58l-5.72-5.49,1.74-1.81,8,7.73Z"/><path class="cls-1" d="M112.77,173.14l2.81-.76-1.51-5.57,2.52-.68,3.91,14.48L115.41,182a6.16,6.16,0,0,1-4.17-.08A4.11,4.11,0,0,1,109,179a4.16,4.16,0,0,1,0-2.62,4.63,4.63,0,0,1,1.54-2l-4.88-5.15,0-.13,2.69-.73Zm3.36,1.27-2.59.7a3,3,0,0,0-1.82,1.18,2.32,2.32,0,0,0-.24,2,2.51,2.51,0,0,0,1.15,1.62,3,3,0,0,0,2.15.12l2.66-.72Z"/><path class="cls-1" d="M98.67,169.62a5.19,5.19,0,0,1,4,1.09,5.44,5.44,0,0,1,1.89,3.82l0,.31a6.55,6.55,0,0,1-.33,3,4.89,4.89,0,0,1-1.59,2.22,4.73,4.73,0,0,1-2.5,1A4.35,4.35,0,0,1,96.51,180a6.1,6.1,0,0,1-1.66-4l-.11-1,7.25-.76a3.37,3.37,0,0,0-1.15-2.08,2.77,2.77,0,0,0-2.11-.58,3.38,3.38,0,0,0-2.64,1.67l-1.47-1.14a4.45,4.45,0,0,1,1.61-1.73A5.73,5.73,0,0,1,98.67,169.62Zm1.29,9.47a2.12,2.12,0,0,0,1.58-.89,3.66,3.66,0,0,0,.59-2.08l-4.74.49,0,.19a3.06,3.06,0,0,0,.86,1.82A2.1,2.1,0,0,0,100,179.09Z"/><path class="cls-1" d="M85.11,170a3.89,3.89,0,0,1,.24,1.05A4.23,4.23,0,0,1,91,171a3.08,3.08,0,0,1,1,2.42,3.15,3.15,0,0,1-1.44,2.67,6.39,6.39,0,0,1-3.82.79l-1.54-.07,0,.73a2,2,0,0,0,.42,1.41,1.93,1.93,0,0,0,1.45.58,2.16,2.16,0,0,0,1.42-.36,1.3,1.3,0,0,0,.59-1.07l2.51.11a2.8,2.8,0,0,1-.69,1.69,3.92,3.92,0,0,1-1.7,1.18,5.81,5.81,0,0,1-2.35.35,4.7,4.7,0,0,1-3.08-1.12,3.5,3.5,0,0,1-1.07-2.81l.22-5a5.81,5.81,0,0,0-.32-2.41v-.18ZM87.78,172a2.85,2.85,0,0,0-1.41.3,2.39,2.39,0,0,0-1,.93l-.09,2.1,1.35.06a3.62,3.62,0,0,0,2.11-.4,1.56,1.56,0,0,0,.76-1.33,1.45,1.45,0,0,0-.43-1.17A1.89,1.89,0,0,0,87.78,172Z"/><path class="cls-1" d="M73.12,171.35a1.12,1.12,0,0,0,.35,1.11,5.73,5.73,0,0,0,1.68.95,9.52,9.52,0,0,1,2,1.07,2.85,2.85,0,0,1,1.35,2.93,3,3,0,0,1-1.65,2.14,4.79,4.79,0,0,1-3.22.37,5,5,0,0,1-3-1.58,3.13,3.13,0,0,1-.72-2.75l2.46.47a1.55,1.55,0,0,0,.3,1.28,2,2,0,0,0,1.3.74,2.3,2.3,0,0,0,1.4-.12,1.23,1.23,0,0,0,.7-.91,1,1,0,0,0-.31-1,6.5,6.5,0,0,0-1.8-1,9.26,9.26,0,0,1-2.12-1.2,3.1,3.1,0,0,1-1-1.29,2.73,2.73,0,0,1-.12-1.57,2.93,2.93,0,0,1,1.69-2.16,5.36,5.36,0,0,1,3.38-.3,5.73,5.73,0,0,1,2.31.95,4,4,0,0,1,1.38,1.65,3.19,3.19,0,0,1,.23,1.94l-2.38-.46a1.8,1.8,0,0,0-.4-1.46,2.64,2.64,0,0,0-1.52-.78,2.51,2.51,0,0,0-1.55.08A1.18,1.18,0,0,0,73.12,171.35Z"/><path class="cls-1" d="M67.21,172.72a6.53,6.53,0,0,1-1.6,2.57,4.73,4.73,0,0,1-2.39,1.29,5.15,5.15,0,0,1-2.78-.24,4.88,4.88,0,0,1-3-2.59,5.79,5.79,0,0,1-.14-4.14l.19-.56a6.54,6.54,0,0,1,1.58-2.56,4.63,4.63,0,0,1,2.38-1.29,5.27,5.27,0,0,1,2.81.24,4.84,4.84,0,0,1,3,2.75,6,6,0,0,1-.07,4.42Zm-2.28-1a4.49,4.49,0,0,0,.23-2.77,2.28,2.28,0,0,0-1.54-1.58,2.25,2.25,0,0,0-2.19.27,4.91,4.91,0,0,0-1.63,2.49,4.47,4.47,0,0,0-.22,2.77,2.34,2.34,0,0,0,1.53,1.59,2.31,2.31,0,0,0,2.16-.27A4.9,4.9,0,0,0,64.93,171.68Z"/><path class="cls-1" d="M49.6,171.48l.55-1.17a4,4,0,0,1-3.56-.23c-2-1.11-2.45-2.84-1.21-5.2l3.51-6.47,2.2,1.19L47.65,166a2.26,2.26,0,0,0-.35,1.6,1.9,1.9,0,0,0,1.07,1.16,2.42,2.42,0,0,0,2.64-.13l3.79-7,2.2,1.2-5.33,9.79Z"/><path class="cls-1" d="M22.4,141.59l1.75,2.32,4.61-3.47,1.56,2.08-12,9-3.17-4.21a6.1,6.1,0,0,1-1.48-3.9,4.13,4.13,0,0,1,1.84-3.16,4.25,4.25,0,0,1,2.45-.94,4.66,4.66,0,0,1,2.47.68l3-6.45.11-.08,1.68,2.23Zm.07,3.59L20.86,143a3,3,0,0,0-1.77-1.25,2.32,2.32,0,0,0-1.9.51A2.48,2.48,0,0,0,16.11,144a2.86,2.86,0,0,0,.69,2l1.65,2.2Z"/><path class="cls-1" d="M20.39,127.18a5.19,5.19,0,0,1,.48,4.11A5.46,5.46,0,0,1,18,134.46l-.28.14a6.67,6.67,0,0,1-2.93.83,4.91,4.91,0,0,1-2.66-.65,4.86,4.86,0,0,1-1.86-1.95A4.37,4.37,0,0,1,9.94,129,6.13,6.13,0,0,1,13,126l.89-.47,3.4,6.44a3.36,3.36,0,0,0,1.5-1.83,2.75,2.75,0,0,0-.23-2.18A3.44,3.44,0,0,0,16,126.15l.51-1.79a4.53,4.53,0,0,1,2.2.85A5.65,5.65,0,0,1,20.39,127.18Zm-8.31,4.72A2.08,2.08,0,0,0,13.5,133a3.69,3.69,0,0,0,2.15-.22l-2.22-4.22-.17.09a3.08,3.08,0,0,0-1.37,1.48A2.13,2.13,0,0,0,12.08,131.9Z"/><path class="cls-1" d="M15,114.76a3.74,3.74,0,0,1-.88.62,4.21,4.21,0,0,1,2.14,5.25,3.07,3.07,0,0,1-1.89,1.79,3.18,3.18,0,0,1-3-.35,6.4,6.4,0,0,1-2.15-3.26l-.5-1.45L8,117.6a1.94,1.94,0,0,0-1.15.92,1.9,1.9,0,0,0,0,1.56,2.21,2.21,0,0,0,.87,1.18,1.33,1.33,0,0,0,1.2.16l.83,2.36a2.77,2.77,0,0,1-1.82,0,4.08,4.08,0,0,1-1.73-1.15A6,6,0,0,1,5,120.57a4.69,4.69,0,0,1-.1-3.27,3.54,3.54,0,0,1,2.22-2l4.75-1.66A5.79,5.79,0,0,0,14,112.41l.16-.06Zm-.79,3.2a2.79,2.79,0,0,0-.8-1.2,2.34,2.34,0,0,0-1.24-.61l-2,.69.45,1.27a3.74,3.74,0,0,0,1.15,1.82,1.58,1.58,0,0,0,1.52.21,1.51,1.51,0,0,0,.93-.83A1.85,1.85,0,0,0,14.19,118Z"/><path class="cls-1" d="M9.33,104.12a1.15,1.15,0,0,0-.9.73,5.82,5.82,0,0,0-.26,1.92A9.75,9.75,0,0,1,7.9,109a2.83,2.83,0,0,1-2.23,2.33,3,3,0,0,1-2.6-.74,4.89,4.89,0,0,1-1.53-2.86,5,5,0,0,1,.37-3.35,3.14,3.14,0,0,1,2.29-1.69l.47,2.46a1.56,1.56,0,0,0-1.08.75,2,2,0,0,0-.2,1.48A2.21,2.21,0,0,0,4,108.62a1.19,1.19,0,0,0,1.1.32,1,1,0,0,0,.79-.64,6.64,6.64,0,0,0,.27-2,9.33,9.33,0,0,1,.32-2.42,3.32,3.32,0,0,1,.83-1.43,2.74,2.74,0,0,1,1.42-.68,2.9,2.9,0,0,1,2.63.77,5.33,5.33,0,0,1,1.52,3,5.77,5.77,0,0,1,0,2.49,4,4,0,0,1-1,1.9,3.18,3.18,0,0,1-1.72.93l-.45-2.39a1.72,1.72,0,0,0,1.21-.91,2.62,2.62,0,0,0,.17-1.7,2.58,2.58,0,0,0-.65-1.41A1.2,1.2,0,0,0,9.33,104.12Z"/><path class="cls-1" d="M5.87,99.11a6.43,6.43,0,0,1-3-.53A4.74,4.74,0,0,1,.81,96.83,5.12,5.12,0,0,1,0,94.16a4.9,4.9,0,0,1,1.32-3.71,5.69,5.69,0,0,1,3.79-1.67l.59,0a6.7,6.7,0,0,1,3,.52A4.65,4.65,0,0,1,10.74,91a5.08,5.08,0,0,1,.82,2.69,4.83,4.83,0,0,1-1.43,3.83A6,6,0,0,1,6,99.11ZM6,96.6a4.45,4.45,0,0,0,2.66-.81,2.48,2.48,0,0,0-.16-4,5,5,0,0,0-2.92-.59,4.4,4.4,0,0,0-2.65.83A2.43,2.43,0,0,0,3.06,96,4.85,4.85,0,0,0,6,96.6Z"/><path class="cls-1" d="M.49,82.33l1.29.08A4,4,0,0,1,.67,79C.94,76.71,2.39,75.69,5,76l7.32.85-.29,2.49-7.18-.83a2.32,2.32,0,0,0-1.61.27,2,2,0,0,0-.68,1.43,2.4,2.4,0,0,0,1.1,2.4l7.88.91L11.29,86,.22,84.68Z"/></g></g></svg>