<svg xmlns="http://www.w3.org/2000/svg" viewBox="0 0 185.72 184.61"><defs><style>.cls-1{fill:#4a627f;}</style></defs><g id="Layer_2" data-name="Layer 2"><g id="Layer_1-2" data-name="Layer 1"><path class="cls-1" d="M21.83,40.83l4.4,3.4L24.64,46.3,12.77,37.12l3.51-4.54a5.82,5.82,0,0,1,3.48-2.36,4.4,4.4,0,0,1,3.64,1,4.23,4.23,0,0,1,1.83,3.25,6.09,6.09,0,0,1-1.5,4Zm-1.66-1.28,1.91-2.48A3.07,3.07,0,0,0,22.86,35a2.38,2.38,0,0,0-1.05-1.74,2.63,2.63,0,0,0-2-.6A2.87,2.87,0,0,0,18,33.81l-2,2.54Z"/><path class="cls-1" d="M37,32.47A5.18,5.18,0,0,1,33.15,34a5.45,5.45,0,0,1-3.81-1.91l-.21-.22a6.69,6.69,0,0,1-1.56-2.62,4.89,4.89,0,0,1-.08-2.73,4.79,4.79,0,0,1,1.4-2.31,4.41,4.41,0,0,1,3.56-1.34A6.12,6.12,0,0,1,36.17,25l.69.73-5.33,5a3.35,3.35,0,0,0,2.17,1,2.71,2.71,0,0,0,2-.8A3.37,3.37,0,0,0,36.83,28l1.87,0a4.51,4.51,0,0,1-.25,2.35A5.51,5.51,0,0,1,37,32.47ZM30.25,25.7a2.1,2.1,0,0,0-.72,1.66,3.75,3.75,0,0,0,.78,2l3.49-3.26L33.67,26a3,3,0,0,0-1.79-.93A2.06,2.06,0,0,0,30.25,25.7Z"/><path class="cls-1" d="M41.71,17.19a4.94,4.94,0,0,0-.87.53,2.3,2.3,0,0,0-1.11,2.42l4.47,6.18-2,1.47-6.53-9,1.93-1.4.79,1a2.81,2.81,0,0,1,1.18-2.65,2.21,2.21,0,0,1,.8-.4Z"/><path class="cls-1" d="M49.54,22.77l-4.65-8-1.47.85L42.49,14,44,13.11l-.51-.88a3.8,3.8,0,0,1-.54-3,4,4,0,0,1,2-2.32,5.79,5.79,0,0,1,1.31-.54l.92,1.73a5.37,5.37,0,0,0-.87.4,1.62,1.62,0,0,0-.63,2.5l.5.85,2-1.13L49,12.34l-2,1.13,4.65,8Z"/><path class="cls-1" d="M53.17,14.17a6.62,6.62,0,0,1-.53-3,4.83,4.83,0,0,1,.91-2.56A5.15,5.15,0,0,1,55.78,7a4.84,4.84,0,0,1,3.94-.06,5.77,5.77,0,0,1,2.88,3l.23.54a6.66,6.66,0,0,1,.54,3,4.73,4.73,0,0,1-.9,2.55,5.26,5.26,0,0,1-2.25,1.7,4.83,4.83,0,0,1-4.09,0,6,6,0,0,1-2.91-3.33Zm2.4-.76a4.49,4.49,0,0,0,1.69,2.22,2.31,2.31,0,0,0,2.2.14A2.27,2.27,0,0,0,60.9,14.1a4.94,4.94,0,0,0-.46-2.94A4.41,4.41,0,0,0,58.75,9a2.32,2.32,0,0,0-2.2-.16,2.29,2.29,0,0,0-1.43,1.65A4.78,4.78,0,0,0,55.57,13.41Z"/><path class="cls-1" d="M70.83,4.69a6.13,6.13,0,0,0-1,.18,2.29,2.29,0,0,0-1.89,1.88l2,7.36-2.42.65L64.59,4l2.31-.62.38,1.18a2.84,2.84,0,0,1,2-2,2.32,2.32,0,0,1,.9-.1Z"/><path class="cls-1" d="M76.33,1.19l.18,1.15A4,4,0,0,1,79.58.66a3.09,3.09,0,0,1,3.21,1.4A4,4,0,0,1,86,0a3.46,3.46,0,0,1,2.83.75,4.46,4.46,0,0,1,1.21,2.9L90.79,11l-2.5.25L87.59,4A2.23,2.23,0,0,0,87,2.49a2,2,0,0,0-1.57-.34,2.11,2.11,0,0,0-1.35.59A2.39,2.39,0,0,0,83.42,4l.75,7.61-2.49.24L81,4.56A1.78,1.78,0,0,0,78.77,2.8a2.2,2.2,0,0,0-2,1.43l.79,8-2.49.24L74,1.42Z"/><path class="cls-1" d="M100.32,11.92a3.88,3.88,0,0,1-.19-1.06,3.9,3.9,0,0,1-3,1,4,4,0,0,1-2.64-1.22,3.07,3.07,0,0,1-.83-2.46,3.14,3.14,0,0,1,1.58-2.59A6.44,6.44,0,0,1,99.07,5l1.53.15.06-.73A1.91,1.91,0,0,0,100.31,3,1.89,1.89,0,0,0,98.9,2.3a2.18,2.18,0,0,0-1.44.29,1.36,1.36,0,0,0-.65,1l-2.49-.23a2.75,2.75,0,0,1,.77-1.65A3.91,3.91,0,0,1,96.85.65,5.75,5.75,0,0,1,99.22.41a4.68,4.68,0,0,1,3,1.28,3.52,3.52,0,0,1,.93,2.87l-.47,5a5.68,5.68,0,0,0,.19,2.43v.18ZM97.75,9.87a2.81,2.81,0,0,0,1.43-.23,2.49,2.49,0,0,0,1.07-.87l.2-2.09L99.1,6.55A3.61,3.61,0,0,0,97,6.84a1.54,1.54,0,0,0-.83,1.29,1.45,1.45,0,0,0,.37,1.19A1.82,1.82,0,0,0,97.75,9.87Z"/><path class="cls-1" d="M110.48,2.4l-.24,1.26A4,4,0,0,1,113.75,3q3.38.86,2.46,4.73l-1.8,7.15L112,14.27l1.77-7a2.34,2.34,0,0,0-.06-1.64,1.94,1.94,0,0,0-1.33-.86,2.43,2.43,0,0,0-2.52.78l-1.94,7.69-2.43-.61L108.2,1.82Z"/><path class="cls-1" d="M122.2,16a2.26,2.26,0,0,0,1.65.09,1.85,1.85,0,0,0,1.13-1l2.17.92a3.64,3.64,0,0,1-1.35,1.54,4.35,4.35,0,0,1-2.07.68,5,5,0,0,1-2.27-.39A4.75,4.75,0,0,1,118.62,15a6,6,0,0,1,.36-4.39l.1-.24a5.9,5.9,0,0,1,2.83-3.23,4.69,4.69,0,0,1,4,0,4.56,4.56,0,0,1,2.54,2.32,4.16,4.16,0,0,1,0,3.32l-2.17-.92a2.27,2.27,0,0,0,0-1.7A2.08,2.08,0,0,0,125.12,9a2.22,2.22,0,0,0-2.07.09,4.53,4.53,0,0,0-1.65,2.2l-.15.37a4.6,4.6,0,0,0-.45,2.75A2.22,2.22,0,0,0,122.2,16Z"/><path class="cls-1" d="M131.94,23.26A5.2,5.2,0,0,1,129.41,20a5.46,5.46,0,0,1,.8-4.18l.16-.27a6.8,6.8,0,0,1,2.1-2.22,5,5,0,0,1,2.6-.81,4.73,4.73,0,0,1,2.61.72,4.34,4.34,0,0,1,2.25,3.06,6.15,6.15,0,0,1-1.06,4.16l-.52.87-6.24-3.77a3.36,3.36,0,0,0-.34,2.34,2.78,2.78,0,0,0,1.33,1.74,3.36,3.36,0,0,0,3.11.26l.49,1.8a4.49,4.49,0,0,1-2.33.41A5.68,5.68,0,0,1,131.94,23.26Zm4.69-8.33a2.11,2.11,0,0,0-1.8-.24A3.66,3.66,0,0,0,133.1,16l4.08,2.47.09-.16a3.08,3.08,0,0,0,.42-2A2.12,2.12,0,0,0,136.63,14.93Z"/><path class="cls-1" d="M164.36,48.61l-4.92,2.61-1.22-2.3,13.25-7L174.16,47a5.77,5.77,0,0,1,.71,4.14A4.4,4.4,0,0,1,172.5,54a4.25,4.25,0,0,1-3.71.33,6,6,0,0,1-3-3Zm1.85-1,1.47,2.77A3.09,3.09,0,0,0,169.25,52a2.44,2.44,0,0,0,2-.24,2.56,2.56,0,0,0,1.37-1.57,2.85,2.85,0,0,0-.29-2.15l-1.5-2.83Z"/><path class="cls-1" d="M165.7,65.88a5.16,5.16,0,0,1,.19-4.13,5.42,5.42,0,0,1,3.31-2.68l.29-.1a6.9,6.9,0,0,1,3-.34A4.93,4.93,0,0,1,175,59.69a4.77,4.77,0,0,1,1.52,2.23,4.37,4.37,0,0,1-.25,3.8,6.2,6.2,0,0,1-3.5,2.49l-1,.32-2.32-6.9a3.31,3.31,0,0,0-1.78,1.57,2.78,2.78,0,0,0-.11,2.18,3.35,3.35,0,0,0,2.21,2.21l-.79,1.69a4.54,4.54,0,0,1-2-1.2A5.58,5.58,0,0,1,165.7,65.88Zm9-3.33a2.09,2.09,0,0,0-1.22-1.34,3.73,3.73,0,0,0-2.16-.13l1.52,4.52.18-.06a3,3,0,0,0,1.58-1.24A2.07,2.07,0,0,0,174.66,62.55Z"/><path class="cls-1" d="M177.65,76.45a6.15,6.15,0,0,0-.12-1,2.28,2.28,0,0,0-1.75-2l-7.48,1.51-.49-2.45,10.92-2.22.48,2.34-1.21.31a2.82,2.82,0,0,1,1.92,2.18,2.52,2.52,0,0,1,0,.89Z"/><path class="cls-1" d="M169.35,81.33l9.24-.93-.16-1.69,1.84-.18.17,1.69,1-.1a3.8,3.8,0,0,1,3,.74,3.91,3.91,0,0,1,1.29,2.77,5.68,5.68,0,0,1,0,1.41l-2,.13a5.18,5.18,0,0,0,0-1,1.61,1.61,0,0,0-2-1.6l-1,.1.22,2.25-1.84.19-.23-2.26-9.24.93Z"/><path class="cls-1" d="M175.69,88.14a6.61,6.61,0,0,1,2.93.74,4.73,4.73,0,0,1,2,1.89,5.18,5.18,0,0,1,.62,2.72,4.83,4.83,0,0,1-1.56,3.61,5.74,5.74,0,0,1-3.9,1.41h-.59a6.84,6.84,0,0,1-2.92-.72,4.74,4.74,0,0,1-2-1.88,5.07,5.07,0,0,1-.62-2.74,4.82,4.82,0,0,1,1.68-3.73,6.06,6.06,0,0,1,4.23-1.29Zm-.29,2.5a4.53,4.53,0,0,0-2.71.63,2.47,2.47,0,0,0-.11,4,5,5,0,0,0,2.88.79,4.45,4.45,0,0,0,2.7-.64,2.32,2.32,0,0,0,1-2,2.29,2.29,0,0,0-.91-2A4.9,4.9,0,0,0,175.4,90.64Z"/><path class="cls-1" d="M177.09,108.17a7.69,7.69,0,0,0,.24-1,2.31,2.31,0,0,0-.93-2.5l-7.53-1.22.4-2.47,11,1.79-.38,2.36-1.25-.14a2.8,2.8,0,0,1,1,2.71,2.23,2.23,0,0,1-.29.85Z"/><path class="cls-1" d="M178,114.61l-1.13-.31a4,4,0,0,1,.26,3.49,3.07,3.07,0,0,1-2.61,2.34,4,4,0,0,1,.52,3.79,3.47,3.47,0,0,1-1.86,2.27,4.45,4.45,0,0,1-3.14-.1l-6.93-2.36.8-2.37,6.87,2.34a2.18,2.18,0,0,0,1.62.06,2,2,0,0,0,1-1.29,2.07,2.07,0,0,0,0-1.47,2.36,2.36,0,0,0-.89-1.1l-7.24-2.46.81-2.37,6.94,2.37a1.79,1.79,0,0,0,2.52-1.27,2.2,2.2,0,0,0-.48-2.41l-7.64-2.61.81-2.37,10.55,3.6Z"/><path class="cls-1" d="M158.29,132a4.1,4.1,0,0,1,1.05.26,3.87,3.87,0,0,1,.37-3.15,3.94,3.94,0,0,1,2.2-1.91,3.08,3.08,0,0,1,2.58.26,3.19,3.19,0,0,1,1.72,2.51,6.41,6.41,0,0,1-1.06,3.76l-.76,1.33.63.37a2,2,0,0,0,1.44.26,1.88,1.88,0,0,0,1.19-1,2.22,2.22,0,0,0,.32-1.43,1.32,1.32,0,0,0-.67-1l1.25-2.17a2.74,2.74,0,0,1,1.18,1.38,4.11,4.11,0,0,1,.27,2.06,5.91,5.91,0,0,1-.77,2.25,4.69,4.69,0,0,1-2.41,2.22,3.54,3.54,0,0,1-3-.34l-4.36-2.5a5.66,5.66,0,0,0-2.3-.83l-.15-.09Zm2.94-1.49a2.83,2.83,0,0,0-.39,1.39,2.39,2.39,0,0,0,.35,1.33l1.83,1,.67-1.17a3.7,3.7,0,0,0,.62-2.06,1.6,1.6,0,0,0-.84-1.29,1.45,1.45,0,0,0-1.24-.15A1.8,1.8,0,0,0,161.23,130.55Z"/><path class="cls-1" d="M162.78,145.22l-1.05-.74a4,4,0,0,1-.85,3.47c-1.44,1.81-3.22,1.91-5.32.29l-5.77-4.58,1.56-2,5.65,4.49a2.3,2.3,0,0,0,1.52.62,1.93,1.93,0,0,0,1.33-.86,2.4,2.4,0,0,0,.33-2.62L154,138.4l1.55-2,8.73,6.93Z"/><path class="cls-1" d="M145.58,150.3a2.3,2.3,0,0,0-.76,1.46,1.86,1.86,0,0,0,.44,1.44l-1.73,1.61a3.7,3.7,0,0,1-.85-1.86,4.28,4.28,0,0,1,.23-2.17,4.94,4.94,0,0,1,1.29-1.92,4.74,4.74,0,0,1,3.74-1.42,6,6,0,0,1,3.86,2.12l.17.19a5.9,5.9,0,0,1,1.79,3.91,4.73,4.73,0,0,1-1.67,3.65,4.57,4.57,0,0,1-3.16,1.36,4.14,4.14,0,0,1-3-1.33l1.73-1.61a2.26,2.26,0,0,0,1.55.71,2.11,2.11,0,0,0,1.56-.61,2.2,2.2,0,0,0,.77-1.93,4.42,4.42,0,0,0-1.33-2.41l-.27-.29a4.49,4.49,0,0,0-2.33-1.53A2.2,2.2,0,0,0,145.58,150.3Z"/><path class="cls-1" d="M135,156.21a5.18,5.18,0,0,1,4-1,5.5,5.5,0,0,1,3.49,2.46l.17.25a6.7,6.7,0,0,1,1.16,2.82,5,5,0,0,1-.33,2.71,4.82,4.82,0,0,1-1.73,2.08,4.36,4.36,0,0,1-3.72.79,6.08,6.08,0,0,1-3.35-2.68l-.57-.83,6-4.13a3.37,3.37,0,0,0-2-1.28,2.8,2.8,0,0,0-2.13.49,3.39,3.39,0,0,0-1.52,2.74l-1.84-.3a4.57,4.57,0,0,1,.59-2.29A5.58,5.58,0,0,1,135,156.21Zm5.66,7.7a2.15,2.15,0,0,0,1-1.54,3.81,3.81,0,0,0-.47-2.12L137.16,163l.11.15a3,3,0,0,0,1.63,1.19A2.12,2.12,0,0,0,140.61,163.91Z"/><path class="cls-1" d="M79.28,174.88l.91-5.49,2.57.42-2.45,14.8-5.67-.94a5.79,5.79,0,0,1-3.72-1.94,4.38,4.38,0,0,1-.89-3.66,4.25,4.25,0,0,1,2-3.15,6,6,0,0,1,4.2-.55ZM78.93,177l-3.09-.51a3.1,3.1,0,0,0-2.2.3,2.42,2.42,0,0,0-1,1.74,2.61,2.61,0,0,0,.42,2,2.83,2.83,0,0,0,1.89,1.07l3.16.52Z"/><path class="cls-1" d="M64.74,165.48a5.16,5.16,0,0,1,3.17,2.66,5.45,5.45,0,0,1,.12,4.25l-.1.29a6.65,6.65,0,0,1-1.57,2.62,4.8,4.8,0,0,1-5.06,1.22A4.39,4.39,0,0,1,58.43,174a6.15,6.15,0,0,1,.15-4.29l.32-.95,6.9,2.33a3.35,3.35,0,0,0-.17-2.36A2.82,2.82,0,0,0,64,167.32a3.43,3.43,0,0,0-3.1.42L60,166.09a4.53,4.53,0,0,1,2.19-.9A5.72,5.72,0,0,1,64.74,165.48ZM62,174.62a2.11,2.11,0,0,0,1.81-.15,3.69,3.69,0,0,0,1.41-1.64l-4.52-1.53,0,.17a3.06,3.06,0,0,0,0,2A2.09,2.09,0,0,0,62,174.62Z"/><path class="cls-1" d="M49,168.55a6.37,6.37,0,0,0,.88.52,2.31,2.31,0,0,0,2.66-.17L55.91,162l2.26,1.09-4.87,10-2.15-1,.48-1.15a2.84,2.84,0,0,1-2.89.21,2.46,2.46,0,0,1-.74-.52Z"/><path class="cls-1" d="M50.23,159l-4.89,7.9,1.45.9-1,1.57-1.44-.89-.54.87a3.81,3.81,0,0,1-2.38,1.89,3.93,3.93,0,0,1-3-.66,5.76,5.76,0,0,1-1.09-.89l1.08-1.63a5.13,5.13,0,0,0,.77.57,1.61,1.61,0,0,0,2.5-.62l.52-.85L40.31,166l1-1.57,1.93,1.19,4.89-7.91Z"/><path class="cls-1" d="M41,159.89a6.48,6.48,0,0,1-2.37,1.88,4.7,4.7,0,0,1-2.69.42A5.1,5.1,0,0,1,33.36,161a4.8,4.8,0,0,1-1.92-3.43,5.69,5.69,0,0,1,1.25-3.95l.36-.46a6.51,6.51,0,0,1,2.35-1.89,4.65,4.65,0,0,1,2.68-.42,5.22,5.22,0,0,1,2.56,1.17,4.82,4.82,0,0,1,1.94,3.6A6,6,0,0,1,41,159.8Zm-1.81-1.75a4.49,4.49,0,0,0,1.15-2.54,2.48,2.48,0,0,0-3.08-2.48,5,5,0,0,0-2.37,1.81,4.44,4.44,0,0,0-1.13,2.53,2.33,2.33,0,0,0,.91,2,2.3,2.3,0,0,0,2.12.47A4.79,4.79,0,0,0,39.15,158.14Z"/><path class="cls-1" d="M24.22,148.88a6.8,6.8,0,0,0,.64.8,2.29,2.29,0,0,0,2.55.77l5.53-5.25L34.67,147l-8.09,7.67L24.94,153l.86-.9a2.85,2.85,0,0,1-2.79-.83,2.36,2.36,0,0,1-.5-.74Z"/><path class="cls-1" d="M18.51,145.69l.93-.71a4,4,0,0,1-2.93-1.91,3.08,3.08,0,0,1-.29-3.49,4,4,0,0,1-3.32-1.89,3.46,3.46,0,0,1-.69-2.85,4.5,4.5,0,0,1,2-2.44l6.08-4.08,1.39,2.08-6,4a2.18,2.18,0,0,0-1,1.25,2.06,2.06,0,0,0,.44,1.55,2.1,2.1,0,0,0,1.16.91,2.46,2.46,0,0,0,1.42,0L24,133.84l1.4,2.08L19.29,140a1.8,1.8,0,0,0-.52,2.77A2.23,2.23,0,0,0,21,143.86l6.71-4.51,1.39,2.08-9.25,6.22Z"/><path class="cls-1" d="M16.61,119.46a4.52,4.52,0,0,1-.85.67,4.21,4.21,0,0,1,2.46,5.11,3,3,0,0,1-1.77,1.89,3.17,3.17,0,0,1-3-.15,6.43,6.43,0,0,1-2.34-3.13l-.6-1.41-.67.28a2,2,0,0,0-1.09,1,1.92,1.92,0,0,0,.09,1.56,2.16,2.16,0,0,0,.94,1.12,1.3,1.3,0,0,0,1.21.08l1,2.31a2.79,2.79,0,0,1-1.81.11,4.14,4.14,0,0,1-1.8-1,5.82,5.82,0,0,1-1.32-2,4.68,4.68,0,0,1-.31-3.26,3.52,3.52,0,0,1,2.09-2.17l4.64-2a5.71,5.71,0,0,0,2-1.32l.17-.07Zm-.6,3.23a2.89,2.89,0,0,0-.87-1.15,2.53,2.53,0,0,0-1.28-.53l-1.93.82.52,1.24a3.63,3.63,0,0,0,1.26,1.74,1.55,1.55,0,0,0,1.53.12,1.47,1.47,0,0,0,.87-.89A1.84,1.84,0,0,0,16,122.69Z"/><path class="cls-1" d="M3.41,115l1.23-.39a4,4,0,0,1-2.24-2.78q-.85-3.37,3-4.41l7.15-1.8.61,2.43-7,1.76a2.33,2.33,0,0,0-1.41.83,1.91,1.91,0,0,0-.13,1.58,2.4,2.4,0,0,0,1.88,1.85l7.69-1.93.61,2.43L4,117.31Z"/><path class="cls-1" d="M9.81,98.26a2.25,2.25,0,0,0-.69-1.49,1.89,1.89,0,0,0-1.41-.53L7.48,93.9a3.71,3.71,0,0,1,2,.45,4.28,4.28,0,0,1,1.58,1.5A4.94,4.94,0,0,1,11.8,98a4.76,4.76,0,0,1-1.14,3.84,6,6,0,0,1-4,1.78l-.26,0a6,6,0,0,1-4.19-1A4.73,4.73,0,0,1,.3,99.19a4.52,4.52,0,0,1,.83-3.34A4.12,4.12,0,0,1,4,94.24l.23,2.35a2.31,2.31,0,0,0-1.5.8A2.09,2.09,0,0,0,2.3,99a2.21,2.21,0,0,0,1.06,1.78,4.52,4.52,0,0,0,2.73.4l.39,0a4.59,4.59,0,0,0,2.63-.92A2.2,2.2,0,0,0,9.81,98.26Z"/><path class="cls-1" d="M11.57,86.25A5.16,5.16,0,0,1,9.88,90a5.42,5.42,0,0,1-4.06,1.29l-.31,0a6.61,6.61,0,0,1-2.94-.79,4.85,4.85,0,0,1-2-1.9A4.75,4.75,0,0,1,0,86a4.34,4.34,0,0,1,1.62-3.44,6.11,6.11,0,0,1,4.16-1l1,0-.35,7.28A3.34,3.34,0,0,0,8.68,88a2.75,2.75,0,0,0,.9-2,3.41,3.41,0,0,0-1.26-2.87l1.36-1.28a4.55,4.55,0,0,1,1.46,1.86A5.68,5.68,0,0,1,11.57,86.25ZM2,86.09a2.1,2.1,0,0,0,.64,1.69,3.73,3.73,0,0,0,2,.91l.23-4.76H4.67a3,3,0,0,0-1.94.57A2.14,2.14,0,0,0,2,86.09Z"/></g></g></svg>