<svg xmlns="http://www.w3.org/2000/svg" viewBox="0 0 374.95 66.23"><defs><style>.cls-1{fill:#fff;}</style></defs><g id="Layer_2" data-name="Layer 2"><g id="logo"><path class="cls-1" d="M12.16,60.34S-3.49,52,17.75,28.69l3.93-12.11s-35.58,31.9-9.52,43.76"/><path class="cls-1" d="M34.3,13.59l2.07,3.47s11.91-4.15,14.71,7c0,0,1.72,6.48-4.61,16.78,0,0,11.43-11.64,8.08-25.95,0,0-3.73-12-22.16-4.25Z"/><polygon class="cls-1" points="14.71 64.19 20.43 14.14 25.26 7.74 23.47 61.83 14.71 64.19"/><polygon class="cls-1" points="30.2 59.47 28.4 0 34.13 5.5 36.37 24.24 34.57 25.58 36.37 54.54 30.2 59.47"/><polygon class="cls-1" points="41.65 50.38 37.83 23 40.41 24.8 42.09 32.54 42.88 32.54 46.47 45 41.65 50.38"/><path class="cls-1" d="M.32,47.91S0,74.78,32.39,56.74c0,0,23.94-13,25-39,0,0,2,15.08-9.68,29.67-8.94,11.18-21.95,19.8-36.34,18.79S.32,47.91.32,47.91"/><path class="cls-1" d="M74.12,45.75c0,.22,0,.43,0,.61a1.86,1.86,0,0,0,0,.41c0,.29-.29.58-.74.87a2.81,2.81,0,0,1-1.49.43.81.81,0,0,1-.56-.19.54.54,0,0,1-.22-.43c.07-1.22.13-2.4.19-3.55s.09-2.65.11-4.51V27.53a45.42,45.42,0,0,0-.36-6.36l3.21,1.52H85.28l.61-.84.28-.37c.13-.16.24-.29.32-.37a.37.37,0,0,1,.24-.12,2.46,2.46,0,0,1,.84.54,13.51,13.51,0,0,1,1.24,1.15c.38.4.57.67.57.82a2.12,2.12,0,0,1-1.12.65V39.42c0,2.57.11,5,.23,7.29a3.22,3.22,0,0,1-1,.74,3.25,3.25,0,0,1-1.46.4c-.38,0-.56-.2-.56-.62l.11-1.18v-.89H74.12ZM85.53,33.29v-9.7H74.12v9.7Zm-11.41.9V44.26H85.53V34.19Z"/><path class="cls-1" d="M115.56,25.64c.12-.17.24-.37.38-.59a4.67,4.67,0,0,1,.35-.51c.09-.12.18-.18.25-.18a2.79,2.79,0,0,1,.89.64,14.55,14.55,0,0,1,1.37,1.35c.43.47.64.78.64.93-.07.33-.32.49-.75.49h-9.85a25.25,25.25,0,0,0,4.76,7.08,21.75,21.75,0,0,0,6.23,4.76l-.08.34a2.5,2.5,0,0,0-1.43.84,4.52,4.52,0,0,0-.92,1.79,21.52,21.52,0,0,1-5.39-6,33.65,33.65,0,0,1-3.72-8.76v13h1.5l.67-1.18.32-.53c.14-.22.25-.39.34-.51s.16-.17.23-.17.38.2.81.61a13.18,13.18,0,0,1,1.2,1.28,2.33,2.33,0,0,1,.56.9.65.65,0,0,1-.73.5h-4.9v1.89l0,1.17c0,.85.06,1.67.11,2.45-.07.27-.33.52-.79.75a3.28,3.28,0,0,1-1.44.34.71.71,0,0,1-.53-.19.62.62,0,0,1-.16-.43c.07-.93.14-2.19.19-3.78v-2.2h-1.76a15,15,0,0,0-3.23.43L100,40.54c1,.12,2.26.21,3.71.25h2V31.31a27.69,27.69,0,0,1-4.59,6.53,28.09,28.09,0,0,1-6.37,5l-.25-.4a27.72,27.72,0,0,0,5.63-6.55A36.31,36.31,0,0,0,104,27.77H99.42a25.42,25.42,0,0,0-4.19.44l-.72-1.58c1,.12,2.26.2,3.71.24h7.47V25.7a45.42,45.42,0,0,0-.36-6.36c1.43.4,2.42.7,3,.92s.8.41.8.57-.08.17-.25.31l-.55.41v5.32h6.49Z"/><path class="cls-1" d="M135.45,32.31a3.54,3.54,0,0,1,2.28,3.18,1.86,1.86,0,0,1-.32,1.13.94.94,0,0,1-.79.45c-.58,0-1.27-.55-2.09-1.64A16.52,16.52,0,0,0,132.45,33a8.66,8.66,0,0,0-2.3-1.58v.4c0,2.25,0,3.94,0,5.05,0,2.77.1,4.59.19,5.46a21.5,21.5,0,0,1,.25,2.29,2.86,2.86,0,0,1-.22,1.18,2,2,0,0,1-.56.76,1,1,0,0,1-.58.26c-.32,0-.62-.26-.91-.79a8,8,0,0,1-.7-1.81,7.19,7.19,0,0,1-.26-1.55c0-.15,0-.59.11-1.34.11-1.07.19-1.81.22-2.23,0-.62.07-1.44.1-2.46s.05-1.77.07-2.25l0-1.48q0-1,0-2.79V27.62a28.06,28.06,0,0,0-.14-3.47,2.1,2.1,0,0,0-.38-1.06,4.36,4.36,0,0,0-.82-.74,1.31,1.31,0,0,1-.24-.12c-.1-.07-.15-.13-.15-.19q0-.34.9-.6a5.49,5.49,0,0,1,1.47-.27,2.34,2.34,0,0,1,1.78.87,1.44,1.44,0,0,1,.36,1,3.76,3.76,0,0,1-.13.93,8.54,8.54,0,0,0-.31,1.6q-.09.82-.09,2.49l0,2.7A16.62,16.62,0,0,1,135.45,32.31Z"/><path class="cls-1" d="M146.8,36.62a2.22,2.22,0,0,1-.62-.39,4.37,4.37,0,0,1-1-1.14,2.79,2.79,0,0,1-.46-1.43,3.15,3.15,0,0,1,.19-1c.12-.38.26-.57.43-.57s.22.1.33.31a1.66,1.66,0,0,0,1,.84,9,9,0,0,0,2.32.25c.72,0,3.18-.11,7.36-.31,2.31-.13,4-.23,5.08-.31l1.56-.08c.61,0,1.12-.05,1.53-.05a6.35,6.35,0,0,1,2.12.3,1.13,1.13,0,0,1,.84,1.16,1.05,1.05,0,0,1-.56.91,3,3,0,0,1-1.45.42l-.53,0h-1.31c-.87,0-2,0-3.5.05s-2.79.07-4,.11-2.58.12-4.11.24a22.23,22.23,0,0,0-3.28.44l-.56.15a3.17,3.17,0,0,1-.81.16A1.7,1.7,0,0,1,146.8,36.62Z"/><path class="cls-1" d="M190.44,24.72a7.43,7.43,0,0,1,1.22,1.09,1.68,1.68,0,0,1,.54.94.74.74,0,0,1-.14.48,1.46,1.46,0,0,1-.47.33,4.85,4.85,0,0,0-.67.48,2,2,0,0,0-.53.72,48.41,48.41,0,0,1-3.85,6.17q2.4,2.2,2.4,3.94a2.05,2.05,0,0,1-.39,1.3,1.17,1.17,0,0,1-1,.49,1.12,1.12,0,0,1-.81-.4,3.82,3.82,0,0,1-.67-1c-.45-.91-.86-1.68-1.23-2.32a30.57,30.57,0,0,1-13.19,9,2.89,2.89,0,0,1-.53.13c-.15,0-.22,0-.22-.16s.06-.13.18-.21a3.89,3.89,0,0,1,.4-.25,31.83,31.83,0,0,0,6.64-4.68,42,42,0,0,0,5.36-5.92c-.45-.58-.91-1.11-1.37-1.6s-1-1-1.73-1.68l-.47-.47a.39.39,0,0,1-.17-.28c0-.08.05-.12.14-.12l.28.09a24.61,24.61,0,0,1,4.4,2.51,35.86,35.86,0,0,0,2.49-4.12,8.71,8.71,0,0,0,.94-2.29c0-.13,0-.2-.07-.24a.43.43,0,0,0-.23,0l-.56.09a15.38,15.38,0,0,1-2.85.34,5.52,5.52,0,0,1-1.92-.25,37.89,37.89,0,0,1-4.27,5.33,18.27,18.27,0,0,1-4.49,3.72,1.32,1.32,0,0,1-.36.13c-.13,0-.19-.06-.19-.16s.12-.26.36-.53a25.13,25.13,0,0,0,3-3.45,34.55,34.55,0,0,0,2.75-4.35,13.45,13.45,0,0,0,1.41-3.63,3.47,3.47,0,0,0,.08-.68c0-.81-.28-1.21-.84-1.21l-.23,0-.24,0c-.06,0-.08-.06-.08-.13s.17-.32.53-.48a2.38,2.38,0,0,1,.89-.23,3,3,0,0,1,1.38.47,7.22,7.22,0,0,1,1.45,1.06c.42.41.63.74.63,1a1.1,1.1,0,0,1-.25.56,5,5,0,0,0-.34.5,10,10,0,0,1-.53,1.05,2.12,2.12,0,0,0,.42,0,14.1,14.1,0,0,0,2.38-.26A12.38,12.38,0,0,0,187.9,25a2.69,2.69,0,0,0,.79-.47l.37-.22a.79.79,0,0,1,.35-.09A2,2,0,0,1,190.44,24.72Z"/><path class="cls-1" d="M195,44.88a.67.67,0,0,1,.28-.47,24.24,24.24,0,0,0,4.5-6.16,23.61,23.61,0,0,0,2.47-7.1,4.1,4.1,0,0,0,.14-1,2.15,2.15,0,0,0-.89-1.77c-.36-.25-.53-.41-.53-.49s.07-.18.21-.24a1.76,1.76,0,0,1,.57-.07,3.37,3.37,0,0,1,1.5.4A4.88,4.88,0,0,1,204.83,29a1.86,1.86,0,0,1,.62,1.18,2.07,2.07,0,0,1-.31.84,7.73,7.73,0,0,0-.59,1.48,19.06,19.06,0,0,1-2.23,5.15A23.08,23.08,0,0,1,199,42a18.64,18.64,0,0,1-3.57,2.89.77.77,0,0,1-.3.15C195,45,195,45,195,44.88Zm12.88-4.28a3.19,3.19,0,0,1-.72-1.64,1.1,1.1,0,0,1,.08-.43,6.74,6.74,0,0,0,.31-2.33V35.05q0-.73,0-1.14c0-.29,0-1.21.08-2.76,0-.74.06-1.24.06-1.49a3.21,3.21,0,0,0-.31-1.64,2.19,2.19,0,0,0-.85-.88c-.31-.16-.46-.27-.46-.33s.12-.27.38-.37a2.52,2.52,0,0,1,.93-.15,3.59,3.59,0,0,1,1.39.32,4.28,4.28,0,0,1,1.33.85,1.59,1.59,0,0,1,.54,1.15,2.13,2.13,0,0,1-.28.93,5.4,5.4,0,0,0-.53,1.67c-.11.77-.21,1.81-.29,3.13s-.12,2.27-.12,2.85c0,.31.08.47.25.47a6.24,6.24,0,0,0,2.13-.93,35.4,35.4,0,0,0,3.9-2.67,46.8,46.8,0,0,0,4.59-4c.26-.29.45-.44.56-.44s.11,0,.11.13a1.72,1.72,0,0,1-.36.74,29.05,29.05,0,0,1-4.65,5.62A70.62,70.62,0,0,1,210.07,41a1.26,1.26,0,0,1-.94.44A1.68,1.68,0,0,1,207.84,40.6Z"/><path class="cls-1" d="M224.52,45.84c0-.13.19-.3.56-.53a34.77,34.77,0,0,0,8.5-7,32.22,32.22,0,0,0,4.74-6.92,15,15,0,0,0,1.51-4.06.19.19,0,0,0-.22-.22c-.17,0-.93.12-2.28.34s-2.77.51-4.26.84a27.24,27.24,0,0,0-3.64,1,2.83,2.83,0,0,1-1.14.25,2.25,2.25,0,0,1-1.51-.59,4.62,4.62,0,0,1-1-1.5,3.87,3.87,0,0,1-.4-1.47c0-.23.07-.34.22-.34a1.63,1.63,0,0,1,.61.24,5.39,5.39,0,0,0,1.1.44,5,5,0,0,0,1,.09c.74,0,2.44-.12,5.1-.37a36.51,36.51,0,0,0,5-.68c.24-.09.56-.22,1-.41a3.77,3.77,0,0,1,1.28-.46,2.41,2.41,0,0,1,1.06.54,8.27,8.27,0,0,1,1.35,1.22,2,2,0,0,1,.6,1.12,1,1,0,0,1-.17.6,6.54,6.54,0,0,1-.55.73,7.65,7.65,0,0,0-1,1.52,29.85,29.85,0,0,1-4.22,7A24.85,24.85,0,0,1,232.3,42a48.43,48.43,0,0,1-7.11,3.81,1.45,1.45,0,0,1-.47.12C224.59,46,224.52,45.92,224.52,45.84Zm18.52-21a3.2,3.2,0,0,1,0-4.19,2.46,2.46,0,0,1,1.89-.85,2.43,2.43,0,0,1,1.89.87,3.21,3.21,0,0,1,0,4.17,2.47,2.47,0,0,1-1.87.85A2.49,2.49,0,0,1,243,24.85Zm3.2-.64a2.17,2.17,0,0,0,0-2.91,1.7,1.7,0,0,0-2.63,0,2.23,2.23,0,0,0,0,2.91,1.7,1.7,0,0,0,2.63,0Z"/><path class="cls-1" d="M266.51,27.18a9.32,9.32,0,0,1,1.38,1.18,1.87,1.87,0,0,1,.61,1.12.77.77,0,0,1-.18.45l-.41.48a5.2,5.2,0,0,0-.48.55,1.77,1.77,0,0,0-.27.53l-.5,2.26c-.62,2.73-1,4.31-1.09,4.74a2.9,2.9,0,0,1,1.14.56,1.16,1.16,0,0,1,.45.93c0,.5-.36.75-1.09.75a5.48,5.48,0,0,1-.65,0l-.85-.06c-1.6-.14-2.73-.21-3.38-.21a55.17,55.17,0,0,0-5.6.27,4.24,4.24,0,0,1-.31,1.62c-.19.41-.41.62-.67.62a1.29,1.29,0,0,1-1.2-1,5.51,5.51,0,0,1-.39-2.06V38.71c0-.74-.1-2.17-.29-4.27a28.91,28.91,0,0,0-.63-4.34,4.26,4.26,0,0,0-.58-1.44,2,2,0,0,0-1-.73l-.26-.06a.64.64,0,0,1-.2-.08.15.15,0,0,1-.07-.11c0-.12.18-.25.53-.37a3.7,3.7,0,0,1,1.12-.19,3.41,3.41,0,0,1,1.3.3,3.66,3.66,0,0,1,1.38,1.1l.08.15q8.67-.84,9.23-1a3.7,3.7,0,0,0,.84-.5,5.27,5.27,0,0,1,.56-.37.94.94,0,0,1,.47-.12A2.6,2.6,0,0,1,266.51,27.18Zm-7.1,11.53,3.79-.37a46.87,46.87,0,0,0,.93-5c.27-2,.41-3.09.41-3.4a.45.45,0,0,0-.17-.39,1.24,1.24,0,0,0-.61-.1c-.56,0-1.94.09-4.14.28s-3.87.38-5,.58l.08,1.06q.45,4,.76,7.74C256.39,39.05,257.7,38.92,259.41,38.71Z"/><path class="cls-1" d="M293.4,28a4.86,4.86,0,0,1,1.49.76,1.32,1.32,0,0,1,.63,1c0,.6-.35.9-1.06.9l-.92-.07a28.12,28.12,0,0,0-3-.18c-.93,0-1.84,0-2.74.09a5,5,0,0,1,1.2,1,1.48,1.48,0,0,1,.48.9.46.46,0,0,1-.1.29,1.15,1.15,0,0,1-.29.3,2,2,0,0,0-.56.8,27.29,27.29,0,0,1-2.4,5.21,21.57,21.57,0,0,1-4.06,5,17.87,17.87,0,0,1-5.75,3.58,1.38,1.38,0,0,1-.42.1c-.11,0-.17,0-.17-.1s.14-.21.42-.4A25,25,0,0,0,282.28,41,24.71,24.71,0,0,0,286,32.7a2.7,2.7,0,0,0,.11-.77,1.35,1.35,0,0,0-.64-1.12,12.72,12.72,0,0,0-2,.45c-.56.17-1.17.39-1.82.63-.41.17-.74.29-1,.38a2.46,2.46,0,0,1-.76.12,2.21,2.21,0,0,1-1.34-.59,5.14,5.14,0,0,1-1.21-1.38,2.59,2.59,0,0,1-.49-1.28.25.25,0,0,1,.05-.16.17.17,0,0,1,.11-.06.87.87,0,0,1,.37.15,3,3,0,0,0,.44.25,4.51,4.51,0,0,0,2.23.47c.77,0,2.3-.15,4.62-.44s3.95-.54,4.92-.77a5.77,5.77,0,0,0,1.68-.65,1.24,1.24,0,0,1,.64-.19A5.18,5.18,0,0,1,293.4,28Zm-11.6-2.63a3.32,3.32,0,0,1-1.11-.81,3.28,3.28,0,0,1-.39-.6,1.2,1.2,0,0,1-.2-.51c0-.09,0-.13.14-.13a1.63,1.63,0,0,1,.42.1,5.14,5.14,0,0,0,.69.15,3.07,3.07,0,0,0,.67.06,12.24,12.24,0,0,0,1.68-.15,15.91,15.91,0,0,0,2.16-.39c.55-.16,1.11-.34,1.69-.54a6.86,6.86,0,0,1,.71-.27,2.33,2.33,0,0,1,.68-.1,3.08,3.08,0,0,1,1.76.52,1.49,1.49,0,0,1,.78,1.21.77.77,0,0,1-.35.71,2.45,2.45,0,0,1-1.1.28h-.67a22.81,22.81,0,0,0-4.27.53l-.88.14a5.89,5.89,0,0,1-.9.11A3.67,3.67,0,0,1,281.8,25.39ZM293.89,23A6.18,6.18,0,0,1,296,24.15a2.43,2.43,0,0,1,1,2,1.28,1.28,0,0,1-.33,1,1.12,1.12,0,0,1-.81.31,1.27,1.27,0,0,1-1.25-1.05,8.38,8.38,0,0,0-.73-1.67,5.36,5.36,0,0,0-1.09-1.31l-.26-.2a1.64,1.64,0,0,1-.25-.21.25.25,0,0,1-.07-.17c0-.11.08-.16.25-.16A6.42,6.42,0,0,1,293.89,23Zm3-2.05a4.79,4.79,0,0,1,1.79,1,2.13,2.13,0,0,1,.74,1.63,1.22,1.22,0,0,1-.31.9.94.94,0,0,1-.7.31,1,1,0,0,1-.65-.22,1.6,1.6,0,0,1-.49-.59,10.72,10.72,0,0,0-.92-1.55,4.19,4.19,0,0,0-1.09-1l-.37-.23-.31-.2a.27.27,0,0,1-.13-.19q0-.18.51-.18A6.38,6.38,0,0,1,296.87,21Z"/><path class="cls-1" d="M319.59,40.82a4.86,4.86,0,0,1,1.43.88,1.54,1.54,0,0,1,.6,1.13,1.09,1.09,0,0,1-.21.64.67.67,0,0,1-.59.29,4.77,4.77,0,0,1-1.4-.37l-.95-.34a10.42,10.42,0,0,0-2.62-.22,37,37,0,0,0-4.78.33,15.52,15.52,0,0,0-3.86.88,4.41,4.41,0,0,1-1.48.37,2.35,2.35,0,0,1-1.51-.62,3.67,3.67,0,0,1-1.11-1.58,1.65,1.65,0,0,1-.17-.65c0-.18.07-.28.22-.28a1.42,1.42,0,0,1,.59.31,2.94,2.94,0,0,0,1.76.47c.11,0,1.05-.1,2.81-.28,2.08-.23,3.69-.38,4.83-.47.14-.86.28-2,.4-3.25s.18-2.19.18-2.66a2.61,2.61,0,0,0,0-.56c0-.13-.09-.19-.18-.19a45.93,45.93,0,0,0-4.69,1.52l-.36.06a3,3,0,0,1-1.87-1,3.38,3.38,0,0,1-.44-.67,1.48,1.48,0,0,1-.2-.6c0-.17.07-.25.2-.25a1.36,1.36,0,0,1,.33.09,2,2,0,0,0,.45.13,5.7,5.7,0,0,0,.95.06,7.74,7.74,0,0,0,1.36-.09c.6-.08,1.35-.23,2.27-.44a11.74,11.74,0,0,0,2.05-.59,3.5,3.5,0,0,0,.49-.29.9.9,0,0,1,.52-.17,2.86,2.86,0,0,1,1.62.77c.57.48.86.87.86,1.18s-.14.38-.42.65a1.6,1.6,0,0,0-.5.72l-.67,3.13c-.18.76-.36,1.53-.53,2.32l.73,0a4.37,4.37,0,0,0,1.78-.44,1.83,1.83,0,0,1,.73-.21A3.85,3.85,0,0,1,319.59,40.82Z"/><path class="cls-1" d="M329.18,36.62a2.19,2.19,0,0,1-.61-.39,4.19,4.19,0,0,1-1-1.14,2.7,2.7,0,0,1-.46-1.43,3.42,3.42,0,0,1,.18-1c.12-.38.26-.57.43-.57s.22.1.34.31a1.63,1.63,0,0,0,1,.84,8.86,8.86,0,0,0,2.31.25c.73,0,3.18-.11,7.37-.31,2.3-.13,4-.23,5.07-.31l1.56-.08c.62,0,1.13-.05,1.54-.05a6.4,6.4,0,0,1,2.12.3,1.13,1.13,0,0,1,.83,1.16,1,1,0,0,1-.56.91,3,3,0,0,1-1.45.42l-.53,0h-1.31c-.87,0-2,0-3.5.05s-2.79.07-4,.11-2.58.12-4.11.24a22.23,22.23,0,0,0-3.28.44l-.56.15a3.2,3.2,0,0,1-.8.16A1.75,1.75,0,0,1,329.18,36.62Z"/><path class="cls-1" d="M372.62,37.87q2.33,1.86,2.33,3.75a1.88,1.88,0,0,1-.45,1.31,1.3,1.3,0,0,1-1,.49,1.37,1.37,0,0,1-.93-.43,3.32,3.32,0,0,1-.77-1.21A19.45,19.45,0,0,0,369.73,38a12,12,0,0,0-2.59-2.7,33.45,33.45,0,0,1-12.47,9.61.83.83,0,0,1-.28.06c-.11,0-.17,0-.17-.12s.12-.2.34-.34a30.21,30.21,0,0,0,5.9-4.79,45.37,45.37,0,0,0,5-6.1,24,24,0,0,0,2.85-5.23,1.82,1.82,0,0,0,.08-.4c0-.1-.08-.15-.22-.15a14.06,14.06,0,0,0-2.64.68,23.19,23.19,0,0,0-3.19,1.18,4.38,4.38,0,0,0-.6.31,1.39,1.39,0,0,1-.66.21,2.11,2.11,0,0,1-1.38-.6,4.87,4.87,0,0,1-1.11-1.43,3.1,3.1,0,0,1-.44-1.41c0-.29.07-.43.2-.43s.17.08.33.23a2.67,2.67,0,0,0,.53.39,3.19,3.19,0,0,0,1.48.34,34.78,34.78,0,0,0,3.59-.56c2-.37,3.28-.63,3.8-.77a3.74,3.74,0,0,0,1-.53,1.5,1.5,0,0,1,.65-.34,2,2,0,0,1,1,.5,7.12,7.12,0,0,1,1.2,1.13,1.86,1.86,0,0,1,.53,1,.7.7,0,0,1-.18.44,4.13,4.13,0,0,1-.55.49l-.5.45a2.06,2.06,0,0,0-.39.48,44.64,44.64,0,0,1-3.4,5.15A23,23,0,0,1,372.62,37.87Z"/></g></g></svg>