<svg xmlns="http://www.w3.org/2000/svg" viewBox="0 0 358.73 63.37"><defs><style>.cls-1{fill:#273854;}</style></defs><g id="Layer_2" data-name="Layer 2"><g id="footer"><path class="cls-1" d="M11.63,57.73s-15-8,5.36-30.28l3.76-11.59s-34,30.52-9.12,41.87"/><path class="cls-1" d="M32.82,13l2,3.32s11.39-4,14.07,6.74c0,0,1.65,6.2-4.41,16.05,0,0,10.93-11.13,7.73-24.83,0,0-3.57-11.45-21.2-4.06Z"/><polygon class="cls-1" points="14.07 61.41 19.55 13.52 24.16 7.41 22.45 59.15 14.07 61.41"/><polygon class="cls-1" points="28.89 56.9 27.18 0 32.65 5.26 34.8 23.19 33.08 24.48 34.8 52.18 28.89 56.9"/><polygon class="cls-1" points="39.84 48.2 36.19 22.01 38.66 23.73 40.27 31.14 41.02 31.14 44.46 43.05 39.84 48.2"/><path class="cls-1" d="M.3,45.83S0,71.54,31,54.29c0,0,22.91-12.4,23.93-37.36,0,0,1.9,14.43-9.26,28.38-8.56,10.7-21,19-34.77,18S.3,45.83.3,45.83"/><path class="cls-1" d="M70.92,43.77c0,.21,0,.41,0,.59a2.17,2.17,0,0,0,0,.38,1.34,1.34,0,0,1-.71.84,2.67,2.67,0,0,1-1.43.41.79.79,0,0,1-.53-.18.52.52,0,0,1-.21-.41c.07-1.17.13-2.3.18-3.4s.09-2.53.11-4.31V26.33a43,43,0,0,0-.35-6.07l3.07,1.45H81.59l.59-.8c0-.08.14-.2.26-.36s.23-.27.31-.35a.35.35,0,0,1,.23-.12,2.34,2.34,0,0,1,.8.52A12.4,12.4,0,0,1,85,21.7q.54.57.54.78a1.88,1.88,0,0,1-1.07.62V37.72q.06,3.68.22,7a3.13,3.13,0,0,1-1,.71,3.24,3.24,0,0,1-1.4.38c-.36,0-.54-.2-.54-.59l.11-1.13V43.2H70.92ZM81.83,31.85V22.57H70.92v9.28Zm-10.91.86v9.63H81.83V32.71Z"/><path class="cls-1" d="M110.57,24.53l.36-.57a5,5,0,0,1,.33-.49c.09-.1.17-.16.24-.16s.39.2.85.61a13.29,13.29,0,0,1,1.31,1.29c.41.45.61.75.61.89-.07.31-.31.47-.72.47h-9.41a24.5,24.5,0,0,0,4.54,6.78,21.12,21.12,0,0,0,6,4.55l-.08.32a2.43,2.43,0,0,0-1.36.8,4.18,4.18,0,0,0-.88,1.72A20.72,20.72,0,0,1,107.16,35a32.69,32.69,0,0,1-3.56-8.38V39H105l.64-1.12.31-.51c.13-.21.24-.38.32-.49s.16-.16.23-.16.36.19.77.58a12.21,12.21,0,0,1,1.15,1.23,2.13,2.13,0,0,1,.53.86c-.07.32-.3.47-.69.47h-4.7v1.81l0,1.13c0,.81.05,1.59.11,2.34a1.36,1.36,0,0,1-.76.71,3,3,0,0,1-1.38.33.66.66,0,0,1-.51-.18.65.65,0,0,1-.16-.42c.07-.88.14-2.09.19-3.61V39.88H99.44a14.32,14.32,0,0,0-3.1.42l-.69-1.51c1,.11,2.16.19,3.55.23h1.92V30a26.66,26.66,0,0,1-4.39,6.26A27.24,27.24,0,0,1,90.63,41l-.24-.39a26.62,26.62,0,0,0,5.39-6.27,34.63,34.63,0,0,0,3.71-7.81H95.12a24,24,0,0,0-4,.42l-.7-1.51c1,.11,2.16.19,3.55.23h7.15V24.59a43.17,43.17,0,0,0-.35-6.08c1.37.37,2.32.67,2.83.87s.78.39.78.55-.08.16-.24.3l-.54.38v5.1h6.22Z"/><path class="cls-1" d="M129.59,30.92a3.37,3.37,0,0,1,2.19,3,1.87,1.87,0,0,1-.31,1.09.92.92,0,0,1-.76.43c-.55,0-1.22-.53-2-1.58a16.63,16.63,0,0,0-2-2.34,8.54,8.54,0,0,0-2.2-1.51v.39q0,3.23,0,4.83,0,4,.18,5.22a21.36,21.36,0,0,1,.24,2.19,2.81,2.81,0,0,1-.21,1.13,1.93,1.93,0,0,1-.53.72,1,1,0,0,1-.56.25q-.47,0-.87-.75a7.42,7.42,0,0,1-.67-1.74,6.32,6.32,0,0,1-.25-1.48c0-.14,0-.56.11-1.27.1-1,.17-1.74.21-2.14,0-.59.07-1.38.09-2.35s0-1.7.07-2.15l0-1.43c0-.61,0-1.5,0-2.66V26.42a26.44,26.44,0,0,0-.13-3.32,1.91,1.91,0,0,0-.36-1,3.77,3.77,0,0,0-.79-.72l-.23-.11c-.09-.06-.14-.12-.14-.18,0-.22.29-.41.87-.58a5.11,5.11,0,0,1,1.4-.25,2.2,2.2,0,0,1,1.7.83,1.36,1.36,0,0,1,.35.95,3.53,3.53,0,0,1-.13.89,8.52,8.52,0,0,0-.3,1.52c-.05.53-.08,1.32-.08,2.39l0,2.58A15.61,15.61,0,0,1,129.59,30.92Z"/><path class="cls-1" d="M140.45,35a2.54,2.54,0,0,1-.59-.37,4.22,4.22,0,0,1-1-1.1,2.65,2.65,0,0,1-.44-1.37,3.13,3.13,0,0,1,.18-.93c.11-.36.25-.55.41-.55s.21.1.32.3a1.65,1.65,0,0,0,1,.8,8.2,8.2,0,0,0,2.21.24q1,0,7-.3c2.2-.12,3.82-.22,4.85-.3l1.5-.07c.58,0,1.07-.05,1.47-.05a6.08,6.08,0,0,1,2,.29,1.08,1.08,0,0,1,.8,1.11,1,1,0,0,1-.53.87,2.93,2.93,0,0,1-1.39.4l-.5,0h-1.26c-.84,0-2,0-3.35.05l-3.83.1q-1.72.06-3.93.24a23.23,23.23,0,0,0-3.14.41l-.53.15a3.29,3.29,0,0,1-.77.15A1.59,1.59,0,0,1,140.45,35Z"/><path class="cls-1" d="M182.21,23.65a7.63,7.63,0,0,1,1.16,1,1.67,1.67,0,0,1,.52.9.7.7,0,0,1-.14.46,1.18,1.18,0,0,1-.45.31c-.25.16-.46.32-.64.46a2.15,2.15,0,0,0-.51.7,45.59,45.59,0,0,1-3.68,5.9q2.29,2.1,2.29,3.77a2,2,0,0,1-.37,1.24,1.11,1.11,0,0,1-.91.47,1.07,1.07,0,0,1-.77-.38,3.51,3.51,0,0,1-.64-1q-.65-1.3-1.17-2.22A29.36,29.36,0,0,1,164.28,44a3.48,3.48,0,0,1-.51.12q-.21,0-.21-.15c0-.06.05-.12.17-.2a3.33,3.33,0,0,1,.39-.24,31,31,0,0,0,6.35-4.48,40,40,0,0,0,5.12-5.66,20.12,20.12,0,0,0-1.31-1.53c-.44-.46-1-1-1.65-1.61l-.46-.45c-.1-.1-.16-.18-.16-.26s.05-.12.14-.12l.26.09a23.53,23.53,0,0,1,4.22,2.4A33.11,33.11,0,0,0,179,28a8.31,8.31,0,0,0,.91-2.2c0-.12,0-.19-.07-.22a.4.4,0,0,0-.22-.05l-.54.09a14.72,14.72,0,0,1-2.72.33,5.33,5.33,0,0,1-1.84-.24,37.32,37.32,0,0,1-4.08,5.1,17.48,17.48,0,0,1-4.3,3.56,1.13,1.13,0,0,1-.34.12c-.13,0-.19-.05-.19-.15s.12-.25.35-.5a24.21,24.21,0,0,0,2.85-3.31,31.42,31.42,0,0,0,2.63-4.17,12.53,12.53,0,0,0,1.35-3.46,3.29,3.29,0,0,0,.08-.66c0-.77-.27-1.15-.8-1.15l-.23,0-.23,0a.12.12,0,0,1-.08-.12c0-.16.17-.31.51-.46a2.17,2.17,0,0,1,.85-.22,2.87,2.87,0,0,1,1.32.44,6.69,6.69,0,0,1,1.39,1,1.54,1.54,0,0,1,.6,1,1,1,0,0,1-.24.53,4.25,4.25,0,0,0-.32.48,7.48,7.48,0,0,1-.51,1,2,2,0,0,0,.4,0,13,13,0,0,0,2.29-.25,11.3,11.3,0,0,0,2-.49,2.36,2.36,0,0,0,.74-.44l.36-.21a.75.75,0,0,1,.34-.09A2.06,2.06,0,0,1,182.21,23.65Z"/><path class="cls-1" d="M186.53,42.94a.67.67,0,0,1,.26-.45,23,23,0,0,0,4.31-5.9,22.56,22.56,0,0,0,2.36-6.79,3.73,3.73,0,0,0,.14-1,2,2,0,0,0-.86-1.69c-.33-.24-.5-.4-.5-.48s.06-.17.2-.22a1.54,1.54,0,0,1,.54-.08,3.26,3.26,0,0,1,1.45.39,4.53,4.53,0,0,1,1.54,1,1.76,1.76,0,0,1,.59,1.12,2,2,0,0,1-.29.8,6.33,6.33,0,0,0-.56,1.43,18.79,18.79,0,0,1-2.14,4.92,23,23,0,0,1-3.17,4.09A17.7,17.7,0,0,1,187,42.91a.7.7,0,0,1-.29.15C186.58,43.06,186.53,43,186.53,42.94Zm12.32-4.09a3.08,3.08,0,0,1-.69-1.58,1.07,1.07,0,0,1,.08-.41,6.43,6.43,0,0,0,.29-2.22v-1.1c0-.48,0-.84,0-1.1s0-1.15.08-2.64c0-.71.05-1.18.05-1.42a3,3,0,0,0-.29-1.57,2.15,2.15,0,0,0-.81-.85c-.3-.14-.44-.25-.44-.31s.12-.25.36-.35a2.3,2.3,0,0,1,.89-.15,3.43,3.43,0,0,1,1.33.31,3.92,3.92,0,0,1,1.27.82,1.48,1.48,0,0,1,.52,1.09,2.16,2.16,0,0,1-.26.89,5,5,0,0,0-.51,1.6c-.11.73-.2,1.73-.28,3s-.12,2.17-.12,2.72q0,.45.24.45a6,6,0,0,0,2-.89,34,34,0,0,0,3.74-2.55,46.63,46.63,0,0,0,4.38-3.85q.38-.42.54-.42c.07,0,.1,0,.1.12a1.56,1.56,0,0,1-.34.71,27.86,27.86,0,0,1-4.44,5.38A71.38,71.38,0,0,1,201,39.2a1.23,1.23,0,0,1-.91.42A1.63,1.63,0,0,1,198.85,38.85Z"/><path class="cls-1" d="M214.81,43.86c0-.12.18-.29.53-.51a33,33,0,0,0,8.14-6.71A31.33,31.33,0,0,0,228,30a14.59,14.59,0,0,0,1.44-3.88c0-.14-.07-.21-.22-.21s-.88.11-2.17.33-2.65.48-4.08.8a25.78,25.78,0,0,0-3.48,1,2.8,2.8,0,0,1-1.1.24A2.16,2.16,0,0,1,217,27.7a4.45,4.45,0,0,1-1-1.44,3.68,3.68,0,0,1-.39-1.41c0-.21.07-.32.21-.32a1.62,1.62,0,0,1,.59.23,4.71,4.71,0,0,0,1.05.42,4.58,4.58,0,0,0,.95.09c.71,0,2.34-.12,4.88-.36a33.74,33.74,0,0,0,4.81-.65,8.75,8.75,0,0,0,.9-.39,3.84,3.84,0,0,1,1.23-.44,2.24,2.24,0,0,1,1,.52,7.18,7.18,0,0,1,1.29,1.17,1.83,1.83,0,0,1,.57,1.07,1,1,0,0,1-.16.57,6.09,6.09,0,0,1-.53.7,7.5,7.5,0,0,0-1,1.45,28.81,28.81,0,0,1-4,6.66,23.73,23.73,0,0,1-5.14,4.64,46.69,46.69,0,0,1-6.8,3.65A1.57,1.57,0,0,1,215,44C214.87,44,214.81,43.93,214.81,43.86Zm17.72-20.09a3,3,0,0,1,0-4,2.39,2.39,0,0,1,3.61,0,2.92,2.92,0,0,1,.74,2,2.84,2.84,0,0,1-.75,2,2.39,2.39,0,0,1-3.6,0Zm3.06-.61a2.06,2.06,0,0,0,0-2.78,1.62,1.62,0,0,0-2.52,0,2.12,2.12,0,0,0,0,2.78,1.62,1.62,0,0,0,2.52,0Z"/><path class="cls-1" d="M255,26a7.57,7.57,0,0,1,1.32,1.13,1.74,1.74,0,0,1,.59,1.06.69.69,0,0,1-.18.43c-.11.15-.24.3-.38.46a4.08,4.08,0,0,0-.47.54,1.38,1.38,0,0,0-.25.5l-.48,2.16c-.59,2.61-.94,4.12-1,4.54a3,3,0,0,1,1.1.53,1.14,1.14,0,0,1,.43.89c0,.48-.35.71-1.05.71l-.62,0-.82,0c-1.53-.14-2.6-.21-3.22-.21a53.68,53.68,0,0,0-5.37.26,4.11,4.11,0,0,1-.29,1.55c-.18.39-.39.59-.64.59-.52,0-.9-.31-1.15-.94a5.19,5.19,0,0,1-.37-2V37c0-.71-.1-2.08-.28-4.09a27.66,27.66,0,0,0-.6-4.15,4.1,4.1,0,0,0-.56-1.38,1.86,1.86,0,0,0-1-.7l-.25-.06a.58.58,0,0,1-.19-.07.15.15,0,0,1-.07-.11c0-.12.17-.23.51-.35a3.68,3.68,0,0,1,1.07-.18,3.27,3.27,0,0,1,1.24.28,3.63,3.63,0,0,1,1.32,1.05l.08.15q8.29-.8,8.83-1A3.44,3.44,0,0,0,253,26a5,5,0,0,1,.53-.36,1,1,0,0,1,.46-.12A2.41,2.41,0,0,1,255,26Zm-6.79,11,3.63-.36a46.46,46.46,0,0,0,.89-4.79c.26-1.86.39-2.95.39-3.24a.42.42,0,0,0-.16-.37,1.18,1.18,0,0,0-.59-.11q-.79,0-4,.27c-2.11.18-3.7.37-4.76.56l.08,1q.42,3.79.72,7.41C245.3,37.36,246.55,37.23,248.19,37Z"/><path class="cls-1" d="M280.71,26.81a4.7,4.7,0,0,1,1.43.73,1.24,1.24,0,0,1,.6,1c0,.57-.34.86-1,.86l-.88-.06a25.91,25.91,0,0,0-2.86-.18q-1.33,0-2.61.09a4.88,4.88,0,0,1,1.14.92A1.4,1.4,0,0,1,277,31a.44.44,0,0,1-.1.28,1.23,1.23,0,0,1-.28.28,2,2,0,0,0-.53.77,26.08,26.08,0,0,1-2.29,5,21,21,0,0,1-3.89,4.76,17.29,17.29,0,0,1-5.51,3.43,1.17,1.17,0,0,1-.4.09c-.1,0-.16,0-.16-.09s.14-.21.4-.39a23.49,23.49,0,0,0,9.42-13.81,2.9,2.9,0,0,0,.11-.75,1.3,1.3,0,0,0-.61-1.06,13.15,13.15,0,0,0-1.95.43c-.54.17-1.11.37-1.74.6-.39.16-.7.28-.94.36a2.34,2.34,0,0,1-.74.12,2.13,2.13,0,0,1-1.28-.56,5.4,5.4,0,0,1-1.16-1.32,2.62,2.62,0,0,1-.47-1.23.2.2,0,0,1,.06-.15.14.14,0,0,1,.1-.06.82.82,0,0,1,.35.15,2.64,2.64,0,0,0,.43.23,4.22,4.22,0,0,0,2.13.45c.73,0,2.2-.14,4.42-.42s3.78-.52,4.71-.74a5.45,5.45,0,0,0,1.6-.62,1.25,1.25,0,0,1,.61-.18A4.73,4.73,0,0,1,280.71,26.81Zm-11.1-2.52a3.37,3.37,0,0,1-1.06-.77,4.17,4.17,0,0,1-.38-.58,1.28,1.28,0,0,1-.18-.49c0-.08,0-.12.13-.12a1.75,1.75,0,0,1,.4.09,4.81,4.81,0,0,0,.67.15,2.72,2.72,0,0,0,.64.06,11.14,11.14,0,0,0,1.6-.15,13.82,13.82,0,0,0,2.07-.37c.52-.15,1.06-.32,1.61-.52a7.08,7.08,0,0,1,.68-.25,2.14,2.14,0,0,1,.65-.1,2.87,2.87,0,0,1,1.68.5,1.42,1.42,0,0,1,.75,1.16.75.75,0,0,1-.33.68,2.33,2.33,0,0,1-1.06.26h-.64a21.37,21.37,0,0,0-4.08.51c-.18,0-.46.06-.84.13a5.34,5.34,0,0,1-.87.11A3.37,3.37,0,0,1,269.61,24.29ZM281.18,22a6.18,6.18,0,0,1,2,1.08,2.35,2.35,0,0,1,.92,1.9,1.25,1.25,0,0,1-.32.95,1.08,1.08,0,0,1-.77.3,1.22,1.22,0,0,1-1.2-1,7.93,7.93,0,0,0-.7-1.6,4.88,4.88,0,0,0-1-1.25l-.25-.19a1.44,1.44,0,0,1-.24-.21.21.21,0,0,1-.07-.16q0-.15.24-.15A6.07,6.07,0,0,1,281.18,22Zm2.85-2a4.59,4.59,0,0,1,1.71,1,2,2,0,0,1,.71,1.56,1.19,1.19,0,0,1-.29.86.92.92,0,0,1-.67.3,1,1,0,0,1-.63-.21,1.73,1.73,0,0,1-.47-.56,9.93,9.93,0,0,0-.88-1.49,4,4,0,0,0-1-.95l-.36-.22-.29-.19a.24.24,0,0,1-.12-.18q0-.18.48-.18A6.45,6.45,0,0,1,284,20.06Z"/><path class="cls-1" d="M305.77,39.05a4.6,4.6,0,0,1,1.37.85,1.46,1.46,0,0,1,.57,1.08,1,1,0,0,1-.2.61.64.64,0,0,1-.57.28,4.63,4.63,0,0,1-1.33-.36l-.91-.32a10.23,10.23,0,0,0-2.51-.21,35.47,35.47,0,0,0-4.58.31,14.85,14.85,0,0,0-3.69.85,4.42,4.42,0,0,1-1.41.35,2.3,2.3,0,0,1-1.45-.59A3.55,3.55,0,0,1,290,40.39a1.54,1.54,0,0,1-.16-.63c0-.17.07-.26.21-.26a1.31,1.31,0,0,1,.56.29,2.79,2.79,0,0,0,1.68.45q.16,0,2.7-.27c2-.22,3.53-.36,4.61-.44q.21-1.24.39-3.12c.11-1.24.17-2.09.17-2.55a2.42,2.42,0,0,0,0-.53c0-.12-.08-.18-.17-.18a42.73,42.73,0,0,0-4.48,1.46l-.35.06a2.83,2.83,0,0,1-1.79-1,2.73,2.73,0,0,1-.42-.64,1.36,1.36,0,0,1-.19-.58c0-.16.06-.24.19-.24a1.22,1.22,0,0,1,.32.09,2.3,2.3,0,0,0,.42.12,5.33,5.33,0,0,0,.91.06,7.26,7.26,0,0,0,1.31-.09c.57-.08,1.29-.21,2.17-.41a12.39,12.39,0,0,0,2-.57,2.53,2.53,0,0,0,.47-.28A.82.82,0,0,1,301,31a2.67,2.67,0,0,1,1.55.74c.55.46.83.83.83,1.13s-.14.36-.4.62a1.46,1.46,0,0,0-.48.68l-.64,3q-.27,1.1-.51,2.22l.69,0a4.15,4.15,0,0,0,1.71-.42,1.84,1.84,0,0,1,.7-.2A3.91,3.91,0,0,1,305.77,39.05Z"/><path class="cls-1" d="M314.94,35a2.5,2.5,0,0,1-.58-.37,4,4,0,0,1-.95-1.1A2.65,2.65,0,0,1,313,32.2a3.41,3.41,0,0,1,.17-.93c.12-.36.26-.55.42-.55s.21.1.32.3a1.6,1.6,0,0,0,1,.8,8.28,8.28,0,0,0,2.22.24q1,0,7-.3,3.31-.18,4.86-.3l1.49-.07c.59,0,1.08-.05,1.47-.05a6.15,6.15,0,0,1,2,.29,1.09,1.09,0,0,1,.8,1.11,1,1,0,0,1-.53.87,2.93,2.93,0,0,1-1.39.4l-.51,0h-1.25c-.84,0-2,0-3.35.05l-3.83.1c-1.16,0-2.47.12-3.94.24a23,23,0,0,0-3.13.41l-.53.15a3.35,3.35,0,0,1-.78.15A1.63,1.63,0,0,1,314.94,35Z"/><path class="cls-1" d="M356.5,36.24c1.49,1.18,2.23,2.38,2.23,3.58a1.78,1.78,0,0,1-.43,1.25,1.21,1.21,0,0,1-.93.47,1.3,1.3,0,0,1-.9-.41,3.26,3.26,0,0,1-.73-1.16,18.62,18.62,0,0,0-2-3.59,11.31,11.31,0,0,0-2.48-2.57A32.16,32.16,0,0,1,339.33,43a.78.78,0,0,1-.27.06c-.1,0-.16,0-.16-.12s.11-.19.32-.33A28.41,28.41,0,0,0,344.87,38a43,43,0,0,0,4.81-5.84,22.4,22.4,0,0,0,2.72-5,1.21,1.21,0,0,0,.08-.38q0-.15-.21-.15a14.61,14.61,0,0,0-2.52.65,22.6,22.6,0,0,0-3.05,1.13,4.7,4.7,0,0,0-.58.3,1.38,1.38,0,0,1-.63.2,2,2,0,0,1-1.32-.57A4.75,4.75,0,0,1,343.11,27a3,3,0,0,1-.42-1.35c0-.27.06-.41.19-.41s.16.07.32.22a2.54,2.54,0,0,0,.51.37,3,3,0,0,0,1.41.33,31.74,31.74,0,0,0,3.43-.54c1.93-.35,3.14-.6,3.64-.74a3.28,3.28,0,0,0,1-.5,1.5,1.5,0,0,1,.61-.33,2,2,0,0,1,1,.48,6.19,6.19,0,0,1,1.15,1.08,1.76,1.76,0,0,1,.5,1,.63.63,0,0,1-.17.42,3.67,3.67,0,0,1-.52.47l-.48.43a1.92,1.92,0,0,0-.37.46,41.57,41.57,0,0,1-3.26,4.92A21.49,21.49,0,0,1,356.5,36.24Z"/></g></g></svg>