<svg xmlns="http://www.w3.org/2000/svg" viewBox="0 0 40.15 40.15"><defs><style>.cls-1{fill:#fff;}.cls-2{fill:#fa6429;}</style></defs><g id="Layer_2" data-name="Layer 2"><g id="レイヤー_1" data-name="レイヤー 1"><circle class="cls-1" cx="20.08" cy="20.08" r="20.08"/><path class="cls-2" d="M13.48,10.49c-1.44.93-1.72,3.85-1.18,6.23a21.72,21.72,0,0,0,2.84,6.67,22.15,22.15,0,0,0,4.94,5.32c2,1.47,4.73,2.4,6.17,1.46a7.27,7.27,0,0,0,1.86-2L27.33,27l-2.12-3.28c-.16-.24-1.15,0-1.66.27a4.84,4.84,0,0,0-1.3,1.41c-.47.27-.86,0-1.67-.37a9.83,9.83,0,0,1-3-3.19,9.9,9.9,0,0,1-1.68-4.06c0-.9-.1-1.36.34-1.68A4.77,4.77,0,0,0,18,15.48c.47-.35,1.08-1.16.92-1.4L16.83,10.8l-.77-1.19A7.32,7.32,0,0,0,13.48,10.49Z"/></g></g></svg>