<svg xmlns="http://www.w3.org/2000/svg" viewBox="0 0 35 35"><defs><style>.cls-1{fill:#fa6429;}.cls-2{fill:#fff;}</style></defs><g id="Layer_2" data-name="Layer 2"><g id="レイヤー_3" data-name="レイヤー 3"><circle class="cls-1" cx="17.5" cy="17.5" r="17.5"/><path class="cls-2" d="M11.75,9.14c-1.25.82-1.5,3.36-1,5.43a18.79,18.79,0,0,0,2.48,5.82A19.53,19.53,0,0,0,17.5,25c1.7,1.27,4.13,2.09,5.38,1.27a6.38,6.38,0,0,0,1.62-1.73l-.67-1L22,20.67c-.14-.21-1,0-1.44.23a4.08,4.08,0,0,0-1.13,1.23c-.41.24-.75,0-1.46-.32A8.77,8.77,0,0,1,15.3,19a8.71,8.71,0,0,1-1.46-3.54c0-.78-.08-1.19.3-1.46a4.12,4.12,0,0,0,1.59-.54c.4-.3.93-1,.8-1.22L14.67,9.41l-.67-1A6.5,6.5,0,0,0,11.75,9.14Z"/></g></g></svg>