<svg xmlns="http://www.w3.org/2000/svg" viewBox="0 0 26 19.55"><defs><style>.cls-1{fill:#fff;}</style></defs><g id="Layer_2" data-name="Layer 2"><g id="レイヤー_1" data-name="レイヤー 1"><polygon class="cls-1" points="26 11.77 22.64 8.28 26 5.39 26 11.77"/><polygon class="cls-1" points="3.36 8.28 0 11.77 0 5.39 3.36 8.28"/><path class="cls-1" d="M26,14.93v3.21a1.41,1.41,0,0,1-1.41,1.41H1.41A1.41,1.41,0,0,1,0,18.14V14.93L5,9.72l5.74,4.94a3.4,3.4,0,0,0,2.23.8,3.45,3.45,0,0,0,2.24-.8L21,9.72Z"/><path class="cls-1" d="M26,1.4V2.81L13.74,13.37a1.2,1.2,0,0,1-1.48,0L0,2.81V1.4A1.41,1.41,0,0,1,1.41,0H24.59A1.41,1.41,0,0,1,26,1.4Z"/></g></g></svg>