<svg xmlns="http://www.w3.org/2000/svg" viewBox="0 0 16 12.03"><defs><style>.cls-1{fill:#fff;}</style></defs><g id="Layer_2" data-name="Layer 2"><g id="レイヤー_3" data-name="レイヤー 3"><polygon class="cls-1" points="16 7.24 13.94 5.09 16 3.31 16 7.24"/><polygon class="cls-1" points="2.07 5.09 0 7.24 0 3.31 2.07 5.09"/><path class="cls-1" d="M16,9.19v2a.87.87,0,0,1-.86.86H.87A.87.87,0,0,1,0,11.17v-2L3.09,6,6.63,9A2.05,2.05,0,0,0,8,9.51,2.1,2.1,0,0,0,9.38,9l3.53-3Z"/><path class="cls-1" d="M16,.86v.87L8.45,8.23a.74.74,0,0,1-.91,0L0,1.73V.86A.87.87,0,0,1,.87,0H15.14A.87.87,0,0,1,16,.86Z"/></g></g></svg>