<?xml version="1.0" encoding="UTF-8"?><svg id="a" xmlns="http://www.w3.org/2000/svg" viewBox="0 0 32 26"><defs><style>.b{fill:#bbcc31;}</style></defs><polygon class="b" points="32 15.45 27.87 11.16 32 7.6 32 15.45"/><polygon class="b" points="4.14 11.16 0 15.45 0 7.6 4.14 11.16"/><path class="b" d="M32,19.35v3.95c0,.96-.77,1.73-1.73,1.73H1.73c-.96,0-1.73-.77-1.73-1.73v-3.95l6.18-6.42,7.07,6.08c.73,.63,1.71,.98,2.75,.98s2.02-.35,2.76-.98l7.06-6.08,6.19,6.42Z"/><path class="b" d="M32,2.69v1.73l-15.09,13c-.49,.42-1.33,.42-1.82,0L0,4.42v-1.73C0,1.74,.77,.97,1.73,.97H30.27c.95,0,1.73,.77,1.73,1.72Z"/></svg>