<svg xmlns="http://www.w3.org/2000/svg" xmlns:xlink="http://www.w3.org/1999/xlink" width="26" height="25.776" viewBox="0 0 26 25.776">
  <defs>
    <clipPath id="clip-path">
      <rect id="Rectangle_387" data-name="Rectangle 387" width="26" height="25.776"/>
    </clipPath>
  </defs>
  <g id="Group_412" data-name="Group 412" transform="translate(-928 -9053)">
    <g id="Group_411" data-name="Group 411" transform="translate(928 9053)">
      <g id="Group_410" data-name="Group 410" clip-path="url(#clip-path)">
        <path id="Path_7065" data-name="Path 7065" d="M26,15.812a.548.548,0,0,0-.548-.548H24.359v1.072a2.067,2.067,0,1,1-4.134,0V15.264H18.161v1.072a2.067,2.067,0,1,1-4.135,0V15.264H11.964v1.072a2.067,2.067,0,1,1-4.135,0V15.264H5.766v1.072a2.067,2.067,0,1,1-4.134,0V15.264H.549A.548.548,0,0,0,0,15.812v3.816H26Z" transform="translate(-0.001 -13.058)"/>
        <path id="Path_7066" data-name="Path 7066" d="M2.062,63.689a.449.449,0,0,1,.448-.448H4.866a.449.449,0,0,1,.448.448v1.626a.449.449,0,0,1-.448.448H2.51a.449.449,0,0,1-.448-.448Zm0-4.41a.449.449,0,0,1,.448-.448H4.866a.449.449,0,0,1,.448.448v1.626a.449.449,0,0,1-.448.448H2.51a.449.449,0,0,1-.448-.448Zm0-4.41a.449.449,0,0,1,.448-.449H4.866a.449.449,0,0,1,.448.449V56.5a.449.449,0,0,1-.448.448H2.51a.449.449,0,0,1-.448-.448Zm6.207,8.82a.45.45,0,0,1,.449-.448h2.355a.449.449,0,0,1,.449.448v1.626a.449.449,0,0,1-.449.448H8.718a.45.45,0,0,1-.449-.448Zm0-4.41a.45.45,0,0,1,.449-.448h2.355a.449.449,0,0,1,.449.448v1.626a.449.449,0,0,1-.449.448H8.718a.45.45,0,0,1-.449-.448Zm0-4.41a.45.45,0,0,1,.449-.449h2.355a.45.45,0,0,1,.449.449V56.5a.449.449,0,0,1-.449.448H8.718a.45.45,0,0,1-.449-.448Zm6.209,0a.449.449,0,0,1,.448-.449h2.356a.449.449,0,0,1,.448.449V56.5a.449.449,0,0,1-.448.448H14.926a.449.449,0,0,1-.448-.448Zm6.207,0a.45.45,0,0,1,.449-.449h2.355a.45.45,0,0,1,.449.449V56.5a.449.449,0,0,1-.449.448H21.134a.45.45,0,0,1-.449-.448ZM.549,67.99H14.625a6.1,6.1,0,0,1-.781-3.063,6.151,6.151,0,0,1,12.075-1.584A.041.041,0,0,0,26,63.333v-11.4H0V67.442a.548.548,0,0,0,.549.548" transform="translate(0 -44.43)"/>
        <path id="Path_7067" data-name="Path 7067" d="M110.188,109.375l-2.3,4.429a.466.466,0,0,1-.352.248.453.453,0,0,1-.062,0,.467.467,0,0,1-.344-.151l-2.012-2.188a.467.467,0,0,1,.689-.632l1.56,1.7,1.991-3.837a.467.467,0,1,1,.829.43m-2.02-3.143a5.32,5.32,0,0,0-.692-.045,5.2,5.2,0,1,0,.692.045" transform="translate(-87.483 -90.842)"/>
        <path id="Path_7068" data-name="Path 7068" d="M18.887,4.412A1.136,1.136,0,0,0,20.02,3.279V1.134a1.133,1.133,0,1,0-2.266,0V3.279a1.136,1.136,0,0,0,1.133,1.133" transform="translate(-15.188 -0.001)"/>
        <path id="Path_7069" data-name="Path 7069" d="M60.643,1.133V3.278a1.133,1.133,0,1,0,2.266,0V1.133a1.133,1.133,0,1,0-2.266,0" transform="translate(-51.88)"/>
        <path id="Path_7070" data-name="Path 7070" d="M103.531,1.133V3.278a1.133,1.133,0,1,0,2.266,0V1.133a1.133,1.133,0,1,0-2.266,0" transform="translate(-88.57)"/>
        <path id="Path_7071" data-name="Path 7071" d="M146.42,1.133V3.278a1.133,1.133,0,1,0,2.266,0V1.133a1.133,1.133,0,1,0-2.266,0" transform="translate(-125.262)"/>
      </g>
    </g>
  </g>
</svg>
