<svg xmlns="http://www.w3.org/2000/svg" width="27" height="27" viewBox="0 0 27 27">
  <path id="Subtraction_6" data-name="Subtraction 6" d="M13,26A13,13,0,0,1,3.808,3.808,13,13,0,0,1,22.193,22.192,12.914,12.914,0,0,1,13,26Zm.084-21.117c-4.858,0-8.811,3.208-8.811,7.15,0,3.523,3.1,6.49,7.369,7.054.3.065.678.193.776.435a1.687,1.687,0,0,1,.029.8l0,.023c-.019.114-.1.613-.122.731l0,.019a.654.654,0,0,0,.045.49.3.3,0,0,0,.237.092,1.328,1.328,0,0,0,.485-.126,28.135,28.135,0,0,0,6.922-5.115,6.4,6.4,0,0,0,1.889-4.4C21.9,8.091,17.943,4.883,13.084,4.883Zm5.88,9.427H16.489a.17.17,0,0,1-.168-.171V10.3a.168.168,0,0,1,.168-.168h2.475a.168.168,0,0,1,.168.168v.625a.168.168,0,0,1-.168.168H17.282v.649h1.682a.168.168,0,0,1,.168.168v.625a.167.167,0,0,1-.168.168H17.282v.649h1.682a.168.168,0,0,1,.168.168v.625A.167.167,0,0,1,18.964,14.31Zm-3.412,0H14.93a.177.177,0,0,1-.047-.006l-.005,0-.006,0-.005,0-.005,0-.005,0-.005,0-.005,0,0,0h0l-.008,0a.176.176,0,0,1-.043-.042L13.03,11.862l0,2.28a.168.168,0,0,1-.168.168h-.625a.168.168,0,0,1-.167-.168V10.3a.168.168,0,0,1,.167-.168h.658l.005,0H12.9l.005,0,.005,0,.009,0,.005,0,.005,0,.005,0,0,0,0,0,.009.006,0,0,.007.005.006.005.011.012.014.018,1.759,2.375V10.3a.168.168,0,0,1,.168-.168h.626a.168.168,0,0,1,.167.168v3.845A.168.168,0,0,1,15.552,14.31Zm-4.567,0a.481.481,0,0,1-.481-.481v-3.22a.481.481,0,1,1,.961,0v3.22A.481.481,0,0,1,10.985,14.31Zm-1.178,0H7.332a.17.17,0,0,1-.168-.171V10.3a.168.168,0,0,1,.168-.168h.625a.168.168,0,0,1,.168.168v3.052H9.807a.168.168,0,0,1,.168.168v.625A.168.168,0,0,1,9.807,14.31Z" transform="translate(0.5 0.5)" fill="#fff" stroke="rgba(0,0,0,0)" stroke-miterlimit="10" stroke-width="1"/>
</svg>
