<svg xmlns="http://www.w3.org/2000/svg" width="43" height="43" viewBox="0 0 43 43">
  <g id="Group_325" data-name="Group 325" transform="translate(-800.124 -440.556)">
    <circle id="Ellipse_31" data-name="Ellipse 31" cx="21.5" cy="21.5" r="21.5" transform="translate(800.124 440.556)" fill="#4cc764"/>
    <g id="Group_243" data-name="Group 243" transform="translate(807.192 448.632)">
      <g id="Group_242" data-name="Group 242">
        <g id="Group_240" data-name="Group 240">
          <path id="Path_6976" data-name="Path 6976" d="M882.221,515.825c0-6.52-6.537-11.825-14.572-11.825s-14.571,5.3-14.571,11.825c0,5.845,5.184,10.741,12.187,11.666.474.1,1.12.313,1.283.719a2.984,2.984,0,0,1,.047,1.318s-.171,1.028-.208,1.248c-.064.368-.293,1.441,1.262.785s8.392-4.941,11.449-8.46h0A10.521,10.521,0,0,0,882.221,515.825Z" transform="translate(-853.078 -504)" fill="#fff"/>
        </g>
        <g id="Group_241" data-name="Group 241" transform="translate(4.78 8.674)">
          <path id="Path_6977" data-name="Path 6977" d="M1003.494,574.5a.278.278,0,0,0,.278-.278v-1.033a.279.279,0,0,0-.278-.278h-2.782v-1.073h2.782a.278.278,0,0,0,.278-.278v-1.033a.279.279,0,0,0-.278-.278h-2.782v-1.073h2.782a.278.278,0,0,0,.278-.278v-1.033a.279.279,0,0,0-.278-.278H999.4a.278.278,0,0,0-.278.278v.006h0v6.348h0v0a.278.278,0,0,0,.278.278h4.094Z" transform="translate(-983.979 -567.585)" fill="#4cc764"/>
          <path id="Path_6978" data-name="Path 6978" d="M892.49,574.5a.278.278,0,0,0,.278-.278v-1.033a.279.279,0,0,0-.278-.278h-2.782v-5.048a.279.279,0,0,0-.278-.278H888.4a.278.278,0,0,0-.278.278v6.354h0v0a.278.278,0,0,0,.278.278h4.094Z" transform="translate(-888.118 -567.585)" fill="#4cc764"/>
          <rect id="Rectangle_164" data-name="Rectangle 164" width="1.59" height="6.916" rx="0.795" transform="translate(5.525)" fill="#4cc764"/>
          <path id="Path_6979" data-name="Path 6979" d="M953.318,567.585h-1.033a.278.278,0,0,0-.278.278v3.777l-2.909-3.929a.268.268,0,0,0-.023-.029l0,0-.017-.017-.005,0-.015-.013-.007-.005-.015-.01-.009-.005-.015-.008-.009,0-.016-.007-.009,0-.017-.006-.01,0-.017,0-.012,0-.015,0h-1.052a.278.278,0,0,0-.278.278v6.359a.278.278,0,0,0,.278.278h1.034a.278.278,0,0,0,.278-.278v-3.776l2.913,3.934a.281.281,0,0,0,.072.07l0,0,.018.011.008,0,.014.007.014.006.009,0,.019.006h0a.286.286,0,0,0,.073.01h1.028a.278.278,0,0,0,.278-.278v-6.359A.278.278,0,0,0,953.318,567.585Z" transform="translate(-939.447 -567.585)" fill="#4cc764"/>
        </g>
      </g>
    </g>
  </g>
</svg>
