<svg xmlns="http://www.w3.org/2000/svg" xmlns:xlink="http://www.w3.org/1999/xlink" width="25.667" height="21.525" viewBox="0 0 25.667 21.525">
  <defs>
    <clipPath id="clip-path">
      <rect id="Rectangle_376" data-name="Rectangle 376" width="25.667" height="21.525" transform="translate(0 0)" fill="#fff"/>
    </clipPath>
  </defs>
  <g id="Group_405" data-name="Group 405" transform="translate(0 -0.004)">
    <g id="Group_404" data-name="Group 404" transform="translate(0 0.004)" clip-path="url(#clip-path)">
      <path id="Path_7059" data-name="Path 7059" d="M4.5,2.749,18.687,18.3l1.528,5.912a.241.241,0,0,0,.179-.166l2.341-7.684a.243.243,0,0,1,.115-.142l-.086.048Z" transform="translate(-4.408 -2.694)" fill="#fff"/>
      <path id="Path_7060" data-name="Path 7060" d="M25.506,9.155.326.019A.243.243,0,0,0,0,.285L3.272,21.122a.243.243,0,0,0,.355.177l7.613-4.065a.243.243,0,0,1,.289.045l4.051,4.176a.24.24,0,0,0,.228.068l-2.359-5.468L.09.059,19.217,13.1l6.324-3.5a.243.243,0,0,0-.035-.441" transform="translate(0 -0.004)" fill="#fff"/>
    </g>
  </g>
</svg>
