<svg xmlns="http://www.w3.org/2000/svg" viewBox="0 0 66.86 66.86"><defs><style>.cls-1{fill:none;stroke:#fff;stroke-miterlimit:10;}</style></defs><g id="Layer_2" data-name="Layer 2"><g id="Layer_1-2" data-name="Layer 1"><path class="cls-1" d="M47.1,47.1C31.46,62.74,16.53,66.05,11,66.35A40.32,40.32,0,0,1,5,53.12a50.06,50.06,0,0,1,14.43-9.63l6,6c2.05-.55,7.69-2.88,14.43-9.63S49,27.5,49.51,25.45l-6-6A50.06,50.06,0,0,1,53.12,5a40.32,40.32,0,0,1,13.23,6C66.05,16.53,62.74,31.46,47.1,47.1Z"/><line class="cls-1" x1="27.22" x2="27.22" y2="13.61"/><line class="cls-1" y1="27.22" x2="13.61" y2="27.22"/><line class="cls-1" x1="3.65" y1="13.61" x2="15.43" y2="20.42"/><line class="cls-1" x1="13.61" y1="3.65" x2="20.42" y2="15.43"/></g></g></svg>