<svg xmlns="http://www.w3.org/2000/svg" viewBox="0 0 372.26 278.14"><defs><style>.cls-1{opacity:0.6;}.cls-2,.cls-3{fill:none;stroke:#fff;stroke-width:4.56px;}.cls-2{stroke-miterlimit:10;}.cls-3{stroke-linecap:round;stroke-linejoin:round;}.cls-4{fill:#fff;}</style></defs><g id="Layer_2" data-name="Layer 2"><g id="Layer_1-2" data-name="Layer 1"><g class="cls-1"><circle class="cls-2" cx="276.63" cy="190.07" r="21.72"/><path class="cls-2" d="M314.91,251.39c-.81-25.27-17.64-39.61-38.28-39.61s-37.48,14.34-38.29,39.61h0V268H315v-16.6Z"/><line class="cls-2" x1="258.74" y1="262.88" x2="258.74" y2="267.99"/><line class="cls-2" x1="294.51" y1="261.6" x2="294.51" y2="266.71"/><circle class="cls-2" cx="340.5" cy="195.28" r="16.7"/><path class="cls-2" d="M370,242.44C369.32,223,356.38,212,340.5,212s-28.83,11-29.45,30.46h0v12.78h59V242.44Z"/><line class="cls-2" x1="326.74" y1="251.29" x2="326.74" y2="255.22"/><line class="cls-2" x1="354.25" y1="250.3" x2="354.25" y2="254.23"/><circle class="cls-2" cx="199.98" cy="195.28" r="16.7"/><path class="cls-2" d="M229.43,242.44C228.8,223,215.86,212,200,212s-28.83,11-29.45,30.46h0v12.78h59V242.44Z"/><line class="cls-2" x1="186.22" y1="251.29" x2="186.22" y2="255.22"/><line class="cls-2" x1="213.74" y1="250.3" x2="213.74" y2="254.23"/><path class="cls-3" d="M145.68,275.86H8.67a6.4,6.4,0,0,1-6.39-6.38V44.91a6.4,6.4,0,0,1,6.39-6.38h34.9"/><path class="cls-3" d="M226.11,38.53h33a6.41,6.41,0,0,1,6.39,6.38V132"/><line class="cls-3" x1="78.1" y1="38.53" x2="186.49" y2="38.53"/><rect class="cls-3" x="43.57" y="2.28" width="34.53" height="71.22" rx="17.26"/><rect class="cls-3" x="191.58" y="2.28" width="34.53" height="71.22" rx="17.26"/><rect class="cls-4" x="59.17" y="121.13" width="21.66" height="21.66"/><rect class="cls-4" x="101.38" y="121.13" width="21.66" height="21.66"/><rect class="cls-4" x="143.9" y="121.13" width="21.66" height="21.66"/><rect class="cls-4" x="185.18" y="121.13" width="21.66" height="21.66"/><rect class="cls-4" x="58.4" y="163.34" width="21.66" height="21.66"/><rect class="cls-4" x="100.6" y="163.34" width="21.66" height="21.66"/><rect class="cls-4" x="144.41" y="163.34" width="21.66" height="21.66"/><rect class="cls-4" x="58.4" y="205.54" width="21.66" height="21.66"/><rect class="cls-4" x="100.6" y="205.54" width="21.66" height="21.66"/></g></g></g></svg>