<svg xmlns="http://www.w3.org/2000/svg" viewBox="0 0 268.34 278.69"><defs><style>.cls-1{opacity:0.6;}.cls-2,.cls-4{fill:none;stroke:#fff;}.cls-2{stroke-linecap:round;stroke-linejoin:round;stroke-width:5.11px;}.cls-3{fill:#fff;}.cls-4{stroke-miterlimit:10;stroke-width:1.52px;}</style></defs><g id="Layer_2" data-name="Layer 2"><g id="Layer_1-2" data-name="Layer 1"><g class="cls-1"><path class="cls-2" d="M226.38,38.8h33a6.41,6.41,0,0,1,6.38,6.39V269.75a6.39,6.39,0,0,1-6.38,6.39H8.94a6.41,6.41,0,0,1-6.39-6.39V45.19A6.41,6.41,0,0,1,8.94,38.8h34.9"/><line class="cls-2" x1="78.37" y1="38.8" x2="186.76" y2="38.8"/><rect class="cls-2" x="43.84" y="2.55" width="34.53" height="71.22" rx="17.26"/><rect class="cls-2" x="191.85" y="2.55" width="34.53" height="71.22" rx="17.26"/><rect class="cls-3" x="124.42" y="115.02" width="17.45" height="17.45"/><rect class="cls-3" x="158.42" y="115.02" width="17.45" height="17.45"/><rect class="cls-4" x="194.74" y="115.02" width="17.45" height="17.45"/><rect class="cls-3" x="19.7" y="149.02" width="17.45" height="17.45"/><rect class="cls-3" x="53.7" y="149.02" width="17.45" height="17.45"/><rect class="cls-3" x="90.01" y="149.02" width="17.45" height="17.45"/><rect class="cls-3" x="123.27" y="149.02" width="17.45" height="17.45"/><rect class="cls-3" x="157.27" y="149.02" width="17.45" height="17.45"/><rect class="cls-4" x="193.58" y="149.02" width="17.45" height="17.45"/><rect class="cls-3" x="19.07" y="183.02" width="17.45" height="17.45"/><rect class="cls-3" x="53.07" y="183.02" width="17.45" height="17.45"/><rect class="cls-3" x="89.39" y="183.02" width="17.45" height="17.45"/><rect class="cls-3" x="122.64" y="183.02" width="17.45" height="17.45"/><rect class="cls-3" x="156.64" y="183.02" width="17.45" height="17.45"/><rect class="cls-4" x="192.96" y="183.02" width="17.45" height="17.45"/><rect class="cls-3" x="122.64" y="217.02" width="17.45" height="17.45"/><rect class="cls-3" x="156.64" y="217.02" width="17.45" height="17.45"/><rect class="cls-4" x="192.96" y="217.02" width="17.45" height="17.45"/><rect class="cls-4" x="227.95" y="115.02" width="17.45" height="17.45"/><rect class="cls-4" x="226.8" y="149.02" width="17.45" height="17.45"/><rect class="cls-4" x="226.17" y="183.02" width="17.45" height="17.45"/><rect class="cls-4" x="226.17" y="217.02" width="17.45" height="17.45"/><rect class="cls-3" x="19.07" y="217.02" width="17.45" height="17.45"/><rect class="cls-3" x="53.07" y="217.02" width="17.45" height="17.45"/><rect class="cls-3" x="89.39" y="217.02" width="17.45" height="17.45"/><line class="cls-4" x1="247.12" y1="102.38" x2="196.03" y2="248.01"/><line class="cls-4" x1="196.03" y1="102.38" x2="247.12" y2="248.01"/></g></g></g></svg>