<svg xmlns="http://www.w3.org/2000/svg" viewBox="0 0 311.39 305"><defs><style>.cls-1{opacity:0.6;}.cls-2{fill:none;stroke:#fff;stroke-linecap:round;stroke-linejoin:round;stroke-width:5px;}.cls-3{fill:#fff;}</style></defs><g id="Layer_2" data-name="Layer 2"><g id="Layer_1-2" data-name="Layer 1"><g class="cls-1"><path class="cls-2" d="M146.26,276.08H8.9a6.41,6.41,0,0,1-6.4-6.38V45.13a6.41,6.41,0,0,1,6.4-6.38h35"/><path class="cls-2" d="M226.89,38.75H260a6.41,6.41,0,0,1,6.41,6.38v87.05"/><line class="cls-2" x1="78.51" y1="38.75" x2="187.17" y2="38.75"/><rect class="cls-2" x="43.89" y="2.5" width="34.61" height="71.22" rx="17.29"/><rect class="cls-2" x="192.27" y="2.5" width="34.61" height="71.22" rx="17.29"/><rect class="cls-3" x="59.53" y="121.35" width="21.71" height="21.66"/><rect class="cls-3" x="101.85" y="121.35" width="21.71" height="21.66"/><rect class="cls-3" x="144.48" y="121.35" width="21.71" height="21.66"/><rect class="cls-3" x="185.86" y="121.35" width="21.71" height="21.66"/><rect class="cls-3" x="58.76" y="163.56" width="21.71" height="21.66"/><rect class="cls-3" x="101.07" y="163.56" width="21.71" height="21.66"/><rect class="cls-3" x="144.98" y="163.56" width="21.71" height="21.66"/><rect class="cls-3" x="58.76" y="205.76" width="21.71" height="21.66"/><rect class="cls-3" x="101.07" y="205.76" width="21.71" height="21.66"/><ellipse class="cls-2" cx="240.15" cy="233.93" rx="68.74" ry="68.57"/><polyline class="cls-2" points="240.15 189.69 240.15 236.49 264.05 257.93"/></g></g></g></svg>