<svg xmlns="http://www.w3.org/2000/svg" viewBox="0 0 1043.14 1043.14"><defs><style>.cls-1,.cls-3,.cls-4{fill:none;stroke-miterlimit:10;}.cls-1{stroke:#1e22aa;stroke-width:20.89px;}.cls-2{fill:#1e22aa;}.cls-3{stroke:#727272;stroke-width:0.5px;}.cls-4{stroke:#dbdcdc;stroke-width:6px;}</style></defs><g id="Layer_2" data-name="Layer 2"><g id="contents"><circle class="cls-1" cx="521.57" cy="521.57" r="96.62"/><circle class="cls-2" cx="521.57" cy="521.57" r="26.42"/><circle class="cls-3" cx="521.57" cy="521.57" r="194.16"/><circle class="cls-3" cx="521.57" cy="521.57" r="314.87"/><circle class="cls-3" cx="521.57" cy="521.57" r="521.32"/><path class="cls-2" d="M518.93,372.52a22,22,0,0,1-2.73,1.82,7.19,7.19,0,0,0,3.38,3,4.52,4.52,0,0,0-.91,1.13c-2.58-1.24-4.1-3.86-4.94-7.14h0a9.52,9.52,0,0,1-1.29.9c2.65,2.31,2.59,5.82,1.23,6.8a2.17,2.17,0,0,1-1.57.52c-.35,0-.77,0-1.2,0a3.12,3.12,0,0,0-.37-1.25,11.18,11.18,0,0,0,1.31.07,1.21,1.21,0,0,0,.92-.28,2.29,2.29,0,0,0,.46-2.14,20.3,20.3,0,0,1-5.57,3,6.57,6.57,0,0,0-.69-1.08,15.59,15.59,0,0,0,5.91-3c-.11-.24-.24-.48-.38-.72a20.75,20.75,0,0,1-4.38,2.23,4.61,4.61,0,0,0-.66-1,15.26,15.26,0,0,0,4.44-2,3.49,3.49,0,0,0-.52-.49,21.16,21.16,0,0,1-3.37,1.25,6.46,6.46,0,0,0-.69-1,16.91,16.91,0,0,0,4.6-1.71h-2.58v-1.12H517v1.12h-2.06a14.23,14.23,0,0,0,.74,2,19,19,0,0,0,2.26-1.71Zm-10.25-1.76h-1.29v-2.91h5.1v-1.18h1.34v1.18H519v2.91H517.7V369h-9Z"/><path class="cls-2" d="M527.61,371.93s0,.39,0,.56c-.15,4.41-.32,6-.71,6.5a1.11,1.11,0,0,1-.88.5,7,7,0,0,1-1.42,0,2.83,2.83,0,0,0-.33-1.19c.5,0,.93,0,1.14,0a.43.43,0,0,0,.42-.18c.26-.32.41-1.6.55-5.07h-1.57c-.18,2.55-.64,4.86-1.85,6.43a3.93,3.93,0,0,0-.92-.9c1.46-1.9,1.61-5.18,1.67-8.47h-1.48V369h2.44v-2.27h1.26V369h2v.94a11.28,11.28,0,0,0,1.51-3.25l1.17.28a13,13,0,0,1-.53,1.48h4.78v1.19H529.5a10,10,0,0,1-1.19,1.78,5.78,5.78,0,0,0-1-.71c.14-.16.29-.31.42-.49h-2.79c0,.58,0,1.17-.06,1.75Zm4.75,3.43a5.32,5.32,0,0,0,2.85,3.16,4.18,4.18,0,0,0-.81,1,6.11,6.11,0,0,1-2.72-3,6.36,6.36,0,0,1-3.18,3,5,5,0,0,0-.84-.88,4.86,4.86,0,0,0,3.13-3.28H528.1v-1.18h2.84V372.4H530a8,8,0,0,1-.87,1.45,6,6,0,0,0-1-.68,8,8,0,0,0,1.56-3.34l1.2.28c-.11.37-.22.75-.36,1.13h4.13v1.16h-2.47v1.78h2.71v1.18Z"/><path class="cls-2" d="M668.64,519.75h1.19v1h-1.19v1.92H667.5v-1.92h-2.88v-1h1v-1.84h-.43v-.5a7.16,7.16,0,0,1-3.78,5.29,3.92,3.92,0,0,0-.82-.75,6,6,0,0,0,2.3-1.78,10.82,10.82,0,0,0-1-.88,4.89,4.89,0,0,1-.45.46,5.49,5.49,0,0,0-.74-.63l0,0a1.59,1.59,0,0,1-.69.27,7.46,7.46,0,0,1-.83,0,3,3,0,0,0-.26-1.08c.24,0,.45,0,.61,0a.59.59,0,0,0,.37-.13,1.23,1.23,0,0,0,.24-.9,4.42,4.42,0,0,0-1-2.64c.3-1,.59-2.2.82-3.14h-1.36v11.11H657.5V510.41h2.86l.17-.05.82.47c-.33,1.14-.77,2.63-1.15,3.75a4.68,4.68,0,0,1,1,2.91,3.27,3.27,0,0,1-.2,1.22,6.73,6.73,0,0,0,1.63-3l1,.21a9.18,9.18,0,0,1-.3.93h1.06l.2,0,.56.2v-.06h2.32v-1.16h1.14v1.16h1v1h-1Zm-3.87-5.88a8.94,8.94,0,0,1-3.08,2.1,3.84,3.84,0,0,0-.76-.91,8,8,0,0,0,3-1.82h-2.59v-1.11h1.47a6.54,6.54,0,0,0-.94-1.6l1-.43a5.9,5.9,0,0,1,1,1.71l-.69.32h1.54v-2.31H666v2.31h1.56l-.7-.3a11.59,11.59,0,0,0,1-1.75l1.13.41c-.42.59-.87,1.19-1.22,1.64h1.81v1.11h-2.83a8.08,8.08,0,0,0,3.1,1.72,4.19,4.19,0,0,0-.77.92A8.63,8.63,0,0,1,666,513.8V516h-1.19Zm-1.85,3.9c-.15.28-.31.55-.47.8.32.25.68.55.95.81a7.83,7.83,0,0,0,.64-1.61Zm4.58,2v-1.84h-1v1.84Z"/><path class="cls-2" d="M679.32,510.2c0,.19,0,.43-.05.68.13,1.86.86,8.15,6.1,10.56a4.23,4.23,0,0,0-1,1.1c-3.39-1.64-4.94-4.85-5.67-7.55a11.61,11.61,0,0,1-5.39,7.56,4.42,4.42,0,0,0-1.08-1c5.6-3,5.52-9.49,5.62-11.33Z"/><path class="cls-2" d="M371.65,521.11c0,.74-.17,1.13-.63,1.34a6.24,6.24,0,0,1-2.37.24,4.68,4.68,0,0,0-.44-1.27c.79,0,1.61,0,1.85,0s.32-.09.32-.33v-9.37h-9v11h-1.26V510.5h11.57Zm-2.28-7h-7V513h7Zm-5.11,5.8v1h-1.21v-5.49h5.62v4.51Zm0-3.41v2.32h3.2v-2.32Z"/><path class="cls-2" d="M387.6,513.24c-.45.4-1,.81-1.37,1.13a6.87,6.87,0,0,0,1.75,1.39,4.06,4.06,0,0,0-.84,1,5.35,5.35,0,0,1-1-.71v2.84h-2.59v2.54c0,.61-.11.94-.58,1.1a5.9,5.9,0,0,1-2.05.19,6.19,6.19,0,0,0-.4-1.14c.66,0,1.32,0,1.49,0s.25-.06.25-.21v-2.5h-2.66v-2.94a8.12,8.12,0,0,1-1,.73,6,6,0,0,0-.82-1,8.1,8.1,0,0,0,1.86-1.38,10.44,10.44,0,0,0-1.14-1l.8-.74c.35.25.74.54,1.08.84a9.1,9.1,0,0,0,.7-1.08h-2.62v-1a19.6,19.6,0,0,1-.94,2v9.36h-1.2v-7.34a13.79,13.79,0,0,1-1,1.27,8.26,8.26,0,0,0-.7-1.3,15.79,15.79,0,0,0,3.09-5.41l1.21.37c-.13.33-.26.67-.4,1h3.1a10.86,10.86,0,0,0,.46-1.43l1.19.24c-.11.4-.25.81-.39,1.19h4.69v1.09H384.8a8.76,8.76,0,0,0,.8,1.27,11.73,11.73,0,0,0,1-1.09Zm-6.5,6.36a10.35,10.35,0,0,1-2.07,2.59,9.46,9.46,0,0,0-1-.72,6.88,6.88,0,0,0,1.89-2.23Zm3.87-4.39h-4.18v.94H385Zm0,1.79h-4.18v1H385Zm-2.58-4.66a12.37,12.37,0,0,1-1.22,2h3.5a12.11,12.11,0,0,1-1.09-2Zm3.23,6.92a12.57,12.57,0,0,1,1.95,2.37l-1.09.58a13.56,13.56,0,0,0-1.86-2.42Z"/><path class="cls-2" d="M517.84,667.83a10,10,0,0,1-2.61,4.61,12,12,0,0,0,4.33,1.57,5,5,0,0,0-.84,1.19,11.79,11.79,0,0,1-4.51-1.91,13.16,13.16,0,0,1-4,1.94,5.72,5.72,0,0,0-.74-1.12,10.89,10.89,0,0,0,3.68-1.66,10.88,10.88,0,0,1-2.15-3,11.78,11.78,0,0,1-3.22,5.31,4,4,0,0,0-1.13-.9c2.47-2,3.44-5.39,3.81-8h-3.3v-1.26h3.47c.1-1,.11-1.82.14-2.23h1.35c0,.48-.06,1.25-.16,2.23h7.22v1.26h-7.38c-.07.52-.17,1.09-.28,1.67h5.18l.25-.06Zm-5.84.94a8.3,8.3,0,0,0,2.17,2.87,8.19,8.19,0,0,0,2-2.87Z"/><path class="cls-2" d="M529.13,662.75c0,.19,0,.43,0,.68.13,1.87.86,8.16,6.1,10.56a4.23,4.23,0,0,0-1,1.1c-3.39-1.64-4.94-4.85-5.67-7.55a11.63,11.63,0,0,1-5.4,7.56,4.2,4.2,0,0,0-1.07-1c5.6-3,5.52-9.48,5.61-11.33Z"/><path class="cls-2" d="M663.92,724.31c0,.19,0,.43,0,.68.13,1.87.86,8.16,6.1,10.57a4.2,4.2,0,0,0-1,1.09c-3.39-1.64-4.94-4.85-5.67-7.55a11.61,11.61,0,0,1-5.39,7.56,4.62,4.62,0,0,0-1.08-1c5.6-3,5.52-9.48,5.62-11.33Z"/><path class="cls-2" d="M752.55,851.74h1.19v1h-1.19v1.92h-1.14v-1.92h-2.88v-1h1v-1.83h-.43v-.51a7.18,7.18,0,0,1-3.78,5.3,3.72,3.72,0,0,0-.82-.76,5.8,5.8,0,0,0,2.3-1.78,9.61,9.61,0,0,0-1-.88,3.92,3.92,0,0,1-.45.46,6.33,6.33,0,0,0-.74-.63l0,0a1.43,1.43,0,0,1-.69.27,4.43,4.43,0,0,1-.82,0,3.18,3.18,0,0,0-.27-1.07h.62a.52.52,0,0,0,.36-.13,1.2,1.2,0,0,0,.24-.89,4.4,4.4,0,0,0-.95-2.65c.29-1,.58-2.2.81-3.14h-1.36v11.11h-1.11V842.4h2.86l.17,0,.82.46c-.33,1.15-.77,2.63-1.14,3.75a4.73,4.73,0,0,1,1,2.92,3.31,3.31,0,0,1-.2,1.22,6.65,6.65,0,0,0,1.63-3l1,.21c-.09.32-.2.63-.31.92h1.06l.2,0,.56.2v-.06h2.32v-1.16h1.14v1.16h1v1h-1Zm-3.87-5.88a8.67,8.67,0,0,1-3.08,2.1,3.84,3.84,0,0,0-.76-.91,8,8,0,0,0,3-1.82h-2.59v-1.11h1.47a6.62,6.62,0,0,0-.93-1.59l1-.44a6,6,0,0,1,1,1.71l-.69.32h1.54v-2.31h1.19v2.31h1.56l-.7-.29a12.1,12.1,0,0,0,1-1.75l1.13.4c-.42.59-.87,1.19-1.22,1.64h1.81v1.11h-2.83a8,8,0,0,0,3.1,1.72,5.21,5.21,0,0,0-.77.93,8.62,8.62,0,0,1-3.13-2.09V848h-1.19Zm-1.85,3.91c-.15.28-.3.54-.47.8a10.91,10.91,0,0,1,.95.81,7,7,0,0,0,.64-1.61Zm4.58,2v-1.83h-.95v1.83Z"/><path class="cls-2" d="M768.45,842.41v12.26h-1.38V854h-8.88v.69h-1.32V842.41Zm-1.38,10.37v-9.16h-8.88v9.16Zm-.66-2.16v1.08h-7.47v-1.08h3v-2.07H759.5v-1.11H762v-1.69h-2.84V844.6h7v1.15H763.2v1.69h2.62v1.11H763.2v2.07h1.93a8.92,8.92,0,0,0-1.24-1.52l.82-.45A9.85,9.85,0,0,1,766,850.1l-.86.52Z"/><path class="cls-2" d="M778.39,854.1l-.83-1.32a7.62,7.62,0,0,0,1.25-.2,4,4,0,0,0,3.39-4,3.71,3.71,0,0,0-3.39-3.9,27.65,27.65,0,0,1-.84,3.93c-.84,2.86-2,4.44-3.39,4.44s-2.66-1.54-2.66-3.88a6.07,6.07,0,0,1,6.26-5.82,5.18,5.18,0,0,1,5.49,5.28C783.67,851.59,781.79,853.61,778.39,854.1Zm-3.77-2.69c.63,0,1.29-.91,1.94-3.07a22.51,22.51,0,0,0,.77-3.62,4.69,4.69,0,0,0-4,4.33C773.33,850.66,774,851.41,774.62,851.41Z"/><path class="cls-2" d="M793.52,842.19c0,.2,0,.43,0,.69.13,1.86.86,8.15,6.1,10.56a4.2,4.2,0,0,0-1,1.09c-3.39-1.64-4.94-4.85-5.67-7.55a11.61,11.61,0,0,1-5.4,7.56,4.37,4.37,0,0,0-1.07-1c5.6-3,5.52-9.48,5.61-11.33Z"/><path class="cls-2" d="M805,851.73a3.74,3.74,0,0,0,3.26,1.47c1.59.07,4.84,0,6.61-.1a5.49,5.49,0,0,0-.41,1.28c-1.62.07-4.59.09-6.21,0a4.67,4.67,0,0,1-3.8-1.61c-.58.57-1.2,1.13-1.89,1.73l-.64-1.28a21.41,21.41,0,0,0,1.83-1.43v-3.38H802v-1.2H805Zm-.67-6.5a9.86,9.86,0,0,0-2.16-2.34l1-.73a10.41,10.41,0,0,1,2.22,2.24Zm3.46.33h-2.22v-1h3.86v-.9h-2.93v-.94h2.93v-1h1.27v1h3v.94h-3v.9h4v1h-2.27l.52.13c-.25.46-.49.9-.7,1.23h2.27v1h-3.77v.79h3.24v.94h-3.24v.86h3.82v1h-3.82v1.15h-1.27v-1.15H805.7v-1h3.69v-.86h-3v-.94h3v-.79H805.8v-1h2a5.7,5.7,0,0,0-.54-1.24Zm3.25,1.25c.18-.36.39-.87.53-1.25h-3.08a4.15,4.15,0,0,1,.54,1.25l-.49.11h2.9Z"/><path class="cls-2" d="M853.24,327h5.31v1.17H846.73V327h5.14v-2h-4v-1.13h4v-1.93h-3.35v-1a16.32,16.32,0,0,1-1.61,1,5,5,0,0,0-.83-1.05,16,16,0,0,0,5.73-5.21h1.34a16.55,16.55,0,0,0,6,5.05,6.84,6.84,0,0,0-.85,1.15,18,18,0,0,1-1.55-1v1h-3.5v1.93h4.08v1.13h-4.08Zm3.34-6.25a18.44,18.44,0,0,1-4-3.83,16.88,16.88,0,0,1-3.86,3.83Z"/><path class="cls-2" d="M870.94,324.73v-.58h-2.3v.64h-1.3v-4.47H865v6h8.84v1.27H865v1h-1.33v-8.2h-2v-1.24h2v-3H865v3h2.3v-3.32h1.3v3.32h2.3v-3.17h1.32v3.17h2.11v1.24h-2.11v4.41Zm0-1.8v-2.61h-2.3v2.61Z"/><path class="cls-2" d="M885.72,321.83a9.67,9.67,0,0,0,4.15,2.19,5.51,5.51,0,0,0-.88,1.11,11.3,11.3,0,0,1-2.64-1.28v4.64H885v-4.86h1a9,9,0,0,1-1.84-1.8h-1.5a9,9,0,0,1-1.86,1.78H882v.9c0,1.33-.33,3-3.09,4.1a4.05,4.05,0,0,0-.89-1.06c2.38-.83,2.65-2.1,2.65-3.08v-.73a12.31,12.31,0,0,1-2.79,1.44,5.22,5.22,0,0,0-.87-1.08,10.28,10.28,0,0,0,4.1-2.27h-2.54v-5.71h9.69v5.71Zm-5.85-3.37h2.86v-1.28h-2.86Zm0,2.31h2.86v-1.3h-2.86Zm7.06-3.59H884v1.28h2.89Zm0,2.29H884v1.3h2.89Z"/><path class="cls-2" d="M899.12,327.94l-.83-1.32a9,9,0,0,0,1.25-.19,4,4,0,0,0,3.39-4,3.73,3.73,0,0,0-3.39-3.91,26.72,26.72,0,0,1-.84,3.94c-.84,2.86-2,4.44-3.39,4.44s-2.66-1.54-2.66-3.88a6.08,6.08,0,0,1,6.26-5.83,5.19,5.19,0,0,1,5.49,5.28C904.4,325.43,902.52,327.45,899.12,327.94Zm-3.77-2.69c.63,0,1.29-.91,1.94-3.06a22.74,22.74,0,0,0,.77-3.62,4.69,4.69,0,0,0-4,4.33C894.06,324.51,894.75,325.25,895.35,325.25Z"/><path class="cls-2" d="M914.25,316c0,.19,0,.43,0,.68.13,1.86.86,8.15,6.1,10.56a4.23,4.23,0,0,0-1,1.1c-3.39-1.64-4.94-4.85-5.67-7.55a11.61,11.61,0,0,1-5.39,7.56,4.42,4.42,0,0,0-1.08-1c5.6-3,5.52-9.49,5.61-11.33Z"/><path class="cls-2" d="M927.86,327.61a18.08,18.08,0,0,0-2-1.6,4.91,4.91,0,0,1-2.65,2.3,4,4,0,0,0-.68-1c1.86-.8,2.41-1.87,2.55-2.86h-2.26v-1.14h2.31v-1.08h1.18v1.08h2.45v1.14h-2.48a3.79,3.79,0,0,1-.07.45,24.25,24.25,0,0,1,2.44,1.8Zm-2.65-7.41a7.36,7.36,0,0,1-1.86,1.84,5.1,5.1,0,0,0-.77-.85,7,7,0,0,0,2.26-2.07h-2v-1h2.35v-2.27h1.14v2.27h2.37v1h-2.37v.1c.55.29,2.11,1.27,2.49,1.55l-.7.91c-.36-.34-1.15-.95-1.79-1.43V322h-1.14Zm-1.44-2.26a6.31,6.31,0,0,0-.71-1.64l.88-.32a5.05,5.05,0,0,1,.77,1.57Zm4.89-1.71c-.34.63-.67,1.26-1,1.7l-.85-.31a13.38,13.38,0,0,0,.73-1.7Zm2.93,10.37a10,10,0,0,1-2.87,1.92,7.94,7.94,0,0,0-.87-.87,8.09,8.09,0,0,0,2.66-1.71Zm-.52-8.09c.1-.36.2-.77.28-1.13h-2.52v-1.12h6.6v1.12h-2.69l-.41,1.13H935v7.26h-5.75v-7.26Zm2.7,1h-3.33v1.13h3.33Zm0,2.05h-3.33v1.15h3.33Zm0,2.08h-3.33v1.16h3.33Zm-.38,2.38a16.3,16.3,0,0,1,2.36,1.78l-1,.71a19.25,19.25,0,0,0-2.29-1.85Z"/><path class="cls-2" d="M661.65,314.92h-5.34v2.88c0,.75-.21,1.12-.78,1.33a9.55,9.55,0,0,1-2.69.22,4.75,4.75,0,0,0-.55-1.3c1,0,2,0,2.27,0s.37-.09.37-.31v-2.85h-5.24v-1.24h5.24v-1.91h-3.15v-1.22h7.71v1.22h-3.18v1.91h5.34ZM651,311.24h-1.28v-3.32h5.2v-1.43h1.38v1.43h5.29v3.32h-1.34v-2.11H651Z"/><path class="cls-2" d="M676.85,308v3.25h-1.34v-2h-9v2h-1.29V308h5.06v-1.53h1.38V308Zm-5.18,3.72h4.05v7.58H674.4v-.6h-6.69v.6h-1.28v-7.58h4v-1.89h1.29Zm-4,1.21v1.65h2.67V313Zm0,4.57h2.67v-1.78h-2.67Zm4-4.57v1.65h2.73V313Zm2.73,4.57v-1.78h-2.73v1.78Z"/><path class="cls-2" d="M515.06,452.84c-.31.51-.63,1-1,1.54v9.77h-1.51v-7.88a18.67,18.67,0,0,1-5.12,4.05,7.75,7.75,0,0,0-1-1.24,16.68,16.68,0,0,0,6.75-6.24H506.9v-1.43h12.84v1.43Zm.12,2.28a35.41,35.41,0,0,1,5.05,4l-1.17,1.08a33.58,33.58,0,0,0-4.93-4.15Z"/><path class="cls-2" d="M536.43,461.21v1.59H523.24v-1.59Zm-1.24-8.73V454H524.48v-1.51Z"/><path class="cls-2" d="M464.2,480.48l-1.29-.87a16,16,0,0,0,2.84-3.92l1.33.65A23.08,23.08,0,0,1,464.2,480.48Zm6.17-9.2v1.38h3.76c.39,0,.95,0,1.34-.07v1.54c-.44,0-1,0-1.32,0h-3.78v7.14c0,.83-.44,1.29-1.41,1.29a21.16,21.16,0,0,1-2.27-.12l-.13-1.48a10.11,10.11,0,0,0,1.71.16c.39,0,.55-.15.55-.55,0-.71,0-5.66,0-6.38v-.06h-4c-.46,0-.94,0-1.36,0v-1.58a9.77,9.77,0,0,0,1.35.09h4v-1.39a6.49,6.49,0,0,0-.12-1.17h1.77A7.42,7.42,0,0,0,470.37,471.28Zm5.64,8.34-1.38.77a27.67,27.67,0,0,0-2.49-4l1.29-.7A32.16,32.16,0,0,1,476,479.62Z"/><path class="cls-2" d="M481.78,475.38h8.16c.72,0,1.31-.06,1.68-.09v1.86c-.33,0-1-.08-1.68-.08h-8.16c-.82,0-1.72,0-2.23.08v-1.86C480,475.32,481,475.38,481.78,475.38Z"/><path class="cls-2" d="M497.16,477.87a26.35,26.35,0,0,0,.43-6,4.61,4.61,0,0,0-.12-1.21h1.74c0,.12-.07.67-.07,1.2a32.42,32.42,0,0,1-.47,6.4,8.39,8.39,0,0,1-2.67,4.2l-1.44-1A6.94,6.94,0,0,0,497.16,477.87Zm4.42,2.83v-8.88a11.12,11.12,0,0,0-.09-1.2h1.74a10.72,10.72,0,0,0-.07,1.2v8.3a10.63,10.63,0,0,0,4.08-3.45l.91,1.29A15.83,15.83,0,0,1,503,482.1a4.77,4.77,0,0,0-.57.37l-1-.82A4.4,4.4,0,0,0,501.58,480.7Z"/><path class="cls-2" d="M512.1,474.73h9.82a9.47,9.47,0,0,0,1.26-.07v1.54l-1.26,0h-3.87a9.21,9.21,0,0,1-.93,4,7.39,7.39,0,0,1-3,2.81l-1.38-1a6.18,6.18,0,0,0,2.77-2.24,6.87,6.87,0,0,0,.9-3.54H512.1c-.45,0-1,0-1.37.05v-1.56C511.15,474.7,511.63,474.73,512.1,474.73ZM514,471H519a12.71,12.71,0,0,0,1.5-.09v1.55c-.48,0-1-.06-1.5-.06H514c-.51,0-1.06,0-1.47.06v-1.55A11.33,11.33,0,0,0,514,471Zm8.61.83-1,.42a17.25,17.25,0,0,0-1.19-2.07l1-.41A20.28,20.28,0,0,1,522.57,471.78Zm1.72-.66-1,.43a15.9,15.9,0,0,0-1.23-2.07l1-.4A19.89,19.89,0,0,1,524.29,471.12Z"/><path class="cls-2" d="M530.61,475.72a16.07,16.07,0,0,0,3.64-3.12l1.17,1.14a20.6,20.6,0,0,1-3.37,2.76v5.27a9.7,9.7,0,0,0,.07,1.44h-1.74c0-.26.06-1,.06-1.44v-4.32a31.12,31.12,0,0,1-4.51,1.89l-.72-1.41A20.67,20.67,0,0,0,530.61,475.72Z"/><path class="cls-2" d="M544.59,478.74a14.31,14.31,0,0,0,5.2-5.66l.92,1.64a15.35,15.35,0,0,1-5.27,5.43,16.51,16.51,0,0,1-5.74,2.23l-1-1.54A15.75,15.75,0,0,0,544.59,478.74Zm-.51-4.8-1.19,1.21a33,33,0,0,0-3.75-3.18l1.1-1.17A32,32,0,0,1,544.08,473.94Z"/><path class="cls-2" d="M559.11,472c-.08.13-.14.25-.23.39h3.62a3.94,3.94,0,0,0,1.12-.15l1.23.75a5.46,5.46,0,0,0-.42.91,14.76,14.76,0,0,1-2.64,5.1,13.57,13.57,0,0,1-6,4.16l-1.39-1.26a12,12,0,0,0,6-3.74,11.21,11.21,0,0,0,2.28-4.42H558a15.66,15.66,0,0,1-3.8,3.66l-1.32-1a12.75,12.75,0,0,0,4.71-5,7.3,7.3,0,0,0,.56-1.35l1.74.57C559.59,471.12,559.27,471.69,559.11,472Zm5.8-.08-1,.42a18.62,18.62,0,0,0-1.18-2.07l1-.4A23.45,23.45,0,0,1,564.91,471.91Zm1.73-.66-1,.44a14.3,14.3,0,0,0-1.23-2.07l1-.41A17.52,17.52,0,0,1,566.64,471.25Z"/><path class="cls-2" d="M578.53,472.66a20.33,20.33,0,0,1-2.46,4.28,39.41,39.41,0,0,1,4.29,4.39L579,482.5a34,34,0,0,0-4-4.38,19.63,19.63,0,0,1-5.78,4.32l-1.21-1.27a16.75,16.75,0,0,0,6.16-4.4,12.36,12.36,0,0,0,2.39-4h-5.51c-.58,0-1.39.08-1.63.09v-1.69c.3,0,1.17.1,1.63.1h5.57a4.51,4.51,0,0,0,1.3-.15l1,.72A5.42,5.42,0,0,0,578.53,472.66Z"/><polyline class="cls-4" points="271.67 508.79 259.82 521.57 271.67 534.35"/><polyline class="cls-4" points="768.42 534.35 780.28 521.57 768.42 508.79"/><polyline class="cls-4" points="533.83 273.2 521.05 261.34 508.27 273.2"/><polyline class="cls-4" points="508.27 769.94 521.05 781.8 533.83 769.94"/></g></g></svg>