<svg xmlns="http://www.w3.org/2000/svg" viewBox="0 0 598.88 598.89"><defs><style>.cls-1{opacity:0.6;}.cls-2,.cls-4{fill:none;stroke:#fff;stroke-miterlimit:10;}.cls-3{fill:#fff;}.cls-4{stroke-width:0.5px;}</style></defs><g id="Layer_2" data-name="Layer 2"><g id="Layer_1-2" data-name="Layer 1"><g id="Layer_1-2-2" data-name="Layer 1-2"><g class="cls-1"><path class="cls-2" d="M299.44,15.72c-156.7,0-283.72,127-283.72,283.73s127,283.72,283.72,283.72,283.72-127,283.72-283.72S456.14,15.72,299.44,15.72Z"/></g><path class="cls-3" d="M299.44,581.17c156.1.6,283.12-125.46,283.72-281.56v-.16c.6,157.2-126.34,285.12-283.54,285.72h-.18Z"/><path class="cls-4" d="M299.44.25C134.2.25.25,134.25.25,299.45s134,299.19,299.19,299.19S598.63,464.69,598.63,299.45,464.63.25,299.44.25Z"/><path class="cls-3" d="M299.44,17.72c-156.1-.6-283.12,125.46-283.72,281.56v.17C15.11,142.25,142.05,14.33,299.25,13.72h.19Z"/></g></g></g></svg>