<svg xmlns="http://www.w3.org/2000/svg" viewBox="0 0 462.16 462.16"><defs><style>.cls-1{fill:#1e22aa;}.cls-2,.cls-3{fill:none;stroke-miterlimit:10;}.cls-2{stroke:#727272;stroke-width:0.22px;}.cls-3{stroke:#dbdcdc;stroke-width:2.66px;}</style></defs><g id="Layer_2" data-name="Layer 2"><g id="Layer_1-2" data-name="Layer 1"><path class="cls-1" d="M231.08,183.65a47.44,47.44,0,1,0,47.44,47.43A47.49,47.49,0,0,0,231.08,183.65Zm-41,31.61a11.12,11.12,0,0,0,2-2.73l.93.45a16,16,0,0,1-2,2.89Zm79.13,15.82a38.18,38.18,0,1,1-72.18-17.33,9.08,9.08,0,0,0-.53-.74l.9-.49.16.21c.25-.44.49-.87.75-1.3h-3v5c0,.58-.3.9-1,.9-.49,0-1.11,0-1.58-.08l-.1-1a6.69,6.69,0,0,0,1.2.12c.27,0,.38-.11.38-.39,0-.49,0-3.94,0-4.44v0h-2.79c-.32,0-.66,0-1,0v-1.1a7.3,7.3,0,0,0,.94.06h2.8v-1a4.62,4.62,0,0,0-.08-.81h1.23a5.68,5.68,0,0,0-.08.82v1h2.62c.28,0,.66,0,.93,0v.25A38.13,38.13,0,0,1,261.5,208l.05,0c.15.21.34.5.51.78a38.82,38.82,0,0,1,3.67,6.27,13.48,13.48,0,0,0,2-1.78,8.71,8.71,0,0,0,1.66-2.76h-3.84c-.41,0-1,.05-1.14.06v-1.18c.21,0,.82.07,1.14.07h3.88a3.31,3.31,0,0,0,.91-.1l.68.5a3.23,3.23,0,0,0-.31.54,14,14,0,0,1-1.71,3,28.06,28.06,0,0,1,3,3.06l-.92.82a23.75,23.75,0,0,0-2.77-3.05,15.11,15.11,0,0,1-2.11,1.85A37.92,37.92,0,0,1,269.26,231.08Z"/><path class="cls-1" d="M231.08,219.38a11.71,11.71,0,1,0,11.71,11.7A11.7,11.7,0,0,0,231.08,219.38Z"/><path class="cls-1" d="M220.49,201.84a5.74,5.74,0,0,1,.67.87,13.05,13.05,0,0,0,3.56-2.82v5.48h1.06v-6.8c.25-.36.47-.72.69-1.08h3.26v-1h-8.95v1h4.41A11.47,11.47,0,0,1,220.49,201.84Z"/><path class="cls-1" d="M225.82,199.71a23.59,23.59,0,0,1,3.44,2.89l.81-.75a25.56,25.56,0,0,0-3.52-2.77Z"/><rect class="cls-1" x="233.03" y="197.24" width="7.46" height="1.06"/><rect class="cls-1" x="232.17" y="203.32" width="9.2" height="1.11"/><path class="cls-1" d="M198.87,210.62c-.17.27-.34.53-.51.81l.51,0Z"/><path class="cls-1" d="M199.25,215.27a23.1,23.1,0,0,0-1.64-2.54c-.18.33-.35.68-.53,1a21.92,21.92,0,0,1,1.21,2.06Z"/><path class="cls-1" d="M203.28,212.31c-.57,0-1.22,0-1.56-.06v1.3c.35,0,1-.05,1.56-.05H209c.46,0,.94,0,1.17.05v-1.3c-.26,0-.67.06-1.17.06Z"/><path class="cls-1" d="M221.65,214.11l-.63-.9a7.44,7.44,0,0,1-2.85,2.41v-5.78a6.59,6.59,0,0,1,.05-.84H217a8,8,0,0,1,.06.84V216a3,3,0,0,1-.07.66l.69.58a3.52,3.52,0,0,1,.4-.26A11.1,11.1,0,0,0,221.65,214.11Z"/><path class="cls-1" d="M214.29,209.88a18.31,18.31,0,0,1-.3,4.17,4.84,4.84,0,0,1-1.81,2.54l1,.67a6,6,0,0,0,1.86-2.93,23,23,0,0,0,.32-4.46,8.32,8.32,0,0,1,0-.84h-1.21A3.4,3.4,0,0,1,214.29,209.88Z"/><path class="cls-1" d="M224.86,216.89l1,.71a5.16,5.16,0,0,0,2.09-1.95,6.48,6.48,0,0,0,.64-2.78h2.7l.88,0v-1.08a7,7,0,0,1-.88.05H224.4c-.32,0-.66,0-1-.05v1.09c.29,0,.64,0,1,0h3a4.84,4.84,0,0,1-.62,2.47A4.36,4.36,0,0,1,224.86,216.89Z"/><path class="cls-1" d="M230.28,210.24v-1.07a9.24,9.24,0,0,1-1.05.06H225.7a8.19,8.19,0,0,1-1-.06v1.07c.28,0,.67,0,1,0h3.52C229.57,210.2,229.94,210.22,230.28,210.24Z"/><path class="cls-1" d="M231.7,209.81a16,16,0,0,0-.85-1.44l-.67.29a10.94,10.94,0,0,1,.83,1.44Z"/><path class="cls-1" d="M232.9,209.35a12.45,12.45,0,0,0-.87-1.43l-.66.29a10.28,10.28,0,0,1,.85,1.44Z"/><path class="cls-1" d="M240.66,211.18l-.82-.8a10.81,10.81,0,0,1-2.54,2.17,13.92,13.92,0,0,1-3.76,1.54l.5,1a20.79,20.79,0,0,0,3.15-1.31v3c0,.33,0,.82,0,1h1.21a7,7,0,0,1-.05-1V213.1A14.88,14.88,0,0,0,240.66,211.18Z"/><path class="cls-1" d="M247.05,214.66a11,11,0,0,1-4.11,1.46l.7,1.08a11.57,11.57,0,0,0,4-1.56,10.73,10.73,0,0,0,3.67-3.79l-.64-1.13A10,10,0,0,1,247.05,214.66Z"/><path class="cls-1" d="M246.69,211.31a21.12,21.12,0,0,0-2.67-2.18l-.77.81a22,22,0,0,1,2.62,2.22Z"/><path class="cls-1" d="M261.73,209.74l.68-.3c-.08-.17-.21-.4-.35-.64l-.56-.76-.62.26A10.89,10.89,0,0,1,261.73,209.74Z"/><path class="cls-1" d="M259.7,208.75a13,13,0,0,1,.82,1.44l.69-.29a14.48,14.48,0,0,0-.84-1.43Z"/><path class="cls-1" d="M259.53,210.22H257c.06-.09.1-.17.16-.27s.33-.6.54-.92l-1.21-.39a5.11,5.11,0,0,1-.39.94,8.93,8.93,0,0,1-3.28,3.46l.92.68a10.76,10.76,0,0,0,2.64-2.56h3.27a7.78,7.78,0,0,1-1.58,3.09,8.45,8.45,0,0,1-4.2,2.6l1,.88a9.51,9.51,0,0,0,4.18-2.9,10.34,10.34,0,0,0,1.84-3.55,3.76,3.76,0,0,1,.29-.64l-.86-.52A2.9,2.9,0,0,1,259.53,210.22Z"/><path class="cls-1" d="M263.42,216.35l.85.89a12.17,12.17,0,0,0,1.91-1.16c-.14-.34-.3-.68-.45-1A10.45,10.45,0,0,1,263.42,216.35Z"/><circle class="cls-2" cx="231.08" cy="231.08" r="86.02"/><circle class="cls-2" cx="231.08" cy="231.08" r="139.5"/><circle class="cls-2" cx="231.08" cy="231.08" r="230.97"/><path class="cls-1" d="M229,166.1a16.82,16.82,0,0,1-2,1.36,5.38,5.38,0,0,0,2.52,2.25,3.69,3.69,0,0,0-.68.84c-1.92-.93-3.05-2.88-3.68-5.33h0a6.81,6.81,0,0,1-1,.67c2,1.73,1.93,4.35.92,5.08a1.66,1.66,0,0,1-1.17.39l-.9,0a2.44,2.44,0,0,0-.27-.93,9.24,9.24,0,0,0,1,0,.9.9,0,0,0,.69-.21,1.71,1.71,0,0,0,.34-1.6,15.15,15.15,0,0,1-4.16,2.22,4.38,4.38,0,0,0-.51-.81,11.57,11.57,0,0,0,4.41-2.24,4.63,4.63,0,0,0-.28-.54,15.23,15.23,0,0,1-3.27,1.66,3.58,3.58,0,0,0-.49-.75,11.25,11.25,0,0,0,3.31-1.49,2.77,2.77,0,0,0-.39-.37,15.24,15.24,0,0,1-2.51.93,5.06,5.06,0,0,0-.52-.75,12.3,12.3,0,0,0,3.43-1.28h-1.92v-.83h5.72v.83H226a10,10,0,0,0,.55,1.51,13.54,13.54,0,0,0,1.69-1.28Zm-7.65-1.3h-1v-2.18h3.8v-.88h1v.88h3.86v2.18h-1v-1.29h-6.73Z"/><path class="cls-1" d="M235.51,165.66s0,.3,0,.42c-.11,3.29-.24,4.47-.53,4.85a.88.88,0,0,1-.66.38,5.86,5.86,0,0,1-1.06,0,2.06,2.06,0,0,0-.25-.89c.38,0,.7,0,.86,0a.3.3,0,0,0,.31-.14c.19-.24.31-1.19.41-3.78h-1.17a9,9,0,0,1-1.38,4.8,3.13,3.13,0,0,0-.69-.67c1.09-1.42,1.2-3.87,1.25-6.32h-1.1v-.91h1.82v-1.7h.94v1.7h1.49v.7a8.22,8.22,0,0,0,1.13-2.43l.88.21a10.46,10.46,0,0,1-.4,1.11h3.57v.89h-4a7.16,7.16,0,0,1-.89,1.33,4.31,4.31,0,0,0-.76-.54,3.73,3.73,0,0,0,.32-.36h-2.08c0,.44,0,.87,0,1.3Zm3.55,2.56a4,4,0,0,0,2.13,2.37,2.94,2.94,0,0,0-.61.74,4.53,4.53,0,0,1-2-2.27,4.72,4.72,0,0,1-2.37,2.27,3.54,3.54,0,0,0-.63-.66,3.62,3.62,0,0,0,2.34-2.45h-2v-.87H238V166h-.7a5.94,5.94,0,0,1-.65,1.07,5.87,5.87,0,0,0-.76-.5,6,6,0,0,0,1.16-2.5l.9.21c-.09.29-.17.57-.27.85h3.08V166h-1.84v1.33h2v.87Z"/><path class="cls-1" d="M295.21,226.87h.89v.75h-.89v1.44h-.85v-1.44h-2.15v-.75H293V225.5h-.32v-.37a5.34,5.34,0,0,1-2.82,4,3,3,0,0,0-.61-.57,4.38,4.38,0,0,0,1.72-1.33,8.35,8.35,0,0,0-.74-.65,3.55,3.55,0,0,1-.33.34c-.12-.11-.37-.34-.55-.47l0,0a1,1,0,0,1-.51.2,4.07,4.07,0,0,1-.61,0,2.54,2.54,0,0,0-.2-.8h.46a.38.38,0,0,0,.27-.1.93.93,0,0,0,.18-.67,3.28,3.28,0,0,0-.71-2c.21-.71.43-1.64.6-2.34h-1v8.29h-.83V219.9H289l.13,0,.62.34c-.25.86-.58,2-.86,2.8a3.5,3.5,0,0,1,.74,2.18,2.4,2.4,0,0,1-.15.91,5,5,0,0,0,1.22-2.27l.77.16a7,7,0,0,1-.23.69h.8l.14,0,.42.14v0h1.73v-.87h.85v.87H296v.74h-.74Zm-2.88-4.39a6.74,6.74,0,0,1-2.3,1.57,3.32,3.32,0,0,0-.57-.68,5.87,5.87,0,0,0,2.27-1.36H289.8v-.83h1.09a4.67,4.67,0,0,0-.7-1.19l.73-.32a4.69,4.69,0,0,1,.77,1.27l-.51.24h1.15v-1.72h.88v1.72h1.16l-.52-.21a9.3,9.3,0,0,0,.79-1.31l.84.3c-.31.44-.65.89-.91,1.22h1.35V222h-2.11a6.07,6.07,0,0,0,2.31,1.29,3.13,3.13,0,0,0-.57.69,6.54,6.54,0,0,1-2.34-1.56v1.64h-.88ZM291,225.4c-.12.21-.23.4-.36.59a8.68,8.68,0,0,1,.71.61,5.37,5.37,0,0,0,.48-1.2Zm3.41,1.47V225.5h-.71v1.37Z"/><path class="cls-1" d="M303.19,219.74c0,.15,0,.33,0,.51.09,1.39.63,6.09,4.54,7.89a3.26,3.26,0,0,0-.74.81,8.36,8.36,0,0,1-4.23-5.63,8.67,8.67,0,0,1-4,5.64,3.25,3.25,0,0,0-.8-.76c4.18-2.23,4.12-7.08,4.19-8.46Z"/><path class="cls-1" d="M163.79,227.89c0,.55-.13.84-.47,1a4.53,4.53,0,0,1-1.77.18,3.53,3.53,0,0,0-.33-1c.6,0,1.2,0,1.38,0s.24-.08.24-.25v-7H156.1v8.19h-.94V220h8.63Zm-1.7-5.23h-5.23v-.83h5.23ZM158.27,227v.73h-.9v-4.1h4.19V227Zm0-2.55v1.73h2.39v-1.73Z"/><path class="cls-1" d="M175.7,222c-.34.3-.71.61-1,.85a5,5,0,0,0,1.31,1,3.11,3.11,0,0,0-.63.72,3.92,3.92,0,0,1-.72-.53v2.12H172.7v1.89c0,.46-.09.7-.43.83a4.54,4.54,0,0,1-1.54.14,4.26,4.26,0,0,0-.29-.85c.49,0,1,0,1.11,0s.19,0,.19-.16V226.2h-2V224a6.67,6.67,0,0,1-.77.54,4.49,4.49,0,0,0-.62-.72,5.87,5.87,0,0,0,1.39-1,7.35,7.35,0,0,0-.85-.72l.6-.55c.26.19.55.41.8.63a6.65,6.65,0,0,0,.53-.81h-2v-.75a15.06,15.06,0,0,1-.7,1.46v7h-.9v-5.47a10.9,10.9,0,0,1-.76.95,5.38,5.38,0,0,0-.52-1,11.92,11.92,0,0,0,2.31-4l.9.27c-.1.25-.19.51-.3.76h2.31a8.93,8.93,0,0,0,.35-1.07l.89.18c-.09.3-.19.6-.3.89h3.51v.81h-2a5.8,5.8,0,0,0,.59.95,8.76,8.76,0,0,0,.75-.81Zm-4.85,4.75a7.69,7.69,0,0,1-1.55,1.93,5.8,5.8,0,0,0-.74-.53,5.16,5.16,0,0,0,1.41-1.67Zm2.88-3.28h-3.11v.7h3.11Zm0,1.34h-3.11v.71h3.11Zm-1.92-3.48a9.44,9.44,0,0,1-.91,1.48h2.61a9.6,9.6,0,0,1-.81-1.48Zm2.41,5.17a9.7,9.7,0,0,1,1.46,1.76l-.82.44a10.22,10.22,0,0,0-1.39-1.81Z"/><path class="cls-1" d="M228.21,294.93a7.3,7.3,0,0,1-1.94,3.43,8.76,8.76,0,0,0,3.23,1.18,3.71,3.71,0,0,0-.63.88,8.85,8.85,0,0,1-3.36-1.42,9.64,9.64,0,0,1-3,1.44,4.78,4.78,0,0,0-.55-.83,8.11,8.11,0,0,0,2.74-1.23,8.27,8.27,0,0,1-1.61-2.25,8.78,8.78,0,0,1-2.4,4,2.89,2.89,0,0,0-.84-.67c1.84-1.49,2.57-4,2.85-6h-2.47v-.94h2.59c.08-.76.09-1.36.11-1.66h1c0,.35,0,.93-.11,1.66h5.38v.94h-5.51c-.05.39-.13.82-.21,1.25h3.87l.19-.05Zm-4.35.7a6.29,6.29,0,0,0,1.62,2.14,6.46,6.46,0,0,0,1.46-2.14Z"/><path class="cls-1" d="M236.65,291.13c0,.15,0,.33,0,.51.09,1.39.64,6.09,4.55,7.88a2.94,2.94,0,0,0-.74.82,8.41,8.41,0,0,1-4.24-5.63,8.69,8.69,0,0,1-4,5.64,3.31,3.31,0,0,0-.81-.76c4.18-2.23,4.12-7.08,4.19-8.46Z"/><path class="cls-1" d="M145.33,297.5c0,.14,0,.32,0,.51.09,1.39.64,6.08,4.55,7.88a2.94,2.94,0,0,0-.74.82,8.37,8.37,0,0,1-4.24-5.64,8.68,8.68,0,0,1-4,5.65A3.33,3.33,0,0,0,140,306c4.18-2.22,4.12-7.07,4.19-8.45Z"/><path class="cls-1" d="M60.58,339.75h.89v.75h-.89v1.43h-.84V340.5H57.58v-.75h.74v-1.37H58V338A5.34,5.34,0,0,1,55.18,342a2.71,2.71,0,0,0-.61-.56,4.47,4.47,0,0,0,1.72-1.33,7,7,0,0,0-.74-.66,2.73,2.73,0,0,1-.33.35,3.83,3.83,0,0,0-.55-.47l0,0a1.29,1.29,0,0,1-.52.2,4,4,0,0,1-.61,0,2.35,2.35,0,0,0-.2-.81h.46a.42.42,0,0,0,.27-.09,1,1,0,0,0,.18-.67,3.32,3.32,0,0,0-.71-2c.22-.71.44-1.64.6-2.34h-1v8.29h-.83v-9.16h2.14l.12,0,.62.35c-.25.86-.58,2-.86,2.8a3.5,3.5,0,0,1,.74,2.17,2.6,2.6,0,0,1-.14.91,5,5,0,0,0,1.21-2.27l.77.16a5.08,5.08,0,0,1-.23.69h.8l.14,0,.42.15v0h1.74v-.87h.84v.87h.74v.74h-.74Zm-2.88-4.39a6.57,6.57,0,0,1-2.3,1.56,3.61,3.61,0,0,0-.57-.68,6,6,0,0,0,2.27-1.35H55.17v-.83h1.1a4.93,4.93,0,0,0-.7-1.19l.72-.33a4.59,4.59,0,0,1,.77,1.28l-.51.24H57.7v-1.72h.89v1.72h1.16l-.53-.22a8,8,0,0,0,.79-1.31l.84.31c-.31.44-.64.89-.9,1.22h1.34v.83H59.18a6.13,6.13,0,0,0,2.31,1.28,3.38,3.38,0,0,0-.57.69,6.3,6.3,0,0,1-2.33-1.56V337H57.7Zm-1.38,2.91c-.12.21-.23.41-.36.6.24.19.51.41.71.6a5.18,5.18,0,0,0,.48-1.2Zm3.42,1.48v-1.37H59v1.37Z"/><path class="cls-1" d="M72.46,332.79v9.14h-1v-.51H64.8v.51h-1v-9.14Zm-1,7.73v-6.84H64.8v6.84Zm-.49-1.61v.81H65.36v-.81h2.27v-1.55H65.78v-.82h1.85v-1.27H65.51v-.85h5.21v.85H68.54v1.27h1.95v.82H68.54v1.55H70a6.86,6.86,0,0,0-.93-1.14l.62-.33a7.66,7.66,0,0,1,1,1.08l-.64.39Z"/><path class="cls-1" d="M79.88,341.5l-.61-1a5.65,5.65,0,0,0,.93-.15,3,3,0,0,0,2.52-3,2.78,2.78,0,0,0-2.52-2.92,22.14,22.14,0,0,1-.63,2.94c-.63,2.13-1.5,3.31-2.53,3.31s-2-1.15-2-2.9a4.53,4.53,0,0,1,4.67-4.34,3.87,3.87,0,0,1,4.1,3.94C83.82,339.63,82.42,341.14,79.88,341.5Zm-2.81-2c.47,0,1-.68,1.44-2.29a17.43,17.43,0,0,0,.58-2.7,3.49,3.49,0,0,0-3,3.23C76.11,338.94,76.62,339.5,77.07,339.5Z"/><path class="cls-1" d="M91.18,332.62c0,.14,0,.32,0,.51.09,1.39.64,6.08,4.55,7.88a2.94,2.94,0,0,0-.74.82,8.43,8.43,0,0,1-4.24-5.64,8.68,8.68,0,0,1-4,5.65,3.33,3.33,0,0,0-.81-.77c4.18-2.22,4.12-7.07,4.19-8.45Z"/><path class="cls-1" d="M99.72,339.74a2.78,2.78,0,0,0,2.44,1.09c1.18.06,3.61,0,4.93-.07a4.41,4.41,0,0,0-.31.95c-1.2.05-3.42.07-4.63,0a3.44,3.44,0,0,1-2.83-1.2c-.44.43-.9.85-1.41,1.3l-.49-1a13.86,13.86,0,0,0,1.37-1.07v-2.52H97.54v-.9h2.18Zm-.5-4.85a7.18,7.18,0,0,0-1.61-1.75l.75-.54a8.1,8.1,0,0,1,1.65,1.67Zm2.58.25h-1.65v-.72H103v-.67h-2.19v-.7H103v-.71h1v.71h2.26v.7H104v.67h3v.72h-1.7l.39.09c-.19.35-.37.67-.52.92h1.69v.71H104v.6h2.41v.7H104v.64h2.85v.73H104v.85h-1v-.85h-2.75v-.73H103v-.64h-2.27v-.7H103v-.6h-2.68v-.71h1.47a4,4,0,0,0-.39-.93Zm2.43.93c.13-.27.29-.65.4-.93h-2.3a3.08,3.08,0,0,1,.4.93l-.36.08h2.16Z"/><path class="cls-1" d="M45.82,141.88h4v.88H41v-.88h3.84v-1.51h-3v-.85h3v-1.44h-2.5v-.78a10.26,10.26,0,0,1-1.2.78,3.71,3.71,0,0,0-.62-.79,12,12,0,0,0,4.28-3.88h1a12.44,12.44,0,0,0,4.48,3.77,5.49,5.49,0,0,0-.64.86,11.66,11.66,0,0,1-1.15-.74v.78H45.82v1.44h3v.85h-3Zm2.48-4.66a13.81,13.81,0,0,1-3-2.85,12.56,12.56,0,0,1-2.88,2.85Z"/><path class="cls-1" d="M59,140.21v-.44H57.31v.48h-1v-3.33H54.63v4.44h6.59v.95H54.63V143h-1v-6.11H52.11V136h1.52v-2.26h1V136h1.71v-2.48h1V136H59v-2.36h1V136h1.58v.93H60v3.29Zm0-1.35v-1.94H57.31v1.94Z"/><path class="cls-1" d="M70.07,138.05a7.27,7.27,0,0,0,3.09,1.63,4.32,4.32,0,0,0-.66.82,8.07,8.07,0,0,1-2-.95V143h-1v-3.62h.78a7,7,0,0,1-1.37-1.34H67.82a6.74,6.74,0,0,1-1.39,1.32h.87V140c0,1-.25,2.27-2.31,3.07a3.13,3.13,0,0,0-.66-.8c1.78-.61,2-1.57,2-2.3v-.54a9.57,9.57,0,0,1-2.08,1.08,3.92,3.92,0,0,0-.65-.81,7.64,7.64,0,0,0,3-1.69H64.74v-4.27H72v4.27Zm-4.37-2.52h2.13v-.95H65.7Zm0,1.72h2.13v-1H65.7ZM71,134.58H68.81v.95H71Zm0,1.7H68.81v1H71Z"/><path class="cls-1" d="M80.07,142.6l-.61-1a6.82,6.82,0,0,0,.93-.14,3,3,0,0,0,2.53-3,2.78,2.78,0,0,0-2.53-2.92,21.81,21.81,0,0,1-.63,2.94c-.63,2.13-1.49,3.31-2.53,3.31s-2-1.15-2-2.89a4.53,4.53,0,0,1,4.68-4.35A3.86,3.86,0,0,1,84,138.54C84,140.73,82.61,142.24,80.07,142.6Zm-2.81-2c.47,0,1-.68,1.44-2.29a16.34,16.34,0,0,0,.58-2.7,3.5,3.5,0,0,0-3,3.23C76.3,140,76.81,140.6,77.26,140.6Z"/><path class="cls-1" d="M91.37,133.72c0,.15,0,.32,0,.51.1,1.39.64,6.09,4.55,7.88a3.11,3.11,0,0,0-.74.82,8.4,8.4,0,0,1-4.24-5.64,8.65,8.65,0,0,1-4,5.65,3.44,3.44,0,0,0-.8-.76c4.18-2.23,4.11-7.08,4.19-8.46Z"/><path class="cls-1" d="M101.54,142.35a14.59,14.59,0,0,0-1.47-1.19,3.65,3.65,0,0,1-2,1.72,3.52,3.52,0,0,0-.52-.74A2.7,2.7,0,0,0,99.49,140H97.8v-.84h1.73v-.81h.88v.81h1.83V140h-1.85c0,.12,0,.22-.06.34a16.9,16.9,0,0,1,1.82,1.35Zm-2-5.53a5.5,5.5,0,0,1-1.39,1.38,4.22,4.22,0,0,0-.57-.63A5.25,5.25,0,0,0,99.28,136H97.8v-.77h1.76v-1.7h.85v1.7h1.76V136h-1.76v.07c.4.22,1.58.95,1.86,1.16l-.53.68c-.27-.25-.85-.71-1.33-1.06v1.28h-.85Zm-1.08-1.68a4.52,4.52,0,0,0-.53-1.22l.66-.24a3.6,3.6,0,0,1,.57,1.17Zm3.65-1.27a14.44,14.44,0,0,1-.72,1.26l-.64-.23a10,10,0,0,0,.55-1.26Zm2.19,7.73a7.34,7.34,0,0,1-2.15,1.43,5.52,5.52,0,0,0-.64-.64,6.11,6.11,0,0,0,2-1.28Zm-.39-6c.07-.27.15-.57.21-.85h-1.88v-.83h4.92v.83h-2c-.1.3-.21.59-.3.85h2V141h-4.29v-5.41Zm2,.73h-2.49v.85H106Zm0,1.54h-2.49v.86H106Zm0,1.55h-2.49v.86H106Zm-.29,1.77a12.61,12.61,0,0,1,1.76,1.33l-.74.53a14.33,14.33,0,0,0-1.72-1.38Z"/><path class="cls-1" d="M143.12,161.33h-4v2.14c0,.57-.15.84-.58,1a7.26,7.26,0,0,1-2,.16,3.41,3.41,0,0,0-.41-1c.71,0,1.48,0,1.7,0s.27-.06.27-.23v-2.12H134.2v-.93h3.91V159h-2.35v-.91h5.75V159h-2.37v1.42h4Zm-7.94-2.75h-1V156.1h3.88V155h1v1.06h3.94v2.48h-1V157h-6.91Z"/><path class="cls-1" d="M154.48,156.18v2.42h-1v-1.52h-6.68v1.52h-1v-2.42h3.78V155h1v1.14ZM150.61,159h3v5.65h-1v-.45h-5v.45h-1V159h3v-1.41h1Zm-3,.9v1.23h2v-1.23Zm0,3.4h2v-1.32h-2Zm3-3.4v1.23h2v-1.23Zm2,3.4v-1.32h-2v1.32Z"/><polyline class="cls-3" points="120.36 225.42 115.11 231.08 120.36 236.74"/><polyline class="cls-3" points="340.45 236.74 345.7 231.08 340.45 225.42"/><polyline class="cls-3" points="236.51 121.04 230.85 115.79 225.19 121.04"/><polyline class="cls-3" points="225.19 341.12 230.85 346.37 236.51 341.12"/></g></g></svg>