<svg xmlns="http://www.w3.org/2000/svg" viewBox="0 0 128.31 128.14"><defs><style>.cls-1{fill:#02b75d;}.cls-2{fill:#fcfe18;}</style></defs><g id="Layer_2" data-name="Layer 2"><g id="Layer_1-2" data-name="Layer 1"><g id="contents"><path class="cls-1" d="M65.14,80.21C78.9,80.8,90.26,70.34,93,58.06c3.18-14.17-4.91-30.17-20-33.87-3.91-1-7.93-1.42-11.86-2.31a10.64,10.64,0,0,1-8.5-12.15C53.94.16,65-2.27,71.07,2.07a17.63,17.63,0,0,1,3.52,3.38,2.68,2.68,0,0,1-.15,3.79.27.27,0,0,1-.08.07,2.78,2.78,0,0,1-3.87-.26,34.7,34.7,0,0,0-3-2.54,6,6,0,0,0-7.29.43,5.45,5.45,0,0,0-1.61,6.49,4.89,4.89,0,0,0,3.92,3.09c4,.76,8,1.31,11.87,2.35,12.36,3.28,20.14,11.44,23.53,23.58,4.2,15-1.67,30-14.77,38.49a31,31,0,0,1-17.42,4.83c-7.35,0-14.29-1.62-20.29-6.19-8.69-6.64-13.89-15.09-14.29-26.34A33.36,33.36,0,0,1,39.5,29.78a18.61,18.61,0,0,1,2.84-2.7c1.49-1.14,3.32-1.14,4.13,0,1.11,1.5.54,2.87-.52,4.15a73.32,73.32,0,0,0-4.9,6.09c-7.89,12.09-4.79,27.17,5.56,36.08C52,78,58.27,80.49,65.14,80.21Z"/><path class="cls-2" d="M97.34,94.09h-7.5c0,8.49-.22,16.74.11,25a6.66,6.66,0,0,0,5.72,6.34,88.19,88.19,0,0,0,9.46.73v-7.27l-7.79-.74Z"/><path class="cls-2" d="M80.56,94H73.41v31.93h7.15Z"/><path class="cls-2" d="M61.23,98c-.57-3-2.36-4.24-5.36-4.15s-4.6,1.84-5.38,5.56c-.73,3.53-1.36,7.08-2.08,10.61a12.6,12.6,0,0,1-.74,2l-.78-.08c-.22-.69-.49-1.36-.65-2.06-.9-4-1.62-8.13-2.69-12.13-1.17-4.33-4.2-4.62-7-3.58-2.16.8-3,2.65-3.26,4.88-.59,6.29-1.24,12.58-1.83,18.87-.25,2.68-.4,5.37-.62,8.32h6.5c.14-1.5.31-2.79.39-4.07.26-4.25.44-8.51.73-12.76a23.65,23.65,0,0,1,.69-3.11h1c.24,1,.51,2,.72,3,1,4.49,1.83,9,2.83,13.45.4,1.78,1.19,3.25,3.42,3.37s3.15-1.17,3.6-3c.74-3.06,1.45-6.14,2.12-9.22.55-2.57,1-5.17,2.44-7.55,1.31,6.64.86,13.36,2,19.92h6c0-3.28.12-6.32,0-9.35-.18-3.6-.57-7.19-.93-10.77C62,103.4,61.74,100.67,61.23,98Z"/><path class="cls-2" d="M15.08,104.73c-.92-.86-1.88-1.68-3.07-2.73,3.15-3,7.08-.65,10.21-2.2a8.53,8.53,0,0,0,.3-1.6V93.89c-3.63,0-6.77-.13-9.89,0A8.43,8.43,0,0,0,4.7,99.63c-1,3.34.26,6.69,3.43,9.21,2.13,1.69,4.27,3.37,6.27,5.21a22.88,22.88,0,0,1,2.47,3.32c-4,3.45-8.48,1.14-12.39,2.44V126c3.84,0,7.42.14,11,0a8.43,8.43,0,0,0,7.87-5,8.39,8.39,0,0,0-1.2-9.51A95.47,95.47,0,0,0,15.08,104.73Z"/><path class="cls-2" d="M110.81,101.25c-3.8,6.13-3.75,12.53.23,18.47,3.59,5.36,9.08,7.45,15.83,7.36v-5.83c-7.58-1.37-10.3-3.26-11.19-8.15l11.09-.44v-5.14H115.15c2.32-6.18,6.46-8,12-8.06V94C120.05,93.35,114.47,95.37,110.81,101.25Z"/><path d="M120.9,92.45c-11.51.69-19,10.57-16.65,21.88.18.89.28,1.81.43,2.82H98.43V92.5h-13c0,8.71-.18,17.11.07,25.49a8.79,8.79,0,0,0,7,8.8c4.59,1.18,9.23.59,14,.41.19-2.1.35-3.83.56-6.21,6,6.86,13.2,7.8,21.08,6.82v-8.35c-4.38.16-8.26-.37-10.91-5l10.87-.34v-8h-11.3c1.15-1.32,1.73-2,2.36-2.71,2.44-2.66,5.92-2.35,9.2-2.85v-8.2C125.65,92.43,123.27,92.31,120.9,92.45Zm-15.78,33.69a88.19,88.19,0,0,1-9.46-.73,6.66,6.66,0,0,1-5.72-6.34c-.33-8.24-.11-16.49-.11-25h7.51v24l7.79.74Zm22-32.14v5.46c-5.5,0-9.64,1.88-12,8.06h11.62v5.14l-11.09.44c.89,4.89,3.61,6.78,11.19,8.15v5.83c-6.75.09-12.24-2-15.83-7.36-4-5.94-4-12.34-.23-18.47,3.69-5.88,9.27-7.9,16.33-7.25Z"/><path d="M56.43,92.41c-1-.06-2,0-2.94-.08-2.88-.22-4.77,1.15-6,3.66-.53,1.12-1,2.28-1.73,3.89a18.52,18.52,0,0,0-1.5-3.7c-.91-1.29-1.92-2.87-3.26-3.44-6-2.57-11.57.56-12.27,6.94-.94,8.67-1.55,17.38-2.28,26.07a9.84,9.84,0,0,0,.22,1.8h12c.18-1.16.32-2,.45-2.85,1.74,2.42,4,2.73,6.7,2.85a6.78,6.78,0,0,0,6.42-3.37c.34,1.41.59,2.44.82,3.41H65.34c-.89-10.1-1.67-19.86-2.66-29.6C62.34,94.7,59.73,92.61,56.43,92.41Zm6.77,33.82h-6c-1.1-6.56-.65-13.28-2-19.92-1.49,2.38-1.89,5-2.44,7.55-.67,3.08-1.37,6.16-2.12,9.22-.45,1.86-1.36,3.14-3.6,3s-3-1.59-3.42-3.37c-1-4.47-1.88-9-2.83-13.45-.21-1-.48-2-.72-3h-1a23.65,23.65,0,0,0-.69,3.11c-.29,4.25-.47,8.51-.73,12.76-.08,1.28-.25,2.57-.39,4.07H30.81c.22-3,.37-5.64.62-8.32C32,111.59,32.67,105.3,33.26,99c.21-2.23,1.1-4.08,3.26-4.88,2.83-1,5.86-.75,7,3.58,1.07,4,1.79,8.09,2.69,12.13.16.7.43,1.37.65,2.06l.78.08a12.6,12.6,0,0,0,.74-2c.72-3.53,1.35-7.08,2.08-10.61.78-3.72,2.52-5.48,5.38-5.56S60.63,95,61.2,98c.51,2.67.74,5.4,1,8.11.36,3.58.75,7.17.93,10.77C63.34,119.89,63.2,123,63.2,126.23Z"/><path d="M16.09,103.89c-.58-.53-1.09-1.15-1.63-1.72l.26-.67h8.9V92.42c-4.73,0-9.3-.2-13.84.06-4.34.25-7.68,2.38-9.26,6.63-1.33,3.61,0,7.41,3.53,10.46,2.23,1.92,4.53,3.76,6.73,5.71a15.77,15.77,0,0,1,1.77,2.61H0v9.32c5.6,0,11.06.36,16.44-.12,3.91-.35,7.39-2.42,8.58-6.59a10.4,10.4,0,0,0-2.66-10.88C20.34,107.66,18.17,105.83,16.09,103.89ZM23.34,121c-1.5,3.24-4.4,4.8-7.87,5s-7.15,0-11,0v-6.09c3.91-1.3,8.43,1,12.39-2.44a22.88,22.88,0,0,0-2.47-3.32c-2-1.84-4.14-3.52-6.27-5.21C5,106.4,3.68,103.05,4.69,99.71a8.44,8.44,0,0,1,8-5.82c3.12-.17,6.26,0,9.89,0V98.2a8.53,8.53,0,0,1-.3,1.6C19.11,101.35,15.18,99,12,102c1.19,1,2.15,1.87,3.07,2.73a92,92,0,0,1,7.08,6.74A8.4,8.4,0,0,1,23.34,121Z"/><path d="M69,127.26H81.79V92.39H69ZM73.41,94h7.15v31.93H73.41Z"/><path class="cls-1" d="M75.51,62.07c2.67,1.82,2.83,2.82,1.15,4.82-6.7,7.9-20.37,7.79-26.95-.23a20.52,20.52,0,0,1-2.26-3.2c-.78-1.37-1.19-2.84.12-4.19,2.2-.93,2.94.82,3.81,2.13A14.08,14.08,0,0,0,60,67.87a13,13,0,0,0,11.65-2.56C73,64.32,74.17,63.22,75.51,62.07Z"/><path class="cls-1" d="M52.88,40.19a9.23,9.23,0,0,1,9,8.38,3.78,3.78,0,0,1-1,2.86,1.68,1.68,0,0,1-2.38-.16,1.64,1.64,0,0,1-.33-.57A20.08,20.08,0,0,1,57.15,48a5.07,5.07,0,0,0-4.81-3.39,5,5,0,0,0-5.12,2.79,6.26,6.26,0,0,1-1.31,2.21,3.39,3.39,0,0,1-2.55.7c-.5-.11-1-1.34-1-2.08-.1-3.47,4.28-7.66,8.25-8C51.15,40.15,51.69,40.19,52.88,40.19Z"/><path class="cls-1" d="M84.61,55.38c-3,.25-3,.25-3.54-2.38-.38-1.84-.89-3.53-2.77-4.54-2.94-1.57-5.42-1.11-7.42,1.6a5.77,5.77,0,0,0-.37.54c-.8,1.51-1.68,3.15-3.71,1.9s-.76-2.93,0-4.28c2.34-4.25,6.94-6.07,12.12-4.62C83.7,44.94,85.91,49.76,84.61,55.38Z"/></g></g></g></svg>