<svg xmlns="http://www.w3.org/2000/svg" viewBox="0 0 340.51 2284.29"><defs><style>.cls-1{fill:#e2e2e2;}.cls-2{fill:#fff;}</style></defs><g id="Layer_2" data-name="Layer 2"><g id="Layer_1-2" data-name="Layer 1"><path class="cls-1" d="M5.49,475.59s3.37-21,58.89-6S284.71,553.37,296,638.08c0,0-1.88,21.88-3.34,33,0,0,12.34-33-49.66-89-41.21-37.22-234-137-239.49-81.17Z"/><path class="cls-1" d="M45,282.19C44,260.08,72.12,241.56,118,239.08s195.36,22.07,217,150c.22,14.18-1.54,31.92-2,46,.45-16,1.26-39.93-3-51-15-39-40-67-66-83s-61.55-24.83-84-30c-28.38-6.54-66-8.92-84-4-11,3-52,17-47.59,50"/><path class="cls-1" d="M167,2.08c21-6,33.88,17,37.5,44.15,2.8,20.91-.91,44-7.62,60-2.3,5.46-9.84,14.7-24.18,17-7.26,1.16-13.61.64-20.7-3.11-8.55-4.53-20-12-23.58-30l-1,19c-.21,4.11,4.79,14.07,5.94,15.64,10.55,14.5,28.76,19.86,43.57,13.09,9.38-4.28,18.23-16.89,23.64-34.46,3-9.77,9.49-36.45,10.39-48.23,2-26-1-29-4-37C202.92,7.12,183-4.92,167,2.08Z"/><path class="cls-1" d="M128.45,90s.7-20.53,17-23.11C157,65.08,182.16,72,210,93.08c33,25,53,59,57.18,96.41L266,217.23s-.19-13.64-2.37-23.24C250,134.08,208,106.08,199,101.08,146.83,72.08,135,82.08,128.45,90Z"/><path class="cls-1" d="M266.05,217.23c-.74,17.59-8.33,35.75-13.63,47.22-19.21,41.68-48.86,64.53-76.92,82.47-20.12,12.86-52.11,17.79-72.89,15.75-18.23-1.78-42.7-3.76-52.08-21.65l-3.45-34.89c0,5.27,9.6,15.75,11,16.95,18,16,47.13,17.38,68,17,16.34-.3,51.5-13.21,67-24,15.7-10.93,25.05-16.6,40-32s34.18-49.77,34.18-94.59Z"/><path class="cls-1" d="M334,425.08c-.24,8.7-1.16,20.21-3,26-6.26,19.76-17.81,45-27,57-39,51-81,73-125,80-43.44,6.91-86,4-130-18-12.21-6.11-36-21-45-44.81-.84-2.23-1.82-6.83-1.36-9.87a173.43,173.43,0,0,1,1.66-25.32c.66,49,89.47,90.08,170.66,78,121-18,158.23-107,159-166C334,402.08,335,389.08,334,425.08Z"/><path class="cls-1" d="M11.49,1066.11s3.37-21,58.89-6,219.54,84,230.87,168.68c0,0-1.1,21.69-2.56,32.77,0,0,13.34-16.48-38.9-71.38C226,1154.65,22,1044.08,9.54,1091.43Z"/><path class="cls-1" d="M340.48,1025.37c.42,8.7-4.54,23.24-6.38,29a181,181,0,0,1-23,47.47c-38.49,57.17-86.66,75.44-130,80.72-43.67,5.31-89.77,7.26-132.68-18.65-11.69-7-31.33-18-38.33-48.15-.54-2.31-1.82-6.83-1.36-9.86a173.6,173.6,0,0,1,1.66-25.33C30,1151.08,120,1170.08,201,1158.08c75.25-11.15,137.75-96.92,138.52-155.95C339.55,1002.13,338.78,989.57,340.48,1025.37Z"/><path class="cls-1" d="M98.79,1867.92s3.36-23,39.88-14,116.26,53.22,124.08,125.94L261.26,2008s8.2-62.59-78.44-115.44c0,0-72.19-32-85.28,5Z"/><path class="cls-1" d="M13.85,1491.72s-2-40.56,88.3-45.31c55.93-2.94,113.16,7.61,167.64,42.46,15.8,10.11,31.74,22.27,46.36,41.29a119.17,119.17,0,0,1,14.82,24.4c7.24,16.17,8.72,37.48,9.06,62.13-2-27.61-7-40.61-17-58.61-13.07-23.54-38.92-39-54-48-59.75-35.53-113.78-39.25-174.93-33-3.13.32-6.27.71-9.4,1.17-21.39,3.12-68.67,14.83-67.2,48.36"/><path class="cls-1" d="M269.52,1404.4c-1.81,39.2-20,61.81-31.85,76.73A259.7,259.7,0,0,1,180,1535.21c-28.74,19.65-57.79,31.75-87.53,34.22a240.36,240.36,0,0,1-38.23-.4,47.22,47.22,0,0,1-17.53-4.44c-2-1-17.32-9-17.35-14.32-.07-11.73-2.46-22.79-3-34.21.46,6.64,16.1,16.78,18,17.68,25.38,11.59,46.53,7.48,72.89,6.51,20.63-.77,53.24-11.86,72.35-25.67,19.36-14,31.76-22.31,48.62-38s39.53-44.29,42.44-96.21C269.77,1382.78,269.52,1404.33,269.52,1404.4Z"/><path class="cls-1" d="M340,1624.54c.94,21.51-14.4,48.89-24,67.54-25,48.58-75,81-124,91.42-50.69,10.79-113.34,2.58-157-27.73-16-11.12-32.22-29-34.71-49.26a15.65,15.65,0,0,1-.21-4,209,209,0,0,1,1.69-28.26C14,1743.08,114,1766.08,184,1757.08c77.32-9.94,155.21-87.1,156-153C340,1604.08,338.29,1584.58,340,1624.54Z"/><path class="cls-1" d="M2.77,1651.59s3.21-21,56.17-6,209.37,84,220.17,168.67c0,0-1.05,21.7-2.44,32.78,0,0,3.83-36.15-37.1-71.38S46,1653.5.91,1676.91Z"/><path class="cls-1" d="M276.25,1859.18c-1.21,11.5-6.17,19.48-9.76,26.07-14.46,26.54-31.66,40.76-48.72,51-11.92,7.12-24.29,12.26-36.52,14.48a89.73,89.73,0,0,1-52.74-5.75,110.22,110.22,0,0,1-18.88-11c-2.51-1.73-12.57-10-12.74-16.08s1.19-26.36,1.2-26.37c.53-.84,3.81,3.45,4.3,4,4.91,5.1,9,9.68,13.79,13.32,17,13,35.15,18.43,53.22,17.66,29.61-1.26,65.1-15.89,91.48-51.07,9.17-12.23,15.81-24.06,17.75-50C277.36,1837.1,277.47,1847.68,276.25,1859.18Z"/><path class="cls-1" d="M98.79,1277.4s3.36-23,39.88-14,124.26,48.71,132.08,121.42l-1.49,28.12S278,1348.08,182.82,1302c0,0-84.79-48.93-85.28,5Z"/><path class="cls-1" d="M13.85,901.19s-2-40.55,88.3-45.3c55.93-2.94,113.16,7.6,167.64,42.45,15.8,10.12,31.74,22.28,46.36,41.3A118.9,118.9,0,0,1,331,964c7.24,16.17,8.72,37.47,9.06,62.13-3-22.67-7-42.09-22-62.09-13.92-18.57-39.92-36-55-45-59.75-35.53-107.78-41.77-168.93-35.52-3.13.32-6.27.7-9.4,1.16C63.31,887.85,16,896.08,17.5,936.09"/><path class="cls-1" d="M269.52,813.87c-1.81,39.21-20,61.82-31.85,76.73A259.76,259.76,0,0,1,180,944.69c-28.74,19.65-57.79,31.74-87.53,34.21-12.72,1.06-20.78.15-33.47-.82a75.13,75.13,0,0,1-22-6c-2-1-16-10-18-20-2.3-11.5-2.1-15.12-2.6-26.54.46,6.63,1.89,7.22,8.6,13.54,17,16,42.91,18.86,69,15,27-4,63.89-16.19,83-30,19.36-14,27.14-19.26,44-35s46.09-39.08,49-91C269,800.54,269.52,813.81,269.52,813.87Z"/><path class="cls-1" d="M69.24,2046.91s2.85-23,34-14,99.08,53.23,105.75,125.94L207,2185.08c2-35-9.16-64.15-83-117,0,0-50-32-55.86,8.42Z"/><path class="cls-1" d="M260.33,2032.52c-.26,19.33-12.7,39.79-18.3,48.56-18.23,28.57-37.88,47-56,57-21.1,11.6-44.6,16.85-63,14-18.79-2.92-37.47-8.35-53-33.3-1.57-2.54-2-4.88-2.81-9.21-.52-2.88-.23-4.35-.1-8.12.44-12.42.82-26.36,1.4-39.19-3,27.13,7.48,39.82,18.48,49.82s37.09,20,55,19c29.36-1.56,76.78-30.9,103-74,9.12-15,16.26-36.17,16.75-65.45C261.47,2008.57,260.59,2013.2,260.33,2032.52Z"/><path class="cls-1" d="M207.69,2181.05s2.86,22.8-59.7,35.82c-42,8.75-36.45,37.69-27,49.21,14,17,38.44,19.11,42.07,18-28.31-13.66-37.36-26.88-40.9-32.17-6.73-10-12.23-37.12,7.83-47.78,30.65-16.28,77.34-6.75,78.93-45.23Z"/><path class="cls-1" d="M81,660.4s3.9-23,46.31-14,135,53.22,144.1,125.94l-1.73,28.11s9.52-62.59-91.09-115.44c0,0-97.51-52.94-99,5Z"/><path class="cls-1" d="M292.06,676.18c-.92,8.9-8.27,18.6-12.29,23.87-16.14,21.19-37.74,31.15-58.15,36.87a189.94,189.94,0,0,1-43.22,6.51c-20.87.91-41.81,1.38-62.23-6.25-7.63-2.85-19-11.68-24.63-17.68s-12.75-18.56-12.35-25.4l1.61-27.67c-.15,2.56.51,10.71,1.23,12.65,7.62,20.56,24.1,35.55,45,41.89,13.12,4,27,4.83,40.69,4.65,24.2-.32,50.69-1.48,73.85-9,14.62-4.74,26.6-13.93,36.47-25.54,9.54-11.22,16.42-27.06,17.41-47.68Z"/><path class="cls-1" d="M299.24,1266.91c.05,8.94-6,19.21-9.29,24.78-13.28,22.43-33,34.14-52,41.53-22.9,8.91-51,13.88-75.52,12.77-14-.63-28.25-4.06-40.42-11.22-10.56-6.21-24.69-19.08-25.35-32.36,0,0,2.34-27.53,2.34-27.56.13,2.56-1.06,8.37-.16,10.24a51.94,51.94,0,0,0,7.84,11.57c8.86,10.46,17.76,19.15,31,23.88,24.73,8.83,55.73,3.6,80.58-2.79,24.44-6.29,47.7-17.9,64.81-36.8,9.6-10.6,19.14-29.27,17.92-49.87Z"/><path class="cls-2" d="M5.49,475.59s3.37-21,58.89-6S284.71,553.37,296,638.08c0,0-1.88,21.88-3.34,33,0,0,12.34-33-49.66-89-41.21-37.22-234-137-239.49-81.17Z"/><path class="cls-2" d="M45,282.19C44,260.08,72.12,241.56,118,239.08s195.36,22.07,217,150c.22,14.18-1.54,31.92-2,46,.45-16,1.26-39.93-3-51-15-39-40-67-66-83s-61.55-24.83-84-30c-28.38-6.54-66-8.92-84-4-11,3-52,17-47.59,50"/><path class="cls-2" d="M167,2.08c21-6,33.88,17,37.5,44.15,2.8,20.91-.91,44-7.62,60-2.3,5.46-9.84,14.7-24.18,17-7.26,1.16-13.61.64-20.7-3.11-8.55-4.53-20-12-23.58-30l-1,19c-.21,4.11,4.79,14.07,5.94,15.64,10.55,14.5,28.76,19.86,43.57,13.09,9.38-4.28,18.23-16.89,23.64-34.46,3-9.77,9.49-36.45,10.39-48.23,2-26-1-29-4-37C202.92,7.12,183-4.92,167,2.08Z"/><path class="cls-2" d="M128.45,90s.7-20.53,17-23.11C157,65.08,182.16,72,210,93.08c33,25,53,59,57.18,96.41L266,217.23s-.19-13.64-2.37-23.24C250,134.08,208,106.08,199,101.08,146.83,72.08,135,82.08,128.45,90Z"/><path class="cls-2" d="M266.05,217.23c-.74,17.59-8.33,35.75-13.63,47.22-19.21,41.68-48.86,64.53-76.92,82.47-20.12,12.86-52.11,17.79-72.89,15.75-18.23-1.78-42.7-3.76-52.08-21.65l-3.45-34.89c0,5.27,9.6,15.75,11,16.95,18,16,47.13,17.38,68,17,16.34-.3,51.5-13.21,67-24,15.7-10.93,25.05-16.6,40-32s34.18-49.77,34.18-94.59Z"/><path class="cls-2" d="M334,425.08c-.24,8.7-1.16,20.21-3,26-6.26,19.76-17.81,45-27,57-39,51-81,73-125,80-43.44,6.91-86,4-130-18-12.21-6.11-36-21-45-44.81-.84-2.23-1.82-6.83-1.36-9.87a173.43,173.43,0,0,1,1.66-25.32c.66,49,89.47,90.08,170.66,78,121-18,158.23-107,159-166C334,402.08,335,389.08,334,425.08Z"/><path class="cls-2" d="M11.49,1066.11s3.37-21,58.89-6,219.54,84,230.87,168.68c0,0-1.1,21.69-2.56,32.77,0,0,13.34-16.48-38.9-71.38C226,1154.65,22,1044.08,9.54,1091.43Z"/><path class="cls-2" d="M340.48,1025.37c.42,8.7-4.54,23.24-6.38,29a181,181,0,0,1-23,47.47c-38.49,57.17-86.66,75.44-130,80.72-43.67,5.31-89.77,7.26-132.68-18.65-11.69-7-31.33-18-38.33-48.15-.54-2.31-1.82-6.83-1.36-9.86a173.6,173.6,0,0,1,1.66-25.33C30,1151.08,120,1170.08,201,1158.08c75.25-11.15,137.75-96.92,138.52-155.95C339.55,1002.13,338.78,989.57,340.48,1025.37Z"/><path class="cls-2" d="M98.79,1867.92s3.36-23,39.88-14,116.26,53.22,124.08,125.94L261.26,2008s8.2-62.59-78.44-115.44c0,0-72.19-32-85.28,5Z"/><path class="cls-2" d="M13.85,1491.72s-2-40.56,88.3-45.31c55.93-2.94,113.16,7.61,167.64,42.46,15.8,10.11,31.74,22.27,46.36,41.29a119.17,119.17,0,0,1,14.82,24.4c7.24,16.17,8.72,37.48,9.06,62.13-2-27.61-7-40.61-17-58.61-13.07-23.54-38.92-39-54-48-59.75-35.53-113.78-39.25-174.93-33-3.13.32-6.27.71-9.4,1.17-21.39,3.12-68.67,14.83-67.2,48.36"/><path class="cls-2" d="M269.52,1404.4c-1.81,39.2-20,61.81-31.85,76.73A259.7,259.7,0,0,1,180,1535.21c-28.74,19.65-57.79,31.75-87.53,34.22a240.36,240.36,0,0,1-38.23-.4,47.22,47.22,0,0,1-17.53-4.44c-2-1-17.32-9-17.35-14.32-.07-11.73-2.46-22.79-3-34.21.46,6.64,16.1,16.78,18,17.68,25.38,11.59,46.53,7.48,72.89,6.51,20.63-.77,53.24-11.86,72.35-25.67,19.36-14,31.76-22.31,48.62-38s39.53-44.29,42.44-96.21C269.77,1382.78,269.52,1404.33,269.52,1404.4Z"/><path class="cls-2" d="M340,1624.54c.94,21.51-14.4,48.89-24,67.54-25,48.58-75,81-124,91.42-50.69,10.79-113.34,2.58-157-27.73-16-11.12-32.22-29-34.71-49.26a15.65,15.65,0,0,1-.21-4,209,209,0,0,1,1.69-28.26C14,1743.08,114,1766.08,184,1757.08c77.32-9.94,155.21-87.1,156-153C340,1604.08,338.29,1584.58,340,1624.54Z"/><path class="cls-2" d="M2.77,1651.59s3.21-21,56.17-6,209.37,84,220.17,168.67c0,0-1.05,21.7-2.44,32.78,0,0,3.83-36.15-37.1-71.38S46,1653.5.91,1676.91Z"/><path class="cls-2" d="M276.25,1859.18c-1.21,11.5-6.17,19.48-9.76,26.07-14.46,26.54-31.66,40.76-48.72,51-11.92,7.12-24.29,12.26-36.52,14.48a89.73,89.73,0,0,1-52.74-5.75,110.22,110.22,0,0,1-18.88-11c-2.51-1.73-12.57-10-12.74-16.08s1.19-26.36,1.2-26.37c.53-.84,3.81,3.45,4.3,4,4.91,5.1,9,9.68,13.79,13.32,17,13,35.15,18.43,53.22,17.66,29.61-1.26,65.1-15.89,91.48-51.07,9.17-12.23,15.81-24.06,17.75-50C277.36,1837.1,277.47,1847.68,276.25,1859.18Z"/><path class="cls-2" d="M98.79,1277.4s3.36-23,39.88-14,124.26,48.71,132.08,121.42l-1.49,28.12S278,1348.08,182.82,1302c0,0-84.79-48.93-85.28,5Z"/><path class="cls-2" d="M13.85,901.19s-2-40.55,88.3-45.3c55.93-2.94,113.16,7.6,167.64,42.45,15.8,10.12,31.74,22.28,46.36,41.3A118.9,118.9,0,0,1,331,964c7.24,16.17,8.72,37.47,9.06,62.13-3-22.67-7-42.09-22-62.09-13.92-18.57-39.92-36-55-45-59.75-35.53-107.78-41.77-168.93-35.52-3.13.32-6.27.7-9.4,1.16C63.31,887.85,16,896.08,17.5,936.09"/><path class="cls-2" d="M269.52,813.87c-1.81,39.21-20,61.82-31.85,76.73A259.76,259.76,0,0,1,180,944.69c-28.74,19.65-57.79,31.74-87.53,34.21-12.72,1.06-20.78.15-33.47-.82a75.13,75.13,0,0,1-22-6c-2-1-16-10-18-20-2.3-11.5-2.1-15.12-2.6-26.54.46,6.63,1.89,7.22,8.6,13.54,17,16,42.91,18.86,69,15,27-4,63.89-16.19,83-30,19.36-14,27.14-19.26,44-35s46.09-39.08,49-91C269,800.54,269.52,813.81,269.52,813.87Z"/><path class="cls-2" d="M69.24,2046.91s2.85-23,34-14,99.08,53.23,105.75,125.94L207,2185.08c2-35-9.16-64.15-83-117,0,0-50-32-55.86,8.42Z"/><path class="cls-2" d="M260.33,2032.52c-.26,19.33-12.7,39.79-18.3,48.56-18.23,28.57-37.88,47-56,57-21.1,11.6-44.6,16.85-63,14-18.79-2.92-37.47-8.35-53-33.3-1.57-2.54-2-4.88-2.81-9.21-.52-2.88-.23-4.35-.1-8.12.44-12.42.82-26.36,1.4-39.19-3,27.13,7.48,39.82,18.48,49.82s37.09,20,55,19c29.36-1.56,76.78-30.9,103-74,9.12-15,16.26-36.17,16.75-65.45C261.47,2008.57,260.59,2013.2,260.33,2032.52Z"/><path class="cls-2" d="M207.69,2181.05s2.86,22.8-59.7,35.82c-42,8.75-36.45,37.69-27,49.21,14,17,38.44,19.11,42.07,18-28.31-13.66-37.36-26.88-40.9-32.17-6.73-10-12.23-37.12,7.83-47.78,30.65-16.28,77.34-6.75,78.93-45.23Z"/><path class="cls-2" d="M81,660.4s3.9-23,46.31-14,135,53.22,144.1,125.94l-1.73,28.11s9.52-62.59-91.09-115.44c0,0-97.51-52.94-99,5Z"/><path class="cls-2" d="M292.06,676.18c-.92,8.9-8.27,18.6-12.29,23.87-16.14,21.19-37.74,31.15-58.15,36.87a189.94,189.94,0,0,1-43.22,6.51c-20.87.91-41.81,1.38-62.23-6.25-7.63-2.85-19-11.68-24.63-17.68s-12.75-18.56-12.35-25.4l1.61-27.67c-.15,2.56.51,10.71,1.23,12.65,7.62,20.56,24.1,35.55,45,41.89,13.12,4,27,4.83,40.69,4.65,24.2-.32,50.69-1.48,73.85-9,14.62-4.74,26.6-13.93,36.47-25.54,9.54-11.22,16.42-27.06,17.41-47.68Z"/><path class="cls-2" d="M299.24,1266.91c.05,8.94-6,19.21-9.29,24.78-13.28,22.43-33,34.14-52,41.53-22.9,8.91-51,13.88-75.52,12.77-14-.63-28.25-4.06-40.42-11.22-10.56-6.21-24.69-19.08-25.35-32.36,0,0,2.34-27.53,2.34-27.56.13,2.56-1.06,8.37-.16,10.24a51.94,51.94,0,0,0,7.84,11.57c8.86,10.46,17.76,19.15,31,23.88,24.73,8.83,55.73,3.6,80.58-2.79,24.44-6.29,47.7-17.9,64.81-36.8,9.6-10.6,19.14-29.27,17.92-49.87Z"/></g></g></svg>