<svg xmlns="http://www.w3.org/2000/svg" viewBox="0 0 1557.74 3132.2"><defs><style>.cls-1{fill:#e2e2e2;}.cls-2{fill:#fff;}</style></defs><g id="Layer_2" data-name="Layer 2"><g id="Layer_1-2" data-name="Layer 1"><path class="cls-1" d="M25,902.1s15.44-38.29,269.83-10.94,1005.84,153.16,1057.73,307.69c0,0-5,39.59-11.72,59.8,0,0,18.41-66-178.24-130.22S232.71,905.59,16.07,948.29Z" transform="translate(0)"/><path class="cls-1" d="M205.86,549.3C189.3,502.46,339.65,480.6,550,476.06s881.77,41.32,980.91,274.7c1,25.87,2.4,51.63.33,77.32,2.06-29.13-23.76-54.56-41.56-75-67.18-77.18-246.22-135.23-330.44-156.56-105.74-26.78-150.5-31.64-253.36-41.08-130-11.93-278.3-22-417.22-11.25-86.24,6.65-193.55,13.18-266.88,68.79" transform="translate(0)"/><path class="cls-1" d="M794.5,0c46.77,16.27,125.82,69.4,142.44,118.84,12.82,38.15-4.19,80.35-34.94,109.4-10.54,9.95-49.66,39.58-115.37,43.78-33.25,2.12-66.93-3.42-99.41-10.27-39.19-8.27-87.55-24.86-98.86-63l-4.42,34.67c-1,7.51,22,25.67,27.22,28.54,48.36,26.44,131.77,36.22,199.62,23.88,43-7.82,83.53-30.82,108.3-62.87,13.77-17.83,30.16-51.36,30.68-72.91s-4.89-40.91-17.24-59.66S879.73,27.33,794.5,0Z" transform="translate(0)"/><path class="cls-1" d="M588.36,198.76s2.34-40.8,77.72-42.16,223,16.41,341.18,59.48,214.5,112.14,216.83,164.11l-5.44,50.6s.16-25-10.88-42.4C1178,341.47,1080.32,261.21,925.38,214,707.31,147.61,604.68,168.45,588.36,198.76Z" transform="translate(0)"/><path class="cls-1" d="M1218.76,430.79c-3.37,32.09-38.16,65.21-62.41,86.15-88,76-223.86,117.71-352.42,150.43C711.75,690.83,565.16,699.82,470,696.12c-83.53-3.25-195.65-6.87-238.61-39.5L215.55,593c0,9.61,72,33.14,79.16,34.8,92.82,21.51,181.44,20.57,277.06,19.88,74.82-.54,239.81-19.84,310.81-39.54,71.91-19.94,107.08-29.33,175.58-57.44,68.27-28,165.93-88.72,165.93-170.48Z" transform="translate(0)"/><path class="cls-1" d="M1532.32,827.77c1.89,15.87-20.83,42.4-29.24,53-28.7,36-66.56,63.72-105.26,86.6-176.35,104.29-397,137.61-595.84,147.25-200.07,9.7-411.29,13.24-607.87-34-53.55-12.88-143.55-32.8-175.61-87.84-2.46-4.22-8.32-12.46-6.22-18,0,0-1.14-22.87,7.57-46.2,62.79,92.09,430.83,135.73,806.54,129.15,348.16-6.11,698.11-164.61,701.67-272.3C1528.06,785.38,1524.52,762.48,1532.32,827.77Z" transform="translate(0)"/><path class="cls-1" d="M452.48,2373s15.36-41.93,182.68-25.52,532.67,97.09,568.52,229.74l-6.83,51.29s37.56-114.19-359.38-210.61c0,0-330.76-58.4-390.74,9.09Z" transform="translate(0)"/><path class="cls-1" d="M63.31,1686.75s-9.23-74,404.53-82.65c256.25-5.36,518.49,13.88,768.06,77.45,72.41,18.45,145.44,40.63,212.43,75.33,23.87,12.36,47.51,26.42,67.87,44.52,33.18,29.49,40,68.36,41.54,113.33-13.62-41.35-50.55-69.2-87.71-89.4-62.84-34.16-131.76-54.29-200.86-70.65-273.78-64.8-562.63-84.14-842.77-72.74q-21.54.88-43.06,2.12c-98,5.71-222.52,12.54-303.3,66.35" transform="translate(0)"/><path class="cls-1" d="M1234.68,1527.46c-8.28,71.51-91.67,112.76-145.92,140-85,42.62-173,73.88-264.09,98.66-131.69,35.85-264.77,57.91-401,62.42-58.26,1.92-117,1.06-175.15-.72-26.89-.82-53.82-2.94-80.3-8.11-9-1.76-79.35-16.36-79.51-26.11-.32-21.4-11.27-41.57-13.55-62.41,2.1,12.1,73.74,30.61,82.71,32.24,116.26,21.14,213.17,13.66,333.94,11.88,94.51-1.39,243.91-21.62,331.49-46.83C912,1702.93,968.76,1687.76,1046,1659s181.09-80.78,194.43-175.51C1235.84,1488,1234.7,1527.34,1234.68,1527.46Z" transform="translate(0)"/><path class="cls-1" d="M1557.74,1929c-8,37.93-50.21,216.17-614.72,287.92C98.47,2272-4.69,2085.13.16,2071.22c0,0-1.17-25.54,7.76-51.57,64.34,102.79,441.46,151.51,826.45,144.16,356.76-6.82,715.36-161.88,719-282.09C1553.37,1881.72,1549.75,1856.15,1557.74,1929Z" transform="translate(0)"/><path class="cls-1" d="M12.55,1978.39s14.72-38.29,257.33-10.94,959.26,153.16,1008.74,307.7c0,0-4.79,39.58-11.18,59.79,0,0,17.56-66-170-130.22S210.64,1981.89,4,2024.58Z" transform="translate(0)"/><path class="cls-1" d="M1265.52,2357.08c-5.55,21-28.27,35.53-44.73,47.56-66.26,48.42-145,74.37-223.22,93-54.61,13-111.29,22.36-167.3,26.42-80.76,5.85-161.95,3.22-241.64-10.49-29.78-5.12-57.25-12-86.52-20-11.48-3.15-57.55-18.27-58.34-29.33s5.45-48.1,5.47-48.11c2.43-1.54,17.47,6.29,19.71,7.21,22.51,9.29,41.27,17.65,63.18,24.29,77.88,23.64,161,33.62,243.84,32.22,135.65-2.29,298.24-29,419.1-93.16,42-22.32,72.47-43.9,81.36-91.2C1270.61,2316.8,1271.08,2336.11,1265.52,2357.08Z" transform="translate(0)"/><path class="cls-1" d="M317.06,2699.54s13.09-41.94,155.67-25.53,453.94,97.1,484.49,229.75L951.41,2955s32-114.19-306.27-210.6c0,0-281.87-58.4-333,9.09Z" transform="translate(0)"/><path class="cls-1" d="M1192.56,2673.3c-1.2,35.25-78.21,81.22-103.86,97.22-83.54,52.11-193,88.93-276,107.1-96.7,21.17-165.18,21.51-249.45,16.3-86.12-5.32-171.4-17.76-242.4-63.27-7.22-4.62-9.32-8.89-12.9-16.8-2.38-5.25-1.06-7.93-.45-14.82,2-22.64,3.74-48.07,6.42-71.47-13.63,49.48,114,76.32,142.3,84.58,73.11,16.92,130.16,30.08,212.24,28.34,134.5-2.85,329.32-52.71,449.46-131.34,41.77-27.34,79-57,81.31-110.44C1197.78,2629.6,1193.76,2638.06,1192.56,2673.3Z" transform="translate(0)"/><path class="cls-1" d="M951.41,2944.26s13.09,41.58-273.53,65.34c-192.44,16-159.85,51.8-123.22,74.79,22.26,14,175.83,49.84,192.44,47.72-129.7-24.92-171.15-49-187.4-58.68-30.82-18.3-59.6-48.17,32.34-67.61,140.4-29.7,357.91-31.86,365.18-102.06Z" transform="translate(0)"/><path class="cls-1" d="M370.73,1239.24s17.85-41.93,212.15-25.52,618.61,97.09,660.25,229.74l-7.93,51.29s43.61-114.19-417.36-210.61c0,0-384.12-58.4-453.78,9.09Z" transform="translate(0)"/><path class="cls-1" d="M1338,1268c-4.2,16.23-37.91,33.93-56.29,43.54-74,38.65-172.94,56.82-266.46,67.27-65.32,7.29-131.7,10.72-198,11.87-95.6,1.65-191.55,2.5-285.11-11.41-35-5.19-86.81-21.31-112.84-32.25s-58.43-33.87-56.6-46.34l7.4-50.48c-.69,4.67,8.24,15.84,11.53,19.38,8.3,8.92,19.56,15.71,31.28,22.22,36.91,20.52,80.49,30,125.38,37.39,48.87,8,98.86,12,148.89,13.72,22.3.74,44.62,1,66.94,1,162.76-.29,354.94-1.93,500.63-52.94,50.67-17.74,94.2-45.14,98.72-82.75Z" transform="translate(0)"/><path class="cls-2" d="M25,902.1s15.44-38.29,269.83-10.94,1005.84,153.16,1057.73,307.69c0,0-5,39.59-11.72,59.8,0,0,18.41-66-178.24-130.22S232.71,905.59,16.07,948.29Z" transform="translate(0)"/><path class="cls-2" d="M205.86,549.3C189.3,502.46,339.65,480.6,550,476.06s881.77,41.32,980.91,274.7c1,25.87,2.4,51.63.33,77.32,2.06-29.13-23.76-54.56-41.56-75-67.18-77.18-246.22-135.23-330.44-156.56-105.74-26.78-150.5-31.64-253.36-41.08-130-11.93-278.3-22-417.22-11.25-86.24,6.65-193.55,13.18-266.88,68.79" transform="translate(0)"/><path class="cls-2" d="M794.5,0c46.77,16.27,125.82,69.4,142.44,118.84,12.82,38.15-4.19,80.35-34.94,109.4-10.54,9.95-49.66,39.58-115.37,43.78-33.25,2.12-66.93-3.42-99.41-10.27-39.19-8.27-87.55-24.86-98.86-63l-4.42,34.67c-1,7.51,22,25.67,27.22,28.54,48.36,26.44,131.77,36.22,199.62,23.88,43-7.82,83.53-30.82,108.3-62.87,13.77-17.83,30.16-51.36,30.68-72.91s-4.89-40.91-17.24-59.66S879.73,27.33,794.5,0Z" transform="translate(0)"/><path class="cls-2" d="M588.36,198.76s2.34-40.8,77.72-42.16,223,16.41,341.18,59.48,214.5,112.14,216.83,164.11l-5.44,50.6s.16-25-10.88-42.4C1178,341.47,1080.32,261.21,925.38,214,707.31,147.61,604.68,168.45,588.36,198.76Z" transform="translate(0)"/><path class="cls-2" d="M1218.76,430.79c-3.37,32.09-38.16,65.21-62.41,86.15-88,76-223.86,117.71-352.42,150.43C711.75,690.83,565.16,699.82,470,696.12c-83.53-3.25-195.65-6.87-238.61-39.5L215.55,593c0,9.61,72,33.14,79.16,34.8,92.82,21.51,181.44,20.57,277.06,19.88,74.82-.54,239.81-19.84,310.81-39.54,71.91-19.94,107.08-29.33,175.58-57.44,68.27-28,165.93-88.72,165.93-170.48Z" transform="translate(0)"/><path class="cls-2" d="M1532.32,827.77c1.89,15.87-20.83,42.4-29.24,53-28.7,36-66.56,63.72-105.26,86.6-176.35,104.29-397,137.61-595.84,147.25-200.07,9.7-411.29,13.24-607.87-34-53.55-12.88-143.55-32.8-175.61-87.84-2.46-4.22-8.32-12.46-6.22-18,0,0-1.14-22.87,7.57-46.2,62.79,92.09,430.83,135.73,806.54,129.15,348.16-6.11,698.11-164.61,701.67-272.3C1528.06,785.38,1524.52,762.48,1532.32,827.77Z" transform="translate(0)"/><path class="cls-2" d="M452.48,2373s15.36-41.93,182.68-25.52,532.67,97.09,568.52,229.74l-6.83,51.29s37.56-114.19-359.38-210.61c0,0-330.76-58.4-390.74,9.09Z" transform="translate(0)"/><path class="cls-2" d="M63.31,1686.75s-9.23-74,404.53-82.65c256.25-5.36,518.49,13.88,768.06,77.45,72.41,18.45,145.44,40.63,212.43,75.33,23.87,12.36,47.51,26.42,67.87,44.52,33.18,29.49,40,68.36,41.54,113.33-13.62-41.35-50.55-69.2-87.71-89.4-62.84-34.16-131.76-54.29-200.86-70.65-273.78-64.8-562.63-84.14-842.77-72.74q-21.54.88-43.06,2.12c-98,5.71-222.52,12.54-303.3,66.35" transform="translate(0)"/><path class="cls-2" d="M1234.68,1527.46c-8.28,71.51-91.67,112.76-145.92,140-85,42.62-173,73.88-264.09,98.66-131.69,35.85-264.77,57.91-401,62.42-58.26,1.92-117,1.06-175.15-.72-26.89-.82-53.82-2.94-80.3-8.11-9-1.76-79.35-16.36-79.51-26.11-.32-21.4-11.27-41.57-13.55-62.41,2.1,12.1,73.74,30.61,82.71,32.24,116.26,21.14,213.17,13.66,333.94,11.88,94.51-1.39,243.91-21.62,331.49-46.83C912,1702.93,968.76,1687.76,1046,1659s181.09-80.78,194.43-175.51C1235.84,1488,1234.7,1527.34,1234.68,1527.46Z" transform="translate(0)"/><path class="cls-2" d="M1557.74,1929c-8,37.93-50.21,216.17-614.72,287.92C98.47,2272-4.69,2085.13.16,2071.22c0,0-1.17-25.54,7.76-51.57,64.34,102.79,441.46,151.51,826.45,144.16,356.76-6.82,715.36-161.88,719-282.09C1553.37,1881.72,1549.75,1856.15,1557.74,1929Z" transform="translate(0)"/><path class="cls-2" d="M12.55,1978.39s14.72-38.29,257.33-10.94,959.26,153.16,1008.74,307.7c0,0-4.79,39.58-11.18,59.79,0,0,17.56-66-170-130.22S210.64,1981.89,4,2024.58Z" transform="translate(0)"/><path class="cls-2" d="M1265.52,2357.08c-5.55,21-28.27,35.53-44.73,47.56-66.26,48.42-145,74.37-223.22,93-54.61,13-111.29,22.36-167.3,26.42-80.76,5.85-161.95,3.22-241.64-10.49-29.78-5.12-57.25-12-86.52-20-11.48-3.15-57.55-18.27-58.34-29.33s5.45-48.1,5.47-48.11c2.43-1.54,17.47,6.29,19.71,7.21,22.51,9.29,41.27,17.65,63.18,24.29,77.88,23.64,161,33.62,243.84,32.22,135.65-2.29,298.24-29,419.1-93.16,42-22.32,72.47-43.9,81.36-91.2C1270.61,2316.8,1271.08,2336.11,1265.52,2357.08Z" transform="translate(0)"/><path class="cls-2" d="M317.06,2699.54s13.09-41.94,155.67-25.53,453.94,97.1,484.49,229.75L951.41,2955s32-114.19-306.27-210.6c0,0-281.87-58.4-333,9.09Z" transform="translate(0)"/><path class="cls-2" d="M1192.56,2673.3c-1.2,35.25-78.21,81.22-103.86,97.22-83.54,52.11-193,88.93-276,107.1-96.7,21.17-165.18,21.51-249.45,16.3-86.12-5.32-171.4-17.76-242.4-63.27-7.22-4.62-9.32-8.89-12.9-16.8-2.38-5.25-1.06-7.93-.45-14.82,2-22.64,3.74-48.07,6.42-71.47-13.63,49.48,114,76.32,142.3,84.58,73.11,16.92,130.16,30.08,212.24,28.34,134.5-2.85,329.32-52.71,449.46-131.34,41.77-27.34,79-57,81.31-110.44C1197.78,2629.6,1193.76,2638.06,1192.56,2673.3Z" transform="translate(0)"/><path class="cls-2" d="M951.41,2944.26s13.09,41.58-273.53,65.34c-192.44,16-159.85,51.8-123.22,74.79,22.26,14,175.83,49.84,192.44,47.72-129.7-24.92-171.15-49-187.4-58.68-30.82-18.3-59.6-48.17,32.34-67.61,140.4-29.7,357.91-31.86,365.18-102.06Z" transform="translate(0)"/><path class="cls-2" d="M370.73,1239.24s17.85-41.93,212.15-25.52,618.61,97.09,660.25,229.74l-7.93,51.29s43.61-114.19-417.36-210.61c0,0-384.12-58.4-453.78,9.09Z" transform="translate(0)"/><path class="cls-2" d="M1338,1268c-4.2,16.23-37.91,33.93-56.29,43.54-74,38.65-172.94,56.82-266.46,67.27-65.32,7.29-131.7,10.72-198,11.87-95.6,1.65-191.55,2.5-285.11-11.41-35-5.19-86.81-21.31-112.84-32.25s-58.43-33.87-56.6-46.34l7.4-50.48c-.69,4.67,8.24,15.84,11.53,19.38,8.3,8.92,19.56,15.71,31.28,22.22,36.91,20.52,80.49,30,125.38,37.39,48.87,8,98.86,12,148.89,13.72,22.3.74,44.62,1,66.94,1,162.76-.29,354.94-1.93,500.63-52.94,50.67-17.74,94.2-45.14,98.72-82.75Z" transform="translate(0)"/></g></g></svg>