<svg xmlns="http://www.w3.org/2000/svg" viewBox="0 0 201.15 125.27"><defs><style>.cls-1{fill:none;stroke:#1e22aa;stroke-miterlimit:10;stroke-width:2.05px;}.cls-2,.cls-3{fill:#1e22aa;}.cls-2{fill-rule:evenodd;}</style></defs><g id="Layer_2" data-name="Layer 2"><g id="Layer_1-2" data-name="Layer 1"><g id="contents"><path class="cls-1" d="M95.61,28H93.48a19.13,19.13,0,1,0,6.89,37l9.39,16.29A37.17,37.17,0,0,1,93.51,85,37.86,37.86,0,1,1,92.28,9.28h3.36Z"/><path class="cls-2" d="M131.33,47.13a37.91,37.91,0,0,1-17.49,31.94l-9.36-16.25a19.45,19.45,0,0,0,8.13-15.69V28H100.29V9.28h12.65V0h18.39V9.28h14.21L139.06,27h-7.73Z"/><path class="cls-3" d="M0,103.24H16v4.48H5.33v4.37h8.94v4.3H5.33v8.37H0Z"/><path class="cls-3" d="M19.53,117.18V103.24h5.33v14.12c0,2.1,1.09,3.52,3.7,3.52a3.32,3.32,0,0,0,3.65-3,3.53,3.53,0,0,0,0-.65v-14h5.33v13.94c0,5-3,8-9,8S19.53,122.2,19.53,117.18Z"/><path class="cls-3" d="M41,118.29v-1.9h4.85v1.78c0,1.84.87,2.59,2.35,2.59s2.23-1,2.23-2.53v-15h5.3v15.11A6.78,6.78,0,0,1,54.22,123a7.48,7.48,0,0,1-5.69,2.13C43.47,125.15,41,122.38,41,118.29Z"/><path class="cls-3" d="M59.28,103.24h5.33v21.52H59.28Z"/><path class="cls-3" d="M78.52,107.75H72.26v-4.51H90.17v4.51H83.85v17H78.52Z"/><path class="cls-3" d="M93.68,103.24H110v4.39H99v3.84h9.43v4.15H99v4.61h11.17v4.51H93.67Z"/><path class="cls-3" d="M112.83,114.07c0-6.41,4.19-11.26,10.6-11.26a10,10,0,0,1,6.14,1.9,8.43,8.43,0,0,1,3.22,5.93h-5.32a3.91,3.91,0,0,0-4.07-3.4c-3.49,0-5.15,2.92-5.15,6.83s2,6.81,5.18,6.81a4,4,0,0,0,4.19-3.58h5.32a8.51,8.51,0,0,1-2.58,5.51,9.42,9.42,0,0,1-6.9,2.43C117.14,125.24,112.83,120.52,112.83,114.07Z"/><path class="cls-3" d="M136.3,103.24h5.33v8.16h7.56v-8.16h5.33v21.52h-5.33v-9h-7.56v9H136.3Z"/><path class="cls-3" d="M158,103.24h5.36l6.38,10.8,1.48,2.74h.06s-.06-2.59-.06-3.34v-10.2h5.2v21.52h-5.36l-6.32-10.66c-.36-.57-1.53-2.89-1.53-2.89h-.06s.06,2.77.06,3.53v10H158Z"/><path class="cls-3" d="M179.87,114c0-6.44,4.12-11.23,10.63-11.23s10.65,4.79,10.65,11.23S197,125.27,190.5,125.27,179.87,120.47,179.87,114Zm15.86,0c0-3.91-1.71-6.92-5.2-6.92s-5.24,3-5.24,6.92,1.77,6.9,5.24,6.9,5.23-3,5.23-6.9Z"/></g></g></g></svg>