<svg xmlns="http://www.w3.org/2000/svg" viewBox="0 0 97.32 131.38"><defs><style>.cls-1{fill:#00aca0;}</style></defs><g id="Layer_2" data-name="Layer 2"><g id="Layer_1-2" data-name="Layer 1"><g id="contents"><path class="cls-1" d="M21.6,122.59v8.47h-5V109.69H26a12,12,0,0,1,4.17.6,5.44,5.44,0,0,1,2.61,2.22,6.57,6.57,0,0,1,1,3.58,5.68,5.68,0,0,1-3.71,5.52L34,131.06H28.48l-3.28-8.47Zm0-9.09v5.44h3.06a8.06,8.06,0,0,0,2.19-.21,2.35,2.35,0,0,0,1.21-.94,2.74,2.74,0,0,0,.53-1.66,2.57,2.57,0,0,0-.53-1.6,2.24,2.24,0,0,0-1.16-.87,10.89,10.89,0,0,0-2.35-.16Z"/><path class="cls-1" d="M42.62,109.69v21.37h-5V109.69Z"/><path class="cls-1" d="M62.23,114.39,58,115.81a3.48,3.48,0,0,0-3.64-2.53q-3,0-3,1.92a1.73,1.73,0,0,0,.56,1.3,5.55,5.55,0,0,0,2.51.93,24.75,24.75,0,0,1,4.78,1.33,6.13,6.13,0,0,1,2.56,2.17,5.75,5.75,0,0,1,1,3.34,6.67,6.67,0,0,1-2.23,5c-1.49,1.4-3.69,2.11-6.61,2.11a10,10,0,0,1-5.59-1.5,7.09,7.09,0,0,1-3-4.43l4.63-1q.78,3,4.34,3a4.16,4.16,0,0,0,2.57-.67,2,2,0,0,0,.84-1.59,1.63,1.63,0,0,0-.77-1.45,9.12,9.12,0,0,0-3-1,13.66,13.66,0,0,1-5.82-2.31,5.31,5.31,0,0,1-1.73-4.29,6.35,6.35,0,0,1,2.07-4.8,7.86,7.86,0,0,1,5.62-2Q60.43,109.37,62.23,114.39Z"/><path class="cls-1" d="M80.78,113.76H70.61v4.38h8v4h-8v4.66H80.78V131H65.52V109.69H80.78Z"/><polygon class="cls-1" points="48.88 19.78 37.09 26.29 24.1 33.38 24.02 33.42 24.02 46.85 48.88 33.31 73.73 46.85 73.73 33.42 73.73 33.34 73.71 33.37 48.88 19.78"/><path class="cls-1" d="M48.67,0A48.66,48.66,0,1,0,97.32,48.67h0A48.67,48.67,0,0,0,48.67,0ZM37.08,84.27V66.68L65.33,82.19A37.25,37.25,0,0,1,37.08,84.27ZM76,74.27,76.1,74,60.85,65.62l12.93-7.75V51.29l-13-7.56v9L48.85,59.14l-11.8-6.42v-9L24,51.26V76.83a37.47,37.47,0,1,1,52.87-3.55q-.42.48-.87,1Z"/></g></g></g></svg>