<svg xmlns="http://www.w3.org/2000/svg" xmlns:xlink="http://www.w3.org/1999/xlink" viewBox="0 0 809.67 809.67"><defs><style>.cls-1,.cls-3{fill:none;}.cls-2{isolation:isolate;}.cls-3{stroke:#fff;stroke-miterlimit:10;stroke-width:5px;}.cls-4{clip-path:url(#clip-path);}.cls-5{fill:#fff;}.cls-6{fill:#e2e9f2;}.cls-7{fill:#1e22aa;}.cls-8{fill:#eaeaea;}.cls-9{fill:#dedede;}.cls-10{fill:#e9e9e9;}.cls-11{fill:#e8e8e8;}.cls-12{fill:#cecece;}.cls-13{fill:#f2f2f2;}.cls-14{fill:#f6f6f6;}.cls-15{fill:#dcdcdc;}.cls-16{fill:#fefefe;}.cls-17{fill:#f0f0f0;}.cls-18{fill:#ddd;}.cls-19{fill:#efefef;}.cls-20{fill:#dadcde;fill-rule:evenodd;mix-blend-mode:multiply;}</style><clipPath id="clip-path"><circle class="cls-1" cx="404.83" cy="404.83" r="290.17"/></clipPath></defs><g class="cls-2"><g id="Layer_2" data-name="Layer 2"><g id="contents"><circle class="cls-3" cx="404.83" cy="404.83" r="402.33"/><g class="cls-4"><ellipse class="cls-5" cx="422.42" cy="408.2" rx="307.11" ry="314.43" transform="translate(-57.98 746.27) rotate(-79.15)"/><ellipse class="cls-6" cx="396.8" cy="367.95" rx="208.41" ry="226.07" transform="translate(-39.24 688.42) rotate(-79.15)"/><ellipse class="cls-7" cx="382.07" cy="350.37" rx="120.77" ry="124.63" transform="translate(-33.93 659.68) rotate(-79.15)"/><polygon class="cls-8" points="262.29 354.29 298.83 275.24 303.8 276.48 267.51 355.86 262.29 354.29"/><polygon class="cls-8" points="277.17 358.77 312.98 278.78 318.02 280.05 282.49 360.37 277.17 358.77"/><polygon class="cls-9" points="260.07 349.21 297.3 269.36 298.83 275.24 262.29 354.29 260.07 349.21"/><polygon class="cls-5" points="260.07 349.21 297.3 269.36 302.34 270.61 265.37 350.8 260.07 349.21"/><polygon class="cls-5" points="265.37 350.8 267.51 355.86 262.29 354.29 260.07 349.21 265.37 350.8"/><polygon class="cls-5" points="265.37 350.8 302.34 270.61 303.8 276.48 267.51 355.86 265.37 350.8"/><polygon class="cls-8" points="292.31 363.32 327.34 282.38 332.47 283.67 297.71 364.94 292.31 363.32"/><polygon class="cls-9" points="275.17 353.72 311.64 272.91 312.98 278.78 277.17 358.77 275.17 353.72"/><polygon class="cls-5" points="275.17 353.72 311.64 272.91 316.76 274.18 280.57 355.33 275.17 353.72"/><polygon class="cls-5" points="280.57 355.33 316.76 274.18 318.02 280.05 282.49 360.37 280.57 355.33"/><polygon class="cls-8" points="307.71 367.95 341.95 286.04 347.16 287.35 313.21 369.61 307.71 367.95"/><polygon class="cls-9" points="290.53 358.3 326.21 276.52 327.34 282.38 292.31 363.32 290.53 358.3"/><polygon class="cls-10" points="257.95 344.35 295.84 263.74 300.94 264.99 263.32 345.94 257.95 344.35"/><polygon class="cls-5" points="296.02 359.94 297.71 364.94 292.31 363.32 290.53 358.3 296.02 359.94"/><polygon class="cls-5" points="296.02 359.94 331.41 277.81 332.47 283.67 297.71 364.94 296.02 359.94"/><polygon class="cls-5" points="290.53 358.3 326.21 276.52 331.41 277.81 296.02 359.94 290.53 358.3"/><polygon class="cls-9" points="306.16 362.96 341.02 280.19 341.95 286.04 307.71 367.95 306.16 362.96"/><polygon class="cls-10" points="273.26 348.88 310.37 267.3 315.55 268.56 278.72 350.49 273.26 348.88"/><polygon class="cls-5" points="311.75 364.63 313.21 369.61 307.71 367.95 306.16 362.96 311.75 364.63"/><polygon class="cls-5" points="306.16 362.96 341.02 280.19 346.31 281.49 311.75 364.63 306.16 362.96"/><polygon class="cls-5" points="311.75 364.63 346.31 281.49 347.16 287.35 313.21 369.61 311.75 364.63"/><polygon class="cls-9" points="255.59 338.95 294.22 257.52 295.84 263.74 257.95 344.35 255.59 338.95"/><polygon class="cls-5" points="261.05 340.55 299.39 258.77 300.94 264.99 263.32 345.94 261.05 340.55"/><polygon class="cls-5" points="255.59 338.95 294.22 257.52 299.39 258.77 261.05 340.55 255.59 338.95"/><polygon class="cls-10" points="288.83 353.48 325.13 270.91 330.4 272.19 294.39 355.13 288.83 353.48"/><polygon class="cls-9" points="271.13 343.5 308.95 261.08 310.37 267.3 273.26 348.88 271.13 343.5"/><polygon class="cls-5" points="276.68 345.13 278.72 350.49 273.26 348.88 271.13 343.5 276.68 345.13"/><polygon class="cls-5" points="276.68 345.13 314.21 262.35 315.55 268.56 278.72 350.49 276.68 345.13"/><polygon class="cls-5" points="271.13 343.5 308.95 261.08 314.21 262.35 276.68 345.13 271.13 343.5"/><polygon class="cls-10" points="304.68 358.17 340.14 274.58 345.5 275.89 310.35 359.85 304.68 358.17"/><polygon class="cls-9" points="286.94 348.14 323.93 264.69 325.13 270.91 288.83 353.48 286.94 348.14"/><polygon class="cls-10" points="253.33 333.77 292.67 251.57 297.91 252.82 258.86 335.38 253.33 333.77"/><polygon class="cls-5" points="286.94 348.14 323.93 264.69 329.28 265.98 292.59 349.8 286.94 348.14"/><polygon class="cls-5" points="292.59 349.8 329.28 265.98 330.4 272.19 294.39 355.13 292.59 349.8"/><polygon class="cls-9" points="303.04 352.86 339.16 268.37 340.14 274.58 304.68 358.17 303.04 352.86"/><polygon class="cls-10" points="269.09 338.35 307.6 255.13 312.93 256.4 274.72 339.99 269.09 338.35"/><polygon class="cls-5" points="308.79 354.55 344.6 269.68 345.5 275.89 310.35 359.85 308.79 354.55"/><polygon class="cls-5" points="308.79 354.55 310.35 359.85 304.68 358.17 303.04 352.86 308.79 354.55"/><polygon class="cls-5" points="303.04 352.86 339.16 268.37 344.6 269.68 308.79 354.55 303.04 352.86"/><polygon class="cls-9" points="250.83 328.03 290.95 244.98 292.67 251.57 253.33 333.77 250.83 328.03"/><polygon class="cls-5" points="256.44 329.64 296.27 246.22 297.91 252.82 258.86 335.38 256.44 329.64"/><polygon class="cls-5" points="250.83 328.03 290.95 244.98 296.27 246.22 256.44 329.64 250.83 328.03"/><polygon class="cls-5" points="256.44 329.64 258.86 335.38 253.33 333.77 250.83 328.03 256.44 329.64"/><polygon class="cls-10" points="285.13 343.01 322.78 258.74 328.2 260.03 290.86 344.68 285.13 343.01"/><polygon class="cls-9" points="266.82 332.63 306.11 248.53 307.6 255.13 269.09 338.35 266.82 332.63"/><polygon class="cls-5" points="272.54 334.27 274.72 339.99 269.09 338.35 266.82 332.63 272.54 334.27"/><polygon class="cls-5" points="266.82 332.63 306.11 248.53 311.51 249.8 272.54 334.27 266.82 332.63"/><polygon class="cls-5" points="272.54 334.27 311.51 249.8 312.93 256.4 274.72 339.99 272.54 334.27"/><polygon class="cls-10" points="301.46 347.76 338.23 262.42 343.74 263.73 307.3 349.45 301.46 347.76"/><polygon class="cls-9" points="283.11 337.31 321.51 252.15 322.78 258.74 285.13 343.01 283.11 337.31"/><polygon class="cls-10" points="248.42 322.51 289.31 238.66 294.7 239.91 254.11 324.13 248.42 322.51"/><polygon class="cls-5" points="283.11 337.31 321.51 252.15 327.01 253.44 288.94 338.99 283.11 337.31"/><polygon class="cls-5" points="288.94 338.99 327.01 253.44 328.2 260.03 290.86 344.68 288.94 338.99"/><polygon class="cls-5" points="288.94 338.99 290.86 344.68 285.13 343.01 283.11 337.31 288.94 338.99"/><polygon class="cls-9" points="299.71 342.09 337.19 255.83 338.23 262.42 301.46 347.76 299.71 342.09"/><polygon class="cls-10" points="264.65 327.13 304.67 242.21 310.16 243.48 270.45 328.79 264.65 327.13"/><polygon class="cls-5" points="299.71 342.09 337.19 255.83 342.79 257.14 305.64 343.8 299.71 342.09"/><polygon class="cls-5" points="305.64 343.8 342.79 257.14 343.74 263.73 307.3 349.45 305.64 343.8"/><polygon class="cls-5" points="305.64 343.8 307.3 349.45 301.46 347.76 299.71 342.09 305.64 343.8"/><polygon class="cls-9" points="245.74 316.38 287.49 231.66 289.31 238.66 248.42 322.51 245.74 316.38"/><polygon class="cls-5" points="251.53 318.01 254.11 324.13 248.42 322.51 245.74 316.38 251.53 318.01"/><polygon class="cls-5" points="245.74 316.38 287.49 231.66 292.96 232.91 251.53 318.01 245.74 316.38"/><polygon class="cls-5" points="251.53 318.01 292.96 232.91 294.7 239.91 254.11 324.13 251.53 318.01"/><polygon class="cls-10" points="281.18 331.84 320.29 245.83 325.87 247.12 287.09 333.53 281.18 331.84"/><polygon class="cls-9" points="262.23 321.02 303.08 235.21 304.67 242.21 264.65 327.13 262.23 321.02"/><polygon class="cls-5" points="268.13 322.69 308.65 236.48 310.15 243.48 270.45 328.79 268.13 322.69"/><polygon class="cls-5" points="268.13 322.69 270.45 328.79 264.65 327.13 262.23 321.02 268.13 322.69"/><polygon class="cls-5" points="262.23 321.02 303.08 235.21 308.65 236.48 268.13 322.69 262.23 321.02"/><polygon class="cls-10" points="298.02 336.64 336.19 249.51 341.87 250.82 304.05 338.36 298.02 336.64"/><polygon class="cls-9" points="279.03 325.76 318.94 238.82 320.29 245.83 281.18 331.84 279.03 325.76"/><polygon class="cls-11" points="243.17 310.48 285.74 224.95 291.29 226.19 249.04 312.12 243.17 310.48"/><polygon class="cls-5" points="279.03 325.76 318.94 238.82 324.61 240.11 285.03 327.45 279.03 325.76"/><polygon class="cls-5" points="285.03 327.45 287.09 333.53 281.18 331.84 279.03 325.76 285.03 327.45"/><polygon class="cls-5" points="285.03 327.45 324.61 240.11 325.87 247.12 287.09 333.53 285.03 327.45"/><polygon class="cls-9" points="296.15 330.58 335.09 242.5 336.19 249.51 298.02 336.64 296.15 330.58"/><polygon class="cls-11" points="259.9 315.15 301.55 228.49 307.2 229.76 265.89 316.82 259.9 315.15"/><polygon class="cls-5" points="302.28 332.31 340.86 243.81 341.87 250.82 304.05 338.36 302.28 332.31"/><polygon class="cls-5" points="296.15 330.58 335.09 242.5 340.86 243.81 302.28 332.31 296.15 330.58"/><polygon class="cls-9" points="240.31 303.93 283.81 217.5 285.74 224.95 243.17 310.48 240.31 303.93"/><polygon class="cls-5" points="240.31 303.93 283.81 217.5 289.44 218.74 246.28 305.57 240.31 303.93"/><polygon class="cls-5" points="246.28 305.57 289.44 218.74 291.29 226.19 249.04 312.12 246.28 305.57"/><polygon class="cls-5" points="246.28 305.57 249.04 312.12 243.17 310.48 240.31 303.93 246.28 305.57"/><polygon class="cls-11" points="276.96 319.9 317.64 232.1 323.39 233.39 283.06 321.61 276.96 319.9"/><polygon class="cls-9" points="257.32 308.61 299.86 221.03 301.55 228.49 259.9 315.15 257.32 308.61"/><polygon class="cls-5" points="263.4 310.29 305.6 222.3 307.2 229.76 265.89 316.82 263.4 310.29"/><polygon class="cls-5" points="257.32 308.61 299.86 221.03 305.6 222.3 263.4 310.29 257.32 308.61"/><polygon class="cls-11" points="294.35 324.75 334.03 235.77 339.88 237.08 300.57 326.49 294.35 324.75"/><polygon class="cls-9" points="274.65 313.39 316.2 224.63 317.64 232.1 276.96 319.9 274.65 313.39"/><polygon class="cls-5" points="280.86 315.1 283.06 321.61 276.96 319.9 274.65 313.39 280.86 315.1"/><polygon class="cls-5" points="280.86 315.1 322.04 225.92 323.39 233.39 283.06 321.61 280.86 315.1"/><polygon class="cls-5" points="274.65 313.39 316.2 224.63 322.04 225.92 280.86 315.1 274.65 313.39"/><polygon class="cls-9" points="292.34 318.26 332.85 228.3 334.03 235.77 294.35 324.75 292.34 318.26"/><polygon class="cls-5" points="298.67 320.01 338.8 229.61 339.88 237.08 300.57 326.49 298.67 320.01"/><polygon class="cls-5" points="292.34 318.26 332.85 228.3 338.8 229.61 298.67 320.01 292.34 318.26"/><path class="cls-12" d="M215.37,286,316.2,313.08l19.48,81.32-80.24-24.93Zm75.49,58.73L288.94,339l-5.83-1.67,2,5.69,5.73,1.67m-7.8-23.07-2.2-6.51-6.21-1.71L277,319.9l6.1,1.71M274.72,340l-2.18-5.72-5.72-1.64,2.27,5.72,5.63,1.64m-8.83-23.17-2.49-6.53-6.08-1.68,2.59,6.54,6,1.67m21.2,16.71L285,327.45l-6-1.69,2.15,6.08,5.91,1.69m7.3,21.6-1.8-5.33-5.65-1.66,1.89,5.34,5.56,1.65m-15.67-4.64-2-5.36-5.55-1.62,2.13,5.37,5.46,1.61m-8.27-21.7-2.33-6.11L262.23,321l2.42,6.11,5.8,1.66m-11.59,6.59-2.42-5.74L250.83,328l2.5,5.74,5.53,1.61m41.71-8.89-1.9-6.48-6.33-1.75,2,6.49,6.22,1.74m6.73,23-1.66-5.65-5.93-1.71,1.75,5.67,5.84,1.69M249,312.12l-2.76-6.55-6-1.64,2.86,6.55,5.87,1.64m5.07,12L251.53,318l-5.79-1.63,2.68,6.13,5.69,1.62m9.21,21.81-2.27-5.39-5.46-1.6,2.36,5.4,5.37,1.59m40.73-7.58-1.77-6.05-6.13-1.73,1.88,6.06,6,1.72m6.3,21.49-1.56-5.3L303,352.86l1.64,5.31,5.67,1.68m-12.64,5.09-1.69-5-5.49-1.64,1.78,5,5.4,1.62m-15.22-4.57-1.92-5-5.4-1.61,2,5,5.32,1.6m30.72,9.24-1.46-5L306.16,363l1.55,5,5.5,1.66m-45.7-13.75-2.14-5.06-5.3-1.59,2.21,5.08,5.23,1.57"/><polygon class="cls-5" points="280.57 355.33 282.49 360.37 277.17 358.77 275.17 353.72 280.57 355.33"/><polygon class="cls-5" points="261.05 340.55 263.32 345.94 257.95 344.35 255.59 338.95 261.05 340.55"/><polygon class="cls-5" points="292.59 349.8 294.39 355.13 288.83 353.48 286.94 348.14 292.59 349.8"/><polygon class="cls-5" points="302.28 332.31 304.05 338.36 298.02 336.64 296.15 330.58 302.28 332.31"/><polygon class="cls-5" points="263.4 310.29 265.89 316.82 259.9 315.15 257.32 308.61 263.4 310.29"/><polygon class="cls-5" points="298.67 320.01 300.57 326.49 294.35 324.75 292.34 318.26 298.67 320.01"/><polygon class="cls-5" points="215.37 285.95 261.75 199.17 356.61 219.33 316.2 313.08 215.37 285.95"/><polygon class="cls-13" points="316.2 313.08 356.61 219.33 366.4 314.69 335.68 394.39 316.2 313.08"/><polygon class="cls-14" points="436.53 285.76 473.4 210.76 478.85 212.65 442.27 287.88 436.53 285.76"/><polygon class="cls-14" points="452.85 291.77 488.86 216.13 494.35 218.04 458.64 293.9 452.85 291.77"/><polygon class="cls-15" points="436.5 282.46 473.62 207.14 473.4 210.76 436.53 285.76 436.5 282.46"/><polygon class="cls-5" points="442.28 284.59 479.1 209.04 478.85 212.65 442.27 287.88 442.28 284.59"/><polygon class="cls-5" points="436.5 282.46 473.62 207.14 479.1 209.04 442.28 284.59 436.5 282.46"/><polygon class="cls-14" points="469.29 297.83 504.44 221.55 509.95 223.46 475.12 299.97 469.29 297.83"/><polygon class="cls-15" points="452.93 288.5 489.19 212.54 488.86 216.13 452.85 291.77 452.93 288.5"/><polygon class="cls-5" points="452.93 288.5 489.19 212.54 494.71 214.46 458.77 290.64 452.93 288.5"/><polygon class="cls-5" points="458.77 290.64 458.64 293.91 452.85 291.77 452.93 288.5 458.77 290.64"/><polygon class="cls-5" points="458.77 290.64 494.71 214.46 494.35 218.04 458.64 293.91 458.77 290.64"/><polygon class="cls-15" points="469.5 294.59 504.87 217.98 504.44 221.55 469.29 297.83 469.5 294.59"/><polygon class="cls-5" points="475.37 296.74 510.43 219.91 509.95 223.46 475.12 299.97 475.37 296.74"/><polygon class="cls-5" points="469.5 294.59 504.87 217.98 510.43 219.91 475.37 296.74 469.5 294.59"/><polygon class="cls-5" points="475.37 296.74 475.12 299.97 469.29 297.83 469.5 294.59 475.37 296.74"/><polygon class="cls-14" points="436.46 278.5 473.88 202.81 479.41 204.72 442.29 280.64 436.46 278.5"/><polygon class="cls-14" points="453.04 284.58 489.58 208.24 495.15 210.16 458.92 286.73 453.04 284.58"/><polygon class="cls-15" points="436.42 275.09 474.11 199.09 473.88 202.81 436.46 278.5 436.42 275.09"/><polygon class="cls-5" points="436.42 275.09 474.11 199.09 479.68 201.01 442.3 277.24 436.42 275.09"/><polygon class="cls-5" points="442.3 277.24 442.29 280.64 436.46 278.5 436.42 275.09 442.3 277.24"/><polygon class="cls-5" points="442.3 277.24 479.68 201.01 479.41 204.72 442.29 280.64 442.3 277.24"/><polygon class="cls-14" points="469.75 290.7 505.39 213.71 511 215.65 475.67 292.87 469.75 290.7"/><polygon class="cls-15" points="453.12 281.2 489.92 204.54 489.58 208.24 453.04 284.58 453.12 281.2"/><polygon class="cls-5" points="453.12 281.2 489.92 204.54 495.52 206.47 459.05 283.37 453.12 281.2"/><polygon class="cls-5" points="459.05 283.37 495.52 206.47 495.15 210.16 458.92 286.73 459.05 283.37"/><polygon class="cls-5" points="459.05 283.37 458.92 286.73 453.04 284.58 453.12 281.2 459.05 283.37"/><polygon class="cls-15" points="469.96 287.36 505.84 210.03 505.39 213.71 469.75 290.7 469.96 287.36"/><polygon class="cls-5" points="469.96 287.36 505.84 210.03 511.48 211.98 475.93 289.54 469.96 287.36"/><polygon class="cls-5" points="475.93 289.54 511.48 211.98 511 215.65 475.67 292.87 475.93 289.54"/><polygon class="cls-14" points="436.38 271 474.38 194.62 480 196.55 442.31 273.16 436.38 271"/><polygon class="cls-14" points="453.23 277.14 490.32 200.1 495.98 202.05 459.21 279.32 453.23 277.14"/><polygon class="cls-15" points="436.35 267.48 474.62 190.79 474.38 194.62 436.38 271 436.35 267.48"/><polygon class="cls-5" points="442.32 269.65 480.27 192.73 480 196.55 442.31 273.16 442.32 269.65"/><polygon class="cls-5" points="436.35 267.48 474.62 190.79 480.27 192.73 442.32 269.65 436.35 267.48"/><polygon class="cls-5" points="442.32 269.65 442.31 273.16 436.38 271 436.35 267.48 442.32 269.65"/><polygon class="cls-14" points="470.21 283.34 506.38 205.63 512.07 207.58 476.24 285.54 470.21 283.34"/><polygon class="cls-15" points="453.32 273.66 490.67 196.29 490.32 200.1 453.23 277.14 453.32 273.66"/><polygon class="cls-5" points="453.32 273.66 490.67 196.29 496.36 198.25 459.35 275.85 453.32 273.66"/><polygon class="cls-5" points="459.35 275.85 496.36 198.25 495.98 202.05 459.21 279.32 459.35 275.85"/><polygon class="cls-15" points="470.43 279.88 506.84 201.84 506.38 205.63 470.21 283.34 470.43 279.88"/><polygon class="cls-5" points="476.5 282.09 512.57 203.8 512.07 207.58 476.24 285.54 476.5 282.09"/><polygon class="cls-5" points="476.5 282.09 476.24 285.54 470.21 283.34 470.43 279.88 476.5 282.09"/><polygon class="cls-5" points="470.43 279.88 506.84 201.84 512.57 203.8 476.5 282.09 470.43 279.88"/><polygon class="cls-14" points="436.3 263.25 474.9 186.19 480.6 188.13 442.33 265.44 436.3 263.25"/><polygon class="cls-14" points="453.43 269.47 491.08 191.72 496.83 193.68 459.51 271.67 453.43 269.47"/><polygon class="cls-15" points="436.26 259.61 475.14 182.23 474.9 186.19 436.3 263.25 436.26 259.61"/><polygon class="cls-5" points="436.26 259.61 475.14 182.23 480.88 184.18 442.34 261.81 436.26 259.61"/><polygon class="cls-5" points="442.34 261.81 442.33 265.44 436.3 263.25 436.26 259.61 442.34 261.81"/><polygon class="cls-5" points="442.34 261.81 480.88 184.18 480.6 188.13 442.33 265.44 442.34 261.81"/><polygon class="cls-14" points="470.7 275.73 507.39 197.29 513.17 199.27 476.82 277.96 470.7 275.73"/><polygon class="cls-15" points="453.52 265.86 491.44 187.78 491.08 191.72 453.43 269.47 453.52 265.86"/><polygon class="cls-5" points="453.52 265.86 491.44 187.78 497.23 189.76 459.65 268.08 453.52 265.86"/><polygon class="cls-5" points="459.65 268.08 497.23 189.76 496.83 193.68 459.51 271.67 459.65 268.08"/><polygon class="cls-15" points="470.93 272.16 507.87 193.38 507.39 197.29 470.7 275.73 470.93 272.16"/><polygon class="cls-5" points="477.09 274.39 513.69 195.37 513.17 199.27 476.82 277.96 477.09 274.39"/><polygon class="cls-5" points="477.09 274.39 476.82 277.96 470.7 275.73 470.93 272.16 477.09 274.39"/><polygon class="cls-5" points="470.93 272.16 507.87 193.38 513.69 195.37 477.09 274.39 470.93 272.16"/><polygon class="cls-14" points="436.22 255.24 475.43 177.48 481.22 179.45 442.35 257.46 436.22 255.24"/><polygon class="cls-14" points="453.64 261.53 491.87 183.07 497.71 185.05 459.82 263.76 453.64 261.53"/><polygon class="cls-15" points="436.18 251.48 475.68 173.4 475.43 177.48 436.22 255.24 436.18 251.48"/><polygon class="cls-5" points="436.18 251.48 475.68 173.4 481.51 175.37 442.36 253.71 436.18 251.48"/><polygon class="cls-5" points="442.36 253.71 442.35 257.46 436.22 255.24 436.18 251.48 442.36 253.71"/><polygon class="cls-5" points="442.36 253.71 481.51 175.37 481.22 179.45 442.35 257.46 442.36 253.71"/><polygon class="cls-14" points="471.2 267.87 508.44 188.7 514.32 190.7 477.42 270.12 471.2 267.87"/><polygon class="cls-15" points="453.74 257.8 492.24 179.01 491.87 183.07 453.64 261.53 453.74 257.8"/><polygon class="cls-5" points="453.74 257.8 492.24 179.01 498.12 181 459.97 260.05 453.74 257.8"/><polygon class="cls-5" points="459.97 260.05 498.12 181 497.71 185.05 459.82 263.76 459.97 260.05"/><polygon class="cls-15" points="471.43 264.18 508.94 184.67 508.44 188.7 471.2 267.87 471.43 264.18"/><polygon class="cls-5" points="477.71 266.44 514.85 186.67 514.32 190.7 477.42 270.12 477.71 266.44"/><polygon class="cls-5" points="471.43 264.18 508.94 184.67 514.85 186.67 477.71 266.44 471.43 264.18"/><path class="cls-12" d="M457.54,237.68l41.09,27.5-9.93,82.08-68.09-25.74-4.2-85.79Zm2.28,26.08.15-3.71-6.23-2.25-.1,3.73,6.18,2.23m-1.18,30.15.13-3.27-5.84-2.14-.08,3.27,5.79,2.14m.28-7.18.13-3.36-5.93-2.17-.08,3.38,5.88,2.15m.59-15.06.14-3.59-6.12-2.22-.1,3.61,6.08,2.2m-17.16-14.21V253.7l-6.18-2.22,0,3.76,6.13,2.22m-.08,30.42v-3.29l-5.78-2.13,0,3.31,5.74,2.11m0-7.24v-3.4l-5.88-2.15,0,3.41,5.83,2.14m0-15.2v-3.63l-6.07-2.2,0,3.64,6,2.19m16.88,13.89.14-3.48-6-2.19-.09,3.48,6,2.19m-16.9-6.17v-3.51l-6-2.17,0,3.52,5.93,2.16m35.11-3,.29-3.68-6.28-2.26-.23,3.69,6.22,2.25M475.12,300l.25-3.23-5.87-2.15-.21,3.24,5.83,2.14m.55-7.1.26-3.33-6-2.19-.21,3.35,5.92,2.17M476.82,278l.27-3.57-6.16-2.23-.23,3.57,6.12,2.23m-.59,7.57.27-3.44-6.07-2.21-.22,3.46,6,2.19"/><polygon class="cls-5" points="442.28 284.59 442.27 287.88 436.53 285.76 436.5 282.46 442.28 284.59"/><polygon class="cls-5" points="475.93 289.54 475.67 292.87 469.75 290.7 469.96 287.36 475.93 289.54"/><polygon class="cls-5" points="459.35 275.85 459.21 279.32 453.23 277.14 453.32 273.66 459.35 275.85"/><polygon class="cls-5" points="459.65 268.08 459.51 271.67 453.43 269.47 453.52 265.86 459.65 268.08"/><polygon class="cls-5" points="459.97 260.05 459.82 263.76 453.64 261.53 453.74 257.8 459.97 260.05"/><polygon class="cls-5" points="477.71 266.44 477.42 270.12 471.2 267.87 471.43 264.18 477.71 266.44"/><polygon class="cls-13" points="498.63 265.18 535.17 183.8 519.84 274.58 488.7 347.26 498.63 265.18"/><polygon class="cls-16" points="457.54 237.68 497.4 156.95 535.17 183.8 498.63 265.18 457.54 237.68"/><polygon class="cls-12" points="416.41 235.73 457.68 157.72 497.4 156.95 457.54 237.68 416.41 235.73"/><polygon class="cls-17" points="360.01 381.99 394.26 316.54 404.2 319.59 370.56 385.56 360.01 381.99"/><polygon class="cls-18" points="359.47 378.79 394.02 313.07 394.26 316.54 360.01 381.99 359.47 378.79"/><polygon class="cls-5" points="359.47 378.79 394.02 313.07 404.04 316.12 370.11 382.37 359.47 378.79"/><polygon class="cls-5" points="370.11 382.37 404.04 316.12 404.2 319.59 370.56 385.56 370.11 382.37"/><polygon class="cls-17" points="380.46 388.9 413.52 322.45 423.61 325.55 391.19 392.53 380.46 388.9"/><polygon class="cls-15" points="380.08 385.74 413.42 319 413.52 322.45 380.46 388.9 380.08 385.74"/><polygon class="cls-5" points="380.08 385.74 390.9 389.38 391.19 392.53 380.46 388.9 380.08 385.74"/><polygon class="cls-5" points="390.9 389.38 423.59 322.1 423.61 325.55 391.19 392.53 390.9 389.38"/><polygon class="cls-5" points="380.08 385.74 413.42 319 423.59 322.1 390.9 389.38 380.08 385.74"/><polygon class="cls-17" points="401.26 395.94 433.08 328.45 443.33 331.6 412.18 399.63 401.26 395.94"/><polygon class="cls-15" points="401.05 392.8 433.13 325.01 433.08 328.45 401.26 395.94 401.05 392.8"/><polygon class="cls-19" points="358.46 372.91 393.58 306.69 403.73 309.77 369.25 376.52 358.46 372.91"/><polygon class="cls-5" points="412.06 396.51 443.46 328.17 443.33 331.6 412.18 399.63 412.06 396.51"/><polygon class="cls-5" points="401.05 392.8 433.13 325.01 443.46 328.17 412.06 396.51 401.05 392.8"/><polygon class="cls-17" points="422.61 403.15 453.13 334.61 463.54 337.81 433.71 406.91 422.61 403.15"/><polygon class="cls-18" points="357.88 369.56 393.32 303.06 393.58 306.69 358.46 372.91 357.88 369.56"/><polygon class="cls-15" points="422.58 400.05 453.34 331.19 453.13 334.61 422.61 403.15 422.58 400.05"/><polygon class="cls-5" points="368.77 373.19 403.55 306.15 403.73 309.77 369.25 376.52 368.77 373.19"/><polygon class="cls-5" points="357.88 369.56 393.32 303.06 403.55 306.15 368.77 373.19 357.88 369.56"/><polygon class="cls-5" points="357.88 369.56 368.77 373.19 369.25 376.52 358.46 372.91 357.88 369.56"/><polygon class="cls-19" points="379.38 379.91 413.24 312.65 423.56 315.78 390.36 383.58 379.38 379.91"/><polygon class="cls-5" points="422.58 400.05 433.78 403.82 433.71 406.91 422.61 403.15 422.58 400.05"/><polygon class="cls-5" points="433.78 403.82 463.84 334.4 463.54 337.81 433.71 406.91 433.78 403.82"/><polygon class="cls-5" points="422.58 400.05 453.34 331.19 463.84 334.4 433.78 403.82 422.58 400.05"/><polygon class="cls-15" points="378.99 376.59 413.15 309.04 413.24 312.65 379.38 379.91 378.99 376.59"/><polygon class="cls-5" points="390.06 380.28 423.54 312.18 423.56 315.78 390.36 383.58 390.06 380.28"/><polygon class="cls-5" points="378.98 376.59 413.15 309.04 423.54 312.18 390.06 380.28 378.98 376.59"/><polygon class="cls-5" points="378.98 376.59 390.06 380.28 390.36 383.58 379.38 379.91 378.98 376.59"/><polygon class="cls-19" points="400.67 387.04 433.23 318.71 443.71 321.88 411.84 390.77 400.67 387.04"/><polygon class="cls-15" points="400.45 383.75 433.29 315.12 433.23 318.71 400.67 387.04 400.45 383.75"/><polygon class="cls-19" points="356.83 363.39 392.85 296.4 403.23 299.5 367.88 367.05 356.83 363.39"/><polygon class="cls-5" points="400.45 383.75 433.29 315.12 443.86 318.3 411.72 387.5 400.45 383.75"/><polygon class="cls-5" points="411.72 387.5 443.86 318.3 443.71 321.88 411.84 390.77 411.72 387.5"/><polygon class="cls-5" points="401.05 392.8 412.06 396.51 412.18 399.63 401.26 395.94 401.05 392.8"/><polygon class="cls-5" points="400.45 383.75 411.72 387.5 411.84 390.77 400.67 387.04 400.45 383.75"/><polygon class="cls-19" points="422.53 394.35 453.74 324.92 464.39 328.15 433.9 398.15 422.53 394.35"/><polygon class="cls-18" points="356.23 359.88 392.58 292.61 392.85 296.4 356.83 363.39 356.23 359.88"/><polygon class="cls-15" points="422.5 391.1 453.96 321.35 453.74 324.92 422.53 394.35 422.5 391.1"/><polygon class="cls-5" points="356.23 359.88 367.37 363.55 367.88 367.05 356.83 363.39 356.23 359.88"/><polygon class="cls-5" points="356.23 359.88 392.58 292.61 403.04 295.71 367.37 363.55 356.23 359.88"/><polygon class="cls-5" points="367.37 363.55 403.04 295.71 403.23 299.5 367.88 367.05 367.37 363.55"/><polygon class="cls-19" points="378.25 370.48 412.96 302.41 423.51 305.57 389.5 374.2 378.25 370.48"/><polygon class="cls-5" points="433.97 394.92 464.7 324.59 464.39 328.15 433.9 398.15 433.97 394.92"/><polygon class="cls-5" points="422.5 391.1 453.96 321.35 464.7 324.59 433.97 394.92 422.5 391.1"/><polygon class="cls-5" points="422.5 391.1 433.97 394.92 433.9 398.15 422.53 394.35 422.5 391.1"/><polygon class="cls-15" points="377.83 366.99 412.85 298.63 412.96 302.41 378.25 370.48 377.83 366.99"/><polygon class="cls-5" points="389.17 370.73 423.49 301.8 423.51 305.57 389.5 374.2 389.17 370.73"/><polygon class="cls-5" points="377.83 366.99 412.85 298.63 423.49 301.8 389.17 370.73 377.83 366.99"/><polygon class="cls-19" points="400.04 377.69 433.4 308.52 444.12 311.72 411.49 381.48 400.04 377.69"/><polygon class="cls-15" points="399.82 374.24 433.46 304.76 433.4 308.52 400.04 377.69 399.82 374.24"/><polygon class="cls-5" points="411.37 378.05 444.27 307.98 444.12 311.72 411.49 381.48 411.37 378.05"/><polygon class="cls-5" points="399.82 374.24 433.46 304.76 444.27 307.98 411.37 378.05 399.82 374.24"/><polygon class="cls-19" points="422.44 385.11 454.37 314.79 465.27 318.05 434.1 388.96 422.44 385.11"/><polygon class="cls-15" points="422.41 381.69 454.61 311.05 454.37 314.79 422.44 385.11 422.41 381.69"/><polygon class="cls-5" points="422.41 381.69 454.61 311.05 465.6 314.32 434.17 385.56 422.41 381.69"/><polygon class="cls-5" points="434.17 385.56 465.6 314.32 465.27 318.05 434.1 388.96 434.17 385.56"/><polygon class="cls-5" points="422.41 381.69 434.17 385.56 434.1 388.96 422.44 385.11 422.41 381.69"/><path class="cls-12" d="M331.58,332l14.32,66L452.49,434.9l4.33-54.24Zm39,53.59L360,382l-.54-3.2,10.63,3.58.46,3.19m-1.3-9-10.8-3.61-.58-3.35,10.89,3.63.49,3.33m-1.38-9.47-11.05-3.66-.6-3.51,11.14,3.67.51,3.5m23.31,25.48-10.73-3.63-.38-3.16,10.82,3.64.29,3.15m-.83-8.95-11-3.67-.4-3.32,11.08,3.69.3,3.3m-.87-9.38-11.24-3.72-.42-3.49,11.34,3.74.32,3.47m22.57,22.31,0,.62.1,2.5h0l-10.92-3.69-.21-3.14,11,3.71h0m-.22-5.74L400.67,387l-.22-3.3,11.27,3.76.12,3.27m-.35-9.29L400,377.7l-.22-3.46,11.55,3.81.12,3.43m22.22,25.43-11.1-3.76,0-3.1,11.2,3.78-.07,3.08m.19-8.75-11.37-3.81,0-3.25L434,394.92l-.07,3.24m.2-9.2-11.66-3.85,0-3.42,11.76,3.87-.07,3.4"/><polygon class="cls-5" points="360.01 381.99 370.56 385.56 370.11 382.37 359.47 378.79 360.01 381.99"/><polygon class="cls-5" points="377.83 366.99 389.17 370.73 389.5 374.2 378.25 370.48 377.83 366.99"/><polygon class="cls-5" points="399.82 374.24 411.37 378.05 411.49 381.48 400.04 377.69 399.82 374.24"/><polygon class="cls-5" points="331.58 331.97 371.29 264.21 487.63 307.12 456.82 380.66 331.58 331.97"/><polygon class="cls-13" points="456.82 380.66 487.63 307.12 479.57 367.2 452.49 434.9 456.82 380.66"/><polyline class="cls-12" points="517.56 255.9 519.59 251.25 520.14 247.86 518.09 252.53 517.56 255.9"/><polyline class="cls-12" points="511.72 269.26 513.8 264.51 514.31 261.18 512.22 265.95 511.72 269.26"/><polyline class="cls-12" points="518.73 248.5 520.79 243.81 521.35 240.32 519.28 245.03 518.73 248.5"/><polyline class="cls-12" points="512.81 261.99 514.91 257.2 515.44 253.76 513.33 258.57 512.81 261.99"/><polyline class="cls-12" points="506.76 275.79 508.91 270.88 509.4 267.51 507.24 272.43 506.76 275.79"/><polyline class="cls-12" points="519.93 240.88 522.02 236.14 522.59 232.54 520.5 237.3 519.93 240.88"/><polyline class="cls-12" points="513.94 254.49 516.07 249.65 516.61 246.11 514.47 250.97 513.94 254.49"/><polyline class="cls-12" points="507.8 268.42 509.99 263.46 510.49 259.98 508.29 264.96 507.8 268.42"/><polyline class="cls-12" points="521.17 233.01 523.28 228.23 523.88 224.52 521.75 229.32 521.17 233.01"/><polyline class="cls-12" points="515.1 246.75 517.26 241.86 517.81 238.21 515.64 243.11 515.1 246.75"/><polyline class="cls-12" points="508.88 260.81 511.09 255.81 511.61 252.21 509.38 257.24 508.88 260.81"/><polyline class="cls-12" points="522.45 224.89 524.59 220.07 525.21 216.24 523.05 221.08 522.45 224.89"/><polyline class="cls-12" points="516.29 238.76 518.48 233.83 519.06 230.06 516.86 235 516.29 238.76"/><polyline class="cls-12" points="509.99 252.96 512.23 247.91 512.77 244.19 510.51 249.27 509.99 252.96"/><polyline class="cls-12" points="499.53 297.17 501.7 292.2 502.14 288.99 499.95 293.99 499.53 297.17"/><polyline class="cls-12" points="500.45 290.17 502.65 285.15 503.1 281.84 500.89 286.89 500.45 290.17"/><polyline class="cls-12" points="501.4 282.95 503.64 277.88 504.1 274.46 501.85 279.56 501.4 282.95"/><polyline class="cls-12" points="502.39 275.49 504.65 270.36 505.13 266.83 502.85 271.98 502.39 275.49"/><polyline class="cls-12" points="503.4 267.78 505.7 262.6 506.19 258.96 503.88 264.16 503.4 267.78"/><polyline class="cls-12" points="505.75 282.93 507.88 278.07 508.35 274.8 506.21 279.68 505.75 282.93"/><polyline class="cls-12" points="517.56 255.9 519.59 251.25 520.14 247.86 518.09 252.53 517.56 255.9"/><polyline class="cls-12" points="511.72 269.26 513.8 264.51 514.31 261.18 512.22 265.95 511.72 269.26"/><polyline class="cls-12" points="518.73 248.5 520.79 243.81 521.35 240.32 519.28 245.03 518.73 248.5"/><polyline class="cls-12" points="512.81 261.99 514.91 257.2 515.44 253.76 513.33 258.57 512.81 261.99"/><polyline class="cls-12" points="506.76 275.79 508.91 270.88 509.4 267.51 507.24 272.43 506.76 275.79"/><polyline class="cls-12" points="519.93 240.88 522.02 236.14 522.59 232.54 520.5 237.3 519.93 240.88"/><polyline class="cls-12" points="513.94 254.49 516.07 249.65 516.61 246.11 514.47 250.97 513.94 254.49"/><polyline class="cls-12" points="507.8 268.42 509.99 263.46 510.49 259.98 508.29 264.96 507.8 268.42"/><polyline class="cls-12" points="521.17 233.01 523.28 228.23 523.88 224.52 521.75 229.32 521.17 233.01"/><polyline class="cls-12" points="515.1 246.75 517.26 241.86 517.81 238.21 515.64 243.11 515.1 246.75"/><polyline class="cls-12" points="508.88 260.81 511.09 255.81 511.61 252.21 509.38 257.24 508.88 260.81"/><polyline class="cls-12" points="522.45 224.89 524.59 220.07 525.21 216.24 523.05 221.08 522.45 224.89"/><polyline class="cls-12" points="516.29 238.76 518.48 233.83 519.06 230.06 516.86 235 516.29 238.76"/><polyline class="cls-12" points="509.99 252.96 512.23 247.91 512.77 244.19 510.51 249.27 509.99 252.96"/><polyline class="cls-12" points="499.53 297.17 501.7 292.2 502.14 288.99 499.95 293.99 499.53 297.17"/><polyline class="cls-12" points="500.45 290.17 502.65 285.15 503.1 281.84 500.89 286.89 500.45 290.17"/><polyline class="cls-12" points="501.4 282.95 503.64 277.88 504.1 274.46 501.85 279.56 501.4 282.95"/><polyline class="cls-12" points="502.39 275.49 504.65 270.36 505.13 266.83 502.85 271.98 502.39 275.49"/><polyline class="cls-12" points="503.4 267.78 505.7 262.6 506.19 258.96 503.88 264.16 503.4 267.78"/><polyline class="cls-12" points="505.75 282.93 507.88 278.07 508.35 274.8 506.21 279.68 505.75 282.93"/><polygon class="cls-20" points="112.74 321.83 225.79 307.68 255.05 369.21 335.37 394.34 326.49 356 333.52 340.9 345.9 397.95 452.49 434.9 187.58 479.47 92.56 440.08 88.21 423.02 112.74 321.83"/><polygon class="cls-20" points="417.55 258.96 361.2 264.04 362.72 278.84 371.29 264.21 418.66 281.68 417.55 258.96"/></g></g></g></g></svg>