<svg xmlns="http://www.w3.org/2000/svg" viewBox="0 0 615.97 124.13"><defs><style>.cls-1{fill:#003350;}</style></defs><g id="Layer_2" data-name="Layer 2"><g id="Layer_1-2" data-name="Layer 1"><path class="cls-1" d="M62.07,14.28A47.79,47.79,0,1,1,14.28,62.07,47.84,47.84,0,0,1,62.07,14.28M62.07,0a62.07,62.07,0,1,0,62.06,62.07A62.07,62.07,0,0,0,62.07,0Z"/><circle class="cls-1" cx="62.07" cy="62.07" r="14.32"/><path class="cls-1" d="M157.44,79.74h18v4.73H162.33V90.1H174v4.73H162.33v9.75h-4.89Z"/><path class="cls-1" d="M188,95.4a4.06,4.06,0,0,0,.7,2.26,5.57,5.57,0,0,0,1.88,1.76,5,5,0,0,0,2.54.67,5.32,5.32,0,0,0,4.58-2.43,4.13,4.13,0,0,0,.69-2.26V79.74h4.82V95.5a8.77,8.77,0,0,1-1.35,4.84,9.38,9.38,0,0,1-3.64,3.31,10.84,10.84,0,0,1-5.1,1.2,10.65,10.65,0,0,1-5-1.2,9.42,9.42,0,0,1-3.63-3.31,8.77,8.77,0,0,1-1.35-4.84V79.74H188Z"/><path class="cls-1" d="M219.53,99.35a11.22,11.22,0,0,1-1.28,5.53,8.89,8.89,0,0,1-3.56,3.53,11.84,11.84,0,0,1-5.28,1.33V105a6,6,0,0,0,3.74-1.41c1-.86,1.45-2.3,1.45-4.32V79.74h4.93Z"/><path class="cls-1" d="M229.31,79.74h4.9v24.84h-4.9Z"/><path class="cls-1" d="M276.09,79.88v24.83H271.2V94.62H260.1v10.09h-4.89V79.88h4.89v10h11.1v-10Z"/><path class="cls-1" d="M283.73,92.33a12.72,12.72,0,0,1,1-5.09,13.63,13.63,0,0,1,7.07-7.18,13,13,0,0,1,10.29,0A14,14,0,0,1,306.38,83a13.76,13.76,0,0,1,2.9,4.26,12.73,12.73,0,0,1,1,5.09,12.89,12.89,0,0,1-1,5.16,13.29,13.29,0,0,1-2.9,4.23,13.76,13.76,0,0,1-4.26,2.84,13.36,13.36,0,0,1-10.29,0,13.21,13.21,0,0,1-7.07-7.07A12.89,12.89,0,0,1,283.73,92.33Zm5.31,0a8.49,8.49,0,0,0,.61,3.24,8.41,8.41,0,0,0,1.74,2.65A8,8,0,0,0,294,100a7.85,7.85,0,0,0,3.2.64,7.52,7.52,0,0,0,5.58-2.42A8.86,8.86,0,0,0,304.4,89a8.63,8.63,0,0,0-1.7-2.67,7.92,7.92,0,0,0-8.82-1.78,7.82,7.82,0,0,0-2.55,1.78A8.25,8.25,0,0,0,289.64,89,8.91,8.91,0,0,0,289,92.33Z"/><path class="cls-1" d="M318,79.88h4.89V100h11.68v4.72H318Z"/><path class="cls-1" d="M341.48,104.71V79.88h7.43A16.36,16.36,0,0,1,355.28,81a11.22,11.22,0,0,1,4.24,3,12,12,0,0,1,2.34,4.15,14.78,14.78,0,0,1,.74,4.62,12,12,0,0,1-1,5,11.36,11.36,0,0,1-2.72,3.78,11.9,11.9,0,0,1-4,2.4,13.86,13.86,0,0,1-4.79.82Zm4.89-4.72h2.91a10.84,10.84,0,0,0,3.37-.49,7.63,7.63,0,0,0,2.62-1.43A6.2,6.2,0,0,0,357,95.69a8.5,8.5,0,0,0,.59-3.29,8.66,8.66,0,0,0-.79-4,6.69,6.69,0,0,0-2-2.38,7.09,7.09,0,0,0-2.38-1.16,8.44,8.44,0,0,0-2.05-.32h-4Z"/><path class="cls-1" d="M370.36,79.88h4.9v24.83h-4.9Z"/><path class="cls-1" d="M405.93,105.2,387.81,88.84l1.4.78.1,14.61h-4.77V79.39h.19l17.72,16.3-1-.46-.1-14.9h4.74V105.2Z"/><path class="cls-1" d="M435.68,102.85a5.59,5.59,0,0,1-1.47,1,15.79,15.79,0,0,1-2.31.95,22,22,0,0,1-2.68.7,13.32,13.32,0,0,1-2.58.27,16.82,16.82,0,0,1-5.81-1,12.8,12.8,0,0,1-4.42-2.66,11.47,11.47,0,0,1-2.8-4,13.31,13.31,0,0,1-1-5.1,16.54,16.54,0,0,1,1.1-6.3,12.48,12.48,0,0,1,3-4.45,12.16,12.16,0,0,1,4.34-2.64,15.59,15.59,0,0,1,5.15-.86,18.45,18.45,0,0,1,4.67.56,15.21,15.21,0,0,1,3.58,1.38l-1.68,4.84a11.44,11.44,0,0,0-1.73-.71,20,20,0,0,0-2.18-.6,10.21,10.21,0,0,0-2-.23,12.23,12.23,0,0,0-3.8.54,7.39,7.39,0,0,0-2.79,1.61,6.81,6.81,0,0,0-1.7,2.68,11,11,0,0,0-.57,3.71,8.36,8.36,0,0,0,.64,3.36,7.23,7.23,0,0,0,1.81,2.53,8,8,0,0,0,2.77,1.58,10.94,10.94,0,0,0,3.53.54,11.8,11.8,0,0,0,2.05-.17,4.81,4.81,0,0,0,1.58-.52V96.71h-4.56v-5h9.83Z"/><path class="cls-1" d="M457.9,85.64a17.73,17.73,0,0,0-3-1.32,8.54,8.54,0,0,0-2.82-.52,4.41,4.41,0,0,0-2.57.66,2.27,2.27,0,0,0-.94,2,2.22,2.22,0,0,0,.72,1.62,6.85,6.85,0,0,0,1.83,1.26,24.8,24.8,0,0,0,2.35,1,21.29,21.29,0,0,1,2.2,1,8.12,8.12,0,0,1,2,1.42,6.25,6.25,0,0,1,1.39,2.12,8.27,8.27,0,0,1,.51,3.1,6.87,6.87,0,0,1-1,3.61,7.36,7.36,0,0,1-2.95,2.69,10.19,10.19,0,0,1-4.79,1,15.09,15.09,0,0,1-3-.3,14.49,14.49,0,0,1-3-.9,15.47,15.47,0,0,1-2.81-1.54l2.22-3.92a11.9,11.9,0,0,0,2,1.16,11.27,11.27,0,0,0,2.14.78,7.66,7.66,0,0,0,2,.28,6.78,6.78,0,0,0,1.82-.26,3.34,3.34,0,0,0,1.53-.89,2.38,2.38,0,0,0,.61-1.73,2.15,2.15,0,0,0-.51-1.39,5,5,0,0,0-1.35-1.14,10.58,10.58,0,0,0-1.85-.9c-.79-.3-1.6-.65-2.43-1A13.37,13.37,0,0,1,445.85,92a6.63,6.63,0,0,1-1.77-2.12,6.52,6.52,0,0,1-.68-3.1,7.32,7.32,0,0,1,1-3.86,7.11,7.11,0,0,1,2.79-2.58,9.79,9.79,0,0,1,4.16-1.06,14.6,14.6,0,0,1,5,.73,18,18,0,0,1,3.45,1.74Z"/><path class="cls-1" d="M475.42,59.48h-6.54V46.28a50.28,50.28,0,0,1-8.09,4.1,36.09,36.09,0,0,0-4.24-5.63A38.26,38.26,0,0,0,477,31.87l5.27,3.73c.33.26.33.41.33.55,0,.59-.77.55-1.32.51a43.81,43.81,0,0,1-5.85,5.53Z"/><path class="cls-1" d="M187.52,30.54A81.9,81.9,0,0,1,201.61,44c-.44.39-4.83,4.4-5.79,5.46A64.7,64.7,0,0,0,182.74,36v26.3h-7.67v-23A44.5,44.5,0,0,1,159.77,49a18.48,18.48,0,0,0-5.07-6.51c13.08-3.52,20.08-13.47,22.15-16.65H156.39V19.2h44.16v6.61h-14a46.23,46.23,0,0,1-3.47,4.78c-.42.42-.35,1-.39,1.83v2.94Z"/><path class="cls-1" d="M278.31,41.73c.34.19.63.44.63.78,0,.54-.59.54-1.27.54A61.9,61.9,0,0,1,268,55.13a43,43,0,0,0-6.58-4.82,36.74,36.74,0,0,0,10.29-12.58Zm2-23.88,7.66.24c.58,0,1.12.05,1.12.59s-.59.63-.83.73V28h16v7h-16V52.74c0,3.32,0,7.61-7.61,7.61-1.07,0-2.33-.15-3.7-.25a23.22,23.22,0,0,0-2.53-7.65,27.67,27.67,0,0,0,4.14.44c1.32,0,1.71-.44,1.71-2,0-.24,0-1.46,0-1.71V35H264.42V28H280.3ZM296.73,37a64.07,64.07,0,0,1,9.65,11.8c-1.46,1.12-4.73,4-5.9,5.16A70.29,70.29,0,0,0,291,41.49Z"/><path class="cls-1" d="M351.4,36.19V44H316.63V36.19Z"/><path class="cls-1" d="M374.05,22.7c.53.05,1.11.05,1.11.68s-.62.82-.82.92V36.09c0,12.71-6.18,18.08-12,23.06-2.12-2.47-3.52-3.34-6.52-5.27a25.86,25.86,0,0,0,7.83-7.44c.58-.92,2.37-3.73,2.37-9.91V22.32Zm12.33-.38c.53,0,.92,0,.92.53s-.49.67-.92.87V47.26c5.94-3.92,10.63-10,12.52-12.67a22.34,22.34,0,0,0,3.72,7.25A83.39,83.39,0,0,1,389,55.23c-1.94,1.4-3.82,2.9-5.71,4.35l-5.12-3.28c.1-1.31.19-2.52.19-3.87V21.88Z"/><path class="cls-1" d="M493.1,20.72c7.58,3.88,9.92,6.14,11.27,7.4-1.08,1.31-1.39,1.81-4.37,6.14A46.51,46.51,0,0,0,488.63,27ZM489.4,51.9c12.85-2.67,25.53-11.37,33.56-24.27a29.06,29.06,0,0,0,4.65,6.13,59.84,59.84,0,0,1-14,15A74.89,74.89,0,0,1,495,58.84c0,.5-.22,1-.63,1s-.45-.13-.72-.63Z"/><path class="cls-1" d="M563.25,25.76a7.7,7.7,0,0,0,3.28-.69l3.83,3.28c-.83,1.38-3.65,7.71-4.71,10.07-7.11,16-17.37,21.11-21.43,23.14-.79-1-2.08-2.54-6-5.27a42.31,42.31,0,0,0,15-10.95c3.74-4.52,5.87-10.11,6.89-12.93H548.61a63.72,63.72,0,0,1-10.4,11.83c-2.49-2.64-3.41-3.61-5.63-5,11.22-9.52,14.13-17.65,15.15-20.42l6.65,3.23c.19.1.6.33.6.7s-.64.6-1.11.64c-.74,1.43-.87,1.8-1.2,2.36Z"/><path class="cls-1" d="M561.77,17.4a37.73,37.73,0,0,1,4.53,4.43,43.13,43.13,0,0,0-3.79,2.59A40.22,40.22,0,0,0,558.12,20Z"/><path class="cls-1" d="M569.12,16.89a43.32,43.32,0,0,1,4.52,4.76c-.6.41-3.32,2.17-3.88,2.54a24.79,24.79,0,0,0-4.15-4.85Z"/><path class="cls-1" d="M449.72,20.72a38.49,38.49,0,0,1,4.53,4.44,39.35,39.35,0,0,0-3.79,2.59,39.36,39.36,0,0,0-4.39-4.44Z"/><path class="cls-1" d="M457.06,20.22A43.34,43.34,0,0,1,461.59,25c-.6.42-3.32,2.18-3.88,2.55a24.56,24.56,0,0,0-4.16-4.86Z"/><path class="cls-1" d="M410.71,38.58V31.87h40v6.71h-15.3C434.74,54.92,423.14,59,420,60.08a24.88,24.88,0,0,0-5.77-5.77c13-3.29,13.37-12.16,13.51-15.73Z"/><rect class="cls-1" x="417.42" y="19.67" width="26.84" height="6.8"/><path class="cls-1" d="M579.61,31.43V24.55H603a12.44,12.44,0,0,0,3.16-.37l3.58,3.9A13.52,13.52,0,0,0,608,31a78.61,78.61,0,0,1-5.83,11.23c1.93,1.47,10.32,8.44,13.76,12.56-1.51,1.75-4,4.5-5.5,6.24A63,63,0,0,0,598.13,48c-4.4,5.28-11.6,11.19-17.61,13.71a20.33,20.33,0,0,0-5.23-6.28,38.52,38.52,0,0,0,14.91-9.17c5.23-5,7.11-9.54,9.17-14.81Z"/><path class="cls-1" d="M248.8,29.81v-4l-.16-.06a26,26,0,0,0-6-5l-2.2,2.63H215.15v7.56H248.8Z"/><path class="cls-1" d="M247,47.61l-2.58,3.07H210.73v7.56h42.48V52.82h0A25.52,25.52,0,0,0,247,47.61Z"/></g></g></svg>