<svg xmlns="http://www.w3.org/2000/svg" viewBox="0 0 397.16 84.62"><defs><style>.cls-1,.cls-2{fill:#fff;}.cls-1{fill-rule:evenodd;}</style></defs><g id="Layer_2" data-name="Layer 2"><g id="Layer_1-2" data-name="Layer 1"><path class="cls-1" d="M39.82,27.88H37.69a19.05,19.05,0,0,0,0,38.1,19.33,19.33,0,0,0,6.87-1.31l9.32,16.27a37.09,37.09,0,0,1-16.19,3.68,37.69,37.69,0,0,1,0-75.38h2.13Z"/><path class="cls-1" d="M75.38,46.93A37.76,37.76,0,0,1,58,78.73L48.65,62.55a19.36,19.36,0,0,0,8.09-15.62v-19H44.48V9.24H57.07V0H75.38V9.24H89.53l-6.46,17.6-7.69,0Z"/><path class="cls-2" d="M93.51,41.49h24.17v6.77H101.55v6.59h13.5v6.5h-13.5V74h-8Z"/><path class="cls-2" d="M123,62.53v-21h8V62.8c0,3.18,1.64,5.32,5.59,5.32,3.73,0,5.5-2.27,5.5-5.45V41.49h8v21c0,7.5-4.5,12-13.54,12S123,70.12,123,62.53Z"/><path class="cls-2" d="M155.44,64.21V61.35h7.32V64c0,2.77,1.32,3.91,3.55,3.91s3.36-1.46,3.36-3.82V41.49h8V64.3a10.12,10.12,0,0,1-2.32,7c-1.81,2-4.77,3.22-8.58,3.22C159.12,74.57,155.44,70.39,155.44,64.21Z"/><path class="cls-2" d="M183,41.49h8V74h-8Z"/><path class="cls-2" d="M212,48.3h-9.45V41.49h27V48.3h-9.54V74H212Z"/><path class="cls-2" d="M234.92,41.49h24.64v6.63H243v5.82h14.22v6.27H243v6.95h16.86V74H234.92Z"/><path class="cls-2" d="M263.83,57.85c0-9.68,6.32-17,16-17a15.14,15.14,0,0,1,9.27,2.86,12.72,12.72,0,0,1,4.86,9h-8a5.88,5.88,0,0,0-6.14-5.14c-5.27,0-7.77,4.41-7.77,10.32s3,10.27,7.82,10.27a6,6,0,0,0,6.32-5.41h8A12.81,12.81,0,0,1,290.28,71c-2.5,2.41-5.81,3.68-10.4,3.68C270.33,74.71,263.83,67.57,263.83,57.85Z"/><path class="cls-2" d="M299.26,41.49h8V53.8h11.41V41.49h8V74h-8V60.44H307.3V74h-8Z"/><path class="cls-2" d="M332,41.49h8.09l9.64,16.31c.5.91,2.22,4.14,2.22,4.14h.1s-.1-3.91-.1-5V41.49h7.87V74h-8.09l-9.55-16.09c-.54-.86-2.31-4.36-2.31-4.36h-.1s.1,4.18.1,5.32V74H332Z"/><path class="cls-2" d="M365,57.8c0-9.72,6.22-16.95,16-16.95s16.09,7.23,16.09,16.95-6.23,17-16.09,17S365,67.53,365,57.8Zm24,0c0-5.91-2.59-10.45-7.87-10.45s-7.9,4.54-7.9,10.45,2.68,10.41,7.9,10.41S389,63.71,389,57.8Z"/></g></g></svg>