<svg xmlns="http://www.w3.org/2000/svg" viewBox="0 0 153.25 40.5"><defs><style>.cls-1{fill:#fff;}</style></defs><g id="Layer_2" data-name="Layer 2"><g id="ナビ展開時_PC_" data-name="ナビ展開時（PC）"><g id="新着情報"><path class="cls-1" d="M0,40V.54H9L23,24.73h.11V.54h9V40h-9l-14-24.19H9V40Z"/><path class="cls-1" d="M49.41,7.94v8h15v7h-15v9.61h16V40H40.23V.54H65.45v7.4Z"/><path class="cls-1" d="M95.47,9.88h-.11L90.4,40H79.7L71,.54h9.28l5,30.08h.11L90,.54h11.18l4.59,30.08h.11l5-30.08h9.07L111.19,40h-10.7Z"/><path class="cls-1" d="M150.66,9.72a24.07,24.07,0,0,0-10.8-2.54,7.14,7.14,0,0,0-4.27,1.08,3.45,3.45,0,0,0-1.46,2.92c0,2,1.52,3.45,4.54,4.32q8.06,2.2,11.31,5.29a10.41,10.41,0,0,1,3.27,7.94q0,5.72-3.89,8.75t-11.5,3a25.62,25.62,0,0,1-7.07-1,21.82,21.82,0,0,1-6.16-2.73l2.16-7.18a20,20,0,0,0,11.45,3.78,6.66,6.66,0,0,0,4.24-1.16,4,4,0,0,0,1.43-3.27,3.68,3.68,0,0,0-1.16-2.81,10.5,10.5,0,0,0-4.08-1.94Q131.28,22,128,18.87a10.22,10.22,0,0,1-3.24-7.69A9.84,9.84,0,0,1,128.65,3q3.87-3,10.83-3a29.62,29.62,0,0,1,12.85,2.59Z"/></g></g></g></svg>