<svg xmlns="http://www.w3.org/2000/svg" viewBox="0 0 268.27 40.5"><defs><style>.cls-1{fill:#fff;}</style></defs><g id="Layer_2" data-name="Layer 2"><g id="ナビ展開時_PC_" data-name="ナビ展開時（PC）"><g id="お問い合わせ"><path class="cls-1" d="M21.6,7.4q-5.67,0-8.94,3.4T9.4,20.25q0,5.94,3.4,9.4a11.82,11.82,0,0,0,8.8,3.45,17,17,0,0,0,9.29-3l2.59,6.7a22.2,22.2,0,0,1-12.8,3.67q-9.39,0-15-5.45T0,20.25Q0,10.8,5.48,5.4T20.68,0a22.2,22.2,0,0,1,12.8,3.67l-2.59,6.7A17,17,0,0,0,21.6,7.4Z"/><path class="cls-1" d="M43.6,5.45Q49,0,58.16,0T72.71,5.45q5.43,5.46,5.43,14.8t-5.43,14.8Q67.28,40.5,58.16,40.5T43.6,35.05q-5.41-5.46-5.42-14.8T43.6,5.45ZM50.35,29.7a9.75,9.75,0,0,0,7.81,3.24A9.73,9.73,0,0,0,66,29.7q2.78-3.24,2.78-9.45T66,10.8a9.73,9.73,0,0,0-7.8-3.24,9.75,9.75,0,0,0-7.81,3.24Q47.58,14,47.57,20.25T50.35,29.7Z"/><path class="cls-1" d="M83.91,40V.54h9l14,24.19H107V.54h9V40h-9L93,15.77h-.11V40Z"/><path class="cls-1" d="M154.11.54V8.15h-11V40h-9.39V8.15h-11V.54Z"/><path class="cls-1" d="M158.27,40,171.61.54h9.72L194.61,40h-9.72l-2.32-8.53H170.1L167.83,40ZM172,24.46h8.75l-4.32-16h-.11Z"/><path class="cls-1" d="M219.29,7.4q-5.67,0-8.94,3.4t-3.26,9.45q0,5.94,3.4,9.4a11.82,11.82,0,0,0,8.8,3.45,17,17,0,0,0,9.29-3l2.59,6.7a22.2,22.2,0,0,1-12.8,3.67q-9.39,0-15-5.45t-5.64-14.8q0-9.45,5.48-14.85T218.37,0a22.2,22.2,0,0,1,12.8,3.67l-2.59,6.7A17,17,0,0,0,219.29,7.4Z"/><path class="cls-1" d="M268.27.54V8.15h-11V40h-9.4V8.15H237V.54Z"/></g></g></g></svg>