<svg xmlns="http://www.w3.org/2000/svg" viewBox="0 0 128.31 128.16"><defs><style>.cls-1{fill:#fff;}</style></defs><g id="Layer_2" data-name="Layer 2"><g id="ナビ展開時_PC_" data-name="ナビ展開時（PC）"><g id="株式会社スマイルについて"><path class="cls-1" d="M65.13,80.24C78.9,80.83,90.25,70.36,93,58.09,96.2,43.93,88.1,27.92,73,24.21c-3.91-1-7.94-1.41-11.86-2.31A10.65,10.65,0,0,1,52.6,9.75C53.94.18,65-2.29,71.06,2.09a16.9,16.9,0,0,1,3.53,3.38,2.69,2.69,0,0,1-.23,3.87,2.81,2.81,0,0,1-3.87-.26,32.63,32.63,0,0,0-3-2.55A6,6,0,0,0,60.22,7a5.44,5.44,0,0,0-1.61,6.49,4.88,4.88,0,0,0,3.92,3.09c4,.76,8,1.32,11.86,2.35,12.37,3.28,20.15,11.44,23.54,23.58,4.19,15-1.67,30-14.77,38.49a31.13,31.13,0,0,1-17.42,4.83c-7.35,0-14.3-1.62-20.29-6.19C36.74,73,31.53,64.52,31.14,53.26A33.3,33.3,0,0,1,39.5,29.8a18.54,18.54,0,0,1,2.84-2.69c1.49-1.14,3.32-1.14,4.13-.06,1.11,1.51.53,2.87-.52,4.16A71.06,71.06,0,0,0,41,37.3c-7.88,12.08-4.78,27.17,5.56,36.08C52,78.05,58.27,80.51,65.13,80.24Z"/><path class="cls-1" d="M120.9,92.48c-11.51.68-19,10.56-16.66,21.87.19.9.29,1.82.44,2.83H98.43V92.52h-13c0,8.72-.18,17.11.07,25.49a8.83,8.83,0,0,0,7,8.81c4.58,1.18,9.23.58,14,.41.19-2.1.34-3.83.56-6.21,6,6.86,13.2,7.79,21.08,6.81v-8.34c-4.39.15-8.26-.37-10.91-5l10.87-.35v-8H116.75c1.14-1.32,1.73-2,2.35-2.71,2.45-2.66,5.93-2.35,9.21-2.85V92.46C125.64,92.46,123.26,92.34,120.9,92.48Zm-15.78,33.68a88.34,88.34,0,0,1-9.46-.73,6.66,6.66,0,0,1-5.72-6.34c-.33-8.23-.11-16.49-.11-25h7.5v24l7.79.73ZM127.1,94v5.46c-5.49,0-9.63,1.89-11.95,8.06h11.62v5.15l-11.09.43c.89,4.89,3.6,6.78,11.19,8.15v5.84c-6.75.08-12.24-2-15.83-7.36-4-5.94-4-12.35-.23-18.47C114.46,95.39,120.05,93.37,127.1,94Z"/><path class="cls-1" d="M56.43,92.43c-1-.06-2,0-2.94-.08-2.88-.22-4.78,1.15-6,3.66-.54,1.13-1,2.28-1.73,3.89a18.85,18.85,0,0,0-1.5-3.69c-.91-1.3-1.92-2.87-3.26-3.45-6-2.57-11.58.56-12.27,6.94-.95,8.67-1.55,17.38-2.28,26.07a10,10,0,0,0,.22,1.81h12l.44-2.86c1.75,2.42,4,2.73,6.71,2.85a6.79,6.79,0,0,0,6.42-3.37c.34,1.41.59,2.44.82,3.41H65.3c-.89-10.09-1.67-19.86-2.65-29.6C62.32,94.72,59.73,92.64,56.43,92.43Zm6.77,33.83h-6c-1.1-6.56-.66-13.29-2-19.93-1.49,2.38-1.89,5-2.45,7.55-.66,3.08-1.38,6.15-2.12,9.22-.45,1.86-1.36,3.15-3.6,3s-3-1.59-3.41-3.36c-1-4.47-1.89-9-2.83-13.46-.21-1-.48-2-.73-3l-.94,0a20.15,20.15,0,0,0-.69,3.11c-.29,4.25-.48,8.51-.73,12.76-.08,1.29-.25,2.57-.4,4.07H30.8c.22-2.95.38-5.64.63-8.32.59-6.29,1.24-12.57,1.83-18.87.21-2.23,1.1-4.08,3.25-4.88,2.83-1,5.87-.74,7,3.59,1.07,4,1.79,8.08,2.69,12.12a21.39,21.39,0,0,0,.65,2.06l.78.08a13.5,13.5,0,0,0,.73-2c.72-3.53,1.35-7.08,2.09-10.6.77-3.73,2.52-5.48,5.38-5.57S60.66,95,61.23,98c.51,2.66.73,5.39,1,8.1.36,3.59.74,7.17.93,10.77C63.32,119.93,63.2,123,63.2,126.26Z"/><path class="cls-1" d="M16.09,103.94c-.58-.53-1.09-1.14-1.63-1.72l.26-.67h8.9V92.48c-4.73,0-9.3-.21-13.84.06-4.34.24-7.68,2.37-9.26,6.63-1.34,3.61,0,7.4,3.53,10.46,2.22,1.92,4.52,3.75,6.73,5.7a16,16,0,0,1,1.77,2.59H0v9.32c5.6,0,11.06.37,16.44-.12,3.9-.35,7.39-2.42,8.57-6.58s.46-7.84-2.65-10.88C20.34,107.68,18.17,105.86,16.09,103.94ZM23.36,121c-1.5,3.24-4.4,4.79-7.87,5s-7.15,0-11,0v-6.15c3.91-1.3,8.42,1,12.39-2.44a21.6,21.6,0,0,0-2.47-3.31c-2-1.84-4.15-3.52-6.27-5.22C5,106.38,3.71,103,4.72,99.7A8.43,8.43,0,0,1,12.65,94c3.12-.16,6.26,0,9.88,0,0,1.71,0,3,0,4.31a10.78,10.78,0,0,1-.3,1.59C19.09,101.38,15.16,99,12,102c1.19,1.06,2.16,1.87,3.08,2.73a94.13,94.13,0,0,1,7.08,6.74A8.43,8.43,0,0,1,23.36,121Z"/><path class="cls-1" d="M69,127.28H81.78V92.41H69ZM73.41,94h7.15v31.88H73.41Z"/><path class="cls-1" d="M75.51,62.1c2.67,1.85,2.84,2.82,1.14,4.82-6.69,7.9-20.37,7.8-26.94-.22a22.91,22.91,0,0,1-2.27-3.2c-.77-1.38-1.18-2.85.13-4.2,2.2-.92,2.93.82,3.8,2.13C53.5,64.63,56.15,67,60,67.9a13.06,13.06,0,0,0,11.65-2.55C73,64.35,74.16,63.24,75.51,62.1Z"/><path class="cls-1" d="M52.88,40.21a9.23,9.23,0,0,1,9,8.38,3.83,3.83,0,0,1-1,2.86,1.7,1.7,0,0,1-2.71-.73A21.88,21.88,0,0,1,57.12,48a5.07,5.07,0,0,0-4.77-3.4,5,5,0,0,0-5.11,2.79,6.06,6.06,0,0,1-1.32,2.21,3.46,3.46,0,0,1-2.55.71c-.49-.12-1-1.35-1-2.09-.09-3.47,4.29-7.65,8.25-8C51.14,40.17,51.69,40.21,52.88,40.21Z"/><path class="cls-1" d="M84.6,55.4c-3,.26-3,.26-3.53-2.38-.38-1.84-.89-3.53-2.78-4.54-2.93-1.57-5.41-1.11-7.42,1.6a4,4,0,0,0-.36.55c-.8,1.5-1.68,3.14-3.71,1.89s-.76-2.93,0-4.28c2.34-4.25,6.93-6.07,12.12-4.62C83.7,45,85.91,49.79,84.6,55.4Z"/></g></g></g></svg>