<svg xmlns="http://www.w3.org/2000/svg" viewBox="0 0 195.64 76.02"><defs><style>.cls-1{fill:#fff;}</style></defs><g id="Layer_2" data-name="Layer 2"><g id="ナビ展開時_PC_" data-name="ナビ展開時（PC）"><g id="株式会社ライズについて"><path class="cls-1" d="M99.17,41.62V55.43H91V20.6h15.31a19.31,19.31,0,0,1,6.8,1,8.76,8.76,0,0,1,4.25,3.61A10.59,10.59,0,0,1,119,31q0,6.27-6,9l6.43,15.4h-9L105,41.62Zm0-14.82v8.88h5a13.12,13.12,0,0,0,3.56-.35,3.88,3.88,0,0,0,2-1.53,4.48,4.48,0,0,0,.87-2.72,4.2,4.2,0,0,0-.87-2.6,3.57,3.57,0,0,0-1.88-1.42A18.72,18.72,0,0,0,104,26.8Z"/><path class="cls-1" d="M133.43,20.6V55.43h-8.14V20.6Z"/><path class="cls-1" d="M165.4,28.25l-6.94,2.32a5.7,5.7,0,0,0-5.93-4.13q-4.84,0-4.84,3.14a2.82,2.82,0,0,0,.91,2.12c.6.57,2,1.08,4.08,1.5a41,41,0,0,1,7.8,2.17,10,10,0,0,1,4.17,3.54,9.3,9.3,0,0,1,1.69,5.44,10.9,10.9,0,0,1-3.63,8.17Q159.08,56,151.94,56a16.38,16.38,0,0,1-9.12-2.44,11.57,11.57,0,0,1-4.95-7.23l7.55-1.71q1.28,4.88,7.08,4.87a6.72,6.72,0,0,0,4.18-1.08,3.23,3.23,0,0,0,1.37-2.59,2.7,2.7,0,0,0-1.25-2.37A15,15,0,0,0,152,41.83q-6.66-1.38-9.48-3.77t-2.83-7a10.33,10.33,0,0,1,3.38-7.83q3.38-3.19,9.16-3.19Q162.47,20.06,165.4,28.25Z"/><path class="cls-1" d="M195.64,27.23H179.06v7.15h13v6.55h-13v7.61h16.58v6.89H170.76V20.6h24.88Z"/><polygon class="cls-1" points="38.17 15.45 28.96 20.54 18.82 26.07 18.75 26.1 18.75 36.6 38.17 26.02 57.59 36.6 57.59 26.1 57.59 26.04 57.57 26.07 38.17 15.45"/><path class="cls-1" d="M38,0A38,38,0,1,0,76,38,38,38,0,0,0,38,0ZM29,65.84V52.09L51,64.21A29.15,29.15,0,0,1,29,65.84ZM59.36,58l.08-.23-11.95-6.5,10.1-6.06V40.07L47.44,34.16v7L38.18,46.2l-9.22-5v-7l-10.21,5.9V60a29.27,29.27,0,1,1,40.61-2Z"/></g></g></g></svg>