<svg xmlns="http://www.w3.org/2000/svg" viewBox="0 0 687.4 76.62"><defs><style>.cls-1{fill:#fff;}</style></defs><g id="Layer_2" data-name="Layer 2"><g id="contents"><path class="cls-1" d="M48.68,68.63a65,65,0,0,0-15.74-8.52c-.35,8.77-2.41,12.21-13.42,12.21C7.65,72.32.26,68.11.26,61.14c0-2.49.86-12.46,20.21-11.78l2.41.09-.18-8.26c-1.54.09-6.27.26-8.77.26C6,41.45,2.06,38.61,2.06,35.26c0-4.21,5.85-8.26,9.21-10.66l4.9,4.21c-1.55,1.12-2.84,2.06-2.84,3.18s1.81,1.21,3.27,1.21A56.33,56.33,0,0,0,22.53,33l-.17-10.75c-9.89.43-14.79.78-22.19,1.64L0,14.62c9.8,0,14.45-.17,22.1-.34L21.84,2.84l10.5,1c1.63.17,2.15.43,2.15,1,0,.35-.18.43-1.12,1.21a2.72,2.72,0,0,0-1.12,1.54c0,.09-.09,1.72-.17,6.2,11-.52,13.93-.69,22-1.29l-.34,9.11c-9.55,0-17.54.17-21.84.26V32.08c7.48-.95,10.66-1.46,18.57-2.93v9.38c-3.7.6-8.25,1.37-18.4,2.15.17,4.3.17,5.16.43,10.23a71.51,71.51,0,0,1,21.76,9.72ZM18.92,57.36c-5.59,0-8.34,1.46-8.34,3.7,0,2.92,5.5,2.92,6.53,2.92,5.59,0,5.94-1.55,5.85-6.36A22.32,22.32,0,0,0,18.92,57.36Z"/><path class="cls-1" d="M106.3,69l-4.48-9c3.19.26,4.91.34,6.28.34,7.14,0,24.86-3.18,24.86-16.16,0-9.2-7.92-11.35-12.39-11.35-3.87,0-12.38,2.58-16.77,3.95-1.72.52-7.31,2.32-15.48,5.25l-4.21-9c8.25-1.12,14.1-2.84,23-5.42A53,53,0,0,1,121,25.2c10.67,0,20.3,5.76,20.3,19.43C141.3,64,120.92,67.34,106.3,69Z"/><path class="cls-1" d="M209.75,21.5v12A22.09,22.09,0,0,1,212.25,44a38.57,38.57,0,0,1-4.39,16.6,59.55,59.55,0,0,1-11.69,16l-9.64-5c5.16-3.36,10.41-7.83,12.3-14.11a17.11,17.11,0,0,1-4.64.86,10.82,10.82,0,0,1-7.05-2.66c-3.53-3.1-4.48-7.74-4.48-12,0-9.46,4.73-16,13.51-16a11.37,11.37,0,0,1,4,.69L200,22c-7.66.43-20.64,1.2-31.57,2.58v-10c5.85,0,13.25,0,31.31-.86-.09-2.67-.09-7.22-.6-13.5l9.54.6c2,.09,2.5.34,2.5,1.2,0,.52-.18.78-.78,1.29s-.69.69-.69,1v8.85c12-.68,14.62-.94,23.4-1.63V20.9C226.61,20.9,220.93,21.07,209.75,21.5Zm-9.54,15.65A4.48,4.48,0,0,0,197,36c-3.44,0-5.85,3-5.85,7.57,0,5.16,2.75,7.13,4.73,7.13,1.8,0,5.93-1.89,5.93-8C201.84,40.85,201.58,38.61,200.21,37.15Z"/><path class="cls-1" d="M303.49,9.29c-1.72.17-1.63.26-2.58,1.12-5.5,5.5-6.45,6.19-24.33,22.44-.52.43-2.15,2-2.15,3.79a3.82,3.82,0,0,0,1.37,3.18,187.59,187.59,0,0,1,28.12,28.55L295.24,76A148.06,148.06,0,0,0,270.13,47c-4.48-4.05-7.66-7-7.66-10.5,0-4.21,3-6.88,8-11.35C282.6,14.28,288,9.37,295.67,0l7.57,6.11c.25.25,1.8,1.46,1.8,2.32C305,9.12,304.27,9.2,303.49,9.29Zm9.64,21.93a59.92,59.92,0,0,0-8.26-8.6l3.78-4.3a69.11,69.11,0,0,1,8.26,8.6Zm5.59-11.78a56.65,56.65,0,0,0-8.26-8.6l3.7-4.3a63.11,63.11,0,0,1,8.34,8.6Z"/><path class="cls-1" d="M341.59,49.88a50.49,50.49,0,0,1,19.09,18.66l-8.94,7.14a70.55,70.55,0,0,0-16.6-19.09Z"/><path class="cls-1" d="M476.27,72.41A78.39,78.39,0,0,1,463.2,61.92a77.09,77.09,0,0,1-11.61-14.53V75.33H441.7V47.64a84,84,0,0,1-24.34,24.43l-9-7.57c13.41-6,23.91-17.8,28.29-25.46H409.53V29.76H441.7V20.64H414.78V11.18H441.7V.69l9.11.34c.6,0,2.58.26,2.58,1.29,0,.43-.51.86-.77,1.12-.78.69-1,.86-1,1.29v6.45h27.17v9.46H451.59v9.12h32.16V39H456.66c8.51,12.73,15.91,19.18,28.46,25.29Z"/><path class="cls-1" d="M558.48,44c6.11,9.8,15.66,16.6,26,21.84l-7.06,7.4c-13.5-7.22-20.12-16.17-24.33-22.19V74.9h-9.29V49.71c-6.11,8.77-13.33,16.34-26.15,24.25l-7.31-7q17.81-9.67,26.84-23h-26v-8.6h17.29a134.57,134.57,0,0,0-6.79-14.27l6.62-3.1H515.4V9.72h28.38v-9l9.37,1c1,.09,1.55.34,1.55,1,0,.43-.34.77-.77,1.11-.61.52-.86.78-.86,1v4.9h28.38v8.34H566.57l6.28,2.75c.43.17,1.46.69,1.46,1.46,0,.26-.26.52-.6.69-1,.43-1,.43-1.21.86a89.74,89.74,0,0,1-5.67,11.61h18.4V44Zm-14.7-26H530.36c1.72,2.32,5.16,9.72,6.71,14.36l-5.5,3h12.21Zm9.29,0V35.43h9.71l-4.38-2.66a70.61,70.61,0,0,0,6.36-14.71Z"/><path class="cls-1" d="M679.66,63c-11.44-9.55-21.07-20.9-30.19-32.6-2.84-3.52-3.87-4.9-6-4.9-2.41,0-4.21,2.41-5,3.53-2.83,3.87-12.12,16.34-16.68,21.33l-9.63-6.2c7.82-7,13-14,21.41-25.37,1.29-1.72,4.3-5.93,9.2-5.93,4,0,5.85,2,10,6.79,15.39,17.63,24,26.75,34.66,34.06Z"/></g></g></svg>