<svg xmlns="http://www.w3.org/2000/svg" viewBox="0 0 516.41 78.79"><defs><style>.cls-1{fill:#fff;}</style></defs><g id="Layer_2" data-name="Layer 2"><g id="Layer_1-2" data-name="Layer 1"><path class="cls-1" d="M39.4,9.06A30.34,30.34,0,1,1,9.06,39.4,30.37,30.37,0,0,1,39.4,9.06M39.4,0A39.4,39.4,0,1,0,78.79,39.4,39.4,39.4,0,0,0,39.4,0Z"/><circle class="cls-1" cx="39.4" cy="39.4" r="9.09"/><path class="cls-1" d="M103.17,22.61H127.8v6.46H109.86v7.7h16v6.45h-16V56.55h-6.69Z"/><path class="cls-1" d="M144.86,44a5.54,5.54,0,0,0,1,3.09,7.66,7.66,0,0,0,2.56,2.4,6.86,6.86,0,0,0,3.48.92,7.37,7.37,0,0,0,3.69-.92,7.3,7.3,0,0,0,2.56-2.4,5.67,5.67,0,0,0,.94-3.09V22.61h6.6V44.15a12,12,0,0,1-1.85,6.61,12.79,12.79,0,0,1-5,4.52,14.82,14.82,0,0,1-7,1.64A14.57,14.57,0,0,1,145,55.28a12.8,12.8,0,0,1-5-4.52,12,12,0,0,1-1.84-6.61V22.61h6.68Z"/><path class="cls-1" d="M188,49.4A15.29,15.29,0,0,1,186.27,57a12,12,0,0,1-4.86,4.81,16.13,16.13,0,0,1-7.22,1.83V57.1a8.18,8.18,0,0,0,5.12-1.93q2-1.76,2-5.91V22.61H188Z"/><path class="cls-1" d="M201.4,22.61h6.68V56.55H201.4Z"/><path class="cls-1" d="M265.33,22.8V56.74h-6.69V43H243.47V56.74h-6.69V22.8h6.69V36.49h15.17V22.8Z"/><path class="cls-1" d="M275.77,39.81a17.61,17.61,0,0,1,1.4-7A18.85,18.85,0,0,1,281.06,27a18.33,18.33,0,0,1,5.77-4,17.79,17.79,0,0,1,14.07,0,18.94,18.94,0,0,1,9.78,9.81,17.29,17.29,0,0,1,1.43,7,17.54,17.54,0,0,1-1.43,7.06,18.11,18.11,0,0,1-4,5.77,18.63,18.63,0,0,1-5.82,3.89,18.38,18.38,0,0,1-14.07,0,18.21,18.21,0,0,1-9.66-9.66A17.86,17.86,0,0,1,275.77,39.81Zm7.25,0a11.38,11.38,0,0,0,3.21,8,10.79,10.79,0,0,0,7.9,3.31,10.25,10.25,0,0,0,7.64-3.31,11.76,11.76,0,0,0,3.09-8,11.8,11.8,0,0,0-3.17-8.14,10.84,10.84,0,0,0-12.05-2.44,10.85,10.85,0,0,0-3.48,2.44,11.3,11.3,0,0,0-2.32,3.65A12.07,12.07,0,0,0,283,39.81Z"/><path class="cls-1" d="M322.6,22.8h6.69V50.28h15.95v6.46H322.6Z"/><path class="cls-1" d="M354.69,56.74V22.8h10.15a22.19,22.19,0,0,1,8.71,1.52,15.38,15.38,0,0,1,5.79,4.06,16.32,16.32,0,0,1,3.21,5.67,20.55,20.55,0,0,1,1,6.31,16.37,16.37,0,0,1-1.36,6.81,15.56,15.56,0,0,1-3.71,5.16,16.42,16.42,0,0,1-5.44,3.28,19,19,0,0,1-6.55,1.13Zm6.69-6.46h4a14.88,14.88,0,0,0,4.61-.67,10.13,10.13,0,0,0,3.57-2,8.45,8.45,0,0,0,2.31-3.25,11.92,11.92,0,0,0,.8-4.5,11.78,11.78,0,0,0-1.08-5.41,9,9,0,0,0-2.67-3.26,10.14,10.14,0,0,0-3.26-1.59,11.31,11.31,0,0,0-2.81-.43h-5.44Z"/><path class="cls-1" d="M394.17,22.8h6.68V56.74h-6.68Z"/><path class="cls-1" d="M442.77,57.4,418,35l1.91,1.07.14,20h-6.53V22.13h.27L438,44.4l-1.42-.62-.13-20.36H443v34Z"/><path class="cls-1" d="M483.44,54.19a7.69,7.69,0,0,1-2,1.39,20.63,20.63,0,0,1-3.17,1.3,28.39,28.39,0,0,1-3.65,1,17.89,17.89,0,0,1-3.53.37,22.82,22.82,0,0,1-7.95-1.3,17.86,17.86,0,0,1-6-3.63,15.54,15.54,0,0,1-3.83-5.52,18,18,0,0,1-1.32-7,22.74,22.74,0,0,1,1.49-8.61,17.28,17.28,0,0,1,4.07-6.09,16.6,16.6,0,0,1,5.94-3.6,21,21,0,0,1,7-1.18,25.42,25.42,0,0,1,6.38.76,21.24,21.24,0,0,1,4.9,1.89l-2.31,6.62a14.78,14.78,0,0,0-2.35-1,30.67,30.67,0,0,0-3-.81,13.63,13.63,0,0,0-2.7-.32,16.77,16.77,0,0,0-5.2.74,9.88,9.88,0,0,0-3.8,2.21,9.28,9.28,0,0,0-2.33,3.65,15.1,15.1,0,0,0-.79,5.08,11.34,11.34,0,0,0,.89,4.58,9.82,9.82,0,0,0,2.47,3.46,10.85,10.85,0,0,0,3.78,2.16,15.1,15.1,0,0,0,4.83.74,17.2,17.2,0,0,0,2.8-.22,6.85,6.85,0,0,0,2.16-.72V45.8H470V38.93h13.44Z"/><path class="cls-1" d="M513.8,30.66a27.84,27.84,0,0,0-4-1.8,12.06,12.06,0,0,0-3.87-.71,6,6,0,0,0-3.51.9,3.09,3.09,0,0,0-1.28,2.7,3,3,0,0,0,1,2.21,9.23,9.23,0,0,0,2.51,1.73c1,.5,2.09,1,3.2,1.37a27.54,27.54,0,0,1,3,1.35,11.3,11.3,0,0,1,2.68,2,8.44,8.44,0,0,1,1.89,2.89,11.06,11.06,0,0,1,.71,4.24,9.31,9.31,0,0,1-1.37,4.93,10.09,10.09,0,0,1-4,3.68,13.94,13.94,0,0,1-6.54,1.39,20.9,20.9,0,0,1-4.05-.4,20.74,20.74,0,0,1-7.9-3.34l3-5.36A16.47,16.47,0,0,0,497.9,50a15.74,15.74,0,0,0,2.91,1.07,11,11,0,0,0,2.7.38,9,9,0,0,0,2.49-.36,4.64,4.64,0,0,0,2.09-1.21,3.27,3.27,0,0,0,.83-2.37,2.94,2.94,0,0,0-.69-1.89A7.32,7.32,0,0,0,506.38,44a15.34,15.34,0,0,0-2.54-1.23c-1.07-.41-2.18-.89-3.31-1.42a17.2,17.2,0,0,1-3.2-2A8.51,8.51,0,0,1,494,32.28,9.89,9.89,0,0,1,495.34,27a9.64,9.64,0,0,1,3.81-3.53A13.18,13.18,0,0,1,504.84,22a19.78,19.78,0,0,1,6.85,1,24.78,24.78,0,0,1,4.72,2.37Z"/></g></g></svg>