<svg xmlns="http://www.w3.org/2000/svg" viewBox="0 0 504.37 101.64"><defs><style>.cls-1{fill:#fff;}</style></defs><g id="Layer_2" data-name="Layer 2"><g id="Layer_1-2" data-name="Layer 1"><path class="cls-1" d="M50.82,11.69A39.13,39.13,0,1,1,11.69,50.82,39.18,39.18,0,0,1,50.82,11.69M50.82,0a50.82,50.82,0,1,0,50.82,50.82A50.82,50.82,0,0,0,50.82,0Z"/><circle class="cls-1" cx="50.82" cy="50.82" r="11.73"/><path class="cls-1" d="M128.92,65.3h14.75v3.86H132.92v4.62h9.59v3.87h-9.59v8h-4Z"/><path class="cls-1" d="M153.9,78.12a3.31,3.31,0,0,0,.58,1.85A4.29,4.29,0,0,0,156,81.4a4.09,4.09,0,0,0,2.09.56,4.4,4.4,0,0,0,2.21-.56A4.29,4.29,0,0,0,161.84,80a3.37,3.37,0,0,0,.57-1.85V65.3h4V78.2a7.16,7.16,0,0,1-1.11,4,7.64,7.64,0,0,1-3,2.71,8.84,8.84,0,0,1-4.17,1,8.65,8.65,0,0,1-4.13-1,7.55,7.55,0,0,1-3-2.71,7.16,7.16,0,0,1-1.11-4V65.3h4Z"/><path class="cls-1" d="M179.76,81.35a9.14,9.14,0,0,1-1,4.53,7.25,7.25,0,0,1-2.92,2.89,9.71,9.71,0,0,1-4.32,1.09V86a4.88,4.88,0,0,0,3.06-1.16,4.49,4.49,0,0,0,1.19-3.53v-16h4Z"/><path class="cls-1" d="M187.77,65.3h4V85.63h-4Z"/><path class="cls-1" d="M226.07,65.41V85.74h-4V77.48H213v8.26h-4V65.41h4v8.2h9.09v-8.2Z"/><path class="cls-1" d="M232.33,75.6a10.57,10.57,0,0,1,.84-4.17A11.08,11.08,0,0,1,235.5,68,10.94,10.94,0,0,1,239,65.56a10.62,10.62,0,0,1,8.42,0,11.46,11.46,0,0,1,5.87,5.87,10.8,10.8,0,0,1,0,8.4,10.91,10.91,0,0,1-2.38,3.46,11.18,11.18,0,0,1-3.49,2.33,11,11,0,0,1-8.42,0,10.93,10.93,0,0,1-3.46-2.33,10.77,10.77,0,0,1-2.33-3.46A10.65,10.65,0,0,1,232.33,75.6Zm4.34,0a6.84,6.84,0,0,0,.51,2.65,6.75,6.75,0,0,0,1.42,2.17,6.47,6.47,0,0,0,2.11,1.47,6.62,6.62,0,0,0,2.62.52,6.26,6.26,0,0,0,2.53-.52,6.09,6.09,0,0,0,2-1.47,6.76,6.76,0,0,0,1.36-2.17,7.31,7.31,0,0,0,0-5.34,6.94,6.94,0,0,0-1.39-2.18,6.31,6.31,0,0,0-2.07-1.47,6.42,6.42,0,0,0-7.24,1.47,6.61,6.61,0,0,0-1.39,2.18A7.43,7.43,0,0,0,236.67,75.6Z"/><path class="cls-1" d="M260.39,65.41h4V81.87H274v3.87H260.39Z"/><path class="cls-1" d="M279.62,85.74V65.41h6.07a13.38,13.38,0,0,1,5.23.91,9.29,9.29,0,0,1,3.46,2.43,9.58,9.58,0,0,1,1.92,3.4,12.05,12.05,0,0,1,.61,3.78A9.91,9.91,0,0,1,296.1,80a9.28,9.28,0,0,1-2.23,3.09,9.63,9.63,0,0,1-3.26,2,11.11,11.11,0,0,1-3.92.68Zm4-3.87H286a8.89,8.89,0,0,0,2.76-.4,6.07,6.07,0,0,0,2.14-1.17,5.09,5.09,0,0,0,1.38-2,6.87,6.87,0,0,0,.49-2.69,7.11,7.11,0,0,0-.65-3.25,5.53,5.53,0,0,0-1.6-2,6.06,6.06,0,0,0-1.95-.95,7.11,7.11,0,0,0-1.69-.26h-3.26Z"/><path class="cls-1" d="M303.27,65.41h4V85.74h-4Z"/><path class="cls-1" d="M332.39,86.14l-14.84-13.4,1.15.64.08,12h-3.91V65H315l14.51,13.34-.85-.37-.08-12.2h3.88V86.14Z"/><path class="cls-1" d="M356.75,84.21a4.12,4.12,0,0,1-1.2.84,11.71,11.71,0,0,1-1.9.78,16,16,0,0,1-2.19.57,10.66,10.66,0,0,1-2.11.22,13.76,13.76,0,0,1-4.77-.77A10.63,10.63,0,0,1,341,83.67a9.33,9.33,0,0,1-2.29-3.31,10.72,10.72,0,0,1-.8-4.17,13.52,13.52,0,0,1,.9-5.16,10.27,10.27,0,0,1,2.44-3.64,9.85,9.85,0,0,1,3.56-2.16,12.62,12.62,0,0,1,4.21-.71,15.15,15.15,0,0,1,3.82.46,12.28,12.28,0,0,1,2.94,1.13l-1.38,4a8.32,8.32,0,0,0-1.41-.59,16.32,16.32,0,0,0-1.79-.48,7.92,7.92,0,0,0-1.62-.2,9.84,9.84,0,0,0-3.11.45,5.78,5.78,0,0,0-2.28,1.32,5.65,5.65,0,0,0-1.4,2.19,9,9,0,0,0-.47,3,6.92,6.92,0,0,0,.53,2.75,5.84,5.84,0,0,0,1.49,2.07,6.3,6.3,0,0,0,2.26,1.29,8.85,8.85,0,0,0,2.89.44,9.71,9.71,0,0,0,1.68-.13,4,4,0,0,0,1.29-.43V79.19H348.7V75.07h8.05Z"/><path class="cls-1" d="M374.94,70.12A16.37,16.37,0,0,0,372.51,69a7.17,7.17,0,0,0-2.31-.42,3.59,3.59,0,0,0-2.1.54,1.85,1.85,0,0,0-.77,1.61,1.82,1.82,0,0,0,.58,1.33,5.71,5.71,0,0,0,1.51,1,18.5,18.5,0,0,0,1.92.83,14.26,14.26,0,0,1,1.8.81,6.62,6.62,0,0,1,1.6,1.16,4.92,4.92,0,0,1,1.14,1.73,6.77,6.77,0,0,1,.43,2.54,5.63,5.63,0,0,1-.83,3,6,6,0,0,1-2.41,2.2,8.32,8.32,0,0,1-3.92.84,12.67,12.67,0,0,1-2.43-.24A12.39,12.39,0,0,1,362,84l1.82-3.21a10.59,10.59,0,0,0,1.6,1,9.94,9.94,0,0,0,1.75.63,6.19,6.19,0,0,0,1.62.23,5.52,5.52,0,0,0,1.49-.21,2.66,2.66,0,0,0,1.25-.73,2,2,0,0,0,.5-1.42,1.79,1.79,0,0,0-.41-1.13,4.37,4.37,0,0,0-1.11-.94,9.74,9.74,0,0,0-1.52-.74c-.65-.24-1.31-.53-2-.85a10,10,0,0,1-1.92-1.18,5.06,5.06,0,0,1-2-4.27,6,6,0,0,1,.81-3.16,5.71,5.71,0,0,1,2.29-2.11,8,8,0,0,1,3.4-.87,11.74,11.74,0,0,1,4.11.6A14.3,14.3,0,0,1,376.5,67Z"/><path class="cls-1" d="M389.29,48.71h-5.36V37.9a41.1,41.1,0,0,1-6.62,3.35,29.91,29.91,0,0,0-3.47-4.61A31.37,31.37,0,0,0,390.58,26.1l4.31,3c.27.21.27.33.27.45,0,.48-.63.45-1.08.42a34.76,34.76,0,0,1-4.79,4.52Z"/><path class="cls-1" d="M153.54,25a66.07,66.07,0,0,1,11.54,11c-.35.32-4,3.6-4.74,4.47a52.79,52.79,0,0,0-10.71-10.95V51.05h-6.28V32.2a36.47,36.47,0,0,1-12.53,7.9,15,15,0,0,0-4.15-5.33c10.71-2.89,16.44-11,18.14-13.64H128.06V15.72h36.15v5.41H152.79A36.24,36.24,0,0,1,150,25c-.34.35-.29.86-.32,1.51V29Z"/><path class="cls-1" d="M227.89,34.17c.27.16.51.36.51.64,0,.44-.47.44-1,.44a50.76,50.76,0,0,1-8,9.89,36.7,36.7,0,0,0-5.38-4,30,30,0,0,0,8.42-10.29Zm1.63-19.56,6.27.2c.48,0,.91,0,.91.48s-.47.52-.67.6V23h13.09v5.7H236V43.19c0,2.71,0,6.22-6.23,6.22-.88,0-1.91-.12-3-.2A18.94,18.94,0,0,0,224.69,43a22.8,22.8,0,0,0,3.39.36c1.08,0,1.4-.36,1.4-1.6,0-.2,0-1.2,0-1.4V28.66h-13V23h13ZM243,30.3a52,52,0,0,1,7.9,9.66c-1.2.91-3.87,3.31-4.83,4.23A56.41,56.41,0,0,0,238.3,34Z"/><path class="cls-1" d="M287.74,29.63V36H259.26V29.63Z"/><path class="cls-1" d="M306.28,18.59c.44,0,.92,0,.92.55s-.52.68-.68.76v9.65c0,10.41-5.06,14.8-9.81,18.88a19.94,19.94,0,0,0-5.35-4.31,21.31,21.31,0,0,0,6.42-6.1c.47-.75,1.93-3.05,1.93-8.11V18.27Zm10.1-.32c.43,0,.75,0,.75.44s-.4.55-.75.71V38.7a42.71,42.71,0,0,0,10.25-10.37,18.22,18.22,0,0,0,3.05,5.93,68.2,68.2,0,0,1-11.13,11c-1.58,1.14-3.12,2.37-4.67,3.56l-4.19-2.69c.08-1.07.16-2.06.16-3.17v-25Z"/><path class="cls-1" d="M403.76,17C410,20.15,411.89,22,413,23c-.89,1.07-1.15,1.48-3.59,5a38,38,0,0,0-9.3-5.91Zm-3,25.52c10.53-2.18,20.91-9.3,27.49-19.87a23.14,23.14,0,0,0,3.8,5,48.58,48.58,0,0,1-11.49,12.3,61.12,61.12,0,0,1-15.22,8.24c0,.41-.18.81-.51.81s-.37-.11-.59-.51Z"/><path class="cls-1" d="M461.21,21.09a6.17,6.17,0,0,0,2.68-.57L467,23.21c-.68,1.13-3,6.32-3.86,8.25C457.35,44.54,449,48.74,445.62,50.41a19.85,19.85,0,0,0-4.88-4.32,34.81,34.81,0,0,0,12.3-9,36.06,36.06,0,0,0,5.63-10.59h-9.45a52,52,0,0,1-8.51,9.68,20.58,20.58,0,0,0-4.62-4.08c9.19-7.8,11.58-14.45,12.41-16.72l5.44,2.65c.16.07.5.26.5.56s-.53.5-.91.53c-.61,1.18-.72,1.48-1,1.93Z"/><path class="cls-1" d="M460,14.25a29.84,29.84,0,0,1,3.7,3.63A34.36,34.36,0,0,0,460.6,20,32.71,32.71,0,0,0,457,16.36Z"/><path class="cls-1" d="M466,13.83a35.28,35.28,0,0,1,3.71,3.9c-.5.34-2.73,1.77-3.18,2.08a20.92,20.92,0,0,0-3.4-4Z"/><path class="cls-1" d="M368.24,17A30,30,0,0,1,372,20.6a34.36,34.36,0,0,0-3.1,2.12,33.43,33.43,0,0,0-3.59-3.63Z"/><path class="cls-1" d="M374.26,16.55a35.28,35.28,0,0,1,3.71,3.9c-.5.34-2.73,1.78-3.18,2.08a20.43,20.43,0,0,0-3.41-4Z"/><path class="cls-1" d="M336.3,31.59V26.1H369v5.49H356.51c-.53,13.38-10,16.72-12.6,17.6a20.37,20.37,0,0,0-4.73-4.72c10.65-2.69,10.95-10,11.07-12.88Z"/><rect class="cls-1" x="341.8" y="16.11" width="21.98" height="5.57"/><path class="cls-1" d="M474.6,25.73V20.1h19.19a10.16,10.16,0,0,0,2.59-.3L499.31,23a11.11,11.11,0,0,0-1.43,2.41,65.18,65.18,0,0,1-4.77,9.2c1.58,1.2,8.45,6.9,11.26,10.28-1.23,1.43-3.26,3.68-4.5,5.11a51.47,51.47,0,0,0-10.1-10.7c-3.61,4.32-9.5,9.16-14.42,11.23a16.89,16.89,0,0,0-4.28-5.15,31.45,31.45,0,0,0,12.2-7.51c4.28-4.13,5.82-7.81,7.51-12.13Z"/><path class="cls-1" d="M203.73,24.41V21.13l-.14,0A21.48,21.48,0,0,0,198.67,17l-1.81,2.16H176.17v6.19h27.56Z"/><path class="cls-1" d="M202.28,39l-2.11,2.52H172.56v6.19h34.78V43.25h0A20.86,20.86,0,0,0,202.28,39Z"/></g></g></svg>