<?xml version="1.0" encoding="utf-8"?>
<!-- Generator: Adobe Illustrator 19.2.1, SVG Export Plug-In . SVG Version: 6.00 Build 0)  -->
<svg version="1.1" id="レイヤー_1" xmlns="http://www.w3.org/2000/svg" xmlns:xlink="http://www.w3.org/1999/xlink" x="0px"
	 y="0px" width="95px" height="34.8px" viewBox="0 0 95 34.8" style="enable-background:new 0 0 95 34.8;" xml:space="preserve">
<style type="text/css">
	.st0{fill-rule:evenodd;clip-rule:evenodd;fill:#231815;}
	.st1{fill:#231815;}
</style>
<g>
	<path class="st0" d="M48.13,26.88c-1.02-1.74-1.98-3.38-2.98-5.07c-0.03,0.14-0.06,0.22-0.06,0.3c0,0.97-0.01,1.94,0.01,2.91
		c0,0.16,0.06,0.35,0.15,0.48c0.27,0.43,0.57,0.84,0.83,1.23h-2.18c0.45-0.65,1.11-1.18,1.06-2.13c-0.05-0.99-0.01-1.99-0.01-3.02
		c-0.37-0.19-0.73-0.37-1.13-0.57h2.95c0.75,1.26,1.5,2.53,2.29,3.87c0.73-1.33,1.43-2.6,2.13-3.87h2.88
		c-0.38,0.23-0.72,0.44-1.07,0.65v4.44c0.31,0.19,0.66,0.4,1.04,0.63h-3.95c0.35-0.22,0.68-0.42,1-0.62V21.6
		c-0.02-0.01-0.04-0.01-0.07-0.02C50.09,23.31,49.15,25.03,48.13,26.88"/>
	<path class="st0" d="M21.57,21.89c0,1.03-0.03,2.06,0.01,3.09c0.03,0.74,0.61,1.19,0.99,1.74h-2.19c0.4-0.61,1.06-1.1,1.03-1.99
		c-0.03-1.04-0.01-2.08-0.01-3.14c-0.37-0.19-0.73-0.37-1.11-0.57h2.94c0.74,1.25,1.49,2.52,2.29,3.86
		c0.73-1.32,1.42-2.59,2.12-3.87h2.88c-0.37,0.23-0.7,0.43-1.04,0.64v4.46c0.31,0.19,0.64,0.39,0.99,0.61h-3.89
		c0.34-0.21,0.68-0.42,1.01-0.62v-4.54c-0.02-0.01-0.05-0.02-0.07-0.03c-0.96,1.74-1.91,3.49-2.93,5.34
		c-1.02-1.74-1.98-3.38-2.94-5.01C21.63,21.88,21.6,21.88,21.57,21.89"/>
	<path class="st0" d="M65.42,21.65c-0.35-0.21-0.67-0.4-1.08-0.66h0.44c1.5,0,2.99-0.03,4.49,0.01c0.61,0.02,1.23,0.15,1.82,0.3
		c0.28,0.07,0.56,0.27,0.77,0.48c0.53,0.52,0.47,1.3-0.18,1.65c-0.5,0.27-1.08,0.39-1.63,0.53c-0.31,0.08-0.64,0.07-0.96,0.1
		c0,0.04-0.01,0.07-0.01,0.11c0.6,0.07,1.19,0.13,1.83,0.2c0.58,0.83,0.86,2,2.09,2.37h-1.41h-1.41c-0.53-0.9-1.05-1.78-1.58-2.67
		h-1.25v2.03c0.3,0.18,0.64,0.38,1,0.6H64.4c0.34-0.21,0.68-0.42,1.02-0.62V21.65z M67.34,21.2v2.7c0.6,0,1.16,0.02,1.73-0.01
		c0.78-0.04,1.19-0.48,1.26-1.26c0.06-0.75-0.31-1.32-1.06-1.42C68.65,21.13,68.01,21.2,67.34,21.2"/>
	<path class="st0" d="M59.17,20.88c1.33,0.03,2.53,0.37,3.42,1.43c0.81,0.95,0.79,2.19-0.03,3.13c-0.71,0.81-1.65,1.2-2.69,1.34
		c-1.39,0.18-2.69-0.09-3.78-1.02c-1.27-1.09-1.27-2.68-0.01-3.78C56.96,21.21,58,20.86,59.17,20.88 M61.11,23.76
		c-0.04-0.41-0.06-0.91-0.15-1.4c-0.12-0.68-0.51-1.17-1.23-1.26c-1.55-0.2-2.21,0.31-2.35,1.43c-0.1,0.79-0.09,1.61-0.05,2.42
		c0.06,1.48,1.12,1.84,2.31,1.67c0.77-0.11,1.23-0.58,1.34-1.36C61.04,24.79,61.06,24.32,61.11,23.76"/>
	<path class="st0" d="M6.2,26.04c-0.42,0.26-0.82,0.52-1.26,0.8v-2.18c0.17,0.15,0.31,0.25,0.43,0.38c0.87,0.86,1.89,1.45,3.12,1.55
		c0.45,0.04,0.95-0.03,1.36-0.21c0.64-0.28,0.66-1.14-0.01-1.34c-0.83-0.25-1.6-0.3-1.96-0.41c-0.61-0.11-1.23-0.17-1.82-0.34
		c-0.7-0.2-1.24-0.65-1.29-1.44c-0.06-0.79,0.4-1.32,1.06-1.67c0.94-0.49,1.93-0.45,2.84,0c0.71,0.35,1.26,0.34,1.82-0.21
		c0.04-0.04,0.12-0.05,0.21-0.1v1.88c-0.11-0.09-0.19-0.15-0.26-0.21c-0.94-0.91-2.02-1.53-3.37-1.5c-0.31,0.01-0.65,0.09-0.92,0.24
		c-0.52,0.28-0.5,0.85,0.03,1.09c0.36,0.16,0.77,0.23,1.17,0.3c0.72,0.13,1.44,0.22,2.15,0.33c0.17,0.03,0.34,0.09,0.5,0.15
		c0.91,0.36,1.38,1.04,1.3,1.88c-0.08,0.83-0.72,1.5-1.62,1.69c-0.87,0.18-1.71,0.07-2.53-0.28C6.86,26.32,6.56,26.2,6.2,26.04"/>
	<path class="st0" d="M83.39,26.13c0.35,0.2,0.69,0.4,1.04,0.59H80.4c0.36-0.21,0.72-0.42,1.09-0.63v-4.92h-0.64
		c-0.63,0.75-1.28,1.53-1.91,2.29v-2.44h6.95v2.43c-0.63-0.75-1.26-1.52-1.9-2.3h-0.59V26.13z"/>
	<path class="st0" d="M91.08,25.04h-2.94c0.25,0.61,0.48,1.15,0.7,1.69h-2.06c1.57-1.74,2.46-3.9,3.75-5.88
		c0.12,0.16,0.21,0.28,0.3,0.41c0.9,1.41,1.78,2.82,2.7,4.21c0.3,0.46,0.7,0.86,1.03,1.25h-3.52c0.24-0.2,0.47-0.39,0.73-0.61
		C91.52,25.74,91.29,25.38,91.08,25.04 M89.58,22.72c-0.41,0.72-0.79,1.39-1.2,2.09h2.55C90.48,24.1,90.05,23.44,89.58,22.72"/>
	<path class="st0" d="M16.05,26.72c0.23-0.19,0.46-0.4,0.72-0.61c-0.24-0.38-0.47-0.73-0.7-1.08h-2.89c0.16,0.63,0.43,1.16,0.69,1.7
		h-2.09c1.57-1.73,2.46-3.89,3.75-5.88c0.11,0.14,0.2,0.25,0.27,0.36c0.91,1.42,1.79,2.84,2.72,4.25c0.3,0.46,0.7,0.86,1.03,1.26
		H16.05z M14.59,22.72c-0.42,0.74-0.79,1.4-1.19,2.09h2.55C15.48,24.1,15.05,23.44,14.59,22.72"/>
	<path class="st0" d="M37.66,21.01h2.17c-0.42,0.64-1.09,1.15-1.02,2.06c0.03,0.44,0.01,0.89,0,1.33c-0.02,1.17-0.58,1.95-1.7,2.26
		c-1.16,0.32-2.32,0.28-3.41-0.32c-0.79-0.43-1.18-1.11-1.18-2.01c0.01-0.89,0-1.78,0-2.67c-0.35-0.22-0.68-0.42-1.06-0.65h3.97
		c-0.36,0.22-0.69,0.42-1.03,0.63c0,1.24-0.03,2.45,0.01,3.65c0.03,0.71,0.44,1.11,1.13,1.3c1.36,0.36,2.83-0.4,3.04-1.67
		c0.13-0.78,0.18-1.61,0.02-2.37C38.49,21.99,37.98,21.51,37.66,21.01"/>
	<path class="st0" d="M2.88,26.12c0.34,0.2,0.66,0.39,1,0.6h-3.9c0.34-0.21,0.67-0.42,1.01-0.63v-4.42
		c-0.33-0.2-0.67-0.42-1.04-0.64H3.9c-0.36,0.22-0.69,0.42-1.02,0.62V26.12z"/>
	<path class="st0" d="M77.85,21.02c-0.38,0.23-0.72,0.43-1.06,0.64v4.45c0.33,0.2,0.67,0.41,1.03,0.62H73.9
		c0.35-0.21,0.67-0.41,1-0.62v-4.45c-0.31-0.2-0.65-0.41-1.02-0.64H77.85z"/>
	<path class="st0" d="M38.17,8.69c0-4.8,3.87-8.69,8.64-8.69c4.84,0,8.73,3.89,8.72,8.71c-0.01,4.77-3.92,8.66-8.7,8.65
		C42.03,17.35,38.17,13.49,38.17,8.69 M42.02,13.72V9.76c-0.28-0.21-0.57-0.43-0.94-0.7h2.67c1.07,1.03,2.09,2.01,3.06,2.94
		c1.02-0.96,2.05-1.92,3.1-2.91h2.69c-0.37,0.26-0.66,0.47-0.94,0.67v3.97c0.3,0.2,0.61,0.41,0.91,0.61
		c3.25-3.1,3.03-8.53-0.03-11.32c-0.29,0.2-0.59,0.4-0.87,0.59v4.02c0.3,0.19,0.61,0.39,1,0.64h-2.7c-1.11-1.03-2.14-1.99-3.13-2.92
		c-0.99,0.93-2.02,1.91-3.05,2.89h-2.64c0.34-0.25,0.61-0.44,0.87-0.62V3.59c-0.3-0.2-0.6-0.4-0.9-0.59
		c-3.3,3.27-2.98,8.5-0.01,11.33C41.41,14.13,41.71,13.93,42.02,13.72 M41.36,14.59c3.35,3.2,8.5,2.58,10.89,0H41.36z M41.44,2.74
		h10.83C49.15-0.27,44.06,0.05,41.44,2.74 M49.83,3.6h-5.95v3.82c0.99-0.92,2-1.86,2.97-2.77c0.96,0.91,1.98,1.86,2.98,2.8V3.6z
		 M49.83,9.88c-1.01,0.93-2.02,1.87-3.02,2.79c-0.95-0.91-1.96-1.86-2.94-2.79v3.83h5.95V9.88z"/>
</g>
<g>
	<path class="st1" d="M39.63,34.8v-0.14c0.12-0.03,0.2-0.06,0.24-0.1c0.04-0.04,0.07-0.09,0.08-0.16c0.01-0.07,0.02-0.17,0.02-0.32
		v-2.49c0-0.13,0-0.23-0.01-0.29c-0.01-0.06-0.03-0.11-0.05-0.14c-0.02-0.03-0.05-0.06-0.09-0.08c-0.04-0.02-0.1-0.04-0.19-0.07
		v-0.14h1.58c0.31,0,0.55,0.03,0.74,0.1c0.19,0.06,0.32,0.16,0.41,0.29s0.14,0.29,0.14,0.49c0,0.17-0.03,0.31-0.1,0.43
		c-0.06,0.12-0.15,0.23-0.25,0.31c-0.1,0.08-0.24,0.16-0.4,0.22v0.03c0.26,0.08,0.46,0.2,0.59,0.36s0.2,0.36,0.2,0.59
		c0,0.26-0.06,0.47-0.17,0.64s-0.28,0.29-0.49,0.36c-0.21,0.07-0.46,0.11-0.76,0.11H39.63z M41.01,32.63c0.29,0,0.52-0.07,0.67-0.21
		c0.15-0.14,0.23-0.35,0.23-0.62c0-0.13-0.02-0.24-0.06-0.33c-0.04-0.09-0.1-0.16-0.18-0.21s-0.17-0.09-0.27-0.11
		c-0.1-0.02-0.22-0.03-0.34-0.03c-0.07,0-0.17,0-0.29,0.01s-0.21,0.01-0.27,0.01v1.49H41.01z M40.51,34.53
		c0.14,0.01,0.3,0.02,0.47,0.02c0.25,0,0.45-0.03,0.59-0.09s0.24-0.16,0.3-0.28c0.06-0.12,0.09-0.28,0.09-0.46s-0.03-0.34-0.1-0.46
		c-0.07-0.12-0.17-0.21-0.32-0.27c-0.14-0.06-0.34-0.09-0.59-0.09h-0.45V34.53z"/>
	<path class="st1" d="M43.96,33.03v0.9c0,0.13,0.01,0.22,0.02,0.28c0.01,0.06,0.03,0.1,0.05,0.13c0.02,0.03,0.05,0.05,0.08,0.07
		c0.04,0.02,0.1,0.04,0.18,0.06v0.13h-1.17v-0.13c0.11-0.03,0.19-0.06,0.23-0.09s0.06-0.08,0.08-0.15c0.01-0.06,0.02-0.16,0.02-0.29
		v-2.29c0-0.12,0-0.21-0.01-0.27s-0.02-0.1-0.05-0.13c-0.02-0.03-0.05-0.05-0.08-0.07s-0.1-0.04-0.18-0.06v-0.13h1.38
		c0.43,0,0.76,0.08,0.97,0.22c0.22,0.15,0.32,0.38,0.32,0.7c0,0.24-0.07,0.45-0.21,0.62s-0.35,0.3-0.63,0.4v0.02
		c0.11,0.04,0.21,0.11,0.29,0.19c0.08,0.08,0.17,0.21,0.27,0.38l0.25,0.43c0.07,0.13,0.13,0.22,0.19,0.29
		c0.05,0.07,0.1,0.12,0.16,0.15c0.05,0.04,0.13,0.06,0.21,0.07v0.13h-0.77c-0.07-0.09-0.14-0.19-0.2-0.3s-0.13-0.22-0.19-0.33
		l-0.24-0.44c-0.07-0.13-0.14-0.23-0.18-0.3s-0.09-0.11-0.13-0.13c-0.04-0.03-0.08-0.04-0.13-0.05s-0.11-0.01-0.2-0.01H43.96z
		 M43.96,31.23v1.57h0.31c0.16,0,0.29-0.01,0.39-0.03c0.1-0.02,0.19-0.06,0.28-0.13s0.15-0.15,0.2-0.26
		c0.05-0.11,0.08-0.25,0.08-0.41c0-0.17-0.03-0.31-0.09-0.42c-0.06-0.11-0.15-0.2-0.27-0.25c-0.12-0.06-0.29-0.09-0.5-0.09
		C44.19,31.22,44.06,31.23,43.96,31.23z"/>
	<path class="st1" d="M47.5,33.94c0,0.12,0,0.21,0.01,0.26c0.01,0.05,0.02,0.1,0.04,0.13c0.02,0.03,0.05,0.06,0.09,0.08
		c0.04,0.02,0.1,0.04,0.19,0.06v0.13h-1.17v-0.13c0.11-0.03,0.19-0.06,0.23-0.09s0.06-0.08,0.08-0.15c0.01-0.06,0.02-0.16,0.02-0.29
		v-2.29c0-0.12,0-0.21-0.01-0.27s-0.02-0.1-0.05-0.13c-0.02-0.03-0.05-0.05-0.08-0.07s-0.1-0.04-0.18-0.06v-0.13h1.17v0.13
		c-0.08,0.02-0.14,0.04-0.18,0.06c-0.04,0.02-0.06,0.04-0.09,0.07c-0.02,0.03-0.04,0.07-0.05,0.13c-0.01,0.06-0.02,0.15-0.02,0.27
		V33.94z"/>
	<path class="st1" d="M48.5,34.6v-0.13c0.09-0.02,0.15-0.04,0.19-0.06c0.04-0.02,0.07-0.04,0.09-0.08c0.02-0.03,0.04-0.07,0.04-0.13
		c0.01-0.06,0.01-0.15,0.01-0.27V31.6c0-0.13,0-0.22-0.01-0.27c-0.01-0.06-0.03-0.1-0.05-0.13s-0.05-0.06-0.09-0.07
		s-0.1-0.04-0.19-0.06v-0.13h1.24c0.36,0,0.65,0.04,0.88,0.11c0.23,0.07,0.42,0.18,0.58,0.33s0.27,0.33,0.35,0.54
		c0.08,0.22,0.12,0.47,0.12,0.77c0,0.3-0.04,0.57-0.11,0.8c-0.07,0.23-0.18,0.42-0.32,0.58c-0.12,0.14-0.27,0.25-0.44,0.34
		c-0.15,0.07-0.31,0.12-0.5,0.15c-0.19,0.03-0.44,0.05-0.76,0.05H48.5z M49.36,34.35c0.08,0.01,0.19,0.01,0.34,0.01
		c0.16,0,0.3-0.01,0.42-0.04c0.13-0.02,0.24-0.06,0.34-0.12s0.19-0.13,0.28-0.22c0.08-0.1,0.15-0.21,0.2-0.33s0.09-0.26,0.11-0.42
		c0.02-0.15,0.04-0.32,0.04-0.5c0-0.36-0.06-0.66-0.17-0.9c-0.11-0.23-0.27-0.4-0.47-0.51c-0.2-0.11-0.44-0.16-0.72-0.16
		c-0.13,0-0.25,0-0.37,0.01V34.35z"/>
	<path class="st1" d="M54.99,30.83v0.86h-0.28c-0.03-0.09-0.06-0.17-0.09-0.24c-0.03-0.07-0.06-0.13-0.09-0.18
		c-0.03-0.05-0.07-0.08-0.11-0.11c-0.04-0.03-0.08-0.05-0.14-0.06c-0.05-0.01-0.12-0.02-0.19-0.02h-0.9v1.48h0.61
		c0.08,0,0.15-0.01,0.2-0.04c0.05-0.02,0.09-0.06,0.12-0.12c0.03-0.06,0.06-0.15,0.09-0.27h0.27v1.09h-0.27
		c-0.03-0.11-0.06-0.2-0.09-0.26s-0.07-0.1-0.11-0.12c-0.04-0.02-0.11-0.04-0.2-0.04H53.2v1.63h0.88c0.09,0,0.17-0.01,0.23-0.02
		c0.06-0.02,0.11-0.04,0.15-0.08c0.04-0.04,0.08-0.09,0.11-0.15s0.06-0.13,0.08-0.19c0.02-0.07,0.05-0.16,0.09-0.29h0.28l-0.05,0.99
		h-2.62v-0.14c0.12-0.03,0.2-0.06,0.24-0.1c0.04-0.04,0.07-0.09,0.08-0.16c0.01-0.07,0.02-0.17,0.02-0.31v-2.45
		c0-0.13,0-0.22-0.01-0.28c-0.01-0.06-0.03-0.11-0.05-0.14s-0.05-0.06-0.09-0.08c-0.04-0.02-0.1-0.04-0.18-0.07v-0.14H54.99z"/>
</g>
</svg>
