<svg id="Group_48" data-name="Group 48" xmlns="http://www.w3.org/2000/svg" xmlns:xlink="http://www.w3.org/1999/xlink" width="59.48" height="59.393" viewBox="0 0 59.48 59.393">
  <defs>
    <clipPath id="clip-path">
      <rect id="Rectangle_75" data-name="Rectangle 75" width="59.48" height="59.392" fill="#008d80"/>
    </clipPath>
  </defs>
  <g id="Group_22" data-name="Group 22" transform="translate(0 0)" clip-path="url(#clip-path)">
    <path id="Path_7062" data-name="Path 7062" d="M9.171,48.321c-1.989,0-3.633-2.394-4.541-3.8A27.954,27.954,0,0,1,0,29.485,29.611,29.611,0,0,1,29.493,0C45.682,0,59.481,13.046,59.481,29.407c0,17.263-13.633,29.985-30.643,29.985-5.871,0-15.622-2.563-15.622-10,0-2.809,1.654-3.879,1.654-4.544,0-.243-.243-.5-.419-.658-.574-.662-.486-1.155-.486-1.982,0-7.519,4.544-17.185,8.42-23.543a51.9,51.9,0,0,1,7.435-9.5A5.965,5.965,0,0,1,33.95,8.009a9.317,9.317,0,0,1,3.059.334c.412.246.327.9.327,1.317a15.389,15.389,0,0,1-2.475,8.674,1.923,1.923,0,0,1-1.658.827,4.152,4.152,0,0,0-3.3,1.732C27.923,23.043,23.54,31.8,23.54,34.526c0,2.394,1.492,2.394,1.492,3.717,0,2.731-4.214,8.758-6.449,8.758-.9,0-1.651-.581-1.979-.581-.662,0-.912,1.9-.912,2.316,0,5.942,7.934,7.762,12.725,7.762,15.528,0,28.168-11.4,28.168-27.176,0-14.785-12.229-26.436-26.929-26.436A26.687,26.687,0,0,0,2.891,29.323a27.125,27.125,0,0,0,7.435,18.671,3.143,3.143,0,0,1-1.155.327m20.322-6.192c0,2.063-3.471,7.347-5.54,7.347a9.56,9.56,0,0,1-3.792-1.567c3.38-1.982,5.372-5.453,6.354-9.17,1,1,2.978,1.9,2.978,3.39M42.137,10.821c.82.743.9.658.9,1.732a11.358,11.358,0,0,1-1.57,5.865c-.824,1.4-.824,1.735-2.39,1.735a9.492,9.492,0,0,1-3.062-.581,18.556,18.556,0,0,0,3.39-10.4,7.575,7.575,0,0,1,2.731,1.651" transform="translate(0.002 0.001)" fill="#008d80"/>
  </g>
</svg>
