<svg id="Group_31" data-name="Group 31" xmlns="http://www.w3.org/2000/svg" xmlns:xlink="http://www.w3.org/1999/xlink" width="72" height="69.541" viewBox="0 0 72 69.541">
  <defs>
    <clipPath id="clip-path">
      <rect id="Rectangle_88" data-name="Rectangle 88" width="72" height="69.541"/>
    </clipPath>
  </defs>
  <g id="Group_30" data-name="Group 30" clip-path="url(#clip-path)">
    <path id="Path_7063" data-name="Path 7063" d="M68.828,75.9H3.172A3.175,3.175,0,0,1,0,72.725V15.978a3.176,3.176,0,0,1,3.172-3.172h8.693a1.007,1.007,0,1,1,0,2.015H3.172a1.159,1.159,0,0,0-1.157,1.157V72.725a1.159,1.159,0,0,0,1.157,1.157H68.828a1.159,1.159,0,0,0,1.157-1.157V15.978a1.159,1.159,0,0,0-1.157-1.157h-8.12a1.007,1.007,0,1,1,0-2.015h8.12A3.176,3.176,0,0,1,72,15.978V72.725A3.175,3.175,0,0,1,68.828,75.9" transform="translate(0 -6.356)"/>
    <path id="Path_7064" data-name="Path 7064" d="M70.961,14.821H47.976a1.007,1.007,0,0,1,0-2.015H70.961a1.007,1.007,0,1,1,0,2.015" transform="translate(-23.313 -6.356)"/>
    <path id="Path_7065" data-name="Path 7065" d="M70.993,41.586H1.007a1.007,1.007,0,1,1,0-2.015H70.993a1.007,1.007,0,1,1,0,2.015" transform="translate(0 -19.641)"/>
    <path id="Path_7066" data-name="Path 7066" d="M35.107,14.029A1.008,1.008,0,0,1,34.1,13.022V1.007a1.007,1.007,0,0,1,2.015,0V13.022a1.008,1.008,0,0,1-1.007,1.007" transform="translate(-16.925)"/>
    <path id="Path_7067" data-name="Path 7067" d="M107.192,14.029a1.008,1.008,0,0,1-1.007-1.007V1.007a1.007,1.007,0,0,1,2.015,0V13.022a1.008,1.008,0,0,1-1.007,1.007" transform="translate(-52.705)"/>
    <path id="Path_7068" data-name="Path 7068" d="M31.441,63.853h-.247A1.955,1.955,0,0,1,29.242,61.9v-.247A1.955,1.955,0,0,1,31.195,59.7h.247a1.955,1.955,0,0,1,1.953,1.953V61.9a1.955,1.955,0,0,1-1.953,1.953m-.185-2.015h.123v-.123h-.123Z" transform="translate(-14.514 -29.633)"/>
    <path id="Path_7069" data-name="Path 7069" d="M57.085,63.853h-.247A1.955,1.955,0,0,1,54.886,61.9v-.247A1.955,1.955,0,0,1,56.839,59.7h.247a1.955,1.955,0,0,1,1.953,1.953V61.9a1.955,1.955,0,0,1-1.953,1.953M56.9,61.838h.123v-.123H56.9Z" transform="translate(-27.243 -29.633)"/>
    <path id="Path_7070" data-name="Path 7070" d="M82.12,63.853h-.247A1.955,1.955,0,0,1,79.921,61.9v-.247A1.955,1.955,0,0,1,81.874,59.7h.247a1.955,1.955,0,0,1,1.953,1.953V61.9a1.955,1.955,0,0,1-1.953,1.953m-.185-2.015h.123v-.123h-.123Z" transform="translate(-39.669 -29.633)"/>
    <path id="Path_7071" data-name="Path 7071" d="M105.928,63.853h-.247a1.955,1.955,0,0,1-1.952-1.953v-.247a1.955,1.955,0,0,1,1.952-1.953h.247a1.955,1.955,0,0,1,1.953,1.953V61.9a1.955,1.955,0,0,1-1.953,1.953m-.185-2.015h.123v-.123h-.123Z" transform="translate(-51.486 -29.633)"/>
    <path id="Path_7072" data-name="Path 7072" d="M31.7,88.84h-.247A1.955,1.955,0,0,1,29.5,86.887v-.247a1.955,1.955,0,0,1,1.953-1.953H31.7a1.955,1.955,0,0,1,1.953,1.953v.247A1.955,1.955,0,0,1,31.7,88.84m-.185-2.015h.123V86.7h-.123Z" transform="translate(-14.641 -42.035)"/>
    <path id="Path_7073" data-name="Path 7073" d="M57.341,88.84H57.1a1.955,1.955,0,0,1-1.953-1.953v-.247A1.955,1.955,0,0,1,57.1,84.688h.246a1.955,1.955,0,0,1,1.953,1.953v.247a1.955,1.955,0,0,1-1.953,1.953m-.185-2.015h.123V86.7h-.123Z" transform="translate(-27.37 -42.035)"/>
    <path id="Path_7074" data-name="Path 7074" d="M82.377,88.84h-.247a1.955,1.955,0,0,1-1.953-1.953v-.247a1.955,1.955,0,0,1,1.953-1.953h.247a1.955,1.955,0,0,1,1.953,1.953v.247a1.955,1.955,0,0,1-1.953,1.953m-.185-2.015h.123V86.7h-.123Z" transform="translate(-39.796 -42.035)"/>
    <path id="Path_7075" data-name="Path 7075" d="M106.185,88.84h-.247a1.955,1.955,0,0,1-1.953-1.953v-.247a1.955,1.955,0,0,1,1.953-1.953h.247a1.955,1.955,0,0,1,1.952,1.953v.247a1.955,1.955,0,0,1-1.952,1.953M106,86.826h.123V86.7H106Z" transform="translate(-51.613 -42.035)"/>
    <path id="Path_7076" data-name="Path 7076" d="M32.008,112.6h-.247a1.955,1.955,0,0,1-1.953-1.953V110.4a1.955,1.955,0,0,1,1.953-1.953h.247a1.955,1.955,0,0,1,1.953,1.953v.247a1.955,1.955,0,0,1-1.953,1.953m-.185-2.015h.123v-.123h-.123Z" transform="translate(-14.796 -53.828)"/>
    <path id="Path_7077" data-name="Path 7077" d="M57.651,112.6H57.4a1.955,1.955,0,0,1-1.953-1.953V110.4a1.955,1.955,0,0,1,1.953-1.953h.247A1.955,1.955,0,0,1,59.6,110.4v.247a1.955,1.955,0,0,1-1.953,1.953m-.185-2.015h.123v-.123h-.123Z" transform="translate(-27.524 -53.828)"/>
    <path id="Path_7078" data-name="Path 7078" d="M82.686,112.6H82.44a1.955,1.955,0,0,1-1.953-1.953V110.4a1.955,1.955,0,0,1,1.953-1.953h.247a1.955,1.955,0,0,1,1.953,1.953v.247a1.955,1.955,0,0,1-1.953,1.953m-.185-2.015h.123v-.123H82.5Z" transform="translate(-39.95 -53.828)"/>
  </g>
</svg>
