<svg xmlns="http://www.w3.org/2000/svg" xmlns:xlink="http://www.w3.org/1999/xlink" width="62.24" height="62.148" viewBox="0 0 62.24 62.148">
  <defs>
    <clipPath id="clip-path">
      <rect id="Rectangle_75" data-name="Rectangle 75" width="62.24" height="62.148" fill="none"/>
    </clipPath>
  </defs>
  <g id="Group_23" data-name="Group 23" transform="translate(0 0)">
    <g id="Group_22" data-name="Group 22" transform="translate(0 0)" clip-path="url(#clip-path)">
      <path id="Path_7062" data-name="Path 7062" d="M9.6,50.564c-2.081,0-3.8-2.5-4.752-3.975A29.251,29.251,0,0,1,0,30.853,30.985,30.985,0,0,1,30.861,0C47.8,0,62.241,13.651,62.241,30.772c0,18.064-14.266,31.376-32.065,31.376-6.144,0-16.347-2.682-16.347-10.461,0-2.939,1.731-4.059,1.731-4.755,0-.254-.254-.519-.438-.689-.6-.692-.509-1.208-.509-2.074,0-7.868,4.755-17.983,8.811-24.635A54.307,54.307,0,0,1,31.2,9.6,6.241,6.241,0,0,1,35.525,8.38a9.749,9.749,0,0,1,3.2.35c.431.258.343.943.343,1.378a16.1,16.1,0,0,1-2.59,9.076,2.012,2.012,0,0,1-1.735.866,4.345,4.345,0,0,0-3.452,1.812c-2.074,2.25-6.66,11.415-6.66,14.266,0,2.5,1.562,2.5,1.562,3.89,0,2.858-4.409,9.164-6.748,9.164-.943,0-1.728-.608-2.07-.608-.692,0-.954,1.989-.954,2.424,0,6.218,8.3,8.122,13.316,8.122,16.248,0,29.475-11.927,29.475-28.437,0-15.471-12.8-27.663-28.179-27.663A27.926,27.926,0,0,0,3.025,30.684,28.384,28.384,0,0,0,10.8,50.221a3.288,3.288,0,0,1-1.208.343m21.265-6.479c0,2.159-3.632,7.688-5.8,7.688A10,10,0,0,1,21.1,50.133c3.536-2.074,5.621-5.706,6.649-9.6,1.042,1.042,3.116,1.986,3.116,3.547M44.092,11.323c.859.777.943.689.943,1.812a11.885,11.885,0,0,1-1.643,6.137c-.862,1.47-.862,1.816-2.5,1.816a9.932,9.932,0,0,1-3.2-.608A19.417,19.417,0,0,0,41.234,9.6a7.926,7.926,0,0,1,2.858,1.728" transform="translate(0.003 0.001)" fill="#040000"/>
    </g>
  </g>
</svg>
