<svg xmlns="http://www.w3.org/2000/svg" width="40" height="40" viewBox="0 0 40 40">
  <g id="Group_58" data-name="Group 58" transform="translate(-619 -3571)">
    <path id="Path_7080" data-name="Path 7080" d="M.486,20.47a1.659,1.659,0,0,0,2.346,0l8.819-8.819a1.66,1.66,0,0,0,0-2.347L2.832.486A1.659,1.659,0,0,0,.486,2.832l7.646,7.646L.486,18.123a1.659,1.659,0,0,0,0,2.347" transform="translate(649.478 3586.526) rotate(90)" fill="#008d80"/>
    <path id="Path_7081" data-name="Path 7081" d="M20,40A20,20,0,1,0,0,20,20.022,20.022,0,0,0,20,40M20,3.319A16.681,16.681,0,1,1,3.319,20,16.7,16.7,0,0,1,20,3.319" transform="translate(659 3571.001) rotate(90)"/>
    <rect id="Rectangle_96" data-name="Rectangle 96" width="40" height="40" transform="translate(659 3571) rotate(90)" fill="none"/>
  </g>
</svg>
