<svg id="Group_49" data-name="Group 49" xmlns="http://www.w3.org/2000/svg" xmlns:xlink="http://www.w3.org/1999/xlink" width="70.18" height="47.99" viewBox="0 0 70.18 47.99">
  <defs>
    <clipPath id="clip-path">
      <rect id="Rectangle_163" data-name="Rectangle 163" width="70.18" height="47.99" fill="#fff"/>
    </clipPath>
  </defs>
  <g id="Group_49-2" data-name="Group 49" clip-path="url(#clip-path)">
    <path id="Path_7170" data-name="Path 7170" d="M64.053,47.99H6.126A6.133,6.133,0,0,1,0,41.863V6.127A6.134,6.134,0,0,1,6.126,0H64.053A6.134,6.134,0,0,1,70.18,6.127V41.863a6.134,6.134,0,0,1-6.127,6.127M6.126,1.853A4.279,4.279,0,0,0,1.853,6.127V41.863a4.278,4.278,0,0,0,4.274,4.274H64.053a4.279,4.279,0,0,0,4.275-4.274V6.127a4.279,4.279,0,0,0-4.275-4.275Z" fill="#fff"/>
    <path id="Path_7171" data-name="Path 7171" d="M41.439,38a8.7,8.7,0,0,1-6.171-2.552L12.794,12.978a.926.926,0,1,1,1.31-1.31L36.578,34.142a6.883,6.883,0,0,0,9.722,0L69.521,10.921a.926.926,0,0,1,1.31,1.31L47.61,35.452A8.7,8.7,0,0,1,41.439,38" transform="translate(-6.722 -5.717)" fill="#fff"/>
    <path id="Path_7172" data-name="Path 7172" d="M12.709,68.334a.926.926,0,0,1-.647-1.589L29.4,49.8a.926.926,0,0,1,1.3,1.324L13.357,68.07a.922.922,0,0,1-.648.264" transform="translate(-6.326 -26.59)" fill="#fff"/>
    <path id="Path_7173" data-name="Path 7173" d="M115.645,68.375a.921.921,0,0,1-.622-.24L96.887,51.694a.926.926,0,1,1,1.244-1.372l18.136,16.44a.926.926,0,0,1-.622,1.612" transform="translate(-51.85 -26.886)" fill="#fff"/>
  </g>
</svg>
