<svg xmlns="http://www.w3.org/2000/svg" viewBox="0 0 47.12 54.05"><defs><style>.cls-1{fill:#e5e3de;}.cls-2{fill:#fff;}.cls-3{fill:#484f4f;}</style></defs><g id="Layer_2" data-name="Layer 2"><g id="レイヤー_3" data-name="レイヤー 3"><path class="cls-1" d="M38.08,4.59a33.51,33.51,0,0,0-5.2.68,37.25,37.25,0,0,1-6,.75,37.14,37.14,0,0,1-6-.75,33.66,33.66,0,0,0-5.2-.68A6.43,6.43,0,0,0,11.46,7c-1.22,1.35-3.1,4.24-3.1,9.3a21.42,21.42,0,0,0,.12,2.2,50.59,50.59,0,0,0,3.71,14.12,35,35,0,0,1,2.41,8.13c1.29,10.34,3,11.53,3.46,11.64.68-.49,1.85-4,2.71-6.62,2.12-6.44,3.69-10.65,6.13-10.65s4,4.21,6.14,10.65c.86,2.6,2,6.13,2.71,6.62.5-.11,2.17-1.3,3.46-11.64a34,34,0,0,1,2.41-8.13,51.28,51.28,0,0,0,3.71-14.12,21.3,21.3,0,0,0,.11-2.2c0-5.06-1.87-7.95-3.09-9.3A6.45,6.45,0,0,0,38.08,4.59Z"/><path class="cls-2" d="M38.08,4.59a33.51,33.51,0,0,0-5.2.68,37.25,37.25,0,0,1-6,.75,37.14,37.14,0,0,1-6-.75,33.66,33.66,0,0,0-5.2-.68A6.43,6.43,0,0,0,11.46,7c-1.22,1.35-3.1,4.24-3.1,9.3a21.42,21.42,0,0,0,.12,2.2,50.59,50.59,0,0,0,3.71,14.12,35,35,0,0,1,2.41,8.13L42.35,7A6.45,6.45,0,0,0,38.08,4.59Z"/><path class="cls-3" d="M35.85,17.6V12a.84.84,0,1,0-1.67,0V17.6a.84.84,0,1,0,1.67,0Z"/><path class="cls-3" d="M35.85,9.75V8.65a.84.84,0,1,0-1.67,0v1.1a.84.84,0,1,0,1.67,0Z"/><path class="cls-3" d="M35.85,6.43V.84a.84.84,0,1,0-1.67,0V6.43a.84.84,0,1,0,1.67,0Z"/><path class="cls-3" d="M32.73,10.06a.84.84,0,0,0,0-1.68H29.62a.84.84,0,0,0,0,1.68Z"/><path class="cls-3" d="M40.6,10.06a.84.84,0,1,0,0-1.68H37.25a.84.84,0,0,0,0,1.68Z"/><path class="cls-3" d="M7.07,46.17V40.58a.84.84,0,1,0-1.68,0v5.59a.84.84,0,0,0,1.68,0Z"/><path class="cls-3" d="M7.07,38.32v-1.1a.84.84,0,1,0-1.68,0v1.1a.84.84,0,0,0,1.68,0Z"/><path class="cls-3" d="M7.07,35V29.41a.84.84,0,1,0-1.68,0V35a.84.84,0,0,0,1.68,0Z"/><path class="cls-3" d="M3.94,38.63a.84.84,0,1,0,0-1.68H.84a.84.84,0,0,0,0,1.68Z"/><path class="cls-3" d="M11.82,38.63a.84.84,0,0,0,0-1.68H8.47a.84.84,0,1,0,0,1.68Z"/><path class="cls-3" d="M15.73,4.59a33.66,33.66,0,0,1,5.2.68,37.14,37.14,0,0,0,6,.75,30.63,30.63,0,0,0,5-.57.84.84,0,0,0-.29-1.65,30.15,30.15,0,0,1-4.67.55,35.94,35.94,0,0,1-5.68-.73,34.75,34.75,0,0,0-5.49-.7,8,8,0,0,0-5.51,2.93c-1.58,1.73-4.11,5.7-3.41,12.78a52.55,52.55,0,0,0,3.81,14.56l.31.8a.83.83,0,0,0,1.08.48.84.84,0,0,0,.49-1.08l-.31-.8A50.59,50.59,0,0,1,8.48,18.47c-.64-6.44,1.59-10,3-11.5A6.43,6.43,0,0,1,15.73,4.59Z"/><path class="cls-3" d="M41.62,32.59a34,34,0,0,0-2.41,8.13c-1.29,10.34-3,11.53-3.46,11.64-.68-.49-1.85-4-2.71-6.62-2.12-6.44-3.69-10.65-6.14-10.65s-4,4.21-6.13,10.65c-.86,2.6-2,6.13-2.71,6.62-.51-.11-2.17-1.3-3.46-11.64a.84.84,0,1,0-1.66.21c1.14,9.2,2.7,13.12,5.21,13.12,1.57,0,2.47-2.53,4.21-7.79,1.09-3.32,3.13-9.5,4.54-9.5s3.45,6.18,4.55,9.5c1.73,5.26,2.64,7.79,4.21,7.79,2.51,0,4.06-3.92,5.21-13.12a33.61,33.61,0,0,1,2.31-7.74A52.18,52.18,0,0,0,47,18.63c.7-7.08-1.84-11-3.41-12.78a8,8,0,0,0-5.51-2.93.84.84,0,1,0,0,1.67A6.45,6.45,0,0,1,42.35,7c1.22,1.35,3.09,4.24,3.09,9.3a21.17,21.17,0,0,1-.11,2.2A51.28,51.28,0,0,1,41.62,32.59Z"/></g></g></svg>